<svg width="191" height="165" viewBox="0 0 191 165" fill="none" xmlns="http://www.w3.org/2000/svg">
<path d="M32.5567 121.006L132.956 121.007L183.713 124.612C187.76 124.9 190.897 128.267 190.897 132.325C190.897 138.293 187.092 143.596 181.439 145.508L158.694 153.201C157.225 153.698 155.803 154.324 154.444 155.071L148.493 158.344C138.442 163.871 126.796 165.774 115.509 163.734L61.686 154.007C57.1644 153.19 52.531 153.213 48.0177 154.075C36.3496 156.302 24.2998 155.404 13.0911 151.47L7.33354 149.45C6.89671 149.296 6.48887 149.07 6.12718 148.782C-2.78342 141.663 -0.650419 127.568 9.96759 123.405L15.2023 121.352C15.7861 121.124 16.4075 121.006 17.0345 121.006L32.5567 121.006Z" fill="#F3F3F3"/>
<path d="M22 141V12.599L52.5687 1H169V127.275L149.797 141H22Z" fill="white"/>
<path d="M22 12.599V141H149.797M22 12.599H149.797M22 12.599L52.5687 1H169M149.797 141L169 127.275V1M149.797 141V12.599M169 1L149.797 12.599" stroke="#C5C5C5" stroke-linecap="round"/>
<rect x="37" y="41" width="95" height="63" fill="#ED3237"/>
<path d="M92.9995 54.9961L78.1503 69.8453" stroke="white" stroke-width="2" stroke-linecap="round"/>
<path d="M77.833 54.9961L92.6822 69.8453" stroke="white" stroke-width="2" stroke-linecap="round"/>
<path d="M72 93.8167V83.825H78.9839V85.3222H74.051V88.1486H78.2589V89.6458H74.051V93.8167H72Z" fill="white"/>
<path d="M82.3013 94C81.5469 94 80.9281 93.7963 80.4448 93.3889C79.9734 92.9815 79.7376 92.4519 79.7376 91.8C79.7376 90.9954 80.1443 90.3741 80.9576 89.9361C81.7709 89.488 83.0675 89.1824 84.8473 89.0194C84.8355 88.6222 84.7118 88.281 84.476 87.9958C84.2521 87.7005 83.8454 87.5528 83.2561 87.5528C82.8317 87.5528 82.4133 87.6241 82.0007 87.7667C81.6 87.9093 81.2051 88.0824 80.8161 88.2861L80.0736 87.1097C80.5568 86.8449 81.099 86.6157 81.7002 86.4222C82.3131 86.2287 82.9614 86.1319 83.645 86.1319C84.7295 86.1319 85.5369 86.412 86.0673 86.9722C86.6095 87.5222 86.8806 88.3218 86.8806 89.3708V93.8167H85.2009L85.0595 92.9917H84.9888C84.5998 93.2769 84.1814 93.5162 83.7334 93.7097C83.2973 93.9032 82.8199 94 82.3013 94ZM82.9555 92.625C83.3091 92.625 83.6274 92.5537 83.9103 92.4111C84.2049 92.2583 84.5173 92.0546 84.8473 91.8V90.1194C83.6686 90.2519 82.8494 90.4505 82.3897 90.7153C81.93 90.9699 81.7002 91.2856 81.7002 91.6625C81.7002 91.9986 81.818 92.2431 82.0538 92.3958C82.2895 92.5486 82.5901 92.625 82.9555 92.625Z" fill="white"/>
<path d="M89.3139 93.8167V86.3153H91.3472V93.8167H89.3139ZM90.3394 85.0014C89.974 85.0014 89.6793 84.9097 89.4553 84.7264C89.2314 84.5431 89.1194 84.2986 89.1194 83.9931C89.1194 83.6977 89.2314 83.4583 89.4553 83.275C89.6793 83.0917 89.974 83 90.3394 83C90.7048 83 90.9995 83.0917 91.2234 83.275C91.4474 83.4583 91.5593 83.6977 91.5593 83.9931C91.5593 84.2986 91.4474 84.5431 91.2234 84.7264C90.9995 84.9097 90.7048 85.0014 90.3394 85.0014Z" fill="white"/>
<path d="M95.9215 94C95.2025 94 94.6897 93.8116 94.3833 93.4347C94.0886 93.0579 93.9412 92.5435 93.9412 91.8917V83.0306H95.9745V91.9833C95.9745 92.1972 96.0217 92.35 96.116 92.4417C96.2103 92.5231 96.3105 92.5639 96.4165 92.5639C96.4637 92.5639 96.5049 92.5639 96.5403 92.5639C96.5875 92.5537 96.6523 92.5435 96.7348 92.5333L97 93.8472C96.8821 93.888 96.7289 93.9236 96.5403 93.9542C96.3635 93.9847 96.1572 94 95.9215 94Z" fill="white"/>
</svg>
