<svg width="33" height="33" viewBox="0 0 33 33" fill="none" xmlns="http://www.w3.org/2000/svg">
<path d="M30.9375 11.1367L27.5 13.0273L24.0625 16.293V27.4992H28.875C30.0142 27.4992 30.9375 26.5759 30.9375 25.4367V11.1367Z" fill="#4CAF50"/>
<path d="M2.0625 11.1367L4.54712 12.3123L8.9375 16.293V27.4992H4.125C2.98581 27.4992 2.0625 26.5759 2.0625 25.4367V11.1367Z" fill="#1E88E5"/>
<path d="M24.0625 7.69922L16.5 13.3711L8.9375 7.69922L8.25 11.6867L8.9375 16.293L16.5 21.9648L24.0625 16.293L24.75 11.6867L24.0625 7.69922Z" fill="#E53935"/>
<path d="M2.0625 8.45488V11.1375L8.9375 16.2938V7.7L6.78975 6.09056C6.27825 5.70694 5.65675 5.5 5.01737 5.5C3.38525 5.5 2.0625 6.82275 2.0625 8.45488Z" fill="#C62828"/>
<path d="M30.9375 8.45488V11.1375L24.0625 16.2938V7.7L26.2103 6.09056C26.7218 5.70694 27.3432 5.5 27.9826 5.5C29.6147 5.5 30.9375 6.82275 30.9375 8.45488Z" fill="#FBC02D"/>
</svg>
