<svg width="17" height="23" viewBox="0 0 17 23" fill="none" xmlns="http://www.w3.org/2000/svg">
<path d="M6.00519 0C6.52263 0.0147329 7.01421 0.232833 7.37623 0.608296C7.73825 0.983758 7.94241 1.48723 7.94563 2.0125V6.49814C8.16706 6.30063 8.42571 6.15082 8.70589 6.05778C8.98608 5.96474 9.28197 5.93041 9.57563 5.95687C9.86928 5.98334 10.1546 6.07004 10.4142 6.21174C10.6739 6.35343 10.9024 6.54715 11.0861 6.78117C11.5492 6.51072 12.0988 6.43666 12.6154 6.57507C13.132 6.71349 13.5739 7.05319 13.845 7.52036C16.0203 7.11722 17 8.50617 17 10.7787C17 10.902 16.9912 11.3748 16.9912 11.4974C16.9987 14.2811 15.6161 14.9519 15.295 17.0558C15.2558 17.3096 15.1285 17.5409 14.9361 17.7078C14.7436 17.8748 14.4987 17.9664 14.2455 17.9662H6.65179C6.24117 17.9663 5.83932 17.8457 5.49484 17.6189C5.15036 17.3921 4.878 17.0689 4.71071 16.6884C4.13525 15.3908 2.53983 12.4021 1.28754 11.8578C0.915853 11.7312 0.592205 11.4903 0.361494 11.1686C0.130783 10.8469 0.00444374 10.4603 0 10.0625C0.000733217 9.70628 0.0883767 9.35578 0.255107 9.04229C0.421837 8.72881 0.662465 8.4621 0.955512 8.26596C1.24856 8.06983 1.5849 7.95037 1.93453 7.91826C2.28415 7.88615 2.63616 7.94239 2.95915 8.08194C3.34802 8.25482 3.71777 8.46898 4.06222 8.72083V2.0125C4.07329 1.48927 4.28034 0.989963 4.64127 0.616121C5.00219 0.242278 5.48989 0.0219699 6.00519 0V0ZM6.0203 18.6875H14.52C14.6596 18.6874 14.7978 18.7153 14.9268 18.7694C15.0558 18.8236 15.173 18.903 15.2717 19.0032C15.3704 19.1033 15.4486 19.2223 15.502 19.3531C15.5554 19.484 15.5828 19.6243 15.5828 19.7659V21.9222C15.5828 22.208 15.4709 22.4822 15.2717 22.6843C15.0725 22.8864 14.8023 23 14.5206 23H6.02093C5.73923 23 5.46907 22.8864 5.26987 22.6843C5.07068 22.4822 4.95878 22.208 4.95878 21.9222V19.7659C4.9587 19.6244 4.98611 19.4841 5.03945 19.3533C5.09279 19.2225 5.17101 19.1036 5.26965 19.0034C5.36829 18.9033 5.48541 18.8238 5.61431 18.7696C5.74322 18.7154 5.88139 18.6875 6.02093 18.6875H6.0203ZM13.4578 19.9455C13.2828 19.9455 13.1116 19.9982 12.966 20.0969C12.8205 20.1956 12.707 20.3359 12.64 20.5C12.573 20.6641 12.5555 20.8447 12.5896 21.019C12.6238 21.1932 12.7081 21.3533 12.8319 21.4789C12.9557 21.6046 13.1134 21.6901 13.2851 21.7248C13.4569 21.7594 13.6348 21.7416 13.7966 21.6736C13.9584 21.6057 14.0966 21.4905 14.1939 21.3428C14.2911 21.1951 14.3431 21.0214 14.3431 20.8438C14.3431 20.7258 14.3202 20.609 14.2757 20.5C14.2312 20.391 14.166 20.292 14.0838 20.2086C14.0016 20.1252 13.904 20.059 13.7966 20.0138C13.6892 19.9687 13.5741 19.9455 13.4578 19.9455Z" fill="#0098DA"/>
</svg>
