<svg width="101" height="92" viewBox="0 0 101 92" fill="none" xmlns="http://www.w3.org/2000/svg">
<path d="M27.25 18.999H60.9861M26.7639 41.999H60.5M71 14.4883V3.98828C71 2.88371 70.1046 1.98828 69 1.98828H3C1.89543 1.98828 1 2.88371 1 3.98828V80.9883C1 82.0929 1.89543 82.9883 3 82.9883H68.5199C69.6167 82.9883 70.5088 82.105 70.5198 81.0083L71 32.9883V14.4883Z" stroke="black" stroke-width="2" stroke-linecap="round"/>
<mask id="path-2-inside-1_2110_35411" fill="white">
<rect x="8" y="60" width="14" height="14" rx="1"/>
</mask>
<rect x="8" y="60" width="14" height="14" rx="1" stroke="black" stroke-width="4" mask="url(#path-2-inside-1_2110_35411)"/>
<mask id="path-3-inside-2_2110_35411" fill="white">
<rect x="8" y="36" width="14" height="14" rx="1"/>
</mask>
<rect x="8" y="36" width="14" height="14" rx="1" stroke="black" stroke-width="4" mask="url(#path-3-inside-2_2110_35411)"/>
<mask id="path-4-inside-3_2110_35411" fill="white">
<rect x="8" y="12" width="14" height="14" rx="1"/>
</mask>
<rect x="8" y="12" width="14" height="14" rx="1" stroke="black" stroke-width="4" mask="url(#path-4-inside-3_2110_35411)"/>
<path d="M41.8753 58H73.5144C73.6914 58 73.8552 58.0936 73.9451 58.246L79.4 67.4969L82.9177 58.217C82.9699 58.0794 83.0801 57.9717 83.2189 57.9228L98.9594 52.3673C99.3648 52.2242 99.7497 52.6254 99.5901 53.0245L96.2 61.4969V84.6476C96.2 84.8589 96.0672 85.0474 95.8682 85.1185L79.4 91H47.1C46.8239 91 46.6 90.7761 46.6 90.5V67.4969L41.4446 58.754C41.248 58.4207 41.4883 58 41.8753 58Z" fill="#FFCC29"/>
<path d="M79.4 67.4969L73.9451 58.246C73.8552 58.0936 73.6914 58 73.5144 58H41.8753C41.4883 58 41.248 58.4207 41.4446 58.754L46.6 67.4969M79.4 67.4969V91M79.4 67.4969H46.6M79.4 67.4969L96.2 61.4969M79.4 67.4969L82.9177 58.217C82.9699 58.0794 83.0801 57.9717 83.2189 57.9228L98.9594 52.3673C99.3648 52.2242 99.7497 52.6254 99.5901 53.0245L96.2 61.4969M79.4 91H47.1C46.8239 91 46.6 90.7761 46.6 90.5V67.4969M79.4 91L95.8682 85.1185C96.0672 85.0474 96.2 84.8589 96.2 84.6476V61.4969" stroke="black" stroke-width="2" stroke-linecap="round"/>
<path d="M13 19.8667L13.9402 20.9698C14.3765 21.4818 15.1837 21.4255 15.5449 20.858L18 17" stroke="black" stroke-width="2" stroke-linecap="round"/>
<path d="M13 43.2933L14.0268 44.2572C14.453 44.6572 15.13 44.608 15.4938 44.1506L18 41" stroke="black" stroke-width="2" stroke-linecap="round"/>
<path d="M13 66.8667L13.9402 67.9698C14.3765 68.4818 15.1837 68.4255 15.5449 67.858L18 64" stroke="black" stroke-width="2" stroke-linecap="round"/>
</svg>
