<svg width="94" height="67" viewBox="0 0 94 67" fill="none" xmlns="http://www.w3.org/2000/svg">
<path d="M56.688 15.9414H37.2598V51.0583H56.688V15.9414Z" fill="#FF5F00"/>
<path d="M38.4933 33.5013C38.4902 30.1193 39.2522 26.7809 40.7214 23.7388C42.1907 20.6968 44.3288 18.0309 46.9738 15.9428C43.6983 13.3532 39.7645 11.7427 35.6221 11.2955C31.4796 10.8483 27.2956 11.5824 23.5484 13.4139C19.8011 15.2454 16.6417 18.1004 14.4313 21.6525C12.221 25.2047 11.0488 29.3107 11.0488 33.5013C11.0488 37.6918 12.221 41.7978 14.4313 45.35C16.6417 48.9022 19.8011 51.7572 23.5484 53.5887C27.2956 55.4201 31.4796 56.1542 35.6221 55.707C39.7645 55.2598 43.6983 53.6493 46.9738 51.0597C44.3288 48.9716 42.1907 46.3057 40.7215 43.2637C39.2522 40.2216 38.4902 36.8833 38.4933 33.5013Z" fill="#EB001B"/>
<path d="M82.8975 33.5013C82.8977 37.6918 81.7256 41.7978 79.5154 45.3499C77.3051 48.9021 74.1459 51.7571 70.3987 53.5886C66.6515 55.4201 62.4676 56.1542 58.3252 55.707C54.1828 55.2598 50.2491 53.6493 46.9736 51.0597C49.6163 48.9696 51.7528 46.3032 53.2218 43.2616C54.6908 40.2201 55.4541 36.8827 55.4541 33.5013C55.4541 30.1198 54.6908 26.7825 53.2218 23.7409C51.7528 20.6993 49.6163 18.033 46.9736 15.9428C50.2491 13.3532 54.1828 11.7427 58.3252 11.2955C62.4676 10.8483 66.6515 11.5824 70.3987 13.4139C74.1459 15.2454 77.3051 18.1004 79.5154 21.6526C81.7256 25.2048 82.8977 29.3108 82.8975 33.5013Z" fill="#F79E1B"/>
<path d="M80.7798 47.3395V46.6206H81.068V46.4741H80.334V46.6206H80.6223V47.3395H80.7798ZM82.2048 47.3395V46.4727H81.9798L81.7211 47.0689L81.4622 46.4727H81.2371V47.3395H81.3959V46.6856L81.6386 47.2494H81.8034L82.0461 46.6842V47.3395H82.2048Z" fill="#F79E1B"/>
</svg>
