<svg width="82" height="124" viewBox="0 0 82 124" fill="none" xmlns="http://www.w3.org/2000/svg">
<path d="M41.0001 68.7972L53.6608 119.927C53.9137 120.948 55.3698 120.937 55.6059 119.911L58.3897 107.823C58.5634 107.069 59.491 106.79 60.0524 107.322L69.22 116.018C69.962 116.722 71.1571 115.99 70.8672 115.009L55.8073 64.0664" stroke="black" stroke-width="2" stroke-linecap="round"/>
<path d="M41.4364 68.7972L28.7758 119.927C28.5228 120.948 27.0667 120.937 26.8306 119.911L24.0468 107.823C23.8731 107.069 22.9455 106.79 22.3841 107.322L13.2165 116.018C12.4746 116.722 11.2794 115.99 11.5694 115.009L26.6292 64.0664" stroke="black" stroke-width="2" stroke-linecap="round"/>
<path d="M74.5755 31.7073L75.1141 30.8647L74.5755 31.7073L79.0054 34.5393C79.4986 34.8547 79.6167 35.5244 79.2611 35.9894L76.0669 40.1658C75.2442 41.2415 75.2442 42.7351 76.0669 43.8108L79.2611 47.9872C79.6167 48.4522 79.4986 49.1219 79.0054 49.4372L74.5755 52.2693C73.4344 52.9987 72.9236 54.4022 73.3288 55.6945L74.9019 60.7115C75.0771 61.2701 74.737 61.859 74.1657 61.9866L69.0343 63.1327C67.7126 63.428 66.7526 64.5721 66.6913 65.925L66.4537 71.1774C66.4272 71.7623 65.9063 72.1994 65.3257 72.1239L60.1118 71.4459C58.7688 71.2712 57.4754 72.018 56.9551 73.2684L54.9353 78.1228C54.7104 78.6633 54.0714 78.8959 53.5517 78.6264L48.8841 76.206C47.6819 75.5826 46.211 75.8419 45.2945 76.8389L41.7362 80.7098C41.34 81.1408 40.66 81.1408 40.2638 80.7098L36.7055 76.8389C35.789 75.8419 34.3181 75.5826 33.1159 76.206L28.4483 78.6264C27.9286 78.8959 27.2895 78.6633 27.0647 78.1228L25.0449 73.2684C24.5246 72.018 23.2312 71.2712 21.8882 71.4459L16.6743 72.1239C16.0937 72.1994 15.5728 71.7623 15.5463 71.1774L15.3087 65.925C15.2474 64.5721 14.2874 63.428 12.9657 63.1327L7.8343 61.9866C7.26296 61.859 6.92294 61.2701 7.0981 60.7115L8.6712 55.6945C9.07639 54.4022 8.56556 52.9987 7.42453 52.2693L2.99461 49.4372C2.50137 49.1219 2.38329 48.4522 2.73893 47.9872L5.93307 43.8108C6.7558 42.7351 6.7558 41.2415 5.93307 40.1658L2.73893 35.9894C2.38328 35.5244 2.50137 34.8547 2.99461 34.5393L7.42453 31.7073L6.88589 30.8647L7.42453 31.7073C8.56556 30.9778 9.07639 29.5743 8.6712 28.2821L7.0981 23.2651C6.92294 22.7065 7.26296 22.1176 7.8343 21.99L12.9657 20.8438C14.2874 20.5486 15.2474 19.4045 15.3087 18.0516L15.5463 12.7991C15.5728 12.2143 16.0937 11.7772 16.6743 11.8527L21.8882 12.5307C23.2312 12.7053 24.5246 11.9585 25.0449 10.7082L27.0647 5.85377C27.2895 5.31327 27.9286 5.08069 28.4483 5.35018L33.1159 7.77057C34.3181 8.394 35.789 8.13465 36.7055 7.13762L35.9693 6.46086L36.7055 7.13762L40.2638 3.26678C40.66 2.83579 41.34 2.83579 41.7362 3.26678L45.2945 7.13762L46.0307 6.46086L45.2945 7.13762C46.211 8.13465 47.6819 8.394 48.8841 7.77057L53.5517 5.35018C54.0714 5.08069 54.7105 5.31327 54.9353 5.85377L56.9551 10.7082C57.4754 11.9585 58.7688 12.7053 60.1118 12.5307L65.3257 11.8527C65.9063 11.7772 66.4272 12.2143 66.4537 12.7991L66.6913 18.0516C66.7526 19.4045 67.7126 20.5486 69.0343 20.8438L74.1657 21.99C74.737 22.1176 75.0771 22.7065 74.9019 23.2651L73.3288 28.2821C72.9236 29.5743 73.4344 30.9778 74.5755 31.7073Z" fill="#FFCC29" stroke="black" stroke-width="2"/>
<circle cx="41.0001" cy="43.0399" r="25.2821" fill="#FFCC29" stroke="black" stroke-width="2"/>
<path d="M40.9999 32.403L44.0092 37.536C44.2912 38.0169 44.7612 38.3584 45.3057 38.4779L51.1174 39.7538L47.1656 44.202C46.7953 44.6188 46.6158 45.1713 46.6704 45.7261L47.2529 51.6476L41.8012 49.2638C41.2903 49.0404 40.7095 49.0404 40.1986 49.2638L34.7469 51.6476L35.3294 45.7261C35.384 45.1713 35.2045 44.6188 34.8342 44.202L30.8824 39.7538L36.6941 38.4779C37.2387 38.3584 37.7086 38.0169 37.9906 37.536L40.9999 32.403Z" stroke="black" stroke-width="2"/>
</svg>
