<svg width="142" height="70" viewBox="0 0 142 70" fill="none" xmlns="http://www.w3.org/2000/svg">
<path d="M80.8895 15.835V6.92969C78.7409 12.5541 42.3942 13.0228 24.4894 12.5541V15.835H80.8895Z" stroke="#C5C5C5" stroke-width="0.5"/>
<path d="M81.3817 7.30009C81.3817 7.61814 81.1726 7.97854 80.6518 8.37186C80.1367 8.76092 79.3612 9.14689 78.3384 9.5206C76.2958 10.267 73.3258 10.9436 69.6388 11.5134C62.2687 12.6524 52.0782 13.358 40.8159 13.358C29.5536 13.358 19.363 12.6524 11.9929 11.5134C8.30587 10.9436 5.33596 10.267 3.29331 9.5206C2.27053 9.14689 1.49505 8.76092 0.979902 8.37186C0.459115 7.97854 0.25 7.61814 0.25 7.30009C0.25 6.98205 0.459115 6.62165 0.979902 6.22833C1.49505 5.83927 2.27053 5.4533 3.29331 5.07959C5.33596 4.33323 8.30587 3.65661 11.9929 3.0868C19.363 1.94778 29.5536 1.24219 40.8159 1.24219C52.0782 1.24219 62.2687 1.94778 69.6388 3.0868C73.3258 3.65661 76.2958 4.33323 78.3384 5.07959C79.3612 5.4533 80.1367 5.83927 80.6518 6.22833C81.1726 6.62165 81.3817 6.98205 81.3817 7.30009Z" fill="white" stroke="#C5C5C5" stroke-width="0.5"/>
<path d="M60.6025 7.3005C60.6025 7.33543 60.567 7.44585 60.2941 7.6096C60.0397 7.76231 59.6482 7.91827 59.1207 8.07143C58.0695 8.37664 56.5363 8.65455 54.6273 8.88898C50.8128 9.35743 45.536 9.64787 39.7024 9.64787C33.8689 9.64787 28.592 9.35743 24.7776 8.88898C22.8686 8.65455 21.3354 8.37664 20.2842 8.07143C19.7567 7.91827 19.3652 7.76231 19.1107 7.6096C18.8379 7.44585 18.8024 7.33543 18.8024 7.3005C18.8024 7.26556 18.8379 7.15514 19.1107 6.9914C19.3652 6.83869 19.7567 6.68272 20.2842 6.52957C21.3354 6.22436 22.8686 5.94645 24.7776 5.71201C28.592 5.24357 33.8689 4.95312 39.7024 4.95312C45.536 4.95312 50.8128 5.24357 54.6273 5.71201C56.5363 5.94645 58.0695 6.22436 59.1207 6.52957C59.6482 6.68272 60.0397 6.83869 60.2941 6.9914C60.567 7.15514 60.6025 7.26556 60.6025 7.3005Z" fill="#D9D9D9" stroke="#C5C5C5" stroke-width="0.5"/>
<path d="M0.734238 57.3677L0.371002 7.67188C34.1327 19.5384 82.0035 15.3132 93.2275 15.3132H140C140.552 15.3132 141 15.7609 141 16.3132V67.3261C141 67.8783 140.552 68.3261 140 68.3261H108.043C90.2344 68.4759 50.605 69.7617 34.8629 68.3261C17.7567 66.7659 6.85709 62.1652 1.64504 59.0065C1.07352 58.6601 0.739122 58.036 0.734238 57.3677Z" fill="white" stroke="#C5C5C5" stroke-width="0.5"/>
<rect x="69.0161" y="21.7695" width="59.3685" height="40.0737" fill="#ED3237"/>
<path d="M99.1304 30.7656L107.114 30.7656L107.114 35.7981L105.595 35.7981L105.595 32.5656L103.747 32.5656L103.747 35.3328L102.228 35.3328L102.228 32.5656L99.1304 32.5656L99.1304 30.7656Z" fill="black"/>
<path d="M99.1304 37.4317L107.114 37.4317L107.114 39.2316L99.1304 39.2316L99.1304 37.4317Z" fill="black"/>
<path d="M99.1304 42.7431L107.114 40.331L107.114 42.2411L103.391 43.1962C102.959 43.3186 102.534 43.4247 102.118 43.5145C101.702 43.6125 101.273 43.7227 100.832 43.8451L100.832 43.8941C101.273 44.0084 101.702 44.1145 102.118 44.2125C102.534 44.3104 102.959 44.4165 103.391 44.5308L107.114 45.4737L107.114 47.3103L99.1304 44.9104L99.1304 42.7431Z" fill="black"/>
<path d="M99.1304 48.4082L107.114 48.4082L107.114 53.404L105.595 53.404L105.595 50.2082L103.991 50.2082L103.991 52.9264L102.485 52.9264L102.485 50.2082L100.649 50.2082L100.649 53.5264L99.1304 53.5264L99.1304 48.4082Z" fill="black"/>
<path d="M90.3097 27.3086L96.7091 27.3086L96.7091 27.7586L90.6981 27.7586L90.6981 30.7323L90.3097 30.7323L90.3097 27.3086Z" fill="black"/>
<path d="M94.0775 33.0371L92.8831 32.6263L92.8831 34.9153L94.0775 34.5044C94.4594 34.374 94.8252 34.2501 95.1748 34.1327C95.5244 34.0153 95.8966 33.9012 96.2915 33.7903L96.2915 33.7512C95.8966 33.6403 95.5244 33.5262 95.1748 33.4088C94.8252 33.2914 94.4594 33.1675 94.0775 33.0371ZM90.3097 31.2763L96.7091 33.5458L96.7091 33.9958L90.3097 36.2652L90.3097 35.7957L92.5043 35.0424L92.5043 32.4893L90.3097 31.7263L90.3097 31.2763Z" fill="black"/>
<path d="M90.3097 37.4916L96.7091 37.4916L96.7091 39.2328C96.7091 39.8849 96.5829 40.4034 96.3304 40.7881C96.0844 41.1729 95.6927 41.3653 95.1554 41.3653C94.8187 41.3653 94.5242 41.2805 94.2717 41.111C94.0257 40.9414 93.8541 40.6936 93.757 40.3675L93.7182 40.3675C93.6534 40.7849 93.4884 41.1207 93.2229 41.3751C92.964 41.6294 92.6144 41.7566 92.1742 41.7566C91.5592 41.7566 91.093 41.5381 90.7758 41.1012C90.4651 40.6708 90.3097 40.0903 90.3097 39.36L90.3097 37.4916ZM93.893 37.9415L93.893 39.0567C93.893 39.7154 93.9998 40.1882 94.2134 40.4751C94.4335 40.7686 94.7313 40.9153 95.1068 40.9153C95.56 40.9153 95.8772 40.7621 96.0585 40.4555C96.2462 40.149 96.3401 39.6991 96.3401 39.1056L96.3401 37.9415L93.893 37.9415ZM90.6787 37.9415L90.6787 39.2426C90.6787 39.8817 90.7985 40.3871 91.038 40.7588C91.2776 41.1305 91.653 41.3164 92.1645 41.3164C92.6241 41.3164 92.964 41.1338 93.1841 40.7686C93.4107 40.4099 93.524 39.9012 93.524 39.2426L93.524 37.9415L90.6787 37.9415Z" fill="black"/>
<path d="M90.3097 43.3425L96.7091 43.3425L96.7091 46.8739L96.3207 46.8739L96.3207 43.7925L93.9027 43.7925L93.9027 46.375L93.5143 46.375L93.5143 43.7925L90.6981 43.7925L90.6981 46.9717L90.3097 46.9717L90.3097 43.3425Z" fill="black"/>
<path d="M90.3097 48.5725L96.7091 48.5725L96.7091 49.0225L90.6981 49.0225L90.6981 51.9962L90.3097 51.9962L90.3097 48.5725Z" fill="black"/>
<path d="M90.1932 54.8354C90.1932 54.3659 90.2838 53.9485 90.4651 53.5833C90.6464 53.2181 90.8762 52.9084 91.1545 52.654L91.4653 52.9475C91.2063 53.1823 90.9959 53.4627 90.8341 53.7887C90.6787 54.1148 90.601 54.4637 90.601 54.8354C90.601 55.3311 90.7208 55.7224 90.9603 56.0093C91.1999 56.2962 91.5074 56.4397 91.8829 56.4397C92.1483 56.4397 92.3619 56.3875 92.5238 56.2832C92.6856 56.1789 92.8183 56.0386 92.9219 55.8626C93.032 55.693 93.1323 55.5006 93.2229 55.2854L93.6599 54.3072C93.7441 54.1246 93.8477 53.929 93.9707 53.7203C94.1001 53.5181 94.2652 53.3453 94.4659 53.2018C94.6731 53.0649 94.9353 52.9964 95.2525 52.9964C95.5632 52.9964 95.8351 53.0779 96.0682 53.241C96.3077 53.404 96.4922 53.6257 96.6217 53.9061C96.7576 54.1931 96.8256 54.5159 96.8256 54.8746C96.8256 55.2593 96.7479 55.605 96.5926 55.9115C96.4437 56.218 96.2656 56.4691 96.0585 56.6647L95.7672 56.4104C95.9614 56.2212 96.1167 55.9995 96.2333 55.7452C96.3563 55.4908 96.4178 55.2006 96.4178 54.8746C96.4178 54.4507 96.3142 54.105 96.107 53.8377C95.8999 53.5768 95.6215 53.4464 95.2719 53.4464C95.0259 53.4464 94.8252 53.5051 94.6698 53.6225C94.5145 53.7464 94.3882 53.8931 94.2911 54.0626C94.194 54.2387 94.1099 54.405 94.0386 54.5615L93.6114 55.5398C93.5078 55.781 93.3848 56.0028 93.2424 56.2049C93.1064 56.4136 92.9316 56.5799 92.718 56.7038C92.5108 56.8343 92.2422 56.8995 91.912 56.8995C91.5883 56.8995 91.2937 56.8147 91.0283 56.6451C90.7694 56.4756 90.5654 56.2343 90.4165 55.9213C90.2676 55.6147 90.1932 55.2528 90.1932 54.8354Z" fill="black"/>
</svg>
