<svg width="142" height="69" viewBox="0 0 142 69" fill="none" xmlns="http://www.w3.org/2000/svg">
<path d="M80.8895 14.8428V5.9375C78.7409 11.5619 42.3942 12.0306 24.4894 11.5619V14.8428H80.8895Z" stroke="#C5C5C5" stroke-width="0.5"/>
<path d="M81.3817 6.3079C81.3817 6.62595 81.1726 6.98635 80.6518 7.37967C80.1367 7.76873 79.3612 8.1547 78.3384 8.52841C76.2958 9.27477 73.3258 9.95139 69.6388 10.5212C62.2687 11.6602 52.0782 12.3658 40.8159 12.3658C29.5536 12.3658 19.363 11.6602 11.9929 10.5212C8.30587 9.95139 5.33596 9.27477 3.29331 8.52841C2.27053 8.1547 1.49505 7.76873 0.979902 7.37967C0.459115 6.98635 0.25 6.62595 0.25 6.3079C0.25 5.98986 0.459115 5.62946 0.979902 5.23614C1.49505 4.84708 2.27053 4.46111 3.29331 4.0874C5.33596 3.34104 8.30587 2.66442 11.9929 2.09461C19.363 0.955594 29.5536 0.25 40.8159 0.25C52.0782 0.25 62.2687 0.955594 69.6388 2.09461C73.3258 2.66442 76.2958 3.34104 78.3384 4.0874C79.3612 4.46111 80.1367 4.84708 80.6518 5.23614C81.1726 5.62946 81.3817 5.98986 81.3817 6.3079Z" fill="white" stroke="#C5C5C5" stroke-width="0.5"/>
<path d="M60.6025 6.30831C60.6025 6.34324 60.567 6.45367 60.2942 6.61741C60.0397 6.77012 59.6482 6.92609 59.1207 7.07924C58.0695 7.38445 56.5363 7.66236 54.6273 7.89679C50.8129 8.36524 45.536 8.65568 39.7025 8.65568C33.8689 8.65568 28.5921 8.36524 24.7776 7.89679C22.8686 7.66236 21.3354 7.38445 20.2842 7.07924C19.7567 6.92609 19.3652 6.77012 19.1108 6.61741C18.8379 6.45367 18.8024 6.34324 18.8024 6.30831C18.8024 6.27338 18.8379 6.16295 19.1108 5.99921C19.3652 5.8465 19.7567 5.69053 20.2842 5.53738C21.3354 5.23217 22.8686 4.95426 24.7776 4.71983C28.5921 4.25138 33.8689 3.96094 39.7025 3.96094C45.536 3.96094 50.8129 4.25138 54.6273 4.71983C56.5363 4.95426 58.0695 5.23217 59.1207 5.53738C59.6482 5.69053 60.0397 5.8465 60.2942 5.99921C60.567 6.16295 60.6025 6.27338 60.6025 6.30831Z" fill="#D9D9D9" stroke="#C5C5C5" stroke-width="0.5"/>
<path d="M0.734207 56.3755L0.370972 6.67969C34.1326 18.5462 82.0035 14.321 93.2274 14.321H140C140.552 14.321 141 14.7687 141 15.321V66.3339C141 66.8862 140.552 67.3339 140 67.3339H108.043C90.2344 67.4837 50.6049 68.7696 34.8629 67.3339C17.7566 65.7738 6.85706 61.173 1.64501 58.0143C1.07349 57.6679 0.739092 57.0438 0.734207 56.3755Z" fill="white" stroke="#C5C5C5" stroke-width="0.5"/>
<rect x="69.0161" y="20.7773" width="59.3685" height="40.0737" fill="#999696"/>
<path d="M87.3152 40.6358V32.6523H92.3477V34.1707H89.1152V36.0196H91.8824V37.5379H89.1152V40.6358H87.3152Z" fill="white"/>
<path d="M93.9813 40.6358V32.6523H95.7813V40.6358H93.9813Z" fill="white"/>
<path d="M99.2928 40.6358L96.8806 32.6523H98.7907L99.7458 36.3747C99.8682 36.8073 99.9744 37.2318 100.064 37.6481C100.162 38.0644 100.272 38.493 100.395 38.9338H100.444C100.558 38.493 100.664 38.0644 100.762 37.6481C100.86 37.2318 100.966 36.8073 101.08 36.3747L102.023 32.6523H103.86L101.46 40.6358H99.2928Z" fill="white"/>
<path d="M104.958 40.6358V32.6523L109.954 32.6523V34.1707H106.758V35.7747H109.476V37.2808H106.758V39.1174H110.076V40.6358H104.958Z" fill="white"/>
<path d="M83.8582 49.4573V43.0579H84.3081V49.0689H87.2819V49.4573H83.8582Z" fill="white"/>
<path d="M89.5867 45.6895L89.1758 46.884H91.4648L91.054 45.6895C90.9236 45.3076 90.7996 44.9418 90.6823 44.5922C90.5649 44.2426 90.4508 43.8704 90.3399 43.4755H90.3008C90.1899 43.8704 90.0758 44.2426 89.9584 44.5922C89.841 44.9418 89.7171 45.3076 89.5867 45.6895ZM87.8259 49.4573L90.0953 43.0579H90.5453L92.8148 49.4573H92.3452L91.592 47.2627H89.0389L88.2759 49.4573H87.8259Z" fill="white"/>
<path d="M94.0411 49.4573V43.0579H95.7823C96.4345 43.0579 96.9529 43.1842 97.3377 43.4367C97.7225 43.6827 97.9148 44.0743 97.9148 44.6117C97.9148 44.9483 97.8301 45.2429 97.6605 45.4953C97.491 45.7413 97.2431 45.9129 96.9171 46.01V46.0488C97.3344 46.1136 97.6703 46.2787 97.9246 46.5441C98.179 46.803 98.3061 47.1526 98.3061 47.5929C98.3061 48.2079 98.0877 48.674 97.6507 48.9912C97.2203 49.3019 96.6399 49.4573 95.9095 49.4573H94.0411ZM94.4911 45.8741H95.6063C96.2649 45.8741 96.7377 45.7672 97.0247 45.5536C97.3181 45.3335 97.4649 45.0357 97.4649 44.6602C97.4649 44.207 97.3116 43.8898 97.0051 43.7086C96.6986 43.5208 96.2486 43.4269 95.6552 43.4269H94.4911V45.8741ZM94.4911 49.0883H95.7921C96.4312 49.0883 96.9366 48.9685 97.3084 48.729C97.6801 48.4895 97.8659 48.114 97.8659 47.6026C97.8659 47.1429 97.6833 46.803 97.3181 46.5829C96.9595 46.3564 96.4508 46.2431 95.7921 46.2431H94.4911V49.0883Z" fill="white"/>
<path d="M99.8921 49.4573V43.0579H103.423V43.4464H100.342V45.8643H102.925V46.2528H100.342V49.0689H103.521V49.4573H99.8921Z" fill="white"/>
<path d="M105.122 49.4573V43.0579H105.572V49.0689H108.546V49.4573H105.122Z" fill="white"/>
<path d="M111.385 49.5738C110.915 49.5738 110.498 49.4832 110.133 49.3019C109.768 49.1207 109.458 48.8909 109.204 48.6125L109.497 48.3017C109.732 48.5607 110.012 48.7711 110.338 48.9329C110.664 49.0883 111.013 49.166 111.385 49.166C111.881 49.166 112.272 49.0462 112.559 48.8067C112.846 48.5672 112.989 48.2597 112.989 47.8842C112.989 47.6187 112.937 47.4051 112.833 47.2433C112.728 47.0814 112.588 46.9487 112.412 46.8451C112.243 46.7351 112.05 46.6347 111.835 46.5441L110.857 46.1071C110.674 46.0229 110.479 45.9194 110.27 45.7964C110.068 45.6669 109.895 45.5018 109.751 45.3011C109.614 45.094 109.546 44.8318 109.546 44.5145C109.546 44.2038 109.627 43.9319 109.791 43.6988C109.954 43.4593 110.175 43.2748 110.456 43.1453C110.743 43.0094 111.065 42.9414 111.424 42.9414C111.809 42.9414 112.155 43.0191 112.461 43.1745C112.768 43.3234 113.019 43.5014 113.214 43.7086L112.96 43.9999C112.771 43.8057 112.549 43.6503 112.295 43.5338C112.04 43.4108 111.75 43.3493 111.424 43.3493C111 43.3493 110.655 43.4528 110.387 43.66C110.126 43.8672 109.996 44.1455 109.996 44.4951C109.996 44.7411 110.055 44.9418 110.172 45.0972C110.296 45.2526 110.443 45.3788 110.612 45.4759C110.788 45.573 110.955 45.6572 111.111 45.7284L112.089 46.1557C112.331 46.2592 112.552 46.3822 112.754 46.5247C112.963 46.6606 113.129 46.8354 113.253 47.0491C113.384 47.2562 113.449 47.5249 113.449 47.855C113.449 48.1787 113.364 48.4733 113.195 48.7387C113.025 48.9977 112.784 49.2016 112.471 49.3505C112.164 49.4994 111.802 49.5738 111.385 49.5738Z" fill="white"/>
</svg>
