<svg width="142" height="70" viewBox="0 0 142 70" fill="none" xmlns="http://www.w3.org/2000/svg">
<path d="M80.8895 15.835V6.92969C78.7409 12.5541 42.3942 13.0228 24.4894 12.5541V15.835H80.8895Z" stroke="#C5C5C5" stroke-width="0.5"/>
<path d="M81.3817 7.30009C81.3817 7.61814 81.1726 7.97854 80.6518 8.37186C80.1367 8.76092 79.3612 9.14689 78.3384 9.5206C76.2958 10.267 73.3258 10.9436 69.6388 11.5134C62.2687 12.6524 52.0782 13.358 40.8159 13.358C29.5536 13.358 19.363 12.6524 11.9929 11.5134C8.30587 10.9436 5.33596 10.267 3.29331 9.5206C2.27053 9.14689 1.49505 8.76092 0.979902 8.37186C0.459115 7.97854 0.25 7.61814 0.25 7.30009C0.25 6.98205 0.459115 6.62165 0.979902 6.22833C1.49505 5.83927 2.27053 5.4533 3.29331 5.07959C5.33596 4.33323 8.30587 3.65661 11.9929 3.0868C19.363 1.94778 29.5536 1.24219 40.8159 1.24219C52.0782 1.24219 62.2687 1.94778 69.6388 3.0868C73.3258 3.65661 76.2958 4.33323 78.3384 5.07959C79.3612 5.4533 80.1367 5.83927 80.6518 6.22833C81.1726 6.62165 81.3817 6.98205 81.3817 7.30009Z" fill="white" stroke="#C5C5C5" stroke-width="0.5"/>
<path d="M60.6025 7.3005C60.6025 7.33543 60.567 7.44585 60.2942 7.6096C60.0397 7.76231 59.6482 7.91827 59.1207 8.07143C58.0695 8.37664 56.5363 8.65455 54.6273 8.88898C50.8129 9.35743 45.536 9.64787 39.7025 9.64787C33.8689 9.64787 28.5921 9.35743 24.7776 8.88898C22.8686 8.65455 21.3354 8.37664 20.2842 8.07143C19.7567 7.91827 19.3652 7.76231 19.1108 7.6096C18.8379 7.44585 18.8024 7.33543 18.8024 7.3005C18.8024 7.26556 18.8379 7.15514 19.1108 6.9914C19.3652 6.83869 19.7567 6.68272 20.2842 6.52957C21.3354 6.22436 22.8686 5.94645 24.7776 5.71201C28.5921 5.24357 33.8689 4.95312 39.7025 4.95312C45.536 4.95312 50.8129 5.24357 54.6273 5.71201C56.5363 5.94645 58.0695 6.22436 59.1207 6.52957C59.6482 6.68272 60.0397 6.83869 60.2942 6.9914C60.567 7.15514 60.6025 7.26556 60.6025 7.3005Z" fill="#D9D9D9" stroke="#C5C5C5" stroke-width="0.5"/>
<path d="M0.734207 57.3677L0.370972 7.67188C34.1326 19.5384 82.0035 15.3132 93.2274 15.3132H140C140.552 15.3132 141 15.7609 141 16.3132V67.3261C141 67.8783 140.552 68.3261 140 68.3261H108.043C90.2344 68.4759 50.6049 69.7617 34.8629 68.3261C17.7566 66.7659 6.85706 62.1652 1.64501 59.0065C1.07349 58.6601 0.739092 58.036 0.734207 57.3677Z" fill="white" stroke="#C5C5C5" stroke-width="0.5"/>
<rect x="69.0161" y="21.7695" width="59.3685" height="40.0737" fill="#ED3237"/>
<path d="M87.3152 41.6279V33.6445H92.3477V35.1628H89.1152V37.0118H91.8824V38.5301H89.1152V41.6279H87.3152Z" fill="black"/>
<path d="M93.9813 41.6279V33.6445H95.7813V41.6279H93.9813Z" fill="black"/>
<path d="M99.2928 41.6279L96.8806 33.6445H98.7907L99.7458 37.3669C99.8682 37.7995 99.9744 38.224 100.064 38.6403C100.162 39.0566 100.272 39.4852 100.395 39.926H100.444C100.558 39.4852 100.664 39.0566 100.762 38.6403C100.86 38.224 100.966 37.7995 101.08 37.3669L102.023 33.6445H103.86L101.46 41.6279H99.2928Z" fill="black"/>
<path d="M104.958 41.6279V33.6445L109.954 33.6445V35.1628H106.758V36.7669H109.476V38.273H106.758V40.1096H110.076V41.6279H104.958Z" fill="black"/>
<path d="M83.8582 50.4495V44.0501H84.3081V50.0611H87.2819V50.4495H83.8582Z" fill="black"/>
<path d="M89.5867 46.6817L89.1758 47.8762H91.4648L91.054 46.6817C90.9236 46.2998 90.7996 45.934 90.6823 45.5844C90.5649 45.2348 90.4508 44.8626 90.3399 44.4677H90.3008C90.1899 44.8626 90.0758 45.2348 89.9584 45.5844C89.841 45.934 89.7171 46.2998 89.5867 46.6817ZM87.8259 50.4495L90.0953 44.0501H90.5453L92.8148 50.4495H92.3452L91.592 48.2549H89.0389L88.2759 50.4495H87.8259Z" fill="black"/>
<path d="M94.0411 50.4495V44.0501H95.7823C96.4345 44.0501 96.9529 44.1764 97.3377 44.4288C97.7225 44.6748 97.9148 45.0665 97.9148 45.6038C97.9148 45.9405 97.8301 46.235 97.6605 46.4875C97.491 46.7335 97.2431 46.9051 96.9171 47.0022V47.041C97.3344 47.1058 97.6703 47.2709 97.9246 47.5363C98.179 47.7952 98.3061 48.1448 98.3061 48.585C98.3061 49.2001 98.0877 49.6662 97.6507 49.9834C97.2203 50.2941 96.6399 50.4495 95.9095 50.4495H94.0411ZM94.4911 46.8662H95.6063C96.2649 46.8662 96.7377 46.7594 97.0247 46.5458C97.3181 46.3257 97.4649 46.0279 97.4649 45.6524C97.4649 45.1992 97.3116 44.882 97.0051 44.7007C96.6986 44.513 96.2486 44.4191 95.6552 44.4191H94.4911V46.8662ZM94.4911 50.0805H95.7921C96.4312 50.0805 96.9366 49.9607 97.3084 49.7212C97.6801 49.4817 97.8659 49.1062 97.8659 48.5948C97.8659 48.1351 97.6833 47.7952 97.3181 47.5751C96.9595 47.3485 96.4508 47.2352 95.7921 47.2352H94.4911V50.0805Z" fill="black"/>
<path d="M99.8921 50.4495V44.0501H103.423V44.4386H100.342V46.8565H102.925V47.245H100.342V50.0611H103.521V50.4495H99.8921Z" fill="black"/>
<path d="M105.122 50.4495V44.0501H105.572V50.0611H108.546V50.4495H105.122Z" fill="black"/>
<path d="M111.385 50.566C110.915 50.566 110.498 50.4754 110.133 50.2941C109.768 50.1129 109.458 49.883 109.204 49.6047L109.497 49.2939C109.732 49.5529 110.012 49.7633 110.338 49.9251C110.664 50.0805 111.013 50.1582 111.385 50.1582C111.881 50.1582 112.272 50.0384 112.559 49.7989C112.846 49.5594 112.989 49.2518 112.989 48.8764C112.989 48.6109 112.937 48.3973 112.833 48.2355C112.728 48.0736 112.588 47.9409 112.412 47.8373C112.243 47.7273 112.05 47.6269 111.835 47.5363L110.857 47.0993C110.674 47.0151 110.479 46.9116 110.27 46.7886C110.068 46.6591 109.895 46.494 109.751 46.2933C109.614 46.0861 109.546 45.824 109.546 45.5067C109.546 45.196 109.627 44.9241 109.791 44.691C109.954 44.4515 110.175 44.267 110.456 44.1375C110.743 44.0016 111.065 43.9336 111.424 43.9336C111.809 43.9336 112.155 44.0113 112.461 44.1667C112.768 44.3155 113.019 44.4936 113.214 44.7007L112.96 44.9921C112.771 44.7978 112.549 44.6425 112.295 44.5259C112.04 44.4029 111.75 44.3414 111.424 44.3414C111 44.3414 110.655 44.445 110.387 44.6522C110.126 44.8594 109.996 45.1377 109.996 45.4873C109.996 45.7333 110.055 45.934 110.172 46.0894C110.296 46.2448 110.443 46.371 110.612 46.4681C110.788 46.5652 110.955 46.6494 111.111 46.7206L112.089 47.1478C112.331 47.2514 112.552 47.3744 112.754 47.5169C112.963 47.6528 113.129 47.8276 113.253 48.0412C113.384 48.2484 113.449 48.5171 113.449 48.8472C113.449 49.1709 113.364 49.4655 113.195 49.7309C113.025 49.9899 112.784 50.1938 112.471 50.3427C112.164 50.4916 111.802 50.566 111.385 50.566Z" fill="black"/>
</svg>
