<svg version="1.2" xmlns="http://www.w3.org/2000/svg" viewBox="0 0 95 87" width="95" height="87">
	<title>top_f-svg</title>
	<style>
		.s0 { fill: #ffffff } 
		.s1 { fill: #eeeeee } 
		.s2 { fill: #c5c5c5;stroke: #999696;stroke-width: .5 } 
		.s3 { fill: #999696;stroke: #999696;stroke-width: .5 } 
	</style>
	<path id="Layer" class="s0" d="m5.3 29.7l2.1-2.3c3.1-3.4 4.8-7.8 4.8-12.3v-11.2h12.1v11.2c0 4.5 1.7 8.9 4.7 12.3l2.1 2.3c2.7 3 4.2 6.8 4.2 10.8v43c0 1.9-1.5 3.4-3.4 3.4h-27.4c-1.9 0-3.4-1.5-3.4-3.4v-43c0-4 1.5-7.8 4.2-10.8z"/>
	<path id="Layer" fill-rule="evenodd" class="s1" d="m12 3.8h12.4v11.3c0 4.5 1.7 8.9 4.7 12.2l2.1 2.4c2.7 2.9 4.2 6.8 4.2 10.8v43c0 1.9-1.5 3.5-3.5 3.5h-27.4c-1.9 0-3.5-1.6-3.5-3.5v-43c0-4 1.5-7.9 4.2-10.8l2.1-2.4c3-3.3 4.7-7.7 4.7-12.2zm0.3 0.2v11c0 4.6-1.7 9.1-4.8 12.5l-2.1 2.3c-2.7 2.9-4.1 6.7-4.1 10.7v43c0 1.7 1.4 3.2 3.2 3.2h27.4c1.8 0 3.3-1.5 3.3-3.2v-43c0-4-1.5-7.8-4.2-10.7l-2.1-2.3c-3.1-3.4-4.8-7.9-4.8-12.5v-11z"/>
	<path id="Layer" class="s0" d="m11.5 0.8c0-0.5 0.3-0.8 0.8-0.8h11.9c0.4 0 0.7 0.3 0.7 0.8v3.1c0 0.4-0.3 0.8-0.7 0.8h-6-5.9c-0.5 0-0.8-0.4-0.8-0.8z"/>
	<path id="Layer" fill-rule="evenodd" class="s1" d="m24.2 0c0.4 0 0.7 0.3 0.7 0.8v3.1c0 0.4-0.3 0.8-0.7 0.8h-11.9c-0.5 0-0.8-0.4-0.8-0.8v-3.1c0-0.5 0.3-0.8 0.8-0.8zm0 0.3h-11.9c-0.3 0-0.6 0.2-0.6 0.5v3.1c0 0.3 0.3 0.5 0.6 0.5h11.9c0.2 0 0.5-0.2 0.5-0.5v-3.1c0-0.3-0.3-0.5-0.5-0.5z"/>
	<path id="Layer" fill-rule="evenodd" class="s1" d="m24.2 5.3h-11.9v-0.8h11.9z"/>
	<path id="Layer" class="s2" d="m44.9 40.2l0.1-6.9c1.7 4.6 14.5 4.6 29.2 4.2v2.7z"/>
	<path id="Layer" class="s2" d="m45.1 32.4q0.5-0.5 1.4-0.9c1.2-0.7 3.1-1.2 5.3-1.7 4.5-1 10.7-1.5 17.6-1.5 6.9 0 13.1 0.5 17.6 1.5 2.3 0.5 4.1 1 5.3 1.7q0.9 0.4 1.4 0.9 0.4 0.5 0.4 0.9 0 0.4-0.4 0.9-0.5 0.5-1.4 0.9c-1.2 0.7-3 1.2-5.3 1.7-4.5 1-10.7 1.5-17.6 1.5-6.9 0-13.1-0.5-17.6-1.5-2.2-0.5-4.1-1-5.3-1.7q-0.9-0.4-1.4-0.9-0.4-0.5-0.4-0.9 0-0.4 0.4-0.9z"/>
	<path id="Layer" class="s3" d="m57 33q0.2-0.2 0.7-0.4c0.7-0.2 1.6-0.5 2.9-0.7 2.4-0.4 5.8-0.6 9.6-0.6 3.7 0 7.1 0.2 9.6 0.6 1.2 0.2 2.2 0.5 2.8 0.7q0.5 0.2 0.8 0.4c0.1 0.2 0.1 0.3 0.1 0.3 0 0 0 0.1-0.1 0.3q-0.3 0.1-0.8 0.3c-0.6 0.3-1.6 0.6-2.8 0.8-2.5 0.4-5.9 0.6-9.6 0.6-3.8 0-7.2-0.2-9.6-0.6-1.3-0.2-2.2-0.5-2.9-0.8q-0.5-0.2-0.7-0.3c-0.2-0.2-0.2-0.3-0.2-0.3 0 0 0-0.1 0.2-0.3z"/>
	<path id="Layer" class="s2" d="m92.9 75.9c-4.4 2.6-13.3 6.3-27.2 7.5-13 1.2-35.3 0.2-50 0h-6.7c-0.6 0-1-0.4-1-1v-41.6c0-0.6 0.4-1 1-1h6.7c9.2 0 50.6 3.5 78.4-6.3l-0.3 40.7c0 0.7-0.4 1.3-0.9 1.7z"/>
</svg>