<svg width="308" height="153" viewBox="0 0 308 153" fill="none" xmlns="http://www.w3.org/2000/svg">
<path d="M107.145 93.4746C111.106 93.1614 115.015 92.3772 118.79 91.1387L199.833 64.5493C204.489 63.0216 209.449 62.6578 214.278 63.4898L282.206 75.1918C294.209 77.2594 300.323 90.8003 293.936 101.171C288.918 109.318 280.416 114.689 270.903 115.72L240.582 119.008C235.876 119.519 231.267 120.694 226.892 122.501L217.691 126.299C212.931 128.264 207.895 129.482 202.763 129.91L171.126 132.547C163.741 133.162 156.312 132.128 149.376 129.52L144.157 127.558C137.118 124.911 129.776 123.157 122.301 122.337L113.016 121.318C109.433 120.925 105.818 120.92 102.234 121.304L98.4946 121.705C86.9004 122.947 75.4544 125.313 64.3178 128.769L62.7205 129.265L53.0403 131.057C44.3706 132.663 35.4994 132.867 26.765 131.662L14.9728 130.036C11.4008 129.543 8.18356 127.617 6.06273 124.701C3.38592 121.02 4.65475 115.817 8.72539 113.781L33.1611 101.563C36.6712 99.8084 40.487 98.747 44.3993 98.4376L107.145 93.4746Z" fill="#F3F3F3"/>
<path d="M141.82 17.7891H187.694C191.422 17.7891 194.444 20.8111 194.444 24.5391V77.155C194.444 86.9759 186.469 94.9302 176.648 94.9049L152.775 94.8434C142.989 94.8181 135.07 86.8786 135.07 77.0934V24.5391C135.07 20.8111 138.092 17.7891 141.82 17.7891Z" fill="white" stroke="#C5C5C5" stroke-width="0.5" stroke-linecap="round"/>
<path d="M136.372 11.7266C136.372 10.7601 137.156 9.97656 138.122 9.97656H191.393C192.359 9.97656 193.143 10.7601 193.143 11.7266V16.5434C193.143 17.4803 192.405 18.251 191.469 18.2917L164.757 19.4553L138.046 18.2917C137.11 18.251 136.372 17.4803 136.372 16.5434V11.7266Z" fill="#EEEEEE" stroke="#C5C5C5" stroke-width="0.5"/>
<circle cx="164.634" cy="52.7676" r="18.4395" fill="#FFCC29"/>
<path d="M155.789 50.0738V44.0625H159.578V45.2057H157.144V46.5979H159.228V47.7412H157.144V50.0738H155.789Z" fill="white"/>
<path d="M160.808 50.0738V44.0625H162.164V50.0738H160.808Z" fill="white"/>
<path d="M164.808 50.0738L162.991 44.0625H164.43L165.149 46.8653C165.241 47.1911 165.321 47.5107 165.389 47.8242C165.462 48.1376 165.545 48.4603 165.638 48.7922H165.674C165.76 48.4603 165.84 48.1376 165.914 47.8242C165.988 47.5107 166.068 47.1911 166.154 46.8653L166.864 44.0625H168.247L166.44 50.0738H164.808Z" fill="white"/>
<path d="M169.073 50.0738V44.0625H172.835V45.2057H170.429V46.4135H172.476V47.5476H170.429V48.9305H172.927V50.0738H169.073Z" fill="white"/>
<path d="M153.492 58.0547V53.2362H153.831V57.7623H156.07V58.0547H153.492Z" fill="white"/>
<path d="M157.806 55.2177L157.496 56.1171H159.22L158.91 55.2177C158.812 54.9301 158.719 54.6547 158.631 54.3915C158.542 54.1282 158.456 53.8479 158.373 53.5506H158.343C158.26 53.8479 158.174 54.1282 158.085 54.3915C157.997 54.6547 157.904 54.9301 157.806 55.2177ZM156.48 58.0547L158.189 53.2362H158.527L160.236 58.0547H159.883L159.316 56.4022H157.393L156.819 58.0547H156.48Z" fill="white"/>
<path d="M161.16 58.0547V53.2362H162.471C162.962 53.2362 163.352 53.3312 163.642 53.5213C163.932 53.7066 164.076 54.0015 164.076 54.4061C164.076 54.6596 164.013 54.8814 163.885 55.0715C163.757 55.2567 163.571 55.3859 163.325 55.459V55.4882C163.639 55.537 163.892 55.6613 164.084 55.8612C164.275 56.0561 164.371 56.3194 164.371 56.6508C164.371 57.1139 164.207 57.4649 163.878 57.7038C163.554 57.9377 163.116 58.0547 162.567 58.0547H161.16ZM161.498 55.3566H162.338C162.834 55.3566 163.19 55.2762 163.406 55.1153C163.627 54.9496 163.738 54.7254 163.738 54.4426C163.738 54.1014 163.622 53.8626 163.391 53.7261C163.161 53.5847 162.822 53.514 162.375 53.514H161.498V55.3566ZM161.498 57.7769H162.478C162.959 57.7769 163.34 57.6867 163.62 57.5063C163.9 57.326 164.04 57.0432 164.04 56.6582C164.04 56.3121 163.902 56.0561 163.627 55.8904C163.357 55.7198 162.974 55.6345 162.478 55.6345H161.498V57.7769Z" fill="white"/>
<path d="M165.565 58.0547V53.2362H168.224V53.5287H165.904V55.3493H167.849V55.6418H165.904V57.7623H168.298V58.0547H165.565Z" fill="white"/>
<path d="M169.503 58.0547V53.2362H169.842V57.7623H172.081V58.0547H169.503Z" fill="white"/>
<path d="M174.219 58.1425C173.866 58.1425 173.551 58.0742 173.276 57.9377C173.001 57.8012 172.768 57.6282 172.577 57.4186L172.798 57.1846C172.974 57.3796 173.185 57.538 173.431 57.6599C173.677 57.7769 173.939 57.8354 174.219 57.8354C174.592 57.8354 174.887 57.7452 175.103 57.5648C175.319 57.3845 175.427 57.1529 175.427 56.8702C175.427 56.6703 175.388 56.5095 175.309 56.3876C175.231 56.2657 175.125 56.1658 174.993 56.0878C174.865 56.005 174.72 55.9294 174.558 55.8612L173.821 55.5321C173.684 55.4687 173.537 55.3908 173.379 55.2981C173.227 55.2006 173.097 55.0763 172.989 54.9252C172.886 54.7692 172.834 54.5718 172.834 54.333C172.834 54.099 172.896 53.8943 173.019 53.7188C173.141 53.5384 173.308 53.3995 173.519 53.302C173.735 53.1996 173.978 53.1484 174.249 53.1484C174.538 53.1484 174.799 53.2069 175.029 53.3239C175.26 53.436 175.449 53.5701 175.596 53.7261L175.405 53.9454C175.263 53.7992 175.096 53.6822 174.904 53.5945C174.713 53.5018 174.494 53.4555 174.249 53.4555C173.929 53.4555 173.669 53.5335 173.468 53.6895C173.271 53.8455 173.173 54.0551 173.173 54.3183C173.173 54.5036 173.217 54.6547 173.306 54.7717C173.399 54.8887 173.51 54.9837 173.637 55.0568C173.77 55.13 173.895 55.1933 174.013 55.247L174.749 55.5687C174.931 55.6467 175.098 55.7393 175.25 55.8465C175.407 55.9489 175.533 56.0805 175.626 56.2414C175.724 56.3974 175.773 56.5997 175.773 56.8483C175.773 57.092 175.709 57.3138 175.582 57.5136C175.454 57.7086 175.272 57.8622 175.037 57.9743C174.806 58.0864 174.533 58.1425 174.219 58.1425Z" fill="white"/>
<circle cx="164.632" cy="52.7636" r="17.037" stroke="white" stroke-width="0.5"/>
<path d="M280.887 88.34L280.887 58.5496L261.995 65.3177C243.863 64.6832 242.452 64.1699 237.94 58.6492L238.245 88.3399C248.459 99.023 276.408 95.9112 280.887 88.34Z" fill="#D9D9D9" stroke="#C5C5C5" stroke-width="0.5" stroke-linecap="round"/>
<path d="M259.374 51.0387C265.341 51.0387 270.731 51.8036 274.621 53.0698C276.568 53.7033 278.124 54.4577 279.189 55.2936C280.255 56.1308 280.797 57.0224 280.797 57.9335C280.797 58.847 280.253 59.7692 279.184 60.6518C278.118 61.5321 276.561 62.3453 274.615 63.0376C270.726 64.4216 265.337 65.3047 259.374 65.3047C253.409 65.3047 248.019 64.4807 244.13 63.1556C242.183 62.4927 240.627 61.7089 239.561 60.8508C238.494 59.9909 237.951 59.084 237.951 58.1717C237.951 57.2594 238.494 56.3525 239.561 55.4926C240.627 54.6345 242.183 53.8507 244.13 53.1878C248.019 51.8627 253.409 51.0387 259.374 51.0387Z" fill="white" stroke="#C5C5C5" stroke-width="0.5"/>
<path d="M259.375 54.3708C262.448 54.3708 265.219 54.7686 267.214 55.4053C268.213 55.7241 269.003 56.0984 269.539 56.5022C270.078 56.9092 270.319 57.3142 270.319 57.6932C270.319 58.0722 270.078 58.4772 269.539 58.8842C269.003 59.288 268.213 59.6623 267.214 59.9811C265.219 60.6178 262.448 61.0156 259.375 61.0156C256.303 61.0156 253.531 60.6178 251.536 59.9811C250.537 59.6623 249.747 59.288 249.212 58.8842C248.673 58.4772 248.432 58.0722 248.432 57.6932C248.432 57.3142 248.673 56.9092 249.212 56.5022C249.747 56.0984 250.537 55.7241 251.536 55.4053C253.531 54.7686 256.303 54.3708 259.375 54.3708Z" stroke="#C5C5C5" stroke-width="0.5"/>
<ellipse cx="259.611" cy="57.7005" rx="2.61977" ry="9.05013" transform="rotate(-90 259.611 57.7005)" fill="#C5C5C5"/>
<path d="M245.462 71.0398L245.462 89.7829C245.462 91.1045 246.326 92.2796 247.604 92.6138C255.956 94.7964 260.622 93.8498 262.592 92.6896C263.202 92.3301 263.444 91.6196 263.444 90.9112L263.444 71.1349C263.444 69.46 262.072 68.0762 260.398 68.1092C259.005 68.1367 257.428 68.2185 255.778 68.4675C254.677 68.6336 251.817 68.342 249.198 67.9386C247.281 67.6433 245.462 69.1006 245.462 71.0398Z" fill="#ED3237"/>
<path d="M270.949 93.1047C275.224 92.1393 278.179 89.8951 279.759 88.0584C280.623 87.054 280.887 85.7137 280.887 84.3888L280.887 59.9427C280.03 63.433 274.515 65.801 270.401 66.8295C268.931 67.197 267.798 68.4699 267.798 69.9852L267.798 90.3634C267.798 92.0902 269.264 93.485 270.949 93.1047Z" fill="white"/>
<path d="M238.486 64.8598L238.486 84.1473C238.486 84.1739 238.492 84.2001 238.504 84.224C239.235 85.7199 241.486 85.1993 241.486 83.5343L241.486 67.1981C241.486 66.8317 241.401 66.4702 241.238 66.1419L240.382 64.4156C239.913 63.4686 238.486 63.8028 238.486 64.8598Z" fill="white"/>
<path d="M273.223 100.745L285.082 100.568L281.778 93.5626C282.022 86.5886 282.721 86.1081 284.844 84.3731L273.223 84.3438C269.114 88.2723 270.311 99.0217 273.223 100.745Z" fill="#D9D9D9" stroke="#C5C5C5" stroke-width="0.5" stroke-linecap="round"/>
<path d="M288.881 92.4685C288.881 94.7433 288.466 96.7908 287.805 98.2601C287.134 99.753 286.258 100.554 285.382 100.554C284.506 100.554 283.63 99.753 282.959 98.2601C282.298 96.7908 281.883 94.7433 281.883 92.4685C281.883 90.1936 282.298 88.1462 282.959 86.6768C283.63 85.184 284.506 84.3828 285.382 84.3828C286.258 84.3828 287.134 85.184 287.805 86.6768C288.466 88.1462 288.881 90.1936 288.881 92.4685Z" fill="white" stroke="#C5C5C5" stroke-width="0.5"/>
<path d="M287.133 92.4659C287.133 93.6153 286.926 94.6439 286.6 95.3758C286.438 95.742 286.25 96.0229 286.055 96.2089C285.861 96.3936 285.67 96.4747 285.49 96.4747C285.31 96.4747 285.12 96.3936 284.926 96.2089C284.731 96.0229 284.543 95.742 284.381 95.3758C284.055 94.6439 283.848 93.6153 283.848 92.4659C283.848 91.3164 284.055 90.2878 284.381 89.5559C284.543 89.1897 284.731 88.9088 284.926 88.7228C285.12 88.5381 285.31 88.457 285.49 88.457C285.67 88.457 285.861 88.5381 286.055 88.7228C286.25 88.9088 286.438 89.1897 286.6 89.5559C286.926 90.2878 287.133 91.3164 287.133 92.4659Z" stroke="#C5C5C5" stroke-width="0.5"/>
<ellipse cx="285.559" cy="92.2293" rx="1.19081" ry="2.38161" fill="#C5C5C5"/>
<path d="M278.805 87.1172L274.515 87.1172C273.193 87.1172 271.994 87.9779 271.759 89.2782C271.556 90.397 271.519 91.2984 271.576 92.0068C271.69 93.4189 273.066 94.0332 274.483 94.0332L278.763 94.0332C279.88 94.0332 280.788 93.1189 280.791 92.0023C280.792 91.4163 280.794 90.8152 280.794 90.3246C280.794 90.0459 280.801 89.8026 280.812 89.587C280.881 88.2961 280.098 87.1172 278.805 87.1172Z" fill="#FFCC29"/>
<path d="M272.313 96.7626C272.535 97.8606 272.976 98.7412 273.456 99.3984C274.237 100.469 275.612 100.745 276.937 100.745L284.149 100.745C282.768 100.406 281.845 98.1734 281.468 96.5796C281.352 96.0881 280.927 95.7109 280.422 95.7109L273.238 95.7109C272.662 95.7109 272.199 96.1984 272.313 96.7626Z" fill="white"/>
<path d="M281.765 84.4375L274.835 84.4375C274.824 84.4375 274.814 84.4398 274.805 84.4443C274.23 84.7255 274.43 85.5911 275.071 85.5911L281.354 85.5911C281.495 85.5911 281.634 85.5586 281.76 85.4959L281.987 85.3834C282.459 85.1491 282.293 84.4375 281.765 84.4375Z" fill="white"/>
<path d="M52.0107 7.38281H74.6781C78.406 7.38281 81.4281 10.4049 81.4281 14.1328V92.813C81.4281 102.655 73.4202 110.618 63.5782 110.563L62.9109 110.559C53.1469 110.504 45.2607 102.573 45.2607 92.8092V14.1328C45.2607 10.4049 48.2828 7.38281 52.0107 7.38281Z" fill="white" stroke="#C5C5C5" stroke-width="0.5" stroke-linecap="round"/>
<path d="M49.8409 7.79299L49.8408 4.33984H76.8514V7.79299H49.8409Z" fill="white" stroke="#C5C5C5" stroke-width="0.5" stroke-linecap="round"/>
<path d="M48.8047 2.03125C48.8047 1.06475 49.5882 0.28125 50.5547 0.28125H76.0699C77.0364 0.28125 77.8199 1.06475 77.8199 2.03125V2.78223C77.8199 3.73252 77.0616 4.50915 76.1115 4.53174L63.1074 4.84094L50.5119 4.53302C49.5624 4.5098 48.8047 3.73338 48.8047 2.78354V2.03125Z" fill="#EEEEEE" stroke="#C5C5C5" stroke-width="0.5"/>
<rect x="48.9395" y="29.0664" width="28.8101" height="40.9234" fill="#0098DA"/>
<rect x="50.8271" y="30.6289" width="25.3636" height="37.8043" stroke="white" stroke-width="0.5"/>
<path d="M56.7969 46.3563V41.8203H59.6562V42.683H57.8196V43.7335H59.3918V44.5962H57.8196V46.3563H56.7969Z" fill="white"/>
<path d="M60.5844 46.3563V41.8203H61.6071V46.3563H60.5844Z" fill="white"/>
<path d="M63.6022 46.3563L62.2317 41.8203H63.317L63.8596 43.9352C63.9292 44.1811 63.9895 44.4222 64.0405 44.6588C64.0961 44.8953 64.1588 45.1388 64.2283 45.3893H64.2562C64.3211 45.1388 64.3814 44.8953 64.437 44.6588C64.4927 44.4222 64.553 44.1811 64.6179 43.9352L65.1536 41.8203H66.1972L64.8336 46.3563H63.6022Z" fill="white"/>
<path d="M66.821 46.3563V41.8203H69.6594V42.683H67.8436V43.5944H69.3881V44.4501H67.8436V45.4936H69.729V46.3563H66.821Z" fill="white"/>
<path d="M54.834 51.3701V47.7342H55.0897V51.1495H56.7793V51.3701H54.834Z" fill="white"/>
<path d="M58.0888 49.2294L57.8553 49.908H59.1559L58.9225 49.2294C58.8484 49.0124 58.778 48.8046 58.7113 48.6059C58.6446 48.4073 58.5797 48.1958 58.5167 47.9714H58.4945C58.4315 48.1958 58.3667 48.4073 58.3 48.6059C58.2333 48.8046 58.1629 49.0124 58.0888 49.2294ZM57.0883 51.3701L58.3778 47.7342H58.6335L59.9229 51.3701H59.6561L59.2282 50.1232H57.7775L57.344 51.3701H57.0883Z" fill="white"/>
<path d="M60.6197 51.3701V47.7342H61.609C61.9795 47.7342 62.2741 47.8059 62.4927 47.9494C62.7113 48.0891 62.8207 48.3117 62.8207 48.617C62.8207 48.8082 62.7725 48.9756 62.6761 49.119C62.5798 49.2588 62.439 49.3563 62.2537 49.4115V49.4335C62.4909 49.4703 62.6817 49.5641 62.8262 49.7149C62.9707 49.8621 63.043 50.0607 63.043 50.3108C63.043 50.6602 62.9188 50.9251 62.6706 51.1053C62.426 51.2819 62.0963 51.3701 61.6813 51.3701H60.6197ZM60.8754 49.3342H61.509C61.8832 49.3342 62.1518 49.2735 62.3149 49.1522C62.4816 49.0271 62.565 48.8579 62.565 48.6445C62.565 48.3871 62.4779 48.2068 62.3038 48.1038C62.1296 47.9972 61.8739 47.9438 61.5368 47.9438H60.8754V49.3342ZM60.8754 51.1605H61.6146C61.9777 51.1605 62.2649 51.0924 62.4761 50.9563C62.6873 50.8202 62.7929 50.6069 62.7929 50.3163C62.7929 50.0552 62.6891 49.8621 62.4816 49.737C62.2778 49.6083 61.9888 49.5439 61.6146 49.5439H60.8754V51.1605Z" fill="white"/>
<path d="M63.9441 51.3701V47.7342H65.9505V47.9549H64.1997V49.3287H65.667V49.5494H64.1997V51.1495H66.0061V51.3701H63.9441Z" fill="white"/>
<path d="M66.9156 51.3701V47.7342H67.1713V51.1495H68.8609V51.3701H66.9156Z" fill="white"/>
<path d="M70.4741 51.4364C70.2073 51.4364 69.9701 51.3849 69.7626 51.2819C69.5551 51.1789 69.3791 51.0483 69.2346 50.8901L69.4014 50.7136C69.5348 50.8607 69.6941 50.9803 69.8794 51.0722C70.0646 51.1605 70.2629 51.2046 70.4741 51.2046C70.7557 51.2046 70.978 51.1366 71.141 51.0005C71.304 50.8644 71.3856 50.6897 71.3856 50.4763C71.3856 50.3255 71.3559 50.2041 71.2966 50.1122C71.2373 50.0202 71.1577 49.9448 71.0576 49.886C70.9613 49.8234 70.852 49.7664 70.7297 49.7149L70.1739 49.4666C70.0702 49.4188 69.959 49.36 69.8404 49.2901C69.7256 49.2165 69.6274 49.1227 69.5459 49.0087C69.4681 48.891 69.4292 48.742 69.4292 48.5618C69.4292 48.3852 69.4755 48.2307 69.5681 48.0983C69.6607 47.9622 69.7867 47.8574 69.946 47.7838C70.1091 47.7066 70.2925 47.668 70.4963 47.668C70.7149 47.668 70.9113 47.7121 71.0854 47.8004C71.2596 47.885 71.4022 47.9861 71.5134 48.1038L71.3689 48.2694C71.2614 48.159 71.1355 48.0707 70.9909 48.0045C70.8464 47.9346 70.6816 47.8997 70.4963 47.8997C70.2554 47.8997 70.0591 47.9586 69.9071 48.0763C69.7589 48.194 69.6848 48.3521 69.6848 48.5508C69.6848 48.6905 69.7182 48.8046 69.7849 48.8928C69.8553 48.9811 69.9386 49.0528 70.035 49.108C70.135 49.1632 70.2295 49.211 70.3184 49.2515L70.8742 49.4942C71.0113 49.5531 71.1373 49.623 71.2522 49.7039C71.3707 49.7811 71.4652 49.8804 71.5356 50.0018C71.6097 50.1195 71.6468 50.2722 71.6468 50.4598C71.6468 50.6437 71.5986 50.811 71.5023 50.9619C71.4059 51.109 71.2688 51.2249 71.091 51.3095C70.9168 51.3941 70.7112 51.4364 70.4741 51.4364Z" fill="white"/>
<path d="M26.4165 125.773H56.4478L47.5279 108.05C46.5219 87.5703 56.7499 73.8871 61.9896 69.6055H30.5512C10.0713 104.996 19.2306 121.521 26.4165 125.773Z" fill="#EEEEEE" stroke="#C5C5C5" stroke-width="0.5" stroke-linecap="round"/>
<path d="M65.4227 105.359C65.4227 111.012 64.3916 116.118 62.7349 119.801C61.0676 123.508 58.8159 125.678 56.4208 125.678C54.0257 125.678 51.774 123.508 50.1068 119.801C48.4501 116.118 47.4189 111.012 47.4189 105.359C47.4189 99.7056 48.4501 94.5996 50.1068 90.9163C51.774 87.2095 54.0257 85.0391 56.4208 85.0391C58.8159 85.0391 61.0676 87.2095 62.7349 90.9163C64.3916 94.5996 65.4227 99.7056 65.4227 105.359Z" fill="white" stroke="#C5C5C5" stroke-width="0.5"/>
<path d="M61.1103 105.357C61.1103 108.233 60.5918 110.824 59.7637 112.687C59.3496 113.619 58.8629 114.357 58.3352 114.86C57.8087 115.361 57.253 115.616 56.6894 115.616C56.1258 115.616 55.5701 115.361 55.0436 114.86C54.5159 114.357 54.0292 113.619 53.6151 112.687C52.7871 110.824 52.2686 108.233 52.2686 105.357C52.2686 102.482 52.7871 99.8903 53.6151 98.0273C54.0292 97.0955 54.5159 96.3569 55.0436 95.8546C55.5701 95.3536 56.1258 95.0977 56.6894 95.0977C57.253 95.0977 57.8087 95.3536 58.3352 95.8546C58.8629 96.3569 59.3496 97.0955 59.7637 98.0273C60.5918 99.8903 61.1103 102.482 61.1103 105.357Z" stroke="#C5C5C5" stroke-width="0.5"/>
<ellipse cx="56.6896" cy="105.627" rx="3.77261" ry="8.44346" fill="#C5C5C5"/>
<path d="M41.3793 92.1523H25.9061C24.1441 92.1523 22.5712 93.3021 22.1554 95.0144C20.8606 100.347 20.9505 104.009 21.4988 106.315C21.9903 108.383 24.1049 109.219 26.2299 109.219H42.5952C44.27 109.219 45.6565 107.847 45.6186 106.173C45.5895 104.89 45.5089 103.448 45.2818 101.943C45.1545 101.099 45.3105 99.1668 45.5769 97.1452C45.9147 94.5817 43.965 92.1523 41.3793 92.1523Z" fill="#ED3237"/>
<path d="M21.9353 116.495C22.8566 120.409 24.9059 123.138 26.6117 124.633C27.608 125.506 28.949 125.771 30.2738 125.771H53.3735C50.0975 124.966 47.8632 119.838 46.8701 115.949C46.4952 114.48 45.2223 113.348 43.707 113.348H24.663C22.9362 113.348 21.5397 114.814 21.9353 116.495Z" fill="white" stroke="#C5C5C5" stroke-width="0.5" stroke-linecap="round"/>
<path d="M50.4953 71.1328H34.7424C33.591 71.1328 32.5412 71.7918 32.0407 72.8286L26.6119 84.0749C25.6503 86.0669 27.1017 88.379 29.3136 88.379H45.1208C46.2764 88.379 47.3293 87.7153 47.8276 86.6726L53.2021 75.4264C54.1537 73.4352 52.7022 71.1328 50.4953 71.1328Z" fill="white" stroke="#C5C5C5" stroke-width="0.5" stroke-linecap="round"/>
<path d="M94.2904 39.5391H130.12C131.186 39.5391 132.004 40.4833 131.853 41.538L124.89 89.9855C124.552 92.3371 122.529 94.0773 120.153 94.0597L103.984 93.9395C101.629 93.922 99.6417 92.1807 99.3154 89.8477L92.5573 41.5315C92.4101 40.4788 93.2275 39.5391 94.2904 39.5391Z" fill="white" stroke="#C5C5C5" stroke-width="0.5" stroke-linecap="round"/>
<path d="M91.6176 40.5793C92.0966 39.754 92.9787 39.2461 93.9329 39.2461H130.529C131.483 39.2461 132.365 39.754 132.844 40.5793C133.125 41.0631 132.776 41.6693 132.217 41.6693H112.231H92.2452C91.6859 41.6693 91.3368 41.0631 91.6176 40.5793Z" fill="#EEEEEE" stroke="#C5C5C5" stroke-width="0.5"/>
<path d="M95.2448 39.0702C95.9362 36.5816 98.2021 34.8594 100.785 34.8594H123.548C126.131 34.8594 128.397 36.5816 129.088 39.0702L129.133 39.2313H112.167H95.2L95.2448 39.0702Z" fill="#EEEEEE" stroke="#C5C5C5" stroke-width="0.5"/>
<path d="M111.532 52.4978C111.92 52.1223 112.536 52.1223 112.924 52.4978L114.216 53.7495C114.465 53.99 114.82 54.0851 115.155 54.001L116.9 53.5634C117.424 53.4321 117.957 53.74 118.105 54.259L118.599 55.9893C118.694 56.3218 118.954 56.5817 119.286 56.6766L121.016 57.1702C121.535 57.3182 121.843 57.8515 121.712 58.375L121.274 60.1203C121.19 60.4557 121.285 60.8107 121.526 61.0591L122.778 62.3517C123.153 62.7395 123.153 63.3552 122.778 63.743L121.526 65.0356C121.285 65.284 121.19 65.6391 121.274 65.9745L121.712 67.7197C121.843 68.2432 121.535 68.7765 121.016 68.9246L119.286 69.4182C118.954 69.513 118.694 69.773 118.599 70.1055L118.105 71.8357C117.957 72.3548 117.424 72.6627 116.9 72.5314L115.155 72.0937C114.82 72.0096 114.465 72.1047 114.216 72.3453L112.924 73.5969C112.536 73.9724 111.92 73.9724 111.532 73.5969L110.24 72.3453C109.991 72.1047 109.636 72.0096 109.301 72.0937L107.556 72.5314C107.032 72.6627 106.499 72.3548 106.351 71.8357L105.857 70.1055C105.762 69.773 105.502 69.513 105.17 69.4182L103.44 68.9246C102.921 68.7765 102.613 68.2432 102.744 67.7197L103.182 65.9745C103.266 65.6391 103.171 65.284 102.93 65.0356L101.678 63.743C101.303 63.3552 101.303 62.7395 101.678 62.3517L102.93 61.0591C103.171 60.8107 103.266 60.4557 103.182 60.1203L102.744 58.375C102.613 57.8515 102.921 57.3182 103.44 57.1702L105.17 56.6766C105.502 56.5817 105.762 56.3218 105.857 55.9893L106.351 54.259C106.499 53.74 107.032 53.4321 107.556 53.5634L109.301 54.001C109.636 54.0851 109.991 53.99 110.24 53.7495L111.532 52.4978Z" fill="#ED3237"/>
<circle cx="112.226" cy="63.0489" r="8.02937" stroke="white" stroke-width="0.5"/>
<path d="M108.606 62.6176V60.1328H110.173V60.6054H109.167V61.1808H110.028V61.6534H109.167V62.6176H108.606Z" fill="white"/>
<path d="M110.681 62.6176V60.1328H111.241V62.6176H110.681Z" fill="white"/>
<path d="M112.334 62.6176L111.584 60.1328H112.178L112.475 61.2914C112.513 61.426 112.546 61.5581 112.574 61.6877C112.605 61.8173 112.639 61.9507 112.677 62.0879H112.693C112.728 61.9507 112.761 61.8173 112.792 61.6877C112.822 61.5581 112.855 61.426 112.891 61.2914L113.184 60.1328H113.756L113.009 62.6176H112.334Z" fill="white"/>
<path d="M114.098 62.6176V60.1328H115.652V60.6054H114.658V61.1046H115.504V61.5734H114.658V62.145H115.691V62.6176H114.098Z" fill="white"/>
<path d="M107.656 65.9147V63.923H107.796V65.7938H108.722V65.9147H107.656Z" fill="white"/>
<path d="M109.439 64.7421L109.311 65.1138H110.024L109.896 64.7421C109.855 64.6232 109.817 64.5093 109.78 64.4005C109.744 64.2917 109.708 64.1759 109.674 64.0529H109.661C109.627 64.1759 109.591 64.2917 109.555 64.4005C109.518 64.5093 109.48 64.6232 109.439 64.7421ZM108.891 65.9147L109.598 63.923H109.738L110.444 65.9147H110.298L110.063 65.2317H109.269L109.031 65.9147H108.891Z" fill="white"/>
<path d="M110.826 65.9147V63.923H111.368C111.571 63.923 111.732 63.9623 111.852 64.0409C111.971 64.1174 112.031 64.2393 112.031 64.4066C112.031 64.5113 112.005 64.603 111.952 64.6816C111.899 64.7582 111.822 64.8116 111.721 64.8418V64.8539C111.851 64.874 111.955 64.9254 112.034 65.008C112.113 65.0886 112.153 65.1974 112.153 65.3344C112.153 65.5259 112.085 65.6709 111.949 65.7697C111.815 65.8664 111.634 65.9147 111.407 65.9147H110.826ZM110.966 64.7995H111.313C111.518 64.7995 111.665 64.7662 111.754 64.6997C111.846 64.6312 111.891 64.5385 111.891 64.4217C111.891 64.2806 111.844 64.1819 111.748 64.1255C111.653 64.0671 111.513 64.0378 111.328 64.0378H110.966V64.7995ZM110.966 65.7999H111.371C111.57 65.7999 111.727 65.7626 111.843 65.6881C111.958 65.6135 112.016 65.4966 112.016 65.3375C112.016 65.1944 111.959 65.0886 111.846 65.0201C111.734 64.9496 111.576 64.9143 111.371 64.9143H110.966V65.7999Z" fill="white"/>
<path d="M112.647 65.9147V63.923H113.746V64.0439H112.787V64.7965H113.59V64.9174H112.787V65.7938H113.776V65.9147H112.647Z" fill="white"/>
<path d="M114.274 65.9147V63.923H114.415V65.7938H115.34V65.9147H114.274Z" fill="white"/>
<path d="M116.224 65.951C116.078 65.951 115.948 65.9228 115.834 65.8664C115.72 65.81 115.624 65.7384 115.545 65.6518L115.636 65.5551C115.709 65.6357 115.796 65.7012 115.898 65.7515C115.999 65.7999 116.108 65.8241 116.224 65.8241C116.378 65.8241 116.5 65.7868 116.589 65.7122C116.678 65.6377 116.723 65.542 116.723 65.4251C116.723 65.3425 116.707 65.276 116.674 65.2256C116.642 65.1753 116.598 65.134 116.543 65.1017C116.491 65.0675 116.431 65.0362 116.364 65.008L116.059 64.872C116.003 64.8458 115.942 64.8136 115.877 64.7753C115.814 64.735 115.76 64.6836 115.715 64.6212C115.673 64.5567 115.651 64.4751 115.651 64.3763C115.651 64.2796 115.677 64.195 115.727 64.1225C115.778 64.0479 115.847 63.9905 115.935 63.9502C116.024 63.9079 116.124 63.8867 116.236 63.8867C116.356 63.8867 116.463 63.9109 116.559 63.9593C116.654 64.0056 116.732 64.061 116.793 64.1255L116.714 64.2162C116.655 64.1557 116.586 64.1074 116.507 64.0711C116.428 64.0328 116.337 64.0137 116.236 64.0137C116.104 64.0137 115.996 64.0459 115.913 64.1104C115.832 64.1749 115.791 64.2615 115.791 64.3703C115.791 64.4469 115.81 64.5093 115.846 64.5577C115.885 64.606 115.93 64.6453 115.983 64.6756C116.038 64.7058 116.09 64.732 116.138 64.7541L116.443 64.8871C116.518 64.9194 116.587 64.9577 116.65 65.002C116.715 65.0443 116.767 65.0987 116.805 65.1652C116.846 65.2297 116.866 65.3133 116.866 65.416C116.866 65.5168 116.84 65.6085 116.787 65.6911C116.734 65.7717 116.659 65.8352 116.562 65.8815C116.466 65.9278 116.354 65.951 116.224 65.951Z" fill="white"/>
<path d="M129.438 74.75H164.906C168.082 74.75 170.656 77.3244 170.656 80.5V98.262C170.656 102.546 167.18 106.018 162.896 106.012L131.428 105.97C127.152 105.964 123.688 102.496 123.688 98.2201V80.5C123.688 77.3244 126.263 74.75 129.438 74.75Z" fill="white" stroke="#C5C5C5" stroke-width="0.5" stroke-linecap="round"/>
<path d="M124.838 70.7617C124.838 69.7952 125.621 69.0117 126.588 69.0117H167.759C168.725 69.0117 169.509 69.7952 169.509 70.7617V73.5437C169.509 74.4814 168.77 75.2525 167.833 75.2922L147.173 76.1676L126.514 75.2922C125.577 75.2525 124.838 74.4814 124.838 73.5437V70.7617Z" fill="#EEEEEE" stroke="#C5C5C5" stroke-width="0.5"/>
<rect x="133.01" y="82.1602" width="28.3274" height="18.7574" fill="#0098DA"/>
<rect x="134.024" y="83.1719" width="26.2962" height="16.7261" stroke="white" stroke-width="0.5"/>
<path d="M142.575 90.8974V87.9023H144.463V88.472H143.25V89.1656H144.289V89.7352H143.25V90.8974H142.575Z" fill="white"/>
<path d="M145.076 90.8974V87.9023H145.751V90.8974H145.076Z" fill="white"/>
<path d="M147.069 90.8974L146.164 87.9023H146.88L147.239 89.2988C147.285 89.4611 147.324 89.6204 147.358 89.7765C147.395 89.9327 147.436 90.0935 147.482 90.2589H147.5C147.543 90.0935 147.583 89.9327 147.62 89.7765C147.657 89.6204 147.696 89.4611 147.739 89.2988L148.093 87.9023H148.782L147.882 90.8974H147.069Z" fill="white"/>
<path d="M149.194 90.8974V87.9023H151.068V88.472H149.869V89.0737H150.889V89.6387H149.869V90.3278H151.114V90.8974H149.194Z" fill="white"/>
<path d="M141.43 94.8742V92.4734H141.599V94.7285H142.714V94.8742H141.43Z" fill="white"/>
<path d="M143.579 93.4607L143.425 93.9088H144.283L144.129 93.4607C144.08 93.3174 144.034 93.1802 143.99 93.049C143.946 92.9179 143.903 92.7782 143.861 92.6301H143.847C143.805 92.7782 143.762 92.9179 143.718 93.049C143.674 93.1802 143.628 93.3174 143.579 93.4607ZM142.918 94.8742L143.77 92.4734H143.938L144.79 94.8742H144.614L144.331 94.0509H143.373L143.087 94.8742H142.918Z" fill="white"/>
<path d="M145.25 94.8742V92.4734H145.903C146.148 92.4734 146.342 92.5208 146.487 92.6155C146.631 92.7078 146.703 92.8547 146.703 93.0563C146.703 93.1826 146.671 93.2931 146.608 93.3878C146.544 93.4801 146.451 93.5445 146.329 93.5809V93.5955C146.485 93.6198 146.611 93.6817 146.707 93.7813C146.802 93.8784 146.85 94.0096 146.85 94.1747C146.85 94.4054 146.768 94.5803 146.604 94.6993C146.443 94.8159 146.225 94.8742 145.951 94.8742H145.25ZM145.419 93.5299H145.837C146.084 93.5299 146.262 93.4898 146.369 93.4097C146.479 93.3271 146.534 93.2154 146.534 93.0745C146.534 92.9045 146.477 92.7855 146.362 92.7175C146.247 92.6471 146.078 92.6118 145.855 92.6118H145.419V93.5299ZM145.419 94.7358H145.907C146.147 94.7358 146.336 94.6908 146.476 94.601C146.615 94.5111 146.685 94.3702 146.685 94.1784C146.685 94.0059 146.616 93.8784 146.479 93.7958C146.345 93.7108 146.154 93.6683 145.907 93.6683H145.419V94.7358Z" fill="white"/>
<path d="M147.445 94.8742V92.4734H148.77V92.6191H147.614V93.5263H148.583V93.672H147.614V94.7285H148.806V94.8742H147.445Z" fill="white"/>
<path d="M149.407 94.8742V92.4734H149.576V94.7285H150.691V94.8742H149.407Z" fill="white"/>
<path d="M151.757 94.9179C151.58 94.9179 151.424 94.8839 151.287 94.8159C151.15 94.7479 151.034 94.6617 150.938 94.5572L151.048 94.4407C151.136 94.5378 151.242 94.6167 151.364 94.6775C151.486 94.7358 151.617 94.7649 151.757 94.7649C151.943 94.7649 152.089 94.72 152.197 94.6301C152.305 94.5402 152.358 94.4249 152.358 94.284C152.358 94.1844 152.339 94.1043 152.3 94.0436C152.261 93.9829 152.208 93.9331 152.142 93.8942C152.078 93.8529 152.006 93.8153 151.925 93.7813L151.558 93.6173C151.49 93.5858 151.417 93.5469 151.338 93.5008C151.262 93.4522 151.198 93.3902 151.144 93.315C151.092 93.2372 151.067 93.1389 151.067 93.0199C151.067 92.9033 151.097 92.8013 151.158 92.7138C151.22 92.624 151.303 92.5548 151.408 92.5062C151.516 92.4552 151.637 92.4297 151.771 92.4297C151.916 92.4297 152.045 92.4588 152.16 92.5171C152.275 92.573 152.37 92.6398 152.443 92.7175L152.347 92.8268C152.277 92.7539 152.193 92.6956 152.098 92.6519C152.003 92.6058 151.894 92.5827 151.771 92.5827C151.612 92.5827 151.483 92.6216 151.382 92.6993C151.284 92.777 151.236 92.8814 151.236 93.0126C151.236 93.1049 151.258 93.1802 151.302 93.2384C151.348 93.2967 151.403 93.3441 151.467 93.3805C151.533 93.417 151.595 93.4485 151.654 93.4753L152.021 93.6355C152.111 93.6744 152.195 93.7206 152.27 93.774C152.349 93.825 152.411 93.8906 152.458 93.9707C152.507 94.0484 152.531 94.1492 152.531 94.2731C152.531 94.3945 152.499 94.505 152.436 94.6046C152.372 94.7018 152.281 94.7783 152.164 94.8341C152.049 94.89 151.913 94.9179 151.757 94.9179Z" fill="white"/>
<path d="M187.106 115.137V69.118L198.067 64.9609H239.812V110.218L232.927 115.137H187.106Z" fill="white"/>
<path d="M187.106 69.118V115.137H232.927M187.106 69.118H232.927M187.106 69.118L198.067 64.9609H239.812M232.927 115.137L239.812 110.218V64.9609M232.927 115.137V69.118M239.812 64.9609L232.927 69.118" stroke="#C5C5C5" stroke-width="0.5" stroke-linecap="round"/>
<ellipse cx="210.119" cy="91.2392" rx="9.70897" ry="13.161" fill="#0098DA"/>
<path d="M218.284 91.2379C218.284 94.2279 217.381 96.9252 215.932 98.8691C214.484 100.813 212.502 101.991 210.335 101.991C208.168 101.991 206.187 100.813 204.739 98.8691C203.29 96.9252 202.387 94.2279 202.387 91.2379C202.387 88.2478 203.29 85.5506 204.739 83.6066C206.187 81.6626 208.168 80.4844 210.335 80.4844C212.502 80.4844 214.484 81.6626 215.932 83.6066C217.381 85.5506 218.284 88.2478 218.284 91.2379Z" stroke="white" stroke-width="0.5"/>
<path d="M206.595 91.0654V88.4375H208.251V88.9373H207.187V89.5459H208.098V90.0457H207.187V91.0654H206.595Z" fill="white"/>
<path d="M208.789 91.0654V88.4375H209.381V91.0654H208.789Z" fill="white"/>
<path d="M210.537 91.0654L209.743 88.4375H210.372L210.686 89.6628C210.727 89.8052 210.762 89.9449 210.791 90.0819C210.823 90.219 210.86 90.36 210.9 90.5051H210.916C210.954 90.36 210.989 90.219 211.021 90.0819C211.053 89.9449 211.088 89.8052 211.126 89.6628L211.436 88.4375H212.041L211.251 91.0654H210.537Z" fill="white"/>
<path d="M212.402 91.0654V88.4375H214.046V88.9373H212.995V89.4653H213.889V89.961H212.995V90.5656H214.087V91.0654H212.402Z" fill="white"/>
<path d="M205.59 94.555V92.4485H205.738V94.4271H206.717V94.555H205.59Z" fill="white"/>
<path d="M207.475 93.3147L207.34 93.7079H208.094L207.958 93.3147C207.916 93.189 207.875 93.0686 207.836 92.9535C207.797 92.8385 207.76 92.7159 207.723 92.586H207.711C207.674 92.7159 207.636 92.8385 207.598 92.9535C207.559 93.0686 207.518 93.189 207.475 93.3147ZM206.896 94.555L207.643 92.4485H207.791L208.538 94.555H208.383L208.136 93.8326H207.295L207.044 94.555H206.896Z" fill="white"/>
<path d="M208.942 94.555V92.4485H209.515C209.73 92.4485 209.9 92.4901 210.027 92.5732C210.153 92.6542 210.217 92.7831 210.217 92.9599C210.217 93.0708 210.189 93.1677 210.133 93.2508C210.077 93.3318 209.996 93.3883 209.888 93.4202V93.433C210.026 93.4543 210.136 93.5087 210.22 93.596C210.304 93.6813 210.346 93.7963 210.346 93.9412C210.346 94.1437 210.274 94.2971 210.13 94.4015C209.988 94.5038 209.797 94.555 209.557 94.555H208.942ZM209.09 93.3755H209.457C209.674 93.3755 209.829 93.3403 209.924 93.27C210.02 93.1975 210.069 93.0995 210.069 92.9759C210.069 92.8268 210.018 92.7223 209.917 92.6627C209.816 92.6009 209.668 92.57 209.473 92.57H209.09V93.3755ZM209.09 94.4335H209.518C209.728 94.4335 209.895 94.3941 210.017 94.3152C210.14 94.2364 210.201 94.1128 210.201 93.9444C210.201 93.7931 210.141 93.6813 210.02 93.6088C209.902 93.5342 209.735 93.4969 209.518 93.4969H209.09V94.4335Z" fill="white"/>
<path d="M210.868 94.555V92.4485H212.03V92.5764H211.016V93.3723H211.866V93.5001H211.016V94.4271H212.062V94.555H210.868Z" fill="white"/>
<path d="M212.589 94.555V92.4485H212.737V94.4271H213.716V94.555H212.589Z" fill="white"/>
<path d="M214.651 94.5933C214.496 94.5933 214.359 94.5635 214.239 94.5038C214.118 94.4442 214.016 94.3685 213.933 94.2769L214.029 94.1746C214.107 94.2598 214.199 94.3291 214.306 94.3824C214.414 94.4335 214.528 94.4591 214.651 94.4591C214.814 94.4591 214.943 94.4196 215.037 94.3408C215.132 94.262 215.179 94.1607 215.179 94.0371C215.179 93.9498 215.162 93.8795 215.127 93.8262C215.093 93.7729 215.047 93.7292 214.989 93.6951C214.933 93.6589 214.87 93.6259 214.799 93.596L214.477 93.4522C214.417 93.4245 214.352 93.3904 214.284 93.3499C214.217 93.3073 214.16 93.2529 214.113 93.1869C214.068 93.1187 214.045 93.0324 214.045 92.928C214.045 92.8257 214.072 92.7362 214.126 92.6595C214.18 92.5806 214.253 92.5199 214.345 92.4773C214.439 92.4325 214.546 92.4102 214.664 92.4102C214.79 92.4102 214.904 92.4357 215.005 92.4869C215.106 92.5359 215.188 92.5945 215.253 92.6627L215.169 92.7586C215.107 92.6946 215.034 92.6435 214.95 92.6051C214.866 92.5647 214.771 92.5444 214.664 92.5444C214.524 92.5444 214.41 92.5785 214.322 92.6467C214.236 92.7149 214.193 92.8065 214.193 92.9216C214.193 93.0026 214.213 93.0686 214.251 93.1198C214.292 93.1709 214.341 93.2125 214.396 93.2444C214.454 93.2764 214.509 93.3041 214.561 93.3275L214.883 93.4682C214.962 93.5023 215.035 93.5428 215.101 93.5896C215.17 93.6344 215.225 93.6919 215.266 93.7622C215.309 93.8304 215.33 93.9189 215.33 94.0276C215.33 94.1341 215.302 94.2311 215.246 94.3184C215.191 94.4037 215.111 94.4708 215.008 94.5198C214.907 94.5688 214.788 94.5933 214.651 94.5933Z" fill="white"/>
<path d="M70.6738 116.76V93.5427L82.0798 91.4453H125.523V114.279L118.358 116.76H70.6738Z" fill="white"/>
<path d="M70.6738 93.5427V116.76H118.358M70.6738 93.5427H118.358M70.6738 93.5427L82.0798 91.4453H125.523M118.358 116.76L125.523 114.279V91.4453M118.358 116.76V93.5427M125.523 91.4453L118.358 93.5427" stroke="#C5C5C5" stroke-width="0.5" stroke-linecap="round"/>
<path d="M175.897 116.444L175.756 106.987L170.17 109.622C164.609 109.427 164.225 108.87 162.842 107.177L162.818 116.444C165.951 119.721 174.523 118.766 175.897 116.444Z" fill="#D9D9D9" stroke="#C5C5C5" stroke-width="0.5" stroke-linecap="round"/>
<path d="M169.299 104.005C171.107 104.005 172.733 104.335 173.896 104.858C175.084 105.393 175.696 106.079 175.696 106.745C175.696 107.41 175.084 108.097 173.896 108.631C172.733 109.154 171.107 109.484 169.299 109.484C167.49 109.484 165.865 109.154 164.701 108.631C163.514 108.097 162.901 107.41 162.901 106.745C162.901 106.079 163.514 105.393 164.701 104.858C165.865 104.335 167.49 104.005 169.299 104.005Z" fill="white" stroke="#C5C5C5" stroke-width="0.5"/>
<path d="M169.299 105.399C170.21 105.399 171.023 105.564 171.598 105.82C171.887 105.948 172.104 106.094 172.247 106.243C172.388 106.392 172.445 106.531 172.445 106.659C172.445 106.786 172.388 106.925 172.247 107.074C172.104 107.223 171.887 107.369 171.598 107.497C171.023 107.753 170.21 107.918 169.299 107.918C168.387 107.918 167.574 107.753 166.999 107.497C166.71 107.369 166.493 107.223 166.35 107.074C166.209 106.925 166.152 106.786 166.152 106.659C166.152 106.531 166.209 106.392 166.35 106.243C166.493 106.094 166.71 105.948 166.999 105.82C167.574 105.564 168.387 105.399 169.299 105.399Z" stroke="#C5C5C5" stroke-width="0.5"/>
<ellipse cx="169.107" cy="106.605" rx="0.949601" ry="1.8992" transform="rotate(-90 169.107 106.605)" fill="#C5C5C5"/>
<path d="M165.031 111.235L165.031 116.444C165.031 116.884 165.32 117.276 165.746 117.386C168.237 118.027 169.647 117.755 170.26 117.409C170.466 117.293 170.546 117.056 170.546 116.82L170.546 111.419C170.546 110.86 170.089 110.407 169.531 110.407C168.901 110.406 168.153 110.403 167.589 110.403C166.968 110.403 166.567 110.364 166.253 110.304C165.618 110.182 165.031 110.589 165.031 111.235Z" fill="#ED3237"/>
<path d="M172.931 117.122C173.539 116.976 174.057 116.745 174.485 116.484C175.615 115.793 175.897 114.399 175.897 113.074L175.897 107.73C175.639 108.782 174.003 109.501 172.75 109.825C172.261 109.952 171.883 110.376 171.883 110.881L171.883 116.216C171.883 116.792 172.372 117.258 172.931 117.122Z" fill="white"/>
<path d="M162.895 109.63L162.895 115.156C162.895 115.164 162.896 115.172 162.9 115.18C163.124 115.639 163.814 115.479 163.814 114.968L163.814 109.958C163.814 109.845 163.789 109.735 163.739 109.634L163.649 109.453C163.462 109.076 162.895 109.209 162.895 109.63Z" fill="white"/>
<rect x="77.9014" y="98.6953" width="33.7317" height="13.9143" fill="#FFCC29"/>
<rect x="78.9961" y="99.7852" width="31.5451" height="12.1494" stroke="white" stroke-width="0.5"/>
<path d="M90.4307 105.065V102.07H92.3186V102.64H91.1059V103.334H92.1441V103.903H91.1059V105.065H90.4307Z" fill="white"/>
<path d="M92.9315 105.065V102.07H93.6068V105.065H92.9315Z" fill="white"/>
<path d="M94.9241 105.065L94.0192 102.07H94.7358L95.0941 103.467C95.14 103.629 95.1799 103.788 95.2135 103.945C95.2503 104.101 95.2916 104.261 95.3376 104.427H95.3559C95.3988 104.261 95.4386 104.101 95.4754 103.945C95.5121 103.788 95.5519 103.629 95.5948 103.467L95.9485 102.07H96.6376L95.7372 105.065H94.9241Z" fill="white"/>
<path d="M97.0494 105.065V102.07H98.9237V102.64H97.7247V103.242H98.7445V103.807H97.7247V104.496H98.9696V105.065H97.0494Z" fill="white"/>
<path d="M89.2852 109.042V106.641H89.454V108.896H90.5696V109.042H89.2852Z" fill="white"/>
<path d="M91.4343 107.629L91.2801 108.077H92.1389L91.9847 107.629C91.9358 107.485 91.8893 107.348 91.8453 107.217C91.8012 107.086 91.7584 106.946 91.7168 106.798H91.7022C91.6606 106.946 91.6178 107.086 91.5737 107.217C91.5297 107.348 91.4832 107.485 91.4343 107.629ZM90.7737 109.042L91.6251 106.641H91.7939L92.6453 109.042H92.4692L92.1866 108.219H91.2287L90.9425 109.042H90.7737Z" fill="white"/>
<path d="M93.1054 109.042V106.641H93.7586C94.0033 106.641 94.1978 106.689 94.3421 106.783C94.4865 106.876 94.5587 107.023 94.5587 107.224C94.5587 107.351 94.5268 107.461 94.4632 107.556C94.3996 107.648 94.3067 107.712 94.1843 107.749V107.763C94.3409 107.788 94.4669 107.85 94.5623 107.949C94.6577 108.046 94.7054 108.178 94.7054 108.343C94.7054 108.573 94.6235 108.748 94.4596 108.867C94.2981 108.984 94.0803 109.042 93.8063 109.042H93.1054ZM93.2742 107.698H93.6926C93.9397 107.698 94.117 107.658 94.2247 107.578C94.3348 107.495 94.3898 107.383 94.3898 107.242C94.3898 107.072 94.3323 106.953 94.2174 106.885C94.1024 106.815 93.9336 106.78 93.7109 106.78H93.2742V107.698ZM93.2742 108.904H93.7623C94.0021 108.904 94.1917 108.859 94.3311 108.769C94.4706 108.679 94.5403 108.538 94.5403 108.346C94.5403 108.174 94.4718 108.046 94.3348 107.964C94.2002 107.879 94.0094 107.836 93.7623 107.836H93.2742V108.904Z" fill="white"/>
<path d="M95.3004 109.042V106.641H96.6252V106.787H95.4692V107.694H96.4381V107.84H95.4692V108.896H96.6619V109.042H95.3004Z" fill="white"/>
<path d="M97.2625 109.042V106.641H97.4313V108.896H98.547V109.042H97.2625Z" fill="white"/>
<path d="M99.6121 109.086C99.436 109.086 99.2794 109.052 99.1424 108.984C99.0054 108.916 98.8891 108.83 98.7937 108.725L98.9038 108.609C98.9919 108.706 99.0971 108.785 99.2194 108.845C99.3418 108.904 99.4727 108.933 99.6121 108.933C99.798 108.933 99.9448 108.888 100.052 108.798C100.16 108.708 100.214 108.593 100.214 108.452C100.214 108.352 100.194 108.272 100.155 108.212C100.116 108.151 100.063 108.101 99.9974 108.062C99.9338 108.021 99.8617 107.983 99.7809 107.949L99.4139 107.785C99.3454 107.754 99.272 107.715 99.1937 107.669C99.1179 107.62 99.0531 107.558 98.9992 107.483C98.9479 107.405 98.9222 107.307 98.9222 107.188C98.9222 107.071 98.9528 106.969 99.0139 106.882C99.0751 106.792 99.1583 106.723 99.2635 106.674C99.3711 106.623 99.4922 106.598 99.6268 106.598C99.7711 106.598 99.9008 106.627 100.016 106.685C100.131 106.741 100.225 106.808 100.298 106.885L100.203 106.995C100.132 106.922 100.049 106.864 99.9534 106.82C99.858 106.774 99.7491 106.751 99.6268 106.751C99.4678 106.751 99.3381 106.79 99.2378 106.867C99.1399 106.945 99.091 107.049 99.091 107.181C99.091 107.273 99.113 107.348 99.157 107.406C99.2035 107.465 99.2586 107.512 99.3222 107.548C99.3882 107.585 99.4506 107.617 99.5093 107.643L99.8763 107.804C99.9669 107.842 100.05 107.889 100.126 107.942C100.204 107.993 100.267 108.059 100.313 108.139C100.362 108.216 100.386 108.317 100.386 108.441C100.386 108.562 100.355 108.673 100.291 108.773C100.227 108.87 100.137 108.946 100.019 109.002C99.9045 109.058 99.7687 109.086 99.6121 109.086Z" fill="white"/>
<path d="M178.314 118.818L192.983 118.599L188.896 109.934C189.198 101.308 190.062 100.714 192.688 98.5675L178.314 98.5312C173.232 103.391 174.712 116.687 178.314 118.818Z" fill="#D9D9D9" stroke="#C5C5C5" stroke-width="0.5" stroke-linecap="round"/>
<path d="M197.742 108.584C197.742 111.404 197.227 113.945 196.405 115.772C195.573 117.622 194.475 118.644 193.354 118.644C192.233 118.644 191.135 117.622 190.303 115.772C189.481 113.945 188.967 111.404 188.967 108.584C188.967 105.764 189.481 103.223 190.303 101.396C191.135 99.5456 192.233 98.5234 193.354 98.5234C194.475 98.5234 195.573 99.5456 196.405 101.396C197.227 103.223 197.742 105.764 197.742 108.584Z" fill="white" stroke="#C5C5C5" stroke-width="0.5"/>
<path d="M195.581 108.584C195.581 110.012 195.323 111.293 194.917 112.208C194.713 112.665 194.478 113.02 194.229 113.257C193.981 113.493 193.732 113.602 193.49 113.602C193.248 113.602 192.998 113.493 192.751 113.257C192.502 113.02 192.266 112.665 192.063 112.208C191.656 111.293 191.398 110.012 191.398 108.584C191.398 107.156 191.656 105.875 192.063 104.961C192.266 104.503 192.502 104.148 192.751 103.911C192.998 103.676 193.248 103.566 193.49 103.566C193.732 103.566 193.981 103.676 194.229 103.911C194.478 104.148 194.713 104.503 194.917 104.961C195.323 105.875 195.581 107.156 195.581 108.584Z" stroke="#C5C5C5" stroke-width="0.5"/>
<ellipse cx="193.573" cy="108.29" rx="1.47292" ry="2.94584" fill="#C5C5C5"/>
<path d="M185.821 101.965H179.387C178.065 101.965 176.875 102.827 176.606 104.121C176.204 106.048 176.184 107.494 176.337 108.529C176.545 109.93 177.938 110.519 179.355 110.519H185.65C186.767 110.519 187.674 109.605 187.676 108.489C187.678 107.622 187.681 106.674 187.681 105.932C187.681 105.302 187.707 104.817 187.751 104.421C187.895 103.137 187.114 101.965 185.821 101.965Z" fill="#FFCC29"/>
<path d="M177.139 113.644C177.434 115.344 178.156 116.643 178.893 117.527C179.741 118.544 181.104 118.817 182.429 118.817H191.826C190.059 118.383 188.896 115.439 188.463 113.46C188.355 112.966 187.931 112.59 187.426 112.59H178.079C177.503 112.59 177.041 113.077 177.139 113.644Z" fill="white"/>
<path d="M188.47 98.6445H180.455C180.346 98.6445 180.239 98.6693 180.141 98.717C179.462 99.0492 179.698 100.071 180.455 100.071H188.47C188.58 100.071 188.688 100.046 188.787 99.9972C189.462 99.6622 189.224 98.6445 188.47 98.6445Z" fill="white"/>
<path d="M183.216 112.767L175.43 112.883L177.599 117.483C177.439 122.061 176.981 122.377 175.587 123.516L183.216 123.535C185.914 120.956 185.128 113.899 183.216 112.767Z" fill="#D9D9D9" stroke="#C5C5C5" stroke-width="0.5" stroke-linecap="round"/>
<path d="M173.022 118.199C173.022 116.715 173.293 115.383 173.721 114.432C174.16 113.457 174.714 112.977 175.234 112.977C175.754 112.977 176.308 113.457 176.746 114.432C177.174 115.383 177.445 116.715 177.445 118.199C177.445 119.683 177.174 121.015 176.746 121.966C176.308 122.941 175.754 123.422 175.234 123.422C174.714 123.422 174.16 122.941 173.721 121.966C173.293 121.015 173.022 119.683 173.022 118.199Z" fill="white" stroke="#C5C5C5" stroke-width="0.5"/>
<path d="M174.171 118.196C174.171 117.451 174.306 116.788 174.513 116.321C174.617 116.087 174.735 115.913 174.852 115.801C174.969 115.69 175.073 115.65 175.164 115.65C175.254 115.65 175.359 115.69 175.475 115.801C175.593 115.913 175.71 116.087 175.814 116.321C176.021 116.788 176.156 117.451 176.156 118.196C176.156 118.942 176.021 119.605 175.814 120.072C175.71 120.306 175.593 120.479 175.475 120.591C175.359 120.702 175.254 120.742 175.164 120.742C175.073 120.742 174.969 120.702 174.852 120.591C174.735 120.479 174.617 120.306 174.513 120.072C174.306 119.605 174.171 118.942 174.171 118.196Z" stroke="#C5C5C5" stroke-width="0.5"/>
<ellipse cx="175.118" cy="118.358" rx="0.781806" ry="1.56361" transform="rotate(180 175.118 118.358)" fill="#C5C5C5"/>
<path d="M179.155 121.715L183.088 121.715C183.529 121.715 183.922 121.427 184.028 120.999C184.345 119.713 184.361 118.789 184.257 118.164C184.14 117.465 183.442 117.174 182.733 117.174L179.262 117.174C178.704 117.174 178.25 117.631 178.249 118.19C178.248 118.666 178.246 119.197 178.246 119.609C178.246 119.986 178.229 120.264 178.2 120.488C178.117 121.129 178.509 121.715 179.155 121.715Z" fill="#0098DA"/>
<path d="M183.727 115.029C183.359 113.736 182.533 112.974 182.098 112.769L176.042 112.769C176.866 112.971 177.442 114.201 177.726 115.21C177.863 115.696 178.288 116.074 178.793 116.074L182.841 116.074C183.417 116.074 183.885 115.583 183.727 115.029Z" fill="white"/>
<path d="M177.607 123.473L182.157 123.473C182.164 123.473 182.17 123.471 182.176 123.468C182.554 123.284 182.423 122.715 182.002 122.715L177.877 122.715C177.785 122.715 177.693 122.737 177.61 122.778L177.461 122.852C177.151 123.005 177.261 123.473 177.607 123.473Z" fill="white"/>
</svg>
