<svg width="506" height="229" viewBox="0 0 506 229" fill="none" xmlns="http://www.w3.org/2000/svg">
<path d="M157.979 145.849C155.69 145.53 153.709 144.976 152.039 144.19C150.375 143.353 148.87 142.262 147.526 140.917C146.232 139.578 144.877 137.929 143.461 135.969C142.89 134.53 142.473 133.263 142.211 132.169C142.005 131.033 141.999 129.723 142.193 128.239C142.349 127.053 142.759 126.052 143.423 125.239C144.087 124.425 145.14 124.119 146.584 124.32C147.629 124.466 148.518 125.219 149.252 126.58C149.385 127.505 149.696 128.606 150.188 129.883C150.68 131.16 151.501 132.433 152.653 133.701C153.854 134.977 155.507 136.088 157.613 137.037C158.191 137.268 158.853 137.436 159.6 137.54C160.894 137.721 162.245 137.658 163.653 137.351C165.112 137.05 166.375 136.497 167.444 135.689C168.513 134.881 169.138 133.785 169.319 132.401C169.475 131.214 169.209 130.145 168.523 129.193C167.887 128.248 167.06 127.403 166.043 126.657C165.082 125.868 164.182 125.189 163.345 124.619C161.713 123.535 160.059 122.423 158.384 121.283C156.709 120.143 155.203 118.876 153.865 117.481C152.534 116.036 151.506 114.408 150.78 112.594C150.105 110.788 149.923 108.698 150.233 106.325C150.59 103.605 151.584 101.428 153.218 99.7926C154.857 98.1079 156.834 96.9486 159.147 96.3145C161.516 95.6379 163.92 95.4698 166.359 95.8099C167.205 95.928 168.265 96.1514 169.54 96.4802C170.864 96.816 172.25 97.2611 173.698 97.8155C175.145 98.3699 176.499 99.0623 177.759 99.8926C179.025 100.673 180.019 101.593 180.742 102.65C181.465 103.708 181.739 104.904 181.564 106.239C181.422 107.327 180.873 108.232 179.916 108.955C179.016 109.635 178.019 109.899 176.924 109.746C175.73 109.579 174.738 109.214 173.951 108.651C173.163 108.088 172.406 107.479 171.681 106.824C171.006 106.176 170.2 105.56 169.263 104.976C168.326 104.392 167.135 104 165.692 103.798L163.527 103.496C162.218 103.817 161.089 104.314 160.139 104.988C159.196 105.611 158.672 106.319 158.569 107.11C158.374 108.593 158.732 109.927 159.641 111.111C160.6 112.303 161.867 113.461 163.443 114.587C165.074 115.671 166.778 116.79 168.552 117.943C170.377 119.104 172.054 120.421 173.584 121.893C175.171 123.323 176.37 125.001 177.182 126.927C178.05 128.81 178.316 131.037 177.979 133.609C177.662 136.032 176.86 138.085 175.576 139.769C174.291 141.453 172.696 142.791 170.793 143.784C168.889 144.778 166.825 145.446 164.6 145.791C162.376 146.135 160.169 146.154 157.979 145.849Z" fill="#373435"/>
<path d="M202.442 150.541C200.999 150.339 200.038 149.551 199.559 148.175C199.087 146.749 198.939 145.369 199.114 144.034C200.928 138.698 202.33 133.405 203.322 128.156C204.32 122.857 205.236 117.22 206.07 111.243C204.122 111.022 202.495 110.871 201.188 110.789C199.881 110.707 198.581 110.576 197.287 110.396L192.509 109.729C191.347 109.316 190.459 108.739 189.847 107.999C189.284 107.266 189.084 106.281 189.246 105.045C189.466 103.363 190.084 102.317 191.101 101.905C192.174 101.45 193.383 101.317 194.727 101.504C195.025 101.546 195.324 101.587 195.623 101.629C195.921 101.671 196.217 101.737 196.509 101.828C197.467 101.861 198.927 101.939 200.887 102.061C202.854 102.134 204.967 102.253 207.226 102.417C209.492 102.532 211.58 102.647 213.491 102.762C215.401 102.877 216.811 102.948 217.72 102.974L220.706 103.391C221.801 103.544 223.11 103.802 224.634 104.165C226.207 104.536 227.732 105.076 229.21 105.786C230.695 106.446 231.873 107.315 232.746 108.394C233.668 109.479 234.025 110.813 233.818 112.395C233.695 113.335 233.223 114.225 232.404 115.068C231.59 115.861 230.636 116.181 229.541 116.028C228.944 115.945 228.348 115.66 227.752 115.174C227.164 114.639 226.581 114.256 226.003 114.024C224.761 113.448 223.446 113.038 222.059 112.794C220.672 112.55 219.331 112.338 218.037 112.157L215.126 111.751L214.798 111.932C214.714 112.575 214.553 113.61 214.315 115.037C214.078 116.464 213.814 118.089 213.525 119.912C213.242 121.685 212.959 123.458 212.676 125.231C212.442 127.011 212.242 128.544 212.073 129.83C211.795 131.956 211.364 134.086 210.78 136.22C210.252 138.312 209.843 139.891 209.551 140.958C209.348 141.736 209.022 142.672 208.575 143.768C208.134 144.814 207.674 145.807 207.196 146.748C206.718 147.688 206.241 148.427 205.765 148.965C205.339 149.51 204.852 149.945 204.302 150.271C203.759 150.548 203.139 150.638 202.442 150.541Z" fill="#373435"/>
<path d="M238.186 156.659C237.091 156.507 236.274 156.166 235.735 155.638C235.246 155.116 235.092 154.163 235.273 152.779C235.442 151.493 235.782 150.634 236.295 150.202C236.864 149.728 237.488 149.412 238.167 149.255C238.847 149.098 239.436 148.853 239.936 148.52C240.486 148.194 240.828 147.511 240.964 146.473C241.081 145.583 241.123 144.682 241.09 143.772C241.107 142.868 241.161 142.07 241.252 141.377L241.446 139.894C241.53 139.251 241.691 138.216 241.929 136.789C242.216 135.369 242.52 133.825 242.84 132.158C243.166 130.441 243.454 128.82 243.705 127.294C244.005 125.775 244.207 124.62 244.311 123.828C244.878 122.598 245.234 121.616 245.381 120.881C245.528 120.146 245.689 119.111 245.864 117.776L246.088 116.07C245.661 115.457 245.147 114.932 244.545 114.496C244 114.017 243.511 113.495 243.078 112.931C242.701 112.325 242.574 111.552 242.697 110.613C242.827 109.624 243.198 108.92 243.81 108.502C244.472 108.091 245.201 107.941 245.998 108.052C246.744 108.156 247.406 108.324 247.984 108.555C248.568 108.738 249.134 108.867 249.682 108.943L250.428 109.047C251.772 109.235 253.139 109.249 254.528 109.091C255.973 108.889 257.368 108.882 258.711 109.07L259.085 109.122C260.08 109.261 260.841 109.644 261.367 110.271C261.893 110.898 262.081 111.781 261.932 112.918C261.764 114.204 261.402 115.034 260.846 115.41C260.29 115.785 259.675 116.027 259.002 116.135C258.23 116.228 257.51 116.304 256.844 116.362C256.227 116.427 255.6 116.768 254.962 117.384C252.413 125.235 250.607 133.216 249.545 141.326C249.376 142.611 249.237 143.674 249.127 144.515C249.067 145.363 249.029 146.616 249.014 148.276C249.118 148.643 249.484 148.945 250.112 149.184C250.746 149.373 251.451 149.597 252.228 149.857C253.005 150.116 253.635 150.531 254.117 151.102C254.65 151.68 254.842 152.538 254.693 153.675C254.55 154.763 254.07 155.527 253.252 155.966C252.484 156.413 251.54 156.659 250.419 156.704C249.348 156.756 248.261 156.73 247.16 156.627C246.108 156.531 245.224 156.508 244.508 156.559C243.742 156.604 242.92 156.69 242.042 156.82C241.163 156.949 240.351 156.961 239.604 156.857L238.186 156.659Z" fill="#373435"/>
<path d="M285.131 165.474C280.951 164.89 277.341 163.43 274.302 161.093C271.264 158.756 269.016 155.799 267.558 152.222C266.108 148.596 265.661 144.656 266.218 140.404C266.555 137.832 267.306 135.193 268.472 132.485C269.644 129.729 271.126 127.116 272.919 124.647C274.762 122.185 276.846 120.008 279.172 118.117C281.554 116.184 284.123 114.755 286.879 113.83C289.636 112.905 292.482 112.648 295.419 113.057C297.658 113.37 299.815 114.124 301.888 115.319C304.011 116.522 305.678 118.114 306.888 120.095C308.154 122.034 308.616 124.314 308.272 126.935L307.981 129.16C307.522 129.952 306.982 130.405 306.358 130.52C305.735 130.634 305.05 130.639 304.304 130.535C303.259 130.389 302.473 130.003 301.947 129.376C301.471 128.755 301.086 128.022 300.791 127.175C300.497 126.328 300.177 125.478 299.833 124.625C299.489 123.771 298.954 123.017 298.229 122.362C297.554 121.714 296.519 121.292 295.126 121.098C292.438 120.723 289.937 121.054 287.622 122.09C285.363 123.085 283.348 124.541 281.576 126.459C279.805 128.377 278.359 130.516 277.238 132.878C276.125 135.189 275.419 137.483 275.121 139.757C274.894 141.488 274.935 143.306 275.242 145.212C275.557 147.069 276.108 148.858 276.896 150.579C277.74 152.258 278.844 153.695 280.208 154.893C281.578 156.041 283.208 156.746 285.1 157.01C287.389 157.329 289.734 157.229 292.133 156.707C294.533 156.186 296.679 155.277 298.572 153.98C299.465 153.349 300.405 152.75 301.392 152.183C302.379 151.616 303.444 151.412 304.589 151.572C305.684 151.724 306.581 152.227 307.28 153.08C308.035 153.89 308.326 154.963 308.151 156.298C308.079 156.842 307.859 157.365 307.489 157.867C307.119 158.37 306.703 158.84 306.24 159.279C305.833 159.676 305.38 160.04 304.88 160.374C304.387 160.657 303.89 160.966 303.391 161.299C300.624 163.078 297.722 164.335 294.687 165.069C291.651 165.804 288.466 165.939 285.131 165.474Z" fill="#373435"/>
<path d="M317.001 165.765C316.315 164.813 315.899 163.925 315.754 163.099C315.665 162.23 315.701 161.178 315.863 159.942C316.129 157.914 316.612 155.968 317.312 154.102C318.013 152.236 318.763 150.377 319.563 148.525C320.364 146.672 321.018 144.775 321.526 142.832L322.245 137.343C322.53 135.167 322.74 132.981 322.876 130.784C323.068 128.545 323.306 126.338 323.591 124.162L323.98 121.195C324.384 120.043 324.886 119.308 325.485 118.988C326.141 118.627 327.016 118.522 328.111 118.675C329.305 118.842 330.178 119.341 330.727 120.173C331.334 120.962 331.715 121.922 331.871 123.051C332.033 124.131 332.065 125.244 331.966 126.388C331.867 127.532 331.762 128.524 331.652 129.365C331.6 129.761 331.515 130.605 331.396 131.897C331.284 133.141 331.152 134.532 331.001 136.072C330.85 137.612 330.69 139.024 330.522 140.31L330.821 140.352C331.32 140.019 331.982 139.607 332.807 139.118C333.637 138.58 334.324 138.172 334.867 137.895C336.661 136.584 338.426 135.295 340.163 134.027C341.907 132.709 343.496 131.219 344.93 129.556C345.594 128.742 346.433 127.751 347.448 126.584C348.519 125.374 349.645 124.322 350.826 123.43C352.007 122.537 353.145 122.167 354.24 122.32C355.335 122.472 356.226 123.025 356.912 123.976C357.654 124.886 357.951 125.909 357.802 127.046C357.595 128.628 356.88 130.216 355.658 131.807C354.492 133.357 353.137 134.804 351.592 136.15C350.104 137.453 348.741 138.572 347.503 139.507C347.222 139.719 346.691 140.098 345.91 140.644C345.179 141.197 344.335 141.834 343.379 142.557C342.423 143.279 341.495 143.981 340.595 144.661C339.745 145.348 339.013 145.9 338.401 146.318L338.362 146.615L338.612 147.028C339.803 147.999 341.141 149.193 342.628 150.609C344.171 151.982 345.655 153.423 347.079 154.931C348.56 156.396 349.773 157.774 350.719 159.064C351.541 160.135 352.223 161.313 352.765 162.597C353.356 163.888 353.557 165.25 353.369 166.684C353.227 167.772 352.778 168.49 352.023 168.838C351.318 169.192 350.368 169.287 349.173 169.12C348.477 169.023 347.762 168.671 347.031 168.066C346.299 167.46 345.621 166.837 344.995 166.196C344.407 165.661 343.784 164.995 343.129 164.198C342.479 163.352 341.827 162.531 341.171 161.735C340.565 160.945 340.007 160.364 339.499 159.991C337.57 158.463 335.739 156.773 334.005 154.92C332.272 153.067 330.441 151.376 328.512 149.848L328.288 149.817C327.852 151.216 327.395 152.764 326.92 154.46C326.494 156.163 325.997 157.831 325.428 159.463C324.86 161.096 324.115 162.528 323.193 163.759C322.642 164.488 321.982 165.075 321.214 165.522C320.446 165.969 319.564 166.123 318.569 165.984L317.001 165.765Z" fill="#373435"/>
<path d="M377.138 175.664C373.903 175.213 371.358 174.329 369.503 173.013C367.705 171.655 366.431 169.966 365.682 167.948C364.989 165.888 364.658 163.576 364.69 161.013C364.771 158.456 365.028 155.722 365.46 152.812C364.791 152.114 364.293 151.466 363.966 150.866C363.689 150.274 363.622 149.434 363.764 148.346C363.907 147.258 364.231 146.523 364.738 146.14C365.3 145.715 365.927 145.375 366.62 145.119C367.319 144.813 367.937 144.346 368.476 143.716C368.645 143.589 368.826 143.362 369.021 143.037C369.222 142.662 369.367 142.33 369.456 142.04C369.99 141.057 370.378 140.029 370.62 138.955C370.918 137.838 371.288 136.757 371.729 135.711L371.778 135.34C371.784 135.291 371.577 135.136 371.155 134.875C370.254 134.397 369.339 133.842 368.408 133.208C367.478 132.575 367.1 131.591 367.275 130.256C367.475 128.723 368.041 127.694 368.971 127.169C369.902 126.644 371.027 126.373 372.347 126.356C375.603 126.256 378.694 126.26 381.62 126.365C384.601 126.429 387.71 126.686 390.945 127.138C391.891 127.269 392.929 127.465 394.061 127.723C395.199 127.932 396.268 128.283 397.268 128.775C398.274 129.217 399.056 129.83 399.612 130.612C400.225 131.352 400.456 132.291 400.307 133.428C400.204 134.22 399.83 134.948 399.185 135.613C398.54 136.279 397.77 136.549 396.874 136.424L385.079 134.778C383.536 134.563 382.239 134.986 381.187 136.048C380.192 137.068 379.407 138.418 378.832 140.1C378.264 141.733 377.823 143.358 377.509 144.976C379.258 145.17 380.76 145.304 382.018 145.378C383.275 145.453 384.451 145.567 385.546 145.72L388.532 146.136C391.11 147.352 392.243 149.146 391.932 151.52C391.776 152.706 391.137 153.524 390.014 153.971C388.898 154.369 387.505 154.553 385.837 154.521C384.225 154.448 382.52 154.31 380.722 154.11C378.93 153.86 377.306 153.684 375.85 153.581C374.898 153.499 374.245 153.836 373.893 154.592C373.54 155.349 373.306 156.172 373.189 157.062C373.137 157.458 373.082 157.878 373.024 158.323C373.022 158.726 373.002 159.075 372.963 159.372C372.859 160.163 372.792 161.06 372.762 162.063C372.739 163.016 372.902 163.895 373.253 164.699C373.604 165.504 374.282 166.127 375.289 166.569L378.648 167.038C380.987 167.364 383.34 167.391 385.708 167.117C388.124 166.849 390.503 166.879 392.842 167.205C394.136 167.386 395.049 167.765 395.581 168.343C396.114 168.921 396.28 169.976 396.079 171.509C395.859 173.19 394.94 174.396 393.324 175.128C391.715 175.809 389.913 176.213 387.92 176.337C386.133 176.441 384.337 176.417 382.533 176.266C380.728 176.115 378.93 175.914 377.138 175.664Z" fill="#373435"/>
<path d="M411.35 181.569C410.105 181.396 409.177 180.939 408.564 180.199C408.002 179.466 407.602 178.453 407.366 177.162L407.891 173.156C408.448 168.904 409.229 164.683 410.234 160.492C411.289 156.309 412.095 152.092 412.652 147.839C412.781 146.85 412.896 145.783 412.995 144.639C413.144 143.502 413.185 142.224 413.117 140.804C411.961 140.341 410.999 139.754 410.231 139.042C409.463 138.331 409.16 137.357 409.322 136.121C409.496 134.786 410.133 133.792 411.232 133.14C412.338 132.438 413.688 131.997 415.283 131.816C416.884 131.587 418.54 131.516 420.252 131.603C422.02 131.648 423.65 131.775 425.143 131.983C426.643 132.142 427.816 132.281 428.662 132.399C431.947 132.857 435.083 133.672 438.072 134.844C441.117 135.974 443.686 137.641 445.779 139.847C447.921 142.059 449.254 145.039 449.777 148.788L449.378 151.829C449.326 152.225 449.271 152.645 449.213 153.09C449.204 153.542 449.174 153.966 449.122 154.361C449.077 154.707 449.004 155.075 448.902 155.463C448.8 155.852 448.652 156.209 448.458 156.534C447.227 158.578 445.657 160.121 443.746 161.164C441.892 162.164 439.908 162.995 437.794 163.657C437.433 163.707 436.888 163.808 436.158 163.958C435.436 164.058 435.052 164.282 435.006 164.628L434.958 164.999C436.036 166.055 437.026 167.2 437.929 168.434C438.881 169.675 439.812 170.887 440.721 172.071C441.723 173.319 442.578 174.722 443.286 176.281C444.05 177.798 444.348 179.199 444.18 180.484C444.011 181.77 443.505 182.732 442.662 183.369C441.824 183.957 440.759 184.161 439.465 183.981C438.868 183.897 438.262 183.687 437.647 183.349C437.091 182.567 436.574 181.865 436.098 181.245C435.678 180.582 435.243 179.842 434.793 179.024C434.356 178.107 433.754 177.091 432.987 175.977C432.277 174.821 431.508 173.732 430.679 172.71C429.906 171.645 429.182 170.789 428.507 170.141C428.074 169.577 427.377 168.901 426.416 168.112C425.511 167.281 424.56 166.418 423.562 165.524C422.614 164.636 421.822 163.72 421.186 162.775C420.549 161.831 420.289 160.913 420.406 160.023C420.529 159.084 421.102 158.383 422.125 157.922C423.149 157.46 424.408 157.132 425.903 156.938C427.455 156.701 429.081 156.475 430.781 156.259C432.532 156.05 434.168 155.75 435.689 155.357C437.259 154.972 438.576 154.401 439.638 153.643C440.707 152.835 441.332 151.739 441.513 150.354C441.753 148.525 441.34 147.032 440.275 145.877C439.26 144.728 437.908 143.834 436.218 143.196C434.584 142.515 432.899 142.028 431.164 141.736C429.435 141.394 427.973 141.139 426.778 140.973L423.12 140.462L422.783 140.718L416.573 173.612C416.433 174.298 416.273 175.131 416.093 176.113C415.921 177.046 415.648 177.965 415.276 178.869C414.961 179.732 414.487 180.446 413.855 181.013C413.23 181.53 412.395 181.715 411.35 181.569Z" fill="#373435"/>
<path d="M470.158 189.395C467.868 189.076 465.888 188.522 464.218 187.735C462.554 186.899 461.049 185.808 459.705 184.463C458.411 183.124 457.056 181.475 455.64 179.515C455.069 178.076 454.652 176.809 454.39 175.715C454.184 174.579 454.178 173.269 454.372 171.785C454.528 170.599 454.938 169.598 455.602 168.785C456.266 167.971 457.319 167.665 458.763 167.866C459.808 168.012 460.697 168.765 461.431 170.126C461.564 171.051 461.875 172.152 462.367 173.429C462.858 174.706 463.68 175.979 464.832 177.247C466.033 178.523 467.686 179.634 469.792 180.583C470.37 180.814 471.032 180.982 471.778 181.086C473.072 181.267 474.424 181.204 475.832 180.896C477.291 180.596 478.554 180.043 479.623 179.235C480.692 178.427 481.317 177.331 481.498 175.947C481.653 174.76 481.388 173.691 480.702 172.739C480.065 171.794 479.239 170.949 478.221 170.203C477.261 169.414 476.361 168.735 475.524 168.165C473.892 167.081 472.238 165.969 470.563 164.829C468.888 163.689 467.382 162.422 466.044 161.027C464.713 159.582 463.685 157.954 462.959 156.14C462.284 154.334 462.101 152.244 462.412 149.871C462.769 147.151 463.763 144.974 465.397 143.339C467.036 141.654 469.013 140.495 471.326 139.86C473.695 139.184 476.099 139.016 478.538 139.356C479.384 139.474 480.444 139.697 481.719 140.026C483.043 140.362 484.429 140.807 485.877 141.362C487.324 141.916 488.678 142.608 489.938 143.439C491.204 144.219 492.198 145.139 492.921 146.196C493.644 147.254 493.918 148.45 493.743 149.785C493.601 150.873 493.052 151.778 492.095 152.501C491.195 153.181 490.198 153.445 489.103 153.292C487.909 153.125 486.917 152.76 486.13 152.197C485.342 151.634 484.585 151.025 483.86 150.37C483.185 149.722 482.379 149.106 481.442 148.522C480.505 147.938 479.314 147.546 477.871 147.344L475.706 147.042C474.397 147.363 473.268 147.86 472.318 148.534C471.375 149.157 470.851 149.865 470.748 150.656C470.553 152.139 470.911 153.473 471.82 154.657C472.779 155.848 474.046 157.007 475.622 158.133C477.253 159.217 478.957 160.336 480.731 161.489C482.556 162.65 484.233 163.967 485.763 165.439C487.35 166.869 488.549 168.547 489.361 170.473C490.229 172.356 490.495 174.583 490.158 177.155C489.841 179.578 489.039 181.631 487.755 183.315C486.47 184.999 484.875 186.337 482.971 187.33C481.068 188.324 479.003 188.992 476.779 189.337C474.555 189.681 472.348 189.7 470.158 189.395Z" fill="#373435"/>
<path d="M125.046 68.0806C122.683 67.7509 121.419 66.372 121.256 63.944L121.7 60.5549C122.473 54.6496 123.569 48.7369 124.986 42.8169C126.463 36.8528 127.598 30.8411 128.392 24.7818C128.58 23.344 129.139 22.1409 130.068 21.1724C131.057 20.16 132.312 19.76 133.836 19.9725C135.096 20.1483 135.952 20.5553 136.404 21.1934C136.908 21.8389 137.155 22.6054 137.145 23.493C137.195 24.3366 137.163 25.1949 137.049 26.0678C136.356 31.3569 135.417 36.69 134.231 42.0672C133.052 47.393 132.016 53.0526 131.124 59.0459L133.409 59.3646C134 59.3425 134.858 59.3314 135.981 59.3312C137.111 59.2796 138.293 59.2354 139.528 59.1986C140.816 59.169 142.021 59.1542 143.145 59.154C144.268 59.1538 145.125 59.1427 145.716 59.1206L148.08 59.4503C148.816 59.5529 149.679 59.6994 150.67 59.89C151.721 60.0365 152.702 60.3041 153.614 60.6928C154.585 61.0374 155.345 61.5618 155.895 62.2659C156.451 62.9187 156.652 63.8356 156.497 65.0166C156.316 66.4031 155.731 67.3935 154.744 67.9878C153.81 68.5895 152.695 68.9308 151.401 69.0117C150.159 69.0999 149.013 69.0707 147.962 68.9242L139.453 67.7372C138.862 67.7593 137.948 67.7888 136.713 67.8257C135.531 67.8699 134.24 67.9251 132.84 67.9913C131.441 68.0576 130.15 68.1128 128.968 68.157C127.785 68.2012 126.898 68.2344 126.307 68.2565L125.046 68.0806Z" fill="#373435"/>
<path d="M169.995 75.527C169.207 75.4171 168.449 75.0761 167.722 74.504C167.001 73.8806 166.537 73.1361 166.329 72.2706L166.642 69.8828C166.824 68.4963 167.239 67.1685 167.886 65.8994C168.534 64.6302 168.975 63.3061 169.209 61.9269C168.106 61.7731 166.98 61.5899 165.831 61.3773C164.741 61.1207 163.84 60.6551 163.126 59.9803C162.471 59.2615 162.245 58.1319 162.446 56.5914C162.648 55.0509 163.183 54.0275 164.052 53.5212C164.973 53.0222 166.048 52.78 167.276 52.7944C168.505 52.8089 169.703 52.8454 170.872 52.9039C172.041 52.9624 173.004 52.7569 173.761 52.2873L175.094 51.2967C175.602 50.6878 175.989 49.9835 176.254 49.1839C176.519 48.3843 176.932 47.6837 177.492 47.0821C177.895 46.4585 178.528 45.5011 179.393 44.2099C180.31 42.926 181.266 41.5431 182.263 40.0611C183.259 38.5792 184.183 37.244 185.034 36.0555C185.885 34.867 186.472 34.06 186.795 33.6344C187.435 32.8348 188.229 31.8737 189.179 30.7512C190.187 29.5847 191.281 28.5868 192.459 27.7577C193.69 26.936 194.883 26.6057 196.039 26.7669C197.773 27.0087 199.097 27.7163 200.013 28.8899C200.989 30.0194 201.723 31.3507 202.218 32.8837C202.719 34.3654 203.178 35.7628 203.594 37.0758C205.396 42.922 206.905 48.9626 208.12 55.1976C209.389 61.44 210.237 67.6237 210.664 73.7489L210.513 74.9043C210.385 75.8799 209.883 76.8556 209.006 77.8314C208.189 78.7632 207.281 79.1594 206.283 79.0202C204.812 78.8151 203.733 78.2724 203.046 77.3922C202.359 76.5121 201.909 75.4558 201.696 74.2235C201.483 72.9911 201.356 71.7184 201.314 70.4054C201.325 69.0996 201.24 67.9113 201.059 66.8403C200.885 65.718 200.464 64.8488 199.796 64.2327L192.862 63.2655C192.074 63.1556 191.234 63.0384 190.341 62.9138C189.455 62.7379 188.565 62.5877 187.672 62.4631C186.569 62.3093 185.459 62.2067 184.343 62.1556C183.279 62.1117 182.25 62.2036 181.258 62.4312C179.996 62.6734 179.028 63.3228 178.355 64.3792C177.688 65.3843 177.133 66.5617 176.689 67.9116C176.251 69.21 175.791 70.4792 175.307 71.7189C174.824 72.9587 174.184 73.9675 173.387 74.7452C172.596 75.4715 171.465 75.7321 169.995 75.527ZM185.089 53.3968L187.059 53.6715C188.845 53.9207 190.499 54.1515 192.023 54.364C193.605 54.5324 195.694 54.7191 198.288 54.9241L198.378 54.2309C198.452 53.666 198.444 53.1159 198.354 52.5804C198.323 52.0009 198.213 51.4104 198.024 50.8089C197.805 49.6279 197.481 48.2232 197.052 46.5948C196.63 44.915 196.218 43.3672 195.815 41.9515C195.419 40.4845 195.123 39.4759 194.928 38.9258C194.882 38.8671 194.728 38.8194 194.465 38.7828L194.229 38.7498C193.794 39.212 193.404 39.7329 193.061 40.3125C192.777 40.848 192.391 41.3432 191.904 41.7981C191.626 42.2823 191.158 43.0013 190.498 43.955C189.897 44.8647 189.231 45.8698 188.498 46.9703C187.772 48.0194 187.076 49.0465 186.41 50.0515C185.802 51.0126 185.327 51.7829 184.984 52.3625L184.933 52.7476C184.88 53.1584 184.931 53.3748 185.089 53.3968Z" fill="#373435"/>
<path d="M236.168 85.934C234.12 85.6483 232.429 85.2818 231.097 84.8345C229.818 84.3946 228.822 83.6282 228.109 82.5353C227.456 81.3984 227.03 79.7443 226.833 77.573C225.357 77.001 224.338 76.2053 223.776 75.1857C223.274 74.1222 223.124 72.8201 223.325 71.2796L223.527 69.7391C224.245 67.1202 224.909 64.703 225.52 62.4876C226.138 60.2208 226.618 57.7779 226.962 55.1591C227.231 53.1051 227.44 51.3042 227.589 49.7563C227.798 48.1645 227.938 46.2755 228.011 44.0895C228.097 43.8401 227.812 43.5651 227.156 43.2644C226.5 42.9638 226.07 42.7731 225.867 42.6925C225.218 42.3404 224.641 41.8417 224.137 41.1963C223.64 40.4995 223.466 39.5862 223.614 38.4565C223.782 37.1728 224.537 36.1016 225.88 35.2432C227.282 34.3407 229.008 33.6142 231.06 33.0637C233.163 32.5205 235.326 32.1424 237.546 31.9293C239.774 31.6648 241.85 31.5361 243.775 31.5432C245.706 31.4988 247.223 31.5536 248.327 31.7075C250.953 32.0738 253.355 32.9317 255.531 34.2811C257.715 35.5792 259.414 37.3064 260.629 39.4629C261.851 41.568 262.277 44.0327 261.907 46.8569L261.655 48.7826C261.416 49.3768 261.007 50.0517 260.427 50.8074C259.899 51.5704 259.374 52.3077 258.853 53.0193C258.385 53.7383 258.12 54.3288 258.059 54.791C258.026 55.0477 258.301 55.3998 258.884 55.8472C259.526 56.2505 260.195 56.6575 260.89 57.0682C261.644 57.4349 262.136 57.7649 262.365 58.0583C264.217 60.2513 265.518 62.3674 266.267 64.4066C267.069 66.4531 267.291 68.8371 266.935 71.5587L266.531 74.6397C265.538 77.3247 263.836 79.4926 261.427 81.1435C259.07 82.8017 256.393 84.0492 253.395 84.8859C250.404 85.6713 247.374 86.1376 244.306 86.2848C241.245 86.3807 238.532 86.2638 236.168 85.934ZM231.833 76.1527L236.482 76.8012C239.003 77.1529 241.302 77.3689 243.377 77.4493C245.512 77.4856 247.553 77.2212 249.499 76.6561C251.451 76.0396 253.468 74.9352 255.549 73.3431C256.378 72.7267 257.024 72.0848 257.486 71.4172C257.948 70.7496 258.246 69.9022 258.381 68.8752C258.603 67.1807 258.078 65.6696 256.808 64.3421C255.545 62.9632 254.02 62.1492 252.234 61.9001L239.864 60.1746C238.445 59.9767 237.841 59.0819 238.049 57.49C238.076 57.2846 238.103 57.0792 238.13 56.8738C238.209 56.6758 238.259 56.4997 238.279 56.3456C238.461 54.9592 239.052 53.9174 240.053 53.2204C241.06 52.472 242.257 51.907 243.644 51.5253C245.038 51.0923 246.406 50.6556 247.747 50.2152C249.148 49.7309 250.352 49.1145 251.359 48.3661C252.373 47.5663 252.978 46.4219 253.173 44.9327C253.308 43.9057 253.015 43.0805 252.294 42.4571C251.626 41.8411 250.806 41.3607 249.835 41.0161C248.864 40.6715 247.984 40.4442 247.196 40.3343C245.516 40.0998 243.729 40.0598 241.837 40.2141C239.944 40.3685 238.396 40.9629 237.19 41.9974L236.807 44.9244C236.484 47.3892 236.214 49.8613 235.996 52.3408C235.83 54.8276 235.586 57.3034 235.263 59.7682L234.819 63.1573C234.766 63.5681 234.649 64.2576 234.468 65.226C234.295 66.1429 234.095 67.0563 233.869 67.9659C233.695 68.8829 233.581 69.5468 233.527 69.9576C233.393 70.9846 233.075 71.9859 232.572 72.9616C232.129 73.8933 231.788 74.8654 231.548 75.8777L231.833 76.1527Z" fill="#373435"/>
<path d="M290.084 92.2783C286.67 91.802 283.983 90.8781 282.023 89.5067C280.122 88.0913 278.774 86.3346 277.979 84.2368C277.244 82.0949 276.89 79.6925 276.918 77.0297C276.998 74.3742 277.263 71.5353 277.712 68.513C277.005 67.7869 276.479 67.1121 276.132 66.4886C275.839 65.8725 275.766 64.9995 275.914 63.8698C276.062 62.7401 276.402 61.9772 276.936 61.581C277.528 61.1408 278.19 60.7885 278.919 60.5243C279.656 60.2088 280.308 59.7245 280.875 59.0716C281.053 58.9395 281.244 58.7047 281.449 58.3673C281.66 57.9785 281.812 57.6337 281.905 57.3329C282.466 56.3131 282.874 55.2458 283.127 54.1307C283.439 52.9716 283.827 51.8492 284.29 50.7635L284.34 50.3784C284.347 50.327 284.128 50.1657 283.682 49.8943C282.731 49.3957 281.764 48.8163 280.78 48.1563C279.797 47.4962 279.396 46.473 279.578 45.0865C279.786 43.4947 280.381 42.4272 281.361 41.8842C282.342 41.3413 283.528 41.0623 284.921 41.0474C288.357 40.9515 291.618 40.962 294.705 41.0789C297.851 41.1517 301.132 41.4263 304.546 41.9025C305.544 42.0417 306.64 42.247 307.835 42.5182C309.036 42.7381 310.165 43.1047 311.221 43.618C312.284 44.0799 313.11 44.718 313.698 45.5322C314.346 46.3023 314.593 47.2779 314.438 48.4589C314.33 49.2805 313.937 50.0362 313.259 50.7258C312.58 51.4155 311.768 51.6944 310.822 51.5625L298.373 49.8259C296.745 49.5988 295.377 50.0355 294.27 51.136C293.222 52.1925 292.397 53.5937 291.794 55.3397C291.197 57.0343 290.736 58.7216 290.409 60.4015C292.254 60.6066 293.84 60.7493 295.166 60.8298C296.493 60.9103 297.734 61.0311 298.89 61.1923L302.042 61.632C304.764 62.9006 305.963 64.7673 305.64 67.2321C305.479 68.4645 304.806 69.3119 303.623 69.7742C302.445 70.1852 300.977 70.3725 299.216 70.3361C297.515 70.2557 295.716 70.1092 293.818 69.8968C291.927 69.633 290.213 69.4463 288.677 69.3365C287.672 69.2486 286.984 69.5972 286.614 70.3821C286.244 71.1671 285.998 72.0217 285.877 72.946C285.823 73.3568 285.766 73.7933 285.705 74.2555C285.704 74.6736 285.683 75.0367 285.643 75.3448C285.535 76.1664 285.467 77.098 285.437 78.1397C285.415 79.13 285.589 80.0432 285.961 80.8794C286.333 81.7156 287.05 82.3647 288.113 82.8267L291.658 83.3213C294.127 83.6656 296.61 83.6983 299.107 83.4191C301.657 83.1473 304.166 83.1836 306.635 83.5279C308 83.7184 308.965 84.1144 309.528 84.7158C310.091 85.3173 310.268 86.4139 310.06 88.0058C309.831 89.7517 308.865 91.0025 307.161 91.7584C305.464 92.4629 303.565 92.8776 301.462 93.0027C299.577 93.1057 297.682 93.0766 295.777 92.9156C293.873 92.7545 291.975 92.542 290.084 92.2783Z" fill="#373435"/>
<path d="M322.872 95.6755C320.509 95.3457 319.245 93.9668 319.082 91.5388L319.526 88.1497C320.299 82.2444 321.395 76.3318 322.812 70.4117C324.289 64.4477 325.424 58.436 326.218 52.3767C326.406 50.9389 326.965 49.7357 327.894 48.7673C328.883 47.7548 330.138 47.3548 331.662 47.5673C332.922 47.7432 333.778 48.1501 334.23 48.7883C334.733 49.4337 334.981 50.2002 334.971 51.0879C335.021 51.9314 334.989 52.7897 334.875 53.6627C334.182 58.9517 333.243 64.2848 332.057 69.662C330.878 74.9878 329.842 80.6474 328.95 86.6407L331.235 86.9594C331.826 86.9373 332.683 86.9262 333.807 86.926C334.937 86.8745 336.119 86.8303 337.354 86.7934C338.642 86.7639 339.847 86.749 340.971 86.7488C342.094 86.7486 342.951 86.7375 343.542 86.7154L345.906 87.0451C346.642 87.1477 347.505 87.2943 348.496 87.4848C349.547 87.6314 350.528 87.899 351.44 88.2876C352.411 88.6322 353.171 89.1566 353.721 89.8607C354.277 90.5135 354.478 91.4304 354.323 92.6115C354.142 93.9979 353.557 94.9883 352.57 95.5827C351.636 96.1843 350.521 96.5256 349.227 96.6065C347.985 96.6947 346.839 96.6656 345.788 96.519L337.279 95.332C336.688 95.3541 335.774 95.3836 334.539 95.4205C333.357 95.4647 332.066 95.5199 330.666 95.5862C329.267 95.6524 327.976 95.7076 326.794 95.7518C325.611 95.796 324.724 95.8292 324.133 95.8513L322.872 95.6755Z" fill="#373435"/>
<path d="M377.411 105.244C374.995 104.907 372.904 104.328 371.14 103.506C369.382 102.634 367.793 101.497 366.372 100.096C365.003 98.7026 363.57 96.9863 362.072 94.9472C361.466 93.4509 361.023 92.1342 360.744 90.9972C360.524 89.8162 360.515 88.4555 360.717 86.915C360.879 85.6826 361.309 84.6445 362.008 83.8008C362.707 82.9571 363.818 82.6415 365.341 82.854C366.444 83.0079 367.384 83.7926 368.162 85.2083C368.303 86.1692 368.635 87.3135 369.156 88.6412C369.677 89.9688 370.547 91.2927 371.765 92.613C373.035 93.9405 374.782 95.0992 377.006 96.0892C377.616 96.3311 378.315 96.5071 379.103 96.617C380.469 96.8075 381.894 96.7449 383.38 96.4293C384.918 96.1209 386.25 95.5485 387.376 94.7121C388.501 93.8756 389.159 92.7385 389.347 91.3007C389.508 90.0683 389.226 88.957 388.5 87.9668C387.826 86.984 386.952 86.1039 385.877 85.3265C384.862 84.505 383.911 83.7973 383.026 83.2033C381.302 82.0739 379.555 80.9151 377.785 79.727C376.015 78.539 374.423 77.2188 373.009 75.7666C371.601 74.263 370.513 72.5687 369.743 70.6836C369.027 68.8058 368.83 66.6345 369.153 64.1697C369.523 61.3454 370.567 59.0859 372.287 57.3911C374.013 55.6449 376.096 54.4452 378.535 53.792C381.034 53.0947 383.57 52.9256 386.143 53.2846C387.036 53.4092 388.156 53.6437 389.501 53.9883C390.899 54.3402 392.363 54.8057 393.892 55.385C395.42 55.9643 396.85 56.6866 398.181 57.552C399.518 58.366 400.57 59.3231 401.335 60.4233C402.1 61.5236 402.392 62.7669 402.21 64.1533C402.062 65.2831 401.485 66.2221 400.477 66.9705C399.529 67.6749 398.477 67.9464 397.322 67.7852C396.061 67.6094 395.014 67.2281 394.182 66.6414C393.35 66.0547 392.55 65.4203 391.784 64.7382C391.07 64.0634 390.218 63.4217 389.228 62.813C388.238 62.2043 386.981 61.7937 385.458 61.5813L383.173 61.2625C381.792 61.5928 380.602 62.1065 379.601 62.8036C378.607 63.4493 378.057 64.1829 377.949 65.0045C377.747 66.545 378.127 67.9314 379.089 69.1636C380.103 70.4031 381.443 71.6096 383.108 72.7831C384.832 73.9125 386.631 75.0785 388.506 76.2813C390.434 77.4913 392.207 78.8628 393.824 80.3957C395.501 81.8845 396.77 83.6302 397.631 85.6327C398.551 87.5911 398.837 89.9054 398.487 92.5756C398.157 95.0918 397.316 97.2229 395.964 98.969C394.612 100.715 392.933 102.102 390.926 103.129C388.92 104.156 386.743 104.846 384.397 105.199C382.051 105.551 379.722 105.566 377.411 105.244Z" fill="#373435"/>
<path d="M267.989 198.68C267.431 198.605 266.971 198.313 266.61 197.804C266.25 197.278 265.966 196.652 265.757 195.925C265.564 195.201 265.422 194.483 265.334 193.773C265.263 193.048 265.229 192.447 265.232 191.97C265.242 191.784 265.247 191.521 265.247 191.18C265.264 190.824 265.274 190.468 265.276 190.111C265.281 189.736 265.287 189.405 265.296 189.117C265.319 188.83 265.334 188.662 265.341 188.612L265.443 187.859C265.49 187.507 265.562 187.151 265.657 186.789C265.752 186.427 265.907 186.133 266.122 185.906C266.352 185.682 266.693 185.6 267.146 185.661C267.402 185.696 267.626 185.803 267.817 185.982C268.023 186.163 268.105 186.404 268.065 186.706C267.924 187.743 267.815 188.725 267.735 189.651C267.658 190.561 267.652 191.463 267.715 192.357C267.778 193.251 267.956 194.212 268.247 195.24L268.428 195.264C268.838 194.502 269.22 193.728 269.572 192.94C269.927 192.137 270.288 191.342 270.655 190.557C270.806 190.237 271.002 189.922 271.243 189.614C271.502 189.292 271.798 189.034 272.132 188.84C272.48 188.649 272.843 188.579 273.22 188.63C273.613 188.683 273.94 188.872 274.204 189.197C274.482 189.524 274.711 189.93 274.892 190.415C275.072 190.899 275.219 191.404 275.332 191.931C275.445 192.457 275.54 192.947 275.617 193.4C275.694 193.854 275.767 194.221 275.837 194.503L275.859 194.506C275.88 194.577 275.899 194.665 275.916 194.77C275.95 194.859 275.984 194.949 276.018 195.039C276.429 194.158 276.84 193.276 277.251 192.395C277.677 191.515 278.109 190.654 278.546 189.81C278.672 189.555 278.859 189.256 279.105 188.915C279.368 188.558 279.648 188.247 279.945 187.981C280.258 187.716 280.557 187.603 280.844 187.642C281.146 187.683 281.379 187.834 281.543 188.094C281.71 188.339 281.772 188.619 281.729 188.937C281.709 189.088 281.682 189.229 281.649 189.361C281.63 189.495 281.581 189.633 281.5 189.775C281.352 190.079 281.155 190.512 280.91 191.075C280.682 191.624 280.415 192.235 280.108 192.909C279.804 193.566 279.476 194.237 279.122 194.922C278.77 195.59 278.395 196.204 277.997 196.763C277.616 197.308 277.219 197.74 276.808 198.059C276.413 198.363 276.02 198.489 275.627 198.436C275.19 198.377 274.808 198.129 274.483 197.693C274.175 197.243 273.909 196.713 273.684 196.103C273.477 195.479 273.306 194.868 273.172 194.271C273.04 193.657 272.93 193.165 272.841 192.795C272.831 192.759 272.82 192.724 272.81 192.688C272.801 192.636 272.785 192.583 272.762 192.529L272.717 192.523L272.609 192.636C272.498 192.893 272.339 193.272 272.133 193.772C271.927 194.273 271.676 194.818 271.381 195.408C271.104 195.984 270.791 196.538 270.442 197.07C270.096 197.586 269.717 198.003 269.305 198.322C268.895 198.624 268.457 198.744 267.989 198.68Z" fill="#373435"/>
<path d="M287.168 185.405C286.715 185.344 286.344 185.132 286.055 184.769C285.766 184.407 285.664 183.916 285.748 183.297C285.831 182.678 286.086 182.269 286.513 182.071C286.939 181.873 287.356 181.802 287.763 181.857C288.231 181.92 288.601 182.132 288.875 182.493C289.164 182.856 289.266 183.355 289.18 183.991C289.098 184.593 288.844 184.993 288.418 185.191C288.007 185.391 287.59 185.463 287.168 185.405ZM284.222 200.365C283.936 200.327 283.739 200.13 283.634 199.775C283.528 199.42 283.46 199.07 283.43 198.725L283.868 195.488C283.879 195.404 283.924 195.188 284.002 194.841C284.097 194.479 284.2 194.059 284.31 193.58C284.439 193.086 284.556 192.616 284.662 192.171C284.786 191.71 284.881 191.348 284.948 191.085C285.038 190.756 285.141 190.395 285.255 190.002C285.385 189.611 285.561 189.277 285.783 189C286.004 188.724 286.281 188.608 286.613 188.653C286.975 188.702 287.218 188.837 287.342 189.058C287.483 189.264 287.549 189.512 287.541 189.8C287.533 190.089 287.508 190.384 287.468 190.685L287.349 191.563C287.344 191.597 287.327 191.671 287.296 191.786C287.267 191.884 287.229 191.998 287.18 192.128C286.995 192.699 286.854 193.123 286.755 193.399C286.673 193.661 286.604 193.89 286.547 194.087C286.507 194.269 286.464 194.527 286.419 194.862C286.392 195.062 286.358 195.313 286.317 195.614C286.291 195.918 286.246 196.312 286.18 196.797C286.15 197.014 286.129 197.233 286.114 197.452C286.102 197.655 286.08 197.874 286.049 198.108C286.015 198.359 285.956 198.624 285.872 198.902C285.755 199.312 285.567 199.678 285.309 200.001C285.052 200.307 284.69 200.429 284.222 200.365Z" fill="#373435"/>
<path d="M292.245 202.345C291.777 202.282 291.451 202.076 291.268 201.727C291.085 201.379 290.986 200.974 290.972 200.512C290.975 200.035 291.002 199.604 291.054 199.22L291.183 198.266C291.326 197.212 291.485 196.152 291.66 195.085C291.85 194.02 292.036 192.87 292.219 191.634C291.839 191.6 291.511 191.581 291.235 191.578C290.974 191.576 290.708 191.557 290.436 191.521C289.742 191.427 289.446 191.003 289.548 190.251C289.586 189.966 289.668 189.705 289.792 189.466C289.919 189.21 290.13 189.069 290.426 189.041L292.486 188.808C292.751 188.776 292.941 188.623 293.055 188.348C293.186 188.059 293.278 187.723 293.33 187.338C293.399 186.938 293.475 186.548 293.557 186.168C293.655 185.789 293.811 185.486 294.026 185.26C294.256 185.035 294.597 184.954 295.05 185.015C295.367 185.058 295.587 185.19 295.711 185.411C295.852 185.618 295.934 185.859 295.959 186.135C295.983 186.41 295.978 186.674 295.944 186.925C295.939 186.958 295.916 187.074 295.874 187.273C295.834 187.455 295.786 187.636 295.731 187.816C295.691 187.998 295.668 188.114 295.661 188.164L295.552 188.967L298.313 189.341C298.645 189.386 298.878 189.596 299.012 189.972C299.147 190.331 299.192 190.686 299.144 191.038C299.135 191.104 299.095 191.227 299.025 191.405C298.955 191.583 298.848 191.747 298.705 191.898C298.564 192.032 298.388 192.085 298.176 192.057L295.28 191.665C295.264 191.663 295.232 191.675 295.182 191.703C295.135 191.713 295.075 191.756 295.003 191.832L294.948 191.901C294.811 192.343 294.709 192.703 294.64 192.984C294.574 193.247 294.517 193.495 294.47 193.727C294.441 193.945 294.405 194.213 294.362 194.531C294.237 195.451 294.128 196.373 294.034 197.297C293.954 198.223 293.846 199.197 293.708 200.217C293.663 200.552 293.594 200.892 293.501 201.237C293.408 201.582 293.263 201.861 293.065 202.073C292.865 202.301 292.592 202.392 292.245 202.345Z" fill="#373435"/>
<path d="M300.847 202.87C300.425 202.813 300.129 202.611 299.961 202.264C299.81 201.903 299.764 201.505 299.823 201.07C299.959 200.066 300.15 199.053 300.396 198.03C300.657 197.009 300.853 196.013 300.984 195.043C301.21 193.37 301.371 191.731 301.465 190.125C301.574 188.521 301.742 186.883 301.969 185.21L302.057 184.557C302.199 184.304 302.367 184.139 302.561 184.063C302.773 183.973 302.985 183.942 303.196 183.97C303.543 184.017 303.804 184.189 303.979 184.485C304.169 184.784 304.299 185.133 304.368 185.534C304.436 185.936 304.467 186.332 304.46 186.722C304.469 187.115 304.456 187.437 304.422 187.688L303.295 196.02L303.41 196.189L303.436 196.167C303.905 195.77 304.359 195.312 304.798 194.792C305.252 194.274 305.71 193.783 306.172 193.317C306.652 192.837 307.157 192.454 307.688 192.168C308.233 191.884 308.83 191.786 309.479 191.873C310.052 191.951 310.52 192.185 310.882 192.574C311.259 192.966 311.533 193.446 311.702 194.014C311.871 194.582 311.953 195.164 311.949 195.76L311.909 201.172L311.807 201.925C311.771 202.192 311.717 202.475 311.646 202.772C311.577 203.052 311.454 203.282 311.276 203.463C311.113 203.645 310.858 203.713 310.511 203.666C310.119 203.613 309.832 203.404 309.651 203.038C309.487 202.659 309.394 202.212 309.372 201.697C309.349 201.183 309.355 200.682 309.391 200.192C309.426 199.703 309.448 199.314 309.456 199.026C309.457 198.906 309.464 198.686 309.477 198.364C309.505 198.044 309.524 197.672 309.536 197.248C309.547 196.823 309.541 196.413 309.518 196.018C309.496 195.607 309.442 195.267 309.356 195C309.286 194.718 309.169 194.566 309.003 194.543C308.746 194.509 308.474 194.591 308.186 194.791C307.897 194.99 307.653 195.204 307.453 195.433C306.515 196.464 305.598 197.567 304.701 198.74C303.823 199.899 302.947 201.033 302.075 202.141C301.925 202.343 301.747 202.523 301.541 202.682C301.335 202.842 301.104 202.904 300.847 202.87Z" fill="#373435"/>
<path d="M325.754 206.111C325.105 206.023 324.583 205.799 324.186 205.439C323.806 205.064 323.53 204.609 323.356 204.075C323.183 203.54 323.083 202.973 323.056 202.373C323.047 201.759 323.082 201.158 323.162 200.573L323.328 199.343C323.335 199.293 323.383 199.104 323.474 198.775C323.567 198.43 323.663 198.06 323.763 197.664C323.877 197.271 323.963 196.976 324.021 196.779C324.098 196.551 324.19 196.266 324.298 195.922C324.423 195.564 324.562 195.217 324.715 194.88C324.886 194.528 325.077 194.248 325.29 194.038C325.52 193.813 325.771 193.72 326.043 193.756C326.45 193.811 326.741 193.987 326.916 194.283C327.106 194.582 327.175 194.923 327.123 195.308C327.08 195.626 326.993 195.929 326.862 196.218C326.746 196.509 326.636 196.809 326.533 197.119C326.341 197.741 326.15 198.362 325.958 198.983C325.781 199.607 325.649 200.245 325.561 200.897C325.529 201.132 325.503 201.435 325.484 201.807C325.464 202.179 325.503 202.517 325.6 202.819C325.698 203.122 325.912 203.296 326.244 203.341C326.501 203.376 326.827 203.232 327.224 202.911C327.636 202.592 328.078 202.166 328.549 201.634C329.036 201.103 329.529 200.523 330.029 199.892C330.532 199.244 331.001 198.618 331.436 198.012C331.889 197.392 332.277 196.848 332.602 196.381C332.928 195.897 333.158 195.562 333.291 195.376C333.436 195.208 333.585 195.075 333.737 194.976C333.888 194.877 334.07 194.842 334.281 194.871C334.99 194.967 335.363 195.392 335.399 196.146L335.277 197.05C335.177 197.786 335.055 198.519 334.91 199.249C334.783 199.964 334.672 200.665 334.58 201.351L334.379 202.831C334.388 203.105 334.454 203.361 334.575 203.599C334.697 203.837 334.803 204.073 334.894 204.307C335.003 204.526 335.038 204.778 334.999 205.062C334.947 205.447 334.798 205.759 334.55 205.998C334.303 206.237 334.006 206.333 333.659 206.286C333.206 206.225 332.866 206.009 332.64 205.637C332.416 205.249 332.26 204.811 332.173 204.322C332.123 204.008 332.069 203.609 332.012 203.125C331.972 202.625 331.931 202.134 331.889 201.651C331.604 202.056 331.288 202.456 330.943 202.852C330.614 203.234 330.272 203.605 329.916 203.965C329.343 204.569 328.695 205.103 327.971 205.568C327.248 206.032 326.509 206.213 325.754 206.111Z" fill="#373435"/>
<path d="M341.474 208.877C341.051 208.819 340.574 208.712 340.042 208.555C339.508 208.415 338.998 208.209 338.512 207.939C338.027 207.669 337.637 207.31 337.345 206.861C337.067 206.415 336.972 205.865 337.061 205.213C337.119 204.778 337.268 204.415 337.508 204.123C337.749 203.815 338.088 203.691 338.526 203.75C338.798 203.787 338.999 203.891 339.129 204.062C339.26 204.233 339.363 204.434 339.439 204.666C339.531 204.9 339.636 205.144 339.755 205.399C339.892 205.639 340.085 205.852 340.337 206.039C340.603 206.229 340.977 206.356 341.46 206.421C341.807 206.468 342.19 206.478 342.609 206.449C343.045 206.406 343.431 206.279 343.767 206.069C344.102 205.859 344.3 205.536 344.358 205.101C344.41 204.717 344.308 204.396 344.051 204.14C343.796 203.867 343.453 203.616 343.023 203.387C342.593 203.159 342.14 202.927 341.665 202.693C341.192 202.441 340.747 202.151 340.331 201.822C339.915 201.493 339.592 201.092 339.365 200.618C339.139 200.128 339.074 199.531 339.169 198.828C339.257 198.176 339.476 197.635 339.826 197.205C340.176 196.776 340.598 196.441 341.091 196.201C341.602 195.946 342.131 195.788 342.677 195.725C343.24 195.648 343.771 195.643 344.269 195.711C344.556 195.749 344.882 195.836 345.248 195.971C345.616 196.089 345.97 196.256 346.309 196.472C346.649 196.688 346.919 196.964 347.119 197.297C347.322 197.614 347.394 197.99 347.336 198.425C347.231 199.195 346.832 199.533 346.138 199.439L345.844 199.399C345.43 199.054 345.075 198.784 344.778 198.591C344.482 198.397 344.13 198.273 343.722 198.218C343.541 198.193 343.281 198.184 342.943 198.189C342.621 198.18 342.322 198.233 342.045 198.349C341.768 198.465 341.607 198.69 341.562 199.024C341.524 199.309 341.635 199.562 341.897 199.785C342.159 200.008 342.505 200.234 342.935 200.462C343.365 200.691 343.815 200.939 344.286 201.207C344.757 201.475 345.197 201.799 345.607 202.178C346.018 202.54 346.336 202.975 346.559 203.482C346.783 203.99 346.847 204.595 346.752 205.297C346.614 206.318 346.269 207.106 345.717 207.662C345.181 208.22 344.532 208.592 343.769 208.778C343.023 208.95 342.258 208.983 341.474 208.877Z" fill="#373435"/>
<path d="M25.6528 28.4568C24.2772 28.265 23.0922 27.7638 22.0978 26.9534C21.1033 26.143 20.3712 25.1128 19.9012 23.863C19.4335 22.5957 19.2975 21.2157 19.4931 19.7228C19.6113 18.8201 19.8663 17.8923 20.2579 16.9394C20.6518 15.9691 21.1477 15.0484 21.7454 14.1772C22.3595 13.3083 23.0523 12.5388 23.8238 11.8687C24.6139 11.1835 25.4643 10.6746 26.375 10.342C27.2857 10.0095 28.2242 9.91059 29.1904 10.0454C29.9273 10.1482 30.6356 10.406 31.3152 10.819C32.0112 11.2343 32.5558 11.7875 32.9488 12.4787C33.3605 13.1548 33.5061 13.9529 33.3856 14.8729L33.2832 15.6541C33.1299 15.9332 32.9505 16.0937 32.7449 16.1358C32.5393 16.1778 32.3136 16.1817 32.068 16.1474C31.7241 16.0994 31.4664 15.9663 31.2949 15.7479C31.1398 15.5318 31.0149 15.2758 30.9203 14.9798C30.8256 14.6837 30.7228 14.3866 30.6118 14.0883C30.5008 13.79 30.3268 13.5271 30.0898 13.2995C29.8692 13.0743 29.5296 12.9297 29.071 12.8658C28.1867 12.7424 27.3618 12.866 26.5962 13.2365C25.8492 13.5919 25.1812 14.1085 24.5922 14.7864C24.0031 15.4643 23.5207 16.219 23.1449 17.0504C22.7715 17.8645 22.5325 18.6708 22.4278 19.4693C22.3483 20.0768 22.3565 20.7143 22.4525 21.3818C22.5507 22.0318 22.7272 22.6574 22.982 23.2586C23.2554 23.8447 23.615 24.3456 24.0608 24.7614C24.5089 25.1597 25.0441 25.4023 25.6664 25.4891C26.4197 25.5942 27.1924 25.5517 27.9843 25.3617C28.7763 25.1717 29.486 24.8464 30.1133 24.3859C30.4094 24.1621 30.7208 23.9492 31.0474 23.7473C31.374 23.5454 31.7256 23.4707 32.1023 23.5233C32.4626 23.5735 32.7567 23.7471 32.9846 24.044C33.2311 24.3259 33.3237 24.7012 33.2623 25.1699C33.2373 25.3608 33.1631 25.5449 33.0399 25.7222C32.9166 25.8994 32.7781 26.0657 32.6243 26.221C32.4892 26.3613 32.3389 26.4905 32.1733 26.6089C32.01 26.7098 31.8456 26.8195 31.68 26.9378C30.7634 27.57 29.804 28.0195 28.8019 28.2863C27.7997 28.553 26.7501 28.6099 25.6528 28.4568Z" fill="#373435"/>
<path d="M36.5059 29.573C36.2111 29.5319 36.0037 29.3969 35.8836 29.168C35.7635 28.9392 35.6971 28.6824 35.6843 28.3978C35.6739 28.0959 35.6588 27.8286 35.6393 27.5961L35.8917 25.6692C36.0191 24.6971 36.1885 23.722 36.4 22.744C36.6138 21.7486 36.7832 20.7735 36.9083 19.8187C36.9674 19.3674 36.9833 18.9277 36.956 18.4997C36.9287 18.0716 36.9435 17.6406 37.0003 17.2066L37.0924 16.5036C37.2575 16.2615 37.4545 16.0945 37.6833 16.0027C37.9285 15.9131 38.1739 15.8855 38.4196 15.9198C38.7799 15.97 39.0353 16.1206 39.1859 16.3714C39.3387 16.6048 39.4286 16.8736 39.4554 17.1779C39.4986 17.4844 39.5371 17.7638 39.5707 18.0159C39.6067 18.2507 39.6961 18.3958 39.8389 18.4511C40.357 18.1875 40.8495 17.9291 41.3162 17.6761C41.7993 17.4253 42.2908 17.2375 42.7907 17.1128C43.3093 16.9731 43.8634 16.9443 44.4529 17.0265C44.7477 17.0676 45.0498 17.1805 45.3591 17.365C45.6848 17.5519 45.9534 17.7926 46.165 18.0873C46.3788 18.3646 46.4618 18.6855 46.414 19.05C46.3549 19.5014 46.1398 19.8072 45.7686 19.9676C45.4138 20.1302 45.089 20.1909 44.7942 20.1498C44.5977 20.1224 44.415 20.0527 44.2462 19.9408C44.0775 19.8289 43.8948 19.7592 43.6983 19.7318C43.1251 19.6519 42.5643 19.7327 42.0157 19.9744C41.4857 20.2009 41.0051 20.4963 40.5739 20.8603C40.1426 21.2244 39.7885 21.5727 39.5115 21.9053C39.4255 22.0524 39.3423 22.3059 39.2618 22.6659C39.1812 23.0259 39.1021 23.4391 39.0243 23.9055C38.9488 24.3545 38.8745 24.7949 38.8012 25.2266C38.7444 25.6606 38.6873 26.0327 38.63 26.3429C38.5386 26.9134 38.4085 27.4609 38.2397 27.9854C38.0896 28.4947 37.8772 28.907 37.6024 29.2222C37.33 29.52 36.9644 29.637 36.5059 29.573Z" fill="#373435"/>
<path d="M51.6765 31.8217C50.4974 31.6573 49.4334 31.3144 48.4845 30.7932C47.5542 30.2568 46.8418 29.5211 46.3473 28.586C45.8551 27.6335 45.6988 26.4716 45.8784 25.1002C46.0149 24.0587 46.3035 23.0648 46.7443 22.1188C47.2014 21.175 47.7853 20.3461 48.4958 19.6321C49.2086 18.9007 50.0215 18.3601 50.9345 18.0102C51.8497 17.6429 52.8396 17.5335 53.904 17.682C54.6246 17.7825 55.2756 18.0324 55.8569 18.4317C56.457 18.8159 56.9066 19.3293 57.206 19.9721C57.524 20.5998 57.6284 21.3302 57.5192 22.1635C57.4146 22.962 57.159 23.7041 56.7523 24.3898C56.3457 25.0755 55.8346 25.667 55.2191 26.1645C54.6037 26.662 53.9304 27.0277 53.1994 27.2615C52.487 27.4803 51.7624 27.5384 51.0254 27.4356C50.9108 27.4196 50.6604 27.3581 50.2742 27.2512C49.8902 27.127 49.5882 27.0141 49.368 26.9127C49.2088 26.8551 49.0869 26.7674 49.0023 26.6496C48.9718 26.6276 48.9179 26.5936 48.8405 26.5475C48.7655 26.484 48.7116 26.4499 48.6788 26.4454C48.7275 26.9648 48.9093 27.4232 49.2241 27.8206C49.5575 28.203 49.9515 28.5054 50.4059 28.7279C50.8767 28.9527 51.3332 29.0959 51.7754 29.1576C52.0865 29.201 52.4 29.227 52.7157 29.2357C53.05 29.2293 53.3973 29.2512 53.7576 29.3015C54.1179 29.3517 54.4154 29.4993 54.6501 29.7442C54.8849 29.989 54.9715 30.3458 54.9101 30.8145C54.8601 31.1964 54.7068 31.4755 54.4502 31.6519C54.2101 31.8305 53.9135 31.9305 53.5605 31.952C53.2238 31.9757 52.8836 31.9636 52.5397 31.9156C52.2099 31.8873 51.9222 31.856 51.6765 31.8217ZM51.4211 24.4151C51.9124 24.4836 52.408 24.4555 52.908 24.3308C53.4266 24.191 53.8676 23.9432 54.231 23.5873C54.6109 23.2338 54.8394 22.7619 54.9168 22.1717C54.9827 21.6682 54.8876 21.2484 54.6315 20.9122C54.3918 20.5783 54.0344 20.3782 53.5595 20.3119C53.1337 20.2525 52.6675 20.3112 52.1607 20.488C51.654 20.6648 51.1627 20.9144 50.6869 21.2369C50.2274 21.5617 49.8371 21.9315 49.516 22.3463C49.1971 22.7437 49.0104 23.1508 48.9558 23.5674L48.9421 23.6715C49.3588 23.8004 49.7733 23.9466 50.1854 24.1101C50.5998 24.2563 51.0117 24.3579 51.4211 24.4151Z" fill="#373435"/>
<path d="M63.3547 33.3182C62.6013 33.2131 61.921 32.9326 61.3137 32.4767C60.7064 32.0207 60.2215 31.4582 59.8589 30.7889C59.4986 30.1023 59.3041 29.3593 59.2755 28.5598L59.4494 27.2319C59.5768 26.2597 59.869 25.3018 60.3262 24.358C60.7833 23.4142 61.3695 22.568 62.0845 21.8192C62.8019 21.0532 63.6111 20.4767 64.5123 20.0898C65.4157 19.6855 66.3669 19.553 67.3659 19.6924C67.7753 19.7495 68.1171 19.8767 68.3914 20.0741C68.6821 20.2737 68.9389 20.4774 69.1618 20.6853C69.4034 20.8781 69.6447 21.009 69.8858 21.0779C70.1101 20.3845 70.3516 19.9409 70.6104 19.7472C70.8715 19.5362 71.1986 19.4581 71.5916 19.5129C72.0666 19.5791 72.3643 19.7886 72.4849 20.1413C72.6241 20.4789 72.6618 20.8907 72.5982 21.3767C72.4731 22.3315 72.3257 23.2655 72.1561 24.1787C72.0028 25.0941 71.8625 26.0379 71.7351 27.01C71.635 27.7738 71.5725 28.5694 71.5475 29.3967C71.5225 30.224 71.46 31.0196 71.3599 31.7834L71.2883 32.3302C71.2383 32.7121 71.1179 33.0577 70.9274 33.3669C70.7554 33.6611 70.432 33.7751 69.9571 33.7088C69.5149 33.6472 69.2138 33.4637 69.0536 33.1586C68.9121 32.8384 68.8348 32.474 68.8216 32.0656C68.8271 31.6422 68.8268 31.2621 68.8209 30.9254L68.7363 30.8075C68.1022 31.3201 67.5322 31.7886 67.0263 32.2129C66.5369 32.6396 66.0108 32.9639 65.4481 33.1859C64.8877 33.3906 64.1899 33.4347 63.3547 33.3182ZM63.4535 30.654C64.0267 30.7339 64.591 30.627 65.1464 30.3333C65.7205 30.0245 66.2509 29.6036 66.7376 29.0705C67.2266 28.52 67.629 27.9309 67.9447 27.3033C68.2604 26.6756 68.4557 26.0753 68.5308 25.5025C68.5876 25.0685 68.5872 24.6265 68.5294 24.1765C68.4739 23.7092 68.3274 23.2999 68.0899 22.9486C67.8688 22.5996 67.5126 22.3908 67.0213 22.3223C66.4809 22.2469 65.9225 22.3723 65.3462 22.6985C64.7862 23.0269 64.2606 23.475 63.7693 24.0429C63.2803 24.5933 62.8686 25.1899 62.5343 25.8327C62.2022 26.458 62.001 27.0398 61.9305 27.5779C61.8736 28.0119 61.8741 28.4539 61.9319 28.9039C62.006 29.3561 62.163 29.7492 62.4027 30.0832C62.6447 30.3997 62.995 30.59 63.4535 30.654Z" fill="#373435"/>
<path d="M77.9211 35.6152C77.4135 35.5444 77.0584 35.3269 76.856 34.9628C76.6535 34.5987 76.5421 34.1766 76.5216 33.6965C76.5198 33.2013 76.545 32.7541 76.5973 32.3548L76.7269 31.3654C76.8702 30.2717 77.031 29.1717 77.2093 28.0653C77.4039 26.9611 77.5936 25.7679 77.7783 24.4856C77.3666 24.4459 77.0111 24.4228 76.7118 24.4164C76.4288 24.4123 76.14 24.3897 75.8452 24.3486C75.0919 24.2435 74.7664 23.8004 74.8687 23.0192C74.9074 22.7241 74.9929 22.4532 75.1252 22.2065C75.2599 21.9425 75.4873 21.7974 75.8076 21.7714L78.0375 21.5522C78.325 21.5216 78.529 21.3644 78.6496 21.0807C78.7887 20.782 78.8845 20.433 78.9368 20.0337C79.0077 19.6194 79.0858 19.2148 79.1708 18.8202C79.2722 18.4277 79.4383 18.1151 79.6689 17.8821C79.9159 17.6514 80.2851 17.5703 80.7763 17.6388C81.1203 17.6868 81.3604 17.8264 81.4969 18.0575C81.652 18.2736 81.7442 18.5251 81.7733 18.812C81.8024 19.0989 81.7999 19.3725 81.7658 19.6329C81.7613 19.6676 81.7371 19.788 81.6935 19.994C81.6521 20.1827 81.6025 20.3702 81.5447 20.5566C81.5033 20.7452 81.4792 20.8656 81.4724 20.9177L81.3633 21.7509L84.3602 22.169C84.7204 22.2192 84.9749 22.4403 85.1237 22.8323C85.2747 23.2069 85.3264 23.5764 85.2786 23.941C85.2695 24.0104 85.2279 24.1372 85.1538 24.3213C85.0796 24.5054 84.9657 24.6751 84.8119 24.8304C84.6604 24.9684 84.4701 25.0214 84.2408 24.9894L81.0965 24.5508C81.0802 24.5485 81.0451 24.5613 80.9915 24.5892C80.94 24.5997 80.8759 24.6437 80.799 24.7214L80.7397 24.7927C80.5964 25.2499 80.489 25.6238 80.4176 25.9144C80.3485 26.1876 80.2898 26.4445 80.2416 26.6853C80.212 26.9109 80.1757 27.1887 80.1324 27.5185C80.0074 28.4733 79.8987 29.4303 79.8063 30.3896C79.7304 31.3512 79.6231 32.3615 79.4843 33.4204C79.4389 33.7676 79.3677 34.12 79.2708 34.4777C79.1739 34.8354 79.0195 35.1232 78.8075 35.3411C78.5932 35.5764 78.2978 35.6677 77.9211 35.6152Z" fill="#373435"/>
<path d="M92.1697 37.4702C90.9906 37.3057 89.9266 36.9628 88.9777 36.4416C88.0474 35.9053 87.335 35.1695 86.8405 34.2344C86.3483 33.2819 86.192 32.12 86.3717 30.7486C86.5081 29.7071 86.7967 28.7133 87.2375 27.7672C87.6947 26.8234 88.2785 25.9945 88.989 25.2805C89.7018 24.5491 90.5147 24.0085 91.4277 23.6586C92.343 23.2913 93.3328 23.1819 94.3973 23.3304C95.1178 23.4309 95.7688 23.6808 96.3502 24.0801C96.9502 24.4643 97.3999 24.9778 97.6992 25.6205C98.0172 26.2482 98.1216 26.9787 98.0125 27.8119C97.9079 28.6104 97.6522 29.3525 97.2456 30.0382C96.8389 30.7239 96.3278 31.3155 95.7124 31.8129C95.0969 32.3104 94.4237 32.6761 93.6926 32.91C92.9803 33.1288 92.2556 33.1868 91.5187 33.084C91.404 33.068 91.1536 33.0065 90.7674 32.8996C90.3835 32.7754 90.0814 32.6625 89.8612 32.5611C89.702 32.5036 89.5801 32.4158 89.4955 32.298C89.465 32.2761 89.4111 32.242 89.3338 32.1959C89.2587 32.1324 89.2048 32.0984 89.1721 32.0938C89.2207 32.6132 89.4025 33.0716 89.7173 33.4691C90.0507 33.8514 90.4447 34.1538 90.8991 34.3763C91.37 34.6011 91.8265 34.7443 92.2686 34.806C92.5798 34.8494 92.8932 34.8754 93.2089 34.8841C93.5433 34.8777 93.8906 34.8997 94.2509 34.9499C94.6111 35.0002 94.9086 35.1477 95.1434 35.3926C95.3781 35.6374 95.4648 35.9942 95.4034 36.4629C95.3533 36.8448 95.2 37.1239 94.9435 37.3003C94.7033 37.4789 94.4067 37.5789 94.0537 37.6004C93.7171 37.6241 93.3768 37.612 93.0329 37.5641C92.7031 37.5357 92.4154 37.5044 92.1697 37.4702ZM91.9144 30.0635C92.4057 30.132 92.9013 30.1039 93.4012 29.9792C93.9198 29.8394 94.3608 29.5916 94.7243 29.2358C95.1041 28.8822 95.3327 28.4103 95.41 27.8201C95.4759 27.3167 95.3809 26.8968 95.1247 26.5606C94.885 26.2267 94.5277 26.0266 94.0528 25.9603C93.627 25.9009 93.1607 25.9596 92.654 26.1364C92.1472 26.3132 91.6559 26.5628 91.1801 26.8854C90.7207 27.2101 90.3304 27.5799 90.0092 27.9947C89.6903 28.3922 89.5036 28.7992 89.449 29.2158L89.4354 29.32C89.8521 29.4488 90.2665 29.595 90.6786 29.7585C91.093 29.9047 91.505 30.0064 91.9144 30.0635Z" fill="#373435"/>
<path d="M39.0819 64.5146C38.7775 64.4734 38.5703 64.2869 38.4603 63.9549C38.3479 63.6402 38.3116 63.3359 38.3513 63.0418C38.4262 62.4882 38.616 61.9766 38.9205 61.507C39.2228 61.0546 39.5008 60.5902 39.7547 60.1137C39.8697 59.9003 40.0109 59.6199 40.1784 59.2727C40.3605 58.945 40.5353 58.6075 40.7028 58.2602C40.8872 57.9153 41.0392 57.6188 41.1589 57.3707C41.2785 57.1227 41.3407 56.9813 41.3454 56.9467L41.3559 56.8689C40.4353 56.6739 39.6914 56.3178 39.1242 55.8007C38.5571 55.2836 38.132 54.6713 37.8489 53.9636C37.5658 53.2559 37.3839 52.5003 37.3032 51.6967C37.2249 50.8757 37.2069 50.0542 37.2492 49.232C37.3085 48.4121 37.3861 47.6475 37.482 46.9383C37.5124 46.7134 37.5607 46.4205 37.6267 46.0595C37.6951 45.6812 37.7889 45.3063 37.908 44.9349C38.044 44.5658 38.2141 44.2629 38.4183 44.0263C38.6394 43.792 38.9106 43.6965 39.2319 43.74C39.8575 43.8246 40.2317 44.113 40.3546 44.6053C40.4943 45.0998 40.5267 45.6238 40.4518 46.1774C40.4003 46.558 40.327 46.9092 40.2318 47.231C40.1535 47.5551 40.0875 47.9161 40.0337 48.3139L39.9986 48.5734C39.9822 48.6945 39.9725 48.9574 39.9694 49.3622C39.9663 49.7669 39.962 50.1803 39.9566 50.6023C39.968 51.0266 39.9767 51.3449 39.9824 51.557C39.9897 52.1393 40.0909 52.6639 40.2861 53.1306C40.4836 53.5801 40.8106 53.8358 41.2671 53.8975C41.8082 53.9707 42.3109 53.8185 42.7752 53.4409C43.2565 53.0657 43.7045 52.5538 44.1194 51.9053C44.5512 51.2591 44.9707 50.576 45.3781 49.856C45.7877 49.1187 46.1916 48.4247 46.5895 47.7739C46.9875 47.1231 47.3933 46.6055 47.8069 46.2211C48.2374 45.839 48.6809 45.6788 49.1374 45.7405C49.8984 45.8434 50.2203 46.3274 50.1033 47.1923C50.0238 47.7805 49.8547 48.3301 49.5962 48.8412C49.3545 49.3546 49.0645 49.8438 48.7261 50.3089C48.4046 50.7763 48.0674 51.2327 47.7144 51.6782C47.3614 52.1236 47.0411 52.5823 46.7534 53.0543C45.8781 54.4332 45.0477 55.8622 44.2622 57.3413C43.4959 58.8054 42.7454 60.2805 42.0106 61.7665C41.8215 62.146 41.5928 62.5643 41.3243 63.0212C41.0559 63.4781 40.7376 63.8578 40.3696 64.1603C40.0184 64.4651 39.5892 64.5832 39.0819 64.5146Z" fill="#373435"/>
<path d="M57.6827 60.108C56.4652 59.9433 55.3686 59.5219 54.3927 58.8438C53.4169 58.1657 52.6744 57.2902 52.1653 56.2173C51.6561 55.1443 51.4904 53.9505 51.6683 52.6358C51.79 51.7362 52.0798 50.9299 52.5379 50.2168C53.0152 49.4887 53.5785 48.825 54.2277 48.2259C54.8939 47.629 55.5542 47.0753 56.2087 46.5649C56.5552 46.2947 56.9492 46.119 57.3906 46.0378C57.8344 45.9393 58.2761 45.9198 58.7158 45.9793C59.8149 46.128 60.8553 46.392 61.8371 46.7714C62.8189 47.1509 63.6697 47.6711 64.3895 48.3322C65.1286 48.9782 65.6741 49.783 66.0259 50.7466C66.38 51.6929 66.4705 52.8061 66.2973 54.0862C66.1545 55.1414 65.8049 56.0718 65.2482 56.8773C64.6916 57.6827 63.9991 58.3465 63.1709 58.8686C62.3595 59.393 61.4739 59.7665 60.514 59.9889C59.5734 60.1964 58.6296 60.2361 57.6827 60.108ZM57.565 57.1591C58.495 57.2849 59.3965 57.2395 60.2695 57.0229C61.1449 56.789 61.8903 56.3702 62.5057 55.7664C63.1404 55.1477 63.5257 54.3366 63.6614 53.3333C63.7807 52.4511 63.6265 51.6816 63.1988 51.0248C62.788 50.3703 62.2209 49.8532 61.4974 49.4735C60.7763 49.0765 60.0183 48.8242 59.2236 48.7167C58.8178 48.6618 58.4799 48.6777 58.2098 48.7645C57.9398 48.8513 57.6893 48.9848 57.4583 49.1649C57.2273 49.345 56.9579 49.5552 56.6499 49.7954C56.1085 50.233 55.6109 50.7294 55.157 51.2845C54.7055 51.8224 54.4282 52.4718 54.3252 53.233C54.1614 54.4439 54.3984 55.3655 55.036 55.9979C55.6736 56.6302 56.5167 57.0173 57.565 57.1591Z" fill="#373435"/>
<path d="M71.9148 61.7689C71.1877 61.6706 70.6 61.4325 70.1518 61.0548C69.7228 60.6621 69.4081 60.188 69.2077 59.6324C69.0074 59.0768 68.889 58.4883 68.8525 57.8669C68.8353 57.2304 68.8677 56.6094 68.9496 56.004L69.1216 54.7325C69.1286 54.6806 69.1809 54.4851 69.2784 54.146C69.3782 53.7896 69.4816 53.4072 69.5885 52.9989C69.7123 52.5929 69.8052 52.2884 69.8671 52.0853C69.9505 51.85 70.0507 51.5553 70.1675 51.2012C70.3035 50.832 70.4553 50.4738 70.6228 50.1266C70.8095 49.7643 71.0207 49.4758 71.2564 49.2611C71.5113 49.0313 71.791 48.937 72.0953 48.9782C72.5519 49.04 72.8798 49.2252 73.0791 49.534C73.2953 49.8451 73.3765 50.1996 73.3226 50.5975C73.2782 50.9262 73.1842 51.2393 73.0406 51.537C72.9139 51.8369 72.7945 52.1467 72.6824 52.4662C72.4752 53.1075 72.2679 53.7489 72.0606 54.3902C71.8702 55.0338 71.7294 55.693 71.6381 56.3676C71.6054 56.6098 71.5802 56.9235 71.5625 57.3086C71.5448 57.6938 71.5922 58.0437 71.7046 58.3584C71.817 58.673 72.0592 58.8555 72.4312 58.9058C72.7187 58.9447 73.0826 58.8002 73.523 58.4722C73.9803 58.1465 74.4697 57.7107 74.9912 57.1647C75.5297 56.621 76.0752 56.0254 76.6277 55.3779C77.1825 54.7131 77.7 54.0697 78.1802 53.4477C78.6796 52.8106 79.1081 52.2521 79.4658 51.772C79.8258 51.2746 80.079 50.9301 80.2254 50.7386C80.3865 50.5666 80.5512 50.4303 80.7198 50.3298C80.8884 50.2293 81.091 50.1951 81.3277 50.2271C82.1225 50.3346 82.5445 50.7792 82.5937 51.5609L82.4673 52.4951C82.3643 53.2562 82.236 54.0139 82.0823 54.7682C81.9479 55.5075 81.8327 56.2318 81.7368 56.941L81.5297 58.472C81.543 58.7556 81.6189 59.0213 81.7576 59.2691C81.8963 59.5168 82.018 59.7623 82.1229 60.0055C82.247 60.2336 82.2891 60.4948 82.2494 60.7889C82.1955 61.1867 82.0316 61.508 81.7574 61.7528C81.4832 61.9976 81.1517 62.0936 80.7628 62.041C80.2555 61.9724 79.8731 61.7445 79.6155 61.3574C79.3603 60.9529 79.1809 60.4971 79.0773 59.9898C79.018 59.6647 78.9534 59.2509 78.8837 58.7482C78.8332 58.2305 78.7815 57.7215 78.7287 57.2211C78.4142 57.6366 78.0659 58.0474 77.6838 58.4538C77.3209 58.8451 76.9423 59.2254 76.548 59.5948C75.9133 60.2136 75.1937 60.7592 74.3894 61.2317C73.5851 61.7042 72.7602 61.8833 71.9148 61.7689Z" fill="#373435"/>
<path d="M85.8789 64.1864C85.5745 64.1452 85.3603 64.0105 85.2362 63.7823C85.1121 63.5542 85.0434 63.2983 85.0301 63.0146C85.0191 62.7137 85.0035 62.4473 84.9832 62.2156L85.2429 60.2954C85.374 59.3267 85.5485 58.355 85.7664 57.3804C85.9867 56.3885 86.1612 55.4169 86.2899 54.4654C86.3507 54.0157 86.3669 53.5775 86.3385 53.1509C86.3102 52.7243 86.3252 52.2947 86.3837 51.8623L86.4785 51.1617C86.6489 50.9205 86.8522 50.7542 87.0884 50.6628C87.3415 50.5738 87.5948 50.5464 87.8485 50.5807C88.2205 50.631 88.4843 50.7812 88.6398 51.0313C88.7978 51.264 88.8907 51.532 88.9185 51.8352C88.9633 52.1407 89.0031 52.4192 89.038 52.6705C89.0752 52.9045 89.1675 53.0491 89.315 53.1043C89.8499 52.842 90.3582 52.5848 90.8399 52.3329C91.3386 52.0833 91.846 51.8965 92.3621 51.7726C92.8974 51.6336 93.4695 51.6053 94.0782 51.6876C94.3826 51.7288 94.6945 51.8415 95.014 52.0256C95.3503 52.212 95.6278 52.4521 95.8463 52.7459C96.0672 53.0224 96.1531 53.3423 96.1039 53.7056C96.0431 54.1554 95.8211 54.46 95.4379 54.6196C95.0717 54.7814 94.7363 54.8417 94.432 54.8006C94.2291 54.7731 94.0405 54.7036 93.8662 54.5919C93.6918 54.4803 93.5032 54.4107 93.3003 54.3833C92.7085 54.3032 92.1295 54.3834 91.5631 54.6239C91.0161 54.8493 90.52 55.1434 90.075 55.5059C89.6299 55.8685 89.2644 56.2154 88.9785 56.5466C88.8898 56.6932 88.804 56.9458 88.7211 57.3045C88.6381 57.6632 88.5566 58.0749 88.4765 58.5397C88.3987 58.9872 88.3222 59.426 88.2467 59.8562C88.1882 60.2887 88.1295 60.6595 88.0704 60.9686C87.9763 61.5371 87.8422 62.0827 87.6682 62.6052C87.5135 63.1127 87.2944 63.5235 87.0108 63.8374C86.7296 64.1341 86.3523 64.2504 85.8789 64.1864Z" fill="#373435"/>
<path d="M453.355 115.39C451.144 115.081 449.038 114.388 447.038 113.309C445.037 112.23 443.577 110.627 442.657 108.5C442.552 108.194 442.397 107.718 442.191 107.072C441.985 106.425 441.903 105.941 441.945 105.62L442.57 100.855C442.724 99.6767 443.268 98.5713 444.202 97.5385C445.136 96.5057 446.201 95.582 447.397 94.7674C448.633 93.9222 449.724 93.2201 450.668 92.6613C451.098 92.4304 451.51 92.1971 451.904 91.9612C452.338 91.6947 452.757 91.4078 453.16 91.1006C453.393 90.9877 453.535 90.7349 453.586 90.3422C453.689 89.5569 453.738 88.7642 453.734 87.964C453.771 87.133 453.84 86.3249 453.943 85.5396C454.163 83.862 454.701 82.2469 455.558 80.6945C456.415 79.142 457.555 77.9199 458.979 77.0281C460.403 76.1363 462.042 75.8197 463.896 76.0783C465.893 76.3568 467.444 77.2638 468.55 78.7993C469.696 80.304 470.129 82.1272 469.848 84.2689C469.638 85.8752 469.135 87.2226 468.338 88.311C467.542 89.3994 466.566 90.3355 465.411 91.1193C464.291 91.9082 463.135 92.692 461.944 93.4709C461.605 93.5689 461.414 93.7785 461.372 94.0998C461.344 94.3139 461.45 94.7468 461.692 95.3984C461.933 96.05 462.252 96.8032 462.648 97.6581C463.045 98.5131 463.461 99.3526 463.898 100.177C464.339 100.965 464.741 101.639 465.103 102.199C465.506 102.727 465.796 103.004 465.975 103.029L466.189 103.059L469.869 97.4114C470.225 96.9158 470.61 96.6061 471.026 96.4823C471.446 96.3228 471.941 96.2829 472.512 96.3625C473.439 96.4918 474.083 96.8362 474.446 97.3956C474.808 97.955 474.936 98.6452 474.828 99.4662C474.688 100.537 474.29 101.499 473.633 102.353C473.012 103.211 472.374 104.067 471.717 104.92C471.101 105.743 470.723 106.69 470.583 107.761C470.499 108.403 470.698 108.958 471.182 109.426C471.701 109.898 472.293 110.362 472.96 110.818C473.662 111.28 474.243 111.833 474.703 112.479C475.203 113.094 475.39 113.884 475.264 114.847C475.189 115.418 475.077 115.857 474.928 116.163C474.819 116.439 474.574 116.787 474.192 117.206L473.016 117.042C472.089 116.912 471.292 116.62 470.626 116.163C469.964 115.671 469.343 115.148 468.762 114.595C468.221 114.01 467.689 113.5 467.165 113.063C466.682 112.596 466.137 112.32 465.531 112.236L465.103 112.176C463.195 113.436 461.276 114.368 459.345 114.971C457.42 115.539 455.423 115.678 453.355 115.39ZM460.059 88.7372L460.273 88.767C461.303 88.1111 462.255 87.3534 463.13 86.4941C464.005 85.6348 464.515 84.6518 464.66 83.5453C464.731 83.0099 464.653 82.4902 464.429 81.9864C464.245 81.4519 463.85 81.1423 463.244 81.0578C462.744 80.9881 462.246 81.1912 461.748 81.6669C461.25 82.1427 460.809 82.7355 460.426 83.4453C460.078 84.1601 459.857 84.8744 459.764 85.5883C459.74 85.7668 459.678 86.1034 459.577 86.5981C459.512 87.0979 459.504 87.5694 459.555 88.0126C459.606 88.4559 459.774 88.6974 460.059 88.7372ZM453.624 109.593C454.907 109.772 456.228 109.666 457.587 109.274C458.945 108.882 460.16 108.197 461.232 107.22C460.969 106.456 460.623 105.772 460.194 105.167C459.765 104.562 459.343 103.903 458.928 103.191C458.51 102.224 458.016 101.283 457.446 100.367C456.877 99.4519 456.383 98.5106 455.965 97.5437C455.938 97.4673 455.879 97.3681 455.786 97.2461C455.693 97.1241 455.6 97.0021 455.507 96.8801C454.999 96.8819 454.346 97.1543 453.548 97.6973C452.756 98.2046 451.944 98.8548 451.114 99.6477C450.289 100.405 449.573 101.159 448.966 101.911C448.395 102.667 448.077 103.295 448.012 103.795C447.867 104.901 448.048 105.871 448.556 106.706C449.104 107.509 449.836 108.156 450.752 108.648C451.668 109.139 452.625 109.454 453.624 109.593Z" fill="#373435"/>
</svg>
