<svg width="53" height="38" viewBox="0 0 53 38" fill="none" xmlns="http://www.w3.org/2000/svg">
<path opacity="0.65" d="M1.08984 18.9425C1.08984 18.9425 1.39416 12.4316 1.52458 10.7673C1.65499 9.1031 1.8144 3.40967 6.27764 2.22719C10.7409 1.04471 24.2755 1.01551 24.9856 1.00091C25.6956 0.986312 38.0855 1.1469 41.9401 1.51186C45.7947 1.87682 47.78 2.052 49.6348 4.41697C51.4897 6.78193 51.5187 13.1177 51.7071 16.2126C51.8955 19.3075 51.5042 26.4462 51.0984 28.9863C50.6927 31.5265 50.2869 32.9425 48.9538 34.1834C47.6351 35.4243 46.4758 36.0958 41.8966 36.417C37.3175 36.7381 25.3479 36.8987 22.2468 36.8403C22.2468 36.8403 11.393 36.8987 6.92974 35.906C2.46649 34.9133 1.90134 29.9498 1.90134 29.9498C1.90134 29.9498 1.08984 24.0958 1.08984 18.9425Z" fill="#0A0A0A" stroke="black" stroke-miterlimit="10"/>
<path d="M33.593 18.1492C34.2257 18.5399 34.2257 19.4601 33.593 19.8508L23.542 26.0579C22.8758 26.4694 22.0166 25.9901 22.0166 25.2071V12.7929C22.0166 12.0099 22.8758 11.5306 23.542 11.9421L33.593 18.1492Z" fill="white"/>
</svg>
