<svg width="47" height="11" viewBox="0 0 47 11" fill="none" xmlns="http://www.w3.org/2000/svg">
<path fill-rule="evenodd" clip-rule="evenodd" d="M45.0589 0.645984C45.6946 0.817139 46.1958 1.31838 46.367 1.9541C46.6849 3.1155 46.6726 5.53612 46.6726 5.53612C46.6726 5.53612 46.6726 7.94452 46.367 9.10593C46.1958 9.74164 45.6946 10.2429 45.0589 10.414C43.8975 10.7197 39.2518 10.7197 39.2518 10.7197C39.2518 10.7197 34.6184 10.7197 33.4448 10.4018C32.8091 10.2307 32.3078 9.72942 32.1367 9.0937C31.8311 7.94452 31.8311 5.5239 31.8311 5.5239C31.8311 5.5239 31.8311 3.1155 32.1367 1.9541C32.3078 1.31838 32.8213 0.804914 33.4448 0.633759C34.6062 0.328125 39.2518 0.328125 39.2518 0.328125C39.2518 0.328125 43.8975 0.328125 45.0589 0.645984ZM41.6345 5.52324L37.7713 7.74826V3.29823L41.6345 5.52324Z" fill="white"/>
<path d="M5.34838 9.79432C5.05497 9.59872 4.84714 9.29308 4.72488 8.8652C4.60263 8.44953 4.5415 7.88717 4.5415 7.20255V6.2612C4.5415 5.56435 4.61486 5.00198 4.74933 4.5741C4.89604 4.14621 5.1161 3.84058 5.4095 3.64497C5.71514 3.44937 6.10635 3.35156 6.59536 3.35156C7.07215 3.35156 7.46336 3.44937 7.75677 3.64497C8.05018 3.84058 8.25801 4.15844 8.39249 4.5741C8.52697 4.98976 8.60032 5.55213 8.60032 6.2612V7.20255C8.60032 7.89939 8.53919 8.44953 8.40472 8.87742C8.27024 9.29308 8.06241 9.61094 7.769 9.80655C7.47559 10.0022 7.07215 10.1 6.57091 10.1C6.05745 10.0877 5.64179 9.98993 5.34838 9.79432ZM6.9988 8.76739C7.08438 8.55956 7.12105 8.20503 7.12105 7.72824V5.69883C7.12105 5.23427 7.08438 4.89196 6.9988 4.6719C6.91322 4.45184 6.77874 4.35404 6.57091 4.35404C6.37531 4.35404 6.2286 4.46407 6.15525 4.6719C6.06967 4.89196 6.033 5.23427 6.033 5.69883V7.72824C6.033 8.20503 6.06967 8.55956 6.15525 8.76739C6.2286 8.97522 6.37531 9.08525 6.58314 9.08525C6.77874 9.08525 6.91322 8.98745 6.9988 8.76739Z" fill="white"/>
<path d="M27.9142 7.21188V7.54196C27.9142 7.95763 27.9265 8.27549 27.9509 8.48332C27.9754 8.69115 28.0243 8.85008 28.1098 8.93565C28.1832 9.03346 28.3054 9.08236 28.4766 9.08236C28.6967 9.08236 28.8434 8.99678 28.9289 8.82563C29.0145 8.65447 29.0512 8.37329 29.0634 7.96985L30.3226 8.0432C30.3349 8.10433 30.3349 8.17768 30.3349 8.27549C30.3349 8.87453 30.1759 9.32687 29.8458 9.62027C29.5158 9.91368 29.0512 10.0604 28.4521 10.0604C27.7309 10.0604 27.2296 9.8281 26.9362 9.37577C26.6428 8.92343 26.4961 8.22658 26.4961 7.27301V6.13605C26.4961 5.15802 26.6428 4.44895 26.9484 3.99661C27.2541 3.54428 27.7675 3.32422 28.4888 3.32422C28.9901 3.32422 29.3813 3.42202 29.6502 3.6054C29.9192 3.78878 30.1026 4.08219 30.2126 4.46118C30.3226 4.85239 30.3715 5.3903 30.3715 6.07492V7.18743H27.9142V7.21188ZM28.0976 4.4734C28.0243 4.5712 27.9754 4.71791 27.9509 4.92574C27.9265 5.13357 27.9142 5.45143 27.9142 5.87932V6.34388H28.9901V5.87932C28.9901 5.46365 28.9778 5.1458 28.9534 4.92574C28.9289 4.70568 28.8678 4.55898 28.7945 4.4734C28.7211 4.38782 28.5989 4.33892 28.4521 4.33892C28.281 4.3267 28.171 4.3756 28.0976 4.4734Z" fill="white"/>
<path d="M1.77788 7.0935L0.115234 1.06641H1.57005L2.15687 3.79266C2.30357 4.46505 2.4136 5.03965 2.48695 5.51643H2.52363C2.57253 5.17412 2.68256 4.61176 2.85371 3.80488L3.46498 1.06641H4.9198L3.2327 7.0935V9.97869H1.79011V7.0935H1.77788Z" fill="white"/>
<path d="M13.3311 3.47266V9.98877H12.182L12.0597 9.19412H12.023C11.7174 9.79316 11.2406 10.0988 10.6171 10.0988C10.1892 10.0988 9.87137 9.95209 9.66354 9.67091C9.45571 9.38973 9.35791 8.94961 9.35791 8.33835V3.47266H10.825V8.25277C10.825 8.54618 10.8616 8.75401 10.9228 8.87626C10.9839 8.99851 11.0939 9.05964 11.2406 9.05964C11.3629 9.05964 11.4851 9.02297 11.6074 8.93739C11.7296 8.86404 11.8152 8.76623 11.8641 8.64398V3.47266H13.3311Z" fill="white"/>
<path d="M20.8502 3.47266V9.98877H19.701L19.5788 9.19412H19.5421C19.2364 9.79316 18.7597 10.0988 18.1362 10.0988C17.7083 10.0988 17.3904 9.95209 17.1826 9.67091C16.9748 9.38973 16.877 8.94961 16.877 8.33835V3.47266H18.344V8.25277C18.344 8.54618 18.3807 8.75401 18.4418 8.87626C18.5029 8.99851 18.613 9.05964 18.7597 9.05964C18.8819 9.05964 19.0042 9.02297 19.1264 8.93739C19.2487 8.86404 19.3342 8.76623 19.3831 8.64398V3.47266H20.8502Z" fill="white"/>
<path d="M17.3163 2.25227H15.8615V9.97869H14.4311V2.25227H12.9763V1.06641H17.3163V2.25227Z" fill="white"/>
<path d="M25.702 4.51201C25.6164 4.09635 25.4697 3.80294 25.2741 3.61956C25.0785 3.43618 24.7973 3.33837 24.455 3.33837C24.1861 3.33837 23.9293 3.41173 23.697 3.57066C23.4648 3.71736 23.2814 3.92519 23.1591 4.1697H23.1469V0.734375H21.7288V9.97674H22.9391L23.0858 9.36547H23.1225C23.2325 9.58553 23.4036 9.75668 23.6359 9.89116C23.8682 10.0134 24.1127 10.0868 24.3939 10.0868C24.8951 10.0868 25.2497 9.85448 25.4819 9.40215C25.7142 8.94981 25.8365 8.22851 25.8365 7.26271V6.23578C25.8243 5.49004 25.7876 4.91544 25.702 4.51201ZM24.3572 7.16491C24.3572 7.6417 24.3328 8.00846 24.2961 8.27742C24.2594 8.54637 24.1861 8.74198 24.1005 8.85201C24.0027 8.96203 23.8804 9.02316 23.7337 9.02316C23.6115 9.02316 23.5014 8.99871 23.4036 8.93758C23.3058 8.87646 23.2203 8.79088 23.1591 8.68085V4.9888C23.208 4.81764 23.2936 4.67094 23.4159 4.54868C23.5381 4.43866 23.6726 4.37753 23.8071 4.37753C23.9538 4.37753 24.076 4.43866 24.1494 4.54868C24.235 4.67094 24.2839 4.86654 24.3205 5.1355C24.3572 5.41668 24.3694 5.8079 24.3694 6.30913V7.16491H24.3572Z" fill="white"/>
</svg>
