<svg width="698" height="517" viewBox="0 0 698 517" fill="none" xmlns="http://www.w3.org/2000/svg">
<path d="M525.83 493.469C523.714 493.329 521.591 493.342 519.476 493.507L225.967 516.434C221.128 516.812 216.261 516.483 211.517 515.459L108.731 493.259L30.5389 466.974C18.0807 462.786 10.4231 450.263 12.3728 437.265V437.265C16.1334 412.194 38.4711 394.182 63.7697 395.821L125.526 399.823C129.721 400.095 133.935 399.836 138.065 399.054L270.871 373.894C278.293 372.489 285.936 372.782 293.228 374.754L464.054 420.939C469.499 422.411 475.154 422.951 480.78 422.536L627.73 411.701C631.285 411.439 634.854 411.95 638.193 413.197L650.698 417.87C674.349 426.708 683.459 455.376 669.248 476.245V476.245C658.465 492.081 640.106 501.028 620.989 499.764L525.83 493.469Z" fill="#DDDDDD"/>
<path d="M427.74 246.125L427.253 204.951C417.626 231.073 249.601 235.228 166.791 234.04L166.971 249.209L427.74 246.125Z" fill="#EEEEEE" stroke="#C5C5C5" stroke-width="2"/>
<path d="M429.711 206.647C429.73 208.191 428.735 209.909 426.335 211.767C423.957 213.608 420.376 215.441 415.661 217.228C406.244 220.795 392.537 224.088 375.518 226.925C341.494 232.596 294.407 236.416 242.33 237.032C190.253 237.648 143.089 234.942 108.941 230.078C91.8589 227.644 78.0787 224.676 68.5793 221.332C63.8238 219.658 60.2007 217.91 57.7796 216.126C55.3358 214.325 54.3011 212.63 54.2828 211.087C54.2646 209.543 55.2589 207.824 57.6595 205.966C60.0376 204.126 63.6184 202.292 68.333 200.506C77.7506 196.938 91.4568 193.645 108.477 190.809C142.5 185.138 189.587 181.318 241.664 180.702C293.741 180.086 340.905 182.791 375.053 187.656C392.135 190.089 405.916 193.057 415.415 196.401C420.17 198.075 423.794 199.824 426.215 201.608C428.658 203.408 429.693 205.103 429.711 206.647Z" fill="white" stroke="#C5C5C5" stroke-width="2"/>
<path d="M333.633 207.786C333.636 208.038 333.408 208.591 332.15 209.367C330.965 210.097 329.148 210.844 326.713 211.583C321.858 213.055 314.774 214.425 305.958 215.614C288.339 217.989 263.951 219.621 236.975 219.94C209.999 220.259 185.578 219.204 167.908 217.246C159.066 216.266 151.952 215.064 147.064 213.707C144.612 213.027 142.778 212.323 141.576 211.621C140.3 210.875 140.059 210.327 140.056 210.075C140.053 209.824 140.281 209.27 141.539 208.495C142.724 207.764 144.54 207.017 146.976 206.279C151.831 204.807 158.914 203.437 167.731 202.248C185.35 199.872 209.738 198.241 236.714 197.922C263.69 197.603 288.11 198.657 305.781 200.615C314.623 201.595 321.736 202.797 326.625 204.154C329.077 204.835 330.911 205.539 332.113 206.241C333.389 206.986 333.63 207.535 333.633 207.786Z" fill="#C5C5C5" stroke="#C5C5C5" stroke-width="2"/>
<path d="M59.2593 427.229L54.79 212.207C211.538 265.226 432.64 243.073 484.535 242.46L635.996 242.46C636.548 242.46 636.996 242.907 636.996 243.46L636.996 468.15C554.665 469.817 290.444 477.929 217.582 472.152C134.593 465.572 82.9479 443.174 60.1652 428.857C59.6003 428.502 59.2731 427.896 59.2593 427.229Z" fill="#EEEEEE" stroke="#C5C5C5" stroke-width="2"/>
<path d="M269 274.004L269 433.985C269 438.961 264.962 442.992 259.986 442.985L153.986 442.824C149.021 442.816 145 438.789 145 433.824L145 274.048C145 269.079 149.027 265.05 153.996 265.048L259.996 265.004C264.968 265.002 269 269.032 269 274.004Z" fill="white" stroke="#C5C5C5" stroke-width="2"/>
<path d="M260.5 283L260.5 424.828C260.5 430.075 256.247 434.328 251 434.328L163 434.328C157.753 434.328 153.5 430.075 153.5 424.828L153.5 283C153.5 277.753 157.753 273.5 163 273.5L251 273.5C256.247 273.5 260.5 277.753 260.5 283Z" fill="white" stroke="#C5C5C5"/>
<path d="M410 274.004L410 433.985C410 438.961 405.962 442.992 400.986 442.985L294.986 442.824C290.021 442.816 286 438.789 286 433.824L286 274.048C286 269.079 290.027 265.05 294.996 265.048L400.996 265.004C405.968 265.002 410 269.032 410 274.004Z" fill="white" stroke="#C5C5C5" stroke-width="2"/>
<path d="M401.5 283L401.5 424.828C401.5 430.075 397.247 434.328 392 434.328L304 434.328C298.753 434.328 294.5 430.075 294.5 424.828L294.5 283C294.5 277.753 298.753 273.5 304 273.5L392 273.5C397.247 273.5 401.5 277.753 401.5 283Z" fill="white" stroke="#C5C5C5"/>
<path d="M551 274.004L551 433.985C551 438.961 546.962 442.992 541.986 442.985L435.986 442.824C431.021 442.816 427 438.789 427 433.824L427 274.048C427 269.079 431.027 265.05 435.996 265.048L541.996 265.004C546.968 265.002 551 269.032 551 274.004Z" fill="white" stroke="#C5C5C5" stroke-width="2"/>
<path d="M542.5 283L542.5 424.828C542.5 430.075 538.247 434.328 533 434.328L445 434.328C439.753 434.328 435.5 430.075 435.5 424.828L435.5 283C435.5 277.753 439.753 273.5 445 273.5L533 273.5C538.247 273.5 542.5 277.753 542.5 283Z" fill="white" stroke="#C5C5C5"/>
<path d="M188.69 363.408H212.716V342.952C212.716 340.3 212.812 337.175 213.003 333.576C213.195 329.977 213.339 326.852 213.435 324.2H212.86C211.709 326.568 210.51 328.888 209.263 331.161C208.016 333.434 206.721 335.802 205.379 338.264L188.69 363.408ZM212.716 399.349V376.052H172.29V364.971L208.544 309H228.253V363.408H239.762V376.052H228.253V399.349H212.716Z" fill="#0098DA"/>
<path d="M348.387 401.858C338.892 401.858 331.315 397.782 325.657 389.628C320.094 381.475 317.312 369.766 317.312 354.503C317.312 339.239 320.094 327.672 325.657 319.803C331.315 311.934 338.892 308 348.387 308C357.883 308 365.412 311.934 370.974 319.803C376.633 327.672 379.462 339.239 379.462 354.503C379.462 369.766 376.633 381.475 370.974 389.628C365.412 397.782 357.883 401.858 348.387 401.858ZM348.387 389.06C351.361 389.06 353.998 387.969 356.3 385.789C358.602 383.513 360.376 379.863 361.623 374.839C362.966 369.814 363.637 363.035 363.637 354.503C363.637 345.97 362.966 339.239 361.623 334.309C360.376 329.379 358.602 325.918 356.3 323.927C353.998 321.842 351.361 320.799 348.387 320.799C345.51 320.799 342.921 321.842 340.619 323.927C338.317 325.918 336.495 329.379 335.152 334.309C333.809 339.239 333.138 345.97 333.138 354.503C333.138 363.035 333.809 369.814 335.152 374.839C336.495 379.863 338.317 383.513 340.619 385.789C342.921 387.969 345.51 389.06 348.387 389.06Z" fill="#ED3237"/>
<path d="M471.401 363.466H495.426V342.988C495.426 340.334 495.522 337.205 495.714 333.602C495.906 330 496.05 326.871 496.146 324.216H495.57C494.419 326.587 493.22 328.909 491.973 331.185C490.727 333.46 489.432 335.83 488.089 338.295L471.401 363.466ZM495.426 399.445V376.123H455V365.031L491.254 309H510.964V363.466H522.473V376.123H510.964V399.445H495.426Z" fill="#0098DA"/>
<path d="M20.6713 65.5543C18.3875 65.8512 16.2575 65.6296 14.2812 64.8894C12.3049 64.1491 10.5399 63.0491 8.98619 61.5891C7.46869 60.1245 6.21523 58.4224 5.22582 56.4829C4.26793 54.5023 3.64734 52.4225 3.36405 50.2435C2.75026 45.5222 3.35071 41.4925 5.1654 38.1543C7.01163 34.7751 9.90821 31.9611 13.8551 29.7122C14.8498 29.1397 15.9917 28.5665 17.2811 27.9927C18.6019 27.3778 19.8605 26.9926 21.0568 26.837C22.1443 26.6956 23.2168 26.7224 24.2744 26.9173C25.3271 27.0759 26.2522 27.5281 27.0496 28.2738C27.3553 28.6403 27.5908 29.0344 27.7562 29.4561C27.9169 29.8414 28.1139 30.2221 28.3471 30.598L28.4014 30.5909C28.4881 30.6905 28.6638 30.9077 28.9285 31.2426C29.2248 31.5365 29.5234 31.8485 29.8243 32.1787C30.1206 32.4725 30.3144 32.6874 30.4058 32.8232C32.0241 34.4963 33.1964 36.2828 33.9226 38.1827C34.6441 40.0463 35.1536 42.1221 35.451 44.4101C35.7674 46.8434 35.6574 49.2582 35.1211 51.6546C34.58 54.0147 33.6639 56.1835 32.3727 58.161C31.0816 60.1385 29.4532 61.7905 27.4875 63.1171C25.5172 64.4073 23.2451 65.2197 20.6713 65.5543ZM20.4219 59.3823C22.1619 59.1561 23.6144 58.561 24.7793 57.5971C25.9757 56.5921 26.9035 55.3635 27.5625 53.9114C28.2531 52.4182 28.7144 50.8625 28.9464 49.2443C29.1737 47.5898 29.1882 45.9999 28.9899 44.4745C28.886 43.6755 28.6222 42.6388 28.1985 41.3644C27.7747 40.0899 27.206 38.8343 26.4923 37.5976C25.7785 36.3608 24.93 35.3632 23.9467 34.6047C22.9586 33.8099 21.8483 33.4926 20.6158 33.6528C18.6945 33.9026 16.9883 34.5306 15.4971 35.537C14.0375 36.5023 12.8331 37.7299 11.884 39.2198C10.935 40.7096 10.2609 42.3299 9.86181 44.0806C9.49899 45.8266 9.43561 47.6076 9.67169 49.4235C9.91248 51.2756 10.4701 53.0128 11.3445 54.6349C12.2552 56.2523 13.4701 57.5162 14.9893 58.4266C16.5085 59.3371 18.3193 59.6556 20.4219 59.3823Z" fill="#5A5A5A"/>
<path d="M58.3672 60.6537C55.7571 60.993 53.2551 60.7458 50.8612 59.9122C48.4673 59.0785 46.447 57.7162 44.8004 55.8252C43.1537 53.9342 42.151 51.6086 41.7921 48.8484C41.5466 46.9599 41.7006 45.1672 42.2541 43.4703C42.8392 41.7323 43.6378 40.0773 44.6499 38.5054C45.6983 36.9288 46.7585 35.443 47.8305 34.048C48.398 33.3094 49.116 32.736 49.9845 32.3276C50.8483 31.8829 51.7515 31.5993 52.694 31.4768C55.0503 31.1704 57.349 31.1301 59.5902 31.3558C61.8313 31.5815 63.8793 32.1646 65.7342 33.1053C67.6206 34.0049 69.1941 35.333 70.4546 37.0896C71.7104 38.8098 72.513 41.0137 72.8624 43.7012C73.1504 45.9166 72.9412 47.9935 72.2348 49.9319C71.5283 51.8703 70.4626 53.5969 69.0375 55.1117C67.6487 56.6218 66.0227 57.8672 64.1596 58.8481C62.328 59.7879 60.3972 60.3898 58.3672 60.6537ZM56.4935 54.7482C58.4873 54.489 60.3275 53.8989 62.0141 52.9779C63.6959 52.0207 65.0067 50.7608 65.9463 49.1983C66.9175 47.5948 67.2662 45.7398 66.9923 43.6334C66.7515 41.7812 66.0071 40.3084 64.759 39.215C63.5472 38.1168 62.0879 37.3833 60.3811 37.0143C58.6695 36.6089 56.9619 36.517 55.2581 36.7385C54.3881 36.8516 53.6977 37.0707 53.187 37.3956C52.6763 37.7205 52.2317 38.1291 51.8534 38.6215C51.475 39.1139 51.0336 39.6883 50.5292 40.3448C49.6511 41.5299 48.8959 42.8099 48.2636 44.1847C47.6266 45.5232 47.412 46.9914 47.6198 48.5894C47.9503 51.1316 48.95 52.8667 50.6189 53.7946C52.2878 54.7225 54.246 55.0404 56.4935 54.7482Z" fill="#5A5A5A"/>
<path d="M95.2198 55.8626C92.6097 56.202 90.1077 55.9548 87.7138 55.1211C85.3199 54.2875 83.2996 52.9252 81.653 51.0341C80.0063 49.1431 79.0036 46.8176 78.6447 44.0574C78.3992 42.1689 78.5532 40.3762 79.1068 38.6792C79.6918 36.9413 80.4904 35.2863 81.5025 33.7144C82.5509 32.1378 83.6111 30.652 84.6831 29.2569C85.2506 28.5184 85.9687 27.9449 86.8372 27.5366C87.7009 27.0919 88.6041 26.8083 89.5466 26.6857C91.9029 26.3794 94.2016 26.3391 96.4428 26.5648C98.6839 26.7904 100.732 27.3736 102.587 28.3143C104.473 29.2139 106.047 30.542 107.307 32.2986C108.563 34.0188 109.366 36.2227 109.715 38.9102C110.003 41.1255 109.794 43.2024 109.087 45.1409C108.381 47.0793 107.315 48.8059 105.89 50.3207C104.501 51.8308 102.875 53.0762 101.012 54.0571C99.1806 54.9969 97.2498 55.5987 95.2198 55.8626ZM93.3461 49.9572C95.3399 49.698 97.1801 49.1079 98.8667 48.1869C100.549 47.2296 101.859 45.9697 102.799 44.4073C103.77 42.8037 104.119 40.9488 103.845 38.8424C103.604 36.9902 102.86 35.5174 101.612 34.4239C100.4 33.3258 98.9405 32.5923 97.2337 32.2232C95.5221 31.8179 93.8145 31.726 92.1107 31.9475C91.2407 32.0606 90.5503 32.2796 90.0396 32.6045C89.5289 32.9295 89.0844 33.3381 88.706 33.8305C88.3276 34.3228 87.8862 34.8973 87.3818 35.5537C86.5037 36.7389 85.7485 38.0189 85.1162 39.3937C84.4792 40.7322 84.2646 42.2004 84.4724 43.7984C84.8029 46.3406 85.8026 48.0757 87.4715 49.0036C89.1404 49.9315 91.0986 50.2493 93.3461 49.9572Z" fill="#5A5A5A"/>
<path d="M123.031 67.869C122.451 67.9444 121.959 67.8422 121.554 67.5625C121.149 67.2828 120.741 66.8373 120.329 66.226L119.841 62.4671C119.383 58.9443 119.149 55.4477 119.14 51.9773C119.168 48.5022 118.946 44.9487 118.473 41.317L117.716 35.488C117.41 35.1215 117.062 34.8528 116.671 34.6821C116.316 34.5066 115.993 34.29 115.702 34.0325C115.41 33.7749 115.227 33.3556 115.151 32.7746C115.061 32.0845 115.081 31.528 115.21 31.1049C115.376 30.6771 115.835 29.9527 116.587 28.9317L115.864 23.3751C115.789 22.794 116.054 22.2795 116.659 21.8315C117.301 21.3787 117.857 21.1218 118.328 21.0605C118.945 20.9804 119.439 21.1007 119.813 21.4214C120.182 21.7059 120.487 22.0724 120.73 22.521C120.973 22.9695 121.19 23.366 121.382 23.7103C121.57 24.0183 121.79 24.1558 122.044 24.1228C122.407 24.0757 122.773 23.9173 123.143 23.6475C123.55 23.3731 123.928 23.1578 124.276 23.0017C124.552 22.855 124.918 22.6966 125.375 22.5264C125.828 22.3199 126.267 22.152 126.692 22.0228C127.113 21.8573 127.36 21.7698 127.432 21.7604L129.825 21.4494C132.072 21.1572 134.227 21.2833 136.288 21.8278C138.345 22.336 140.094 23.309 141.534 24.7467C142.974 26.1844 143.855 28.1381 144.176 30.6077C144.459 32.7868 144.307 35.0224 143.721 37.3145C143.129 39.5704 142.19 41.7052 140.904 43.719C139.613 45.6965 138.041 47.3596 136.189 48.7084C134.368 50.0161 132.352 50.8137 130.141 51.1011C129.452 51.1907 128.733 51.1918 127.985 51.1045C127.272 51.0124 126.554 51.0135 125.829 51.1078L125.339 51.1714C125.421 52.084 125.481 53.1104 125.518 54.2503C125.597 55.4219 125.661 56.4846 125.712 57.4383C125.762 58.3919 125.813 59.0685 125.865 59.468C125.884 59.6133 125.882 59.7428 125.86 59.8564L125.848 60.1903C125.842 60.7082 125.817 61.2285 125.775 61.751C125.773 62.3052 125.787 62.8389 125.817 63.3521C125.779 63.911 125.673 64.5156 125.5 65.166C125.367 65.848 125.094 66.4375 124.679 66.9346C124.306 67.4633 123.756 67.7747 123.031 67.869ZM129.111 45.3075C130.597 45.1143 131.946 44.5697 133.157 43.6737C134.362 42.7413 135.395 41.6099 136.254 40.2795C137.109 38.9127 137.734 37.4835 138.13 35.9917C138.521 34.4636 138.627 33.0095 138.447 31.6294C138.192 29.6683 137.319 28.3414 135.829 27.6489C134.374 26.9516 132.704 26.7255 130.819 26.9706C130.13 27.0602 129.483 27.1813 128.876 27.334C128.264 27.4505 127.703 27.6712 127.192 27.9961C125.312 29.1269 124.171 30.2724 123.769 31.4326C123.362 32.5565 123.25 33.8267 123.434 35.2431C123.51 35.8242 123.611 36.4574 123.737 37.1427C123.858 37.7917 123.966 38.4794 124.06 39.2057L124.62 43.5094C124.7 44.1268 124.999 44.5864 125.518 44.8883C126.032 45.1539 126.624 45.3169 127.296 45.3774C127.998 45.3968 128.604 45.3735 129.111 45.3075Z" fill="#5A5A5A"/>
<path d="M161.876 48.028C160.861 48.16 159.689 48.22 158.36 48.208C157.036 48.2324 155.73 48.1068 154.441 47.8313C153.151 47.5557 152.033 47.0363 151.086 46.2731C150.175 45.5051 149.628 44.413 149.444 42.9966C149.321 42.0523 149.45 41.2045 149.832 40.4532C150.209 39.6656 150.923 39.2035 151.974 39.0668C152.627 38.982 153.155 39.0794 153.56 39.3591C153.965 39.6389 154.325 39.9983 154.641 40.4374C154.992 40.8719 155.382 41.3198 155.81 41.7811C156.271 42.2014 156.848 42.5325 157.543 42.7745C158.274 43.0119 159.22 43.0551 160.38 42.9043C161.214 42.7959 162.108 42.5873 163.064 42.2785C164.05 41.9286 164.871 41.4342 165.525 40.7951C166.179 40.1561 166.445 39.3645 166.322 38.4202C166.213 37.5849 165.784 36.976 165.034 36.5934C164.279 36.1745 163.334 35.8541 162.2 35.6323C161.065 35.4105 159.876 35.1958 158.632 34.9882C157.384 34.7442 156.178 34.4024 155.015 33.9627C153.852 33.523 152.865 32.8758 152.053 32.021C151.237 31.13 150.73 29.9218 150.532 28.3965C150.347 26.9801 150.534 25.7187 151.09 24.6123C151.647 23.5058 152.426 22.5551 153.429 21.76C154.463 20.9238 155.595 20.278 156.826 19.8225C158.089 19.326 159.318 19 160.515 18.8445C161.203 18.7549 162.013 18.742 162.943 18.8058C163.868 18.8333 164.789 18.972 165.706 19.2221C166.623 19.4722 167.415 19.8863 168.08 20.4647C168.74 21.0066 169.131 21.7498 169.254 22.694C169.471 24.3646 168.746 25.3083 167.079 25.5251L166.372 25.617C165.204 25.141 164.218 24.7891 163.414 24.5612C162.611 24.3333 161.719 24.283 160.741 24.4102C160.306 24.4668 159.696 24.6014 158.913 24.814C158.161 24.9856 157.498 25.2749 156.925 25.6819C156.351 26.0888 156.111 26.6555 156.206 27.3818C156.286 27.9992 156.696 28.4629 157.437 28.7729C158.178 29.0828 159.115 29.3487 160.25 29.5705C161.385 29.7923 162.579 30.0433 163.832 30.3236C165.085 30.6039 166.3 31.0184 167.477 31.567C168.649 32.0794 169.646 32.7992 170.467 33.7265C171.288 34.6539 171.798 35.8802 171.996 37.4056C172.284 39.621 171.954 41.4736 171.004 42.9634C170.092 44.4485 168.805 45.6129 167.146 46.4565C165.517 47.2591 163.761 47.7829 161.876 48.028Z" fill="#5A5A5A"/>
<path d="M188.192 31.8654C187.866 31.9078 187.523 31.8231 187.164 31.6113C186.836 31.3584 186.544 30.9533 186.287 30.3957C186.126 30.0104 186.002 29.6203 185.914 29.2255C185.826 28.8308 185.758 28.4518 185.711 28.0886C185.668 27.7617 185.626 27.4349 185.583 27.108C185.572 26.7401 185.55 26.4291 185.517 26.1749C185.394 25.2306 185.279 24.3408 185.17 23.5055C185.093 22.6292 185.005 21.8097 184.906 21.047C184.83 20.4659 184.739 19.9054 184.632 19.3653C184.561 18.8205 184.472 18.2781 184.365 17.7381C184.099 16.2585 183.807 14.5791 183.489 12.7001C183.207 10.8163 182.933 9.13456 182.667 7.65496C182.48 6.49751 182.419 5.32356 182.486 4.13312C182.584 2.90165 183.091 1.83861 184.006 0.94398C184.399 0.560568 184.777 0.345296 185.139 0.298168C185.9 0.1992 186.54 0.725393 187.058 1.87675C187.608 2.98707 187.999 4.43201 188.23 6.21157C188.362 7.22847 188.456 8.23191 188.511 9.22191C188.602 10.2072 188.658 10.9201 188.678 11.3606C188.823 13.0407 188.952 14.7412 189.065 16.4623C189.174 18.147 189.303 19.8476 189.452 21.5639C189.554 22.9171 189.697 24.3019 189.881 25.7183C190.102 27.13 190.098 28.5154 189.869 29.8747C189.79 30.402 189.59 30.8526 189.27 31.2266C188.95 31.6006 188.591 31.8135 188.192 31.8654ZM189.07 43.7171C188.381 43.8066 187.727 43.5962 187.107 43.0858C186.483 42.5391 186.091 41.6484 185.931 40.4136C185.723 38.8156 185.93 37.57 186.551 36.6767C187.172 35.7835 187.881 35.285 188.679 35.1814C189.367 35.0918 190.024 35.3204 190.648 35.8671C191.267 36.3775 191.659 37.2682 191.825 38.5394C192.028 40.101 191.819 41.3285 191.198 42.2217C190.576 43.115 189.867 43.6134 189.07 43.7171Z" fill="#5A5A5A"/>
<path d="M17.9142 118.728C17.1473 118.828 16.5231 118.68 16.0416 118.286C15.5566 117.865 15.1768 117.322 14.9024 116.659C14.6509 115.966 14.4505 115.252 14.3014 114.519C14.1787 113.782 14.083 113.149 14.0142 112.62L13.4831 108.534C13.2562 106.789 13.1149 104.979 13.0594 103.103C13.0039 101.228 12.8535 99.2445 12.6084 97.1519C11.6231 97.2262 10.8321 97.1408 10.2355 96.8957C9.66195 96.6207 9.30812 95.9675 9.17405 94.9362C9.07091 94.1429 9.32411 93.5049 9.93364 93.0223C10.5397 92.5132 11.2326 92.1543 12.0121 91.9453C13.0125 91.5733 14.0911 91.2852 15.2477 91.081C16.4274 90.847 17.5358 90.5819 18.5729 90.2857L18.7316 90.265C19.8158 90.1241 20.9897 90.0522 22.2532 90.0492C23.5132 90.0199 24.7525 90.1411 25.9711 90.413C27.2126 90.6549 28.3213 91.1158 29.2971 91.7957C30.2695 92.4491 30.9985 93.4031 31.4843 94.6576L31.6596 96.0063C31.8522 97.4871 31.6642 98.9368 31.0956 100.355C30.5271 101.774 29.7016 103.078 28.6193 104.267C27.5599 105.427 26.3541 106.39 25.0017 107.158C23.6758 107.922 22.3253 108.393 20.9502 108.572C20.5536 108.623 20.1552 108.662 19.7551 108.687C19.3515 108.686 18.8439 108.711 18.2323 108.764C18.4272 110.056 18.6113 111.162 18.7845 112.08C18.9577 112.999 19.101 113.895 19.2145 114.767C19.2763 115.243 19.3054 115.777 19.3017 116.369C19.3245 116.958 19.2311 117.481 19.0217 117.939C18.8387 118.393 18.4695 118.656 17.9142 118.728ZM17.6032 103.925L21.2525 103.45C21.7549 103.385 22.354 103.132 23.0497 102.692C23.7685 102.222 24.462 101.661 25.1302 101.01C25.8215 100.328 26.377 99.6376 26.797 98.9376C27.2399 98.2078 27.4236 97.552 27.3479 96.9702C27.2654 96.3355 26.9454 95.8393 26.388 95.4815C25.857 95.1203 25.2604 94.8752 24.5983 94.7461C23.9361 94.6171 23.3802 94.5818 22.9307 94.6402L17.6551 95.3261L17.3445 95.7295C17.3429 96.7515 17.331 97.6943 17.3088 98.5577C17.2832 99.3946 17.2857 100.241 17.3164 101.098C17.3735 101.951 17.4691 102.893 17.6032 103.925Z" fill="#5A5A5A"/>
<path d="M45.3456 115.162C44.1291 115.32 42.9559 115.19 41.826 114.772C40.696 114.354 39.7139 113.729 38.8796 112.896C38.0418 112.037 37.4398 111.026 37.0735 109.864L36.8105 107.841C36.618 106.36 36.6882 104.832 37.0212 103.256C37.3541 101.679 37.9272 100.193 38.7407 98.7967C39.5506 97.3737 40.5801 96.1911 41.8291 95.2489C43.0746 94.2803 44.5039 93.6911 46.117 93.4814C46.7781 93.3954 47.3621 93.4405 47.869 93.6166C48.4024 93.7893 48.8846 93.9821 49.3157 94.1949C49.7697 94.3779 50.1985 94.4701 50.602 94.4714C50.6726 93.3597 50.8707 92.6079 51.1962 92.216C51.5183 91.7976 51.9967 91.5472 52.6313 91.4647C53.3982 91.365 53.9465 91.5492 54.2763 92.0172C54.6291 92.4554 54.8536 93.0447 54.9498 93.7852C55.1389 95.2396 55.2849 96.6727 55.3878 98.0846C55.5171 99.493 55.678 100.938 55.8705 102.419C56.0218 103.582 56.2443 104.777 56.5381 106.002C56.8319 107.228 57.0545 108.423 57.2057 109.586L57.314 110.419C57.3897 111.001 57.3411 111.559 57.1685 112.092C57.0188 112.595 56.5605 112.897 55.7936 112.997C55.0796 113.09 54.5365 112.945 54.1642 112.563C53.8148 112.151 53.5477 111.648 53.3629 111.054C53.201 110.43 53.0478 109.871 52.9031 109.379L52.7239 109.241C51.9416 110.257 51.2417 111.182 50.6239 112.015C50.0326 112.845 49.3431 113.539 48.5554 114.099C47.7641 114.632 46.6942 114.986 45.3456 115.162ZM44.4281 111.207C45.3536 111.087 46.1902 110.696 46.9377 110.034C47.7083 109.342 48.3657 108.503 48.9099 107.518C49.4507 106.507 49.8409 105.475 50.0805 104.422C50.3201 103.369 50.3831 102.406 50.2697 101.533C50.1837 100.872 50.0052 100.223 49.7342 99.586C49.4597 98.9225 49.0667 98.382 48.5553 97.9644C48.0703 97.5434 47.4311 97.3845 46.6378 97.4876C45.7651 97.6011 44.9452 98.0169 44.1781 98.7352C43.4374 99.4499 42.7984 100.326 42.2611 101.364C41.7203 102.376 41.3186 103.423 41.056 104.506C40.79 105.562 40.7103 106.5 40.8168 107.32C40.9028 107.981 41.0813 108.63 41.3523 109.267C41.6498 109.901 42.0526 110.413 42.5606 110.804C43.0651 111.169 43.6876 111.303 44.4281 111.207Z" fill="#5A5A5A"/>
<path d="M71.3165 122.757C70.5152 122.592 69.7284 122.331 68.9559 121.975C68.2134 121.641 67.5795 121.212 67.0543 120.689C66.559 120.189 66.2684 119.608 66.1825 118.947C66.1034 118.339 66.2565 117.862 66.6418 117.516C67.0535 117.167 67.5106 116.959 68.013 116.894C68.5948 116.818 69.0932 116.928 69.5081 117.224C69.9529 117.543 70.4092 117.846 70.8769 118.135C71.3746 118.447 71.9408 118.561 72.5755 118.479C73.3423 118.379 73.984 118.04 74.5005 117.462C75.0169 116.884 75.4219 116.173 75.7154 115.328C76.0089 114.483 76.203 113.597 76.2977 112.671C76.4188 111.741 76.441 110.877 76.3643 110.08C76.3667 109.892 76.3548 109.49 76.3286 108.875C76.299 108.233 76.266 107.565 76.2295 106.871C76.2194 106.173 76.1937 105.666 76.1525 105.348L76.1009 104.952C76.0734 104.74 76.0068 104.641 75.901 104.655L75.7423 104.675C75.0693 105.704 74.3733 106.763 73.6543 107.851C72.9618 108.936 72.1428 109.876 71.1974 110.671C70.2486 111.44 69.0999 111.912 67.7512 112.088C66.7199 112.222 65.7203 112.083 64.7524 111.671C63.7846 111.259 62.9646 110.639 62.2923 109.812C61.6201 108.985 61.2118 108.017 61.0674 106.906C60.8302 105.081 60.9517 103.223 61.4319 101.332C61.9087 99.415 62.6855 97.6333 63.7623 95.9874C64.8391 94.3415 66.152 92.9608 67.7011 91.8451C69.2767 90.7259 71.0429 90.0392 72.9997 89.7848C73.5286 89.716 74.096 89.7364 74.7018 89.8459C75.3077 89.9553 75.8364 90.1958 76.2881 90.5674C76.7627 90.909 77.0448 91.4236 77.1342 92.1112C77.2132 92.7194 77.0521 93.2378 76.6506 93.6665C76.2757 94.0917 75.7841 94.3439 75.1759 94.4229C74.7527 94.4779 74.321 94.4668 73.8808 94.3896C73.4669 94.309 73.0484 94.2961 72.6253 94.3512L71.832 94.4543C70.4326 95.0665 69.2083 95.992 68.1593 97.2309C67.1333 98.44 66.3693 99.8032 65.8674 101.321C65.3621 102.811 65.2039 104.284 65.393 105.739L65.5684 107.087C65.8796 107.827 66.3658 108.153 67.0269 108.067C67.6351 107.988 68.2141 107.684 68.7639 107.156C69.3136 106.627 69.8364 105.995 70.3323 105.258C70.8247 104.495 71.2791 103.75 71.6956 103.023C72.1086 102.271 72.4975 101.642 72.8622 101.137C73.1694 100.398 73.5348 99.6918 73.9581 99.0183C74.3781 98.3183 74.7549 97.597 75.0886 96.8545C75.3314 96.4464 75.5764 96.1591 75.8236 95.9925C76.0709 95.8259 76.3796 95.7186 76.7498 95.6704C77.4109 95.5845 77.911 95.7077 78.25 96.0401C78.612 96.3426 78.8935 96.7497 79.0945 97.2614C79.2955 97.7731 79.4534 98.2635 79.5681 98.7327L79.9549 101.708C80.0958 102.792 80.216 104.027 80.3155 105.412C80.4413 106.794 80.4948 108.239 80.4757 109.748C80.4797 111.226 80.3595 112.68 80.1152 114.11C79.8709 115.541 79.4639 116.857 78.8943 118.061C78.3511 119.261 77.5936 120.26 76.6218 121.059C75.65 121.857 74.4104 122.355 72.9031 122.551L71.3165 122.757Z" fill="#5A5A5A"/>
<path d="M95.841 108.799C93.937 109.046 92.1407 108.984 90.452 108.612C88.7862 108.21 87.3799 107.425 86.2331 106.256C85.0827 105.061 84.3718 103.419 84.1002 101.33C83.8939 99.7434 83.944 98.1638 84.2505 96.5911C84.5834 95.0151 85.16 93.5552 85.9803 92.2116C86.7972 90.8415 87.8467 89.7101 89.129 88.8173C90.4078 87.8981 91.9067 87.3268 93.6255 87.1033C94.7891 86.9521 95.9042 87.0491 96.971 87.3945C98.0608 87.7099 98.9682 88.2777 99.6933 89.0977C100.441 89.8879 100.898 90.9176 101.063 92.1869C101.221 93.4033 101.121 94.5995 100.763 95.7755C100.405 96.9515 99.8465 98.0325 99.0873 99.0186C98.328 100.005 97.4258 100.821 96.3804 101.468C95.3581 102.085 94.252 102.471 93.062 102.626C92.8769 102.65 92.4618 102.663 91.8168 102.666C91.1684 102.643 90.6522 102.603 90.2683 102.545C89.997 102.526 89.7717 102.448 89.5924 102.31C89.536 102.291 89.4383 102.263 89.2992 102.227C89.1567 102.165 89.059 102.138 89.0061 102.144C89.2909 102.887 89.7586 103.485 90.4091 103.938C91.0826 104.362 91.8183 104.643 92.6161 104.781C93.4404 104.916 94.2095 104.937 94.9235 104.844C95.426 104.779 95.925 104.687 96.4205 104.569C96.9391 104.421 97.4893 104.309 98.071 104.233C98.6528 104.158 99.1759 104.251 99.6402 104.513C100.105 104.776 100.383 105.264 100.476 105.978C100.552 106.559 100.425 107.033 100.096 107.399C99.7935 107.761 99.3714 108.031 98.8299 108.209C98.3147 108.383 97.7795 108.506 97.2242 108.579C96.6987 108.674 96.2377 108.747 95.841 108.799ZM92.4638 98.0242C93.2571 97.9211 94.0183 97.6742 94.7474 97.2836C95.4994 96.8632 96.0871 96.3162 96.5105 95.6426C96.9603 94.9657 97.1268 94.1776 97.0099 93.2785C96.9102 92.5117 96.5931 91.9344 96.0587 91.5467C95.5507 91.1556 94.9133 91.0099 94.1464 91.1096C93.4588 91.199 92.7557 91.4786 92.0369 91.9486C91.3182 92.4185 90.6529 92.989 90.0409 93.6602C89.4555 94.3279 88.9959 95.033 88.6622 95.7756C88.325 96.4917 88.1977 97.1671 88.2802 97.8017L88.3008 97.9604C89.0021 97.9768 89.7068 98.0196 90.415 98.0889C91.1198 98.1317 91.8027 98.1102 92.4638 98.0242Z" fill="#5A5A5A"/>
<path d="M125.662 103.51C125 103.596 124.487 103.475 124.122 103.146C123.753 102.79 123.493 102.34 123.341 101.795C123.186 101.224 123.074 100.673 123.005 100.144C122.847 98.9281 122.716 97.7082 122.61 96.4849C122.532 95.2581 122.42 94.0894 122.276 92.9788C122.121 91.7888 121.841 90.6689 121.435 89.6191C121.03 88.5692 120.757 87.5022 120.616 86.418L120.415 84.871C120.581 84.2847 120.784 83.8819 121.024 83.6624C121.261 83.4165 121.604 83.2643 122.054 83.2058C122.874 83.0992 123.503 83.2863 123.942 83.7671C124.377 84.2214 124.694 84.7987 124.893 85.4989C125.115 86.1693 125.29 86.7919 125.418 87.3668C125.483 87.6542 125.609 88.2159 125.799 89.0518C126.014 89.8843 126.184 90.669 126.306 91.406L126.465 91.3854L126.603 91.2061C127.009 90.4003 127.435 89.5382 127.88 88.6198C128.326 87.7014 128.831 86.829 129.396 86.0027C129.987 85.1728 130.663 84.4799 131.425 83.9237C132.182 83.3412 133.077 82.9828 134.108 82.8488C135.431 82.6769 136.604 82.9142 137.629 83.5608C138.651 84.1809 139.559 85.0579 140.351 86.1918C141.141 87.2993 141.825 88.528 142.404 89.878C142.983 91.2279 143.477 92.5486 143.887 93.8398C144.297 95.1311 144.656 96.2407 144.965 97.1686L145.094 98.1603C145.17 98.742 145.087 99.3444 144.845 99.9675C144.6 100.564 144.133 100.907 143.446 100.996C142.732 101.089 142.179 100.973 141.787 100.647C141.422 100.318 141.148 99.8699 140.967 99.3019C140.883 99.0708 140.767 98.6959 140.619 98.1773C140.467 97.6323 140.297 97.0494 140.109 96.4285C139.917 95.7811 139.746 95.1849 139.594 94.6399C139.439 94.0685 139.318 93.654 139.231 93.3964C139.083 92.8778 138.817 92.2804 138.433 91.6043C138.072 90.8982 137.739 90.2962 137.432 89.7983C137.122 89.2739 136.742 88.7316 136.293 88.1716C135.843 87.6115 135.262 87.3778 134.548 87.4707C133.913 87.5532 133.361 87.8536 132.89 88.3719C132.446 88.8868 132.065 89.4741 131.748 90.1339C131.457 90.7902 131.197 91.3753 130.968 91.8891C130.444 93.0328 129.987 94.1679 129.595 95.2945C129.204 96.421 128.785 97.6452 128.338 98.9672C128.165 99.5005 128.016 100.112 127.891 100.8C127.762 101.462 127.543 102.055 127.235 102.58C126.926 103.104 126.402 103.414 125.662 103.51Z" fill="#5A5A5A"/>
<path d="M160.148 99.8334C158.244 100.081 156.419 99.9014 154.673 99.2948C152.927 98.6881 151.454 97.6965 150.253 96.3198C149.052 94.9431 148.321 93.2499 148.06 91.2402C147.881 89.8651 147.994 88.5597 148.398 87.3239C148.825 86.0583 149.408 84.8531 150.146 83.7083C150.911 82.5601 151.685 81.478 152.467 80.462C152.881 79.9242 153.405 79.5065 154.039 79.209C154.669 78.885 155.328 78.6784 156.015 78.589C157.734 78.3655 159.411 78.3358 161.046 78.4997C162.68 78.6637 164.174 79.088 165.527 79.7726C166.903 80.4273 168.05 81.3941 168.97 82.673C169.885 83.9254 170.471 85.53 170.725 87.4868C170.935 89.0999 170.782 90.6123 170.266 92.0239C169.75 93.4355 168.973 94.6929 167.933 95.7961C166.92 96.896 165.733 97.8031 164.374 98.5177C163.038 99.2023 161.629 99.6409 160.148 99.8334ZM158.783 95.5336C160.237 95.3445 161.58 94.9145 162.81 94.2436C164.037 93.5463 164.993 92.6287 165.679 91.4908C166.388 90.323 166.642 88.9722 166.443 87.4385C166.268 86.0898 165.725 85.0175 164.815 84.2216C163.931 83.4221 162.867 82.8882 161.622 82.6198C160.373 82.325 159.127 82.2584 157.885 82.4199C157.25 82.5025 156.746 82.662 156.374 82.8987C156.001 83.1354 155.677 83.433 155.401 83.7916C155.125 84.1502 154.803 84.5685 154.434 85.0467C153.794 85.9098 153.243 86.842 152.781 87.8431C152.316 88.8179 152.159 89.887 152.311 91.0506C152.551 92.9016 153.28 94.1649 154.498 94.8403C155.715 95.5156 157.143 95.7467 158.783 95.5336Z" fill="#5A5A5A"/>
<path d="M183.208 97.6423C182.388 97.7489 181.747 97.5767 181.285 97.1259C180.823 96.675 180.48 96.1012 180.255 95.4044C180.053 94.6777 179.912 94.0102 179.833 93.402L179.637 91.8947C179.42 90.2287 179.229 88.5461 179.061 86.8468C178.921 85.144 178.736 83.3125 178.508 81.3522C177.851 81.4646 177.287 81.5782 176.818 81.6929C176.376 81.8043 175.916 81.8909 175.44 81.9528C174.224 82.1109 173.538 81.595 173.384 80.405C173.325 79.9555 173.349 79.522 173.456 79.1047C173.56 78.661 173.856 78.3536 174.345 78.1825L177.733 76.9354C178.168 76.7712 178.423 76.4557 178.497 75.9889C178.594 75.4923 178.603 74.9399 178.523 74.3317C178.467 73.6936 178.426 73.067 178.4 72.4519C178.4 71.8334 178.533 71.3051 178.799 70.8672C179.091 70.4259 179.634 70.1536 180.427 70.0505C180.983 69.9783 181.413 70.0837 181.719 70.3666C182.048 70.6197 182.292 70.9509 182.453 71.3603C182.614 71.7696 182.72 72.1726 182.772 72.5693C182.779 72.6222 182.789 72.809 182.804 73.1298C182.816 73.4241 182.814 73.7201 182.799 74.0179C182.81 74.3122 182.821 74.4991 182.831 74.5784L182.996 75.8477L187.835 75.2186C188.417 75.1429 188.903 75.3622 189.292 75.8762C189.679 76.3639 189.908 76.8853 189.98 77.4407C189.994 77.5464 189.98 77.7499 189.938 78.0511C189.897 78.3523 189.787 78.6489 189.61 78.9408C189.43 79.2063 189.154 79.3632 188.784 79.4113L183.707 80.0714C183.68 80.0748 183.631 80.1081 183.558 80.1713C183.482 80.2081 183.4 80.2994 183.312 80.4454L183.248 80.5747C183.208 81.3059 183.191 81.8997 183.197 82.3561C183.199 82.7861 183.211 83.1879 183.233 83.5616C183.277 83.9054 183.332 84.3285 183.398 84.8309C183.587 86.2853 183.802 87.7363 184.044 89.1839C184.313 90.628 184.552 92.1566 184.761 93.7697C184.83 94.2986 184.861 94.8458 184.854 95.4115C184.847 95.9771 184.722 96.464 184.479 96.872C184.24 97.3065 183.816 97.5632 183.208 97.6423Z" fill="#5A5A5A"/>
<path d="M216.868 94.0731C216.312 94.1453 215.777 93.9594 215.262 93.5154C214.774 93.068 214.49 92.5401 214.411 91.9319L213.978 88.6C213.775 87.0398 213.604 85.5158 213.464 84.028C213.348 82.5104 213.188 80.9715 212.985 79.4113C212.975 79.332 212.924 79.1503 212.833 78.8663C212.769 78.5788 212.701 78.2649 212.63 77.9246L212.392 77.9555C212.128 77.9899 211.842 78.0674 211.535 78.188C211.251 78.2787 210.964 78.343 210.673 78.3808C210.012 78.4667 209.459 78.3504 209.014 78.0317C208.566 77.6866 208.297 77.1703 208.208 76.4828C208.125 75.8481 208.212 75.3796 208.469 75.0774C208.751 74.7717 209.113 74.5499 209.552 74.4122C210.017 74.271 210.485 74.143 210.954 74.0282C211.446 73.8835 211.849 73.6699 212.161 73.3872C212.474 73.1045 212.633 72.6671 212.636 72.075C212.762 70.7679 212.91 69.5251 213.079 68.3468C213.275 67.165 213.594 66.1017 214.036 65.1568C214.478 64.212 215.142 63.4264 216.029 62.8002C216.916 62.174 218.126 61.7612 219.66 61.5618C220.003 61.5172 220.473 61.5099 221.068 61.54C221.687 61.5403 222.314 61.6067 222.95 61.7391C223.612 61.8682 224.179 62.0903 224.65 62.4055C225.144 62.6909 225.427 63.1112 225.5 63.6665C225.579 64.2747 225.436 64.8311 225.071 65.3357C224.73 65.8103 224.307 66.0803 223.805 66.1457C223.144 66.2316 222.505 66.1802 221.889 65.9914C221.273 65.8026 220.634 65.7511 219.973 65.8371C219.048 65.9574 218.375 66.3675 217.955 67.0675C217.558 67.7376 217.329 68.5607 217.268 69.5368C217.203 70.4864 217.219 71.4389 217.316 72.3943L221.204 71.8889C221.653 71.8305 222.081 72.0169 222.487 72.4482C222.915 72.8496 223.159 73.2751 223.217 73.7247C223.286 74.2536 223.192 74.6691 222.936 74.9714C222.679 75.2737 222.346 75.5052 221.937 75.666C221.524 75.8003 221.124 75.9329 220.738 76.0638C220.5 76.0948 220.148 76.1808 219.683 76.322C219.213 76.4368 218.731 76.5533 218.236 76.6715C217.766 76.7863 217.388 76.8758 217.101 76.9401C216.956 77.0665 216.872 77.4539 216.848 78.1023C216.848 78.7208 216.877 79.4566 216.934 80.3097C217.017 81.1594 217.114 82.0073 217.224 82.8535C217.313 83.541 217.396 84.1757 217.472 84.7575C217.574 85.3358 217.638 85.7308 217.666 85.9423C217.769 86.7356 217.897 87.5123 218.05 88.2723C218.229 89.0289 218.363 89.7509 218.452 90.4385C218.514 90.9145 218.54 91.4221 218.529 91.9613C218.542 92.4706 218.426 92.9292 218.184 93.3373C217.967 93.7419 217.529 93.9871 216.868 94.0731Z" fill="#5A5A5A"/>
<path d="M239.442 89.5248C237.538 89.7724 235.713 89.5928 233.967 88.9862C232.221 88.3796 230.747 87.3879 229.547 86.0112C228.346 84.6346 227.615 82.9413 227.353 80.9316C227.175 79.5565 227.287 78.2511 227.691 77.0153C228.118 75.7497 228.701 74.5445 229.44 73.3998C230.205 72.2516 230.978 71.1695 231.761 70.1535C232.175 69.6156 232.699 69.1979 233.332 68.9004C233.962 68.5765 234.621 68.3698 235.309 68.2804C237.028 68.0569 238.704 68.0272 240.339 68.1911C241.974 68.3551 243.468 68.7794 244.821 69.464C246.197 70.1188 247.344 71.0855 248.263 72.3644C249.179 73.6168 249.764 75.2214 250.019 77.1783C250.228 78.7914 250.075 80.3037 249.56 81.7153C249.044 83.1269 248.266 84.3843 247.227 85.4876C246.213 86.5874 245.027 87.4946 243.668 88.2091C242.331 88.8937 240.923 89.3323 239.442 89.5248ZM238.076 85.225C239.531 85.0359 240.873 84.6059 242.104 83.935C243.331 83.2377 244.287 82.3201 244.973 81.1822C245.681 80.0144 245.936 78.6637 245.737 77.1299C245.561 75.7812 245.019 74.7089 244.108 73.913C243.225 73.1136 242.16 72.5797 240.915 72.3113C239.667 72.0164 238.421 71.9498 237.178 72.1114C236.544 72.1939 236.04 72.3535 235.667 72.5901C235.295 72.8268 234.97 73.1245 234.694 73.483C234.418 73.8416 234.096 74.26 233.728 74.7381C233.087 75.6012 232.536 76.5334 232.075 77.5346C231.61 78.5093 231.453 79.5784 231.604 80.742C231.845 82.5931 232.574 83.8563 233.791 84.5317C235.008 85.207 236.437 85.4382 238.076 85.225Z" fill="#5A5A5A"/>
<path d="M261.593 86.2417C260.456 86.3895 259.473 86.2753 258.644 85.899C257.838 85.4928 257.173 84.9206 256.646 84.1823C256.12 83.444 255.704 82.6241 255.399 81.7226C255.116 80.7912 254.915 79.8628 254.795 78.9372L254.542 76.9936C254.532 76.9142 254.532 76.605 254.542 76.0658C254.549 75.5001 254.551 74.8948 254.548 74.2499C254.572 73.6015 254.589 73.1151 254.601 72.7909C254.632 72.4104 254.664 71.9356 254.698 71.3665C254.754 70.7676 254.839 70.1784 254.952 69.599C255.088 68.9897 255.291 68.4793 255.56 68.0679C255.852 67.6265 256.236 67.3749 256.712 67.313C257.426 67.2202 257.996 67.3613 258.421 67.7363C258.873 68.1078 259.138 68.5977 259.217 69.2059C259.282 69.7083 259.267 70.2079 259.17 70.7045C259.099 71.1977 259.044 71.7023 259.004 72.2185C258.949 73.2475 258.895 74.2764 258.84 75.3054C258.812 76.3309 258.865 77.3593 258.999 78.3906C259.047 78.7608 259.136 79.2334 259.264 79.8083C259.393 80.3832 259.605 80.8799 259.902 81.2985C260.198 81.7171 260.637 81.8886 261.219 81.813C261.669 81.7545 262.16 81.3949 262.692 80.7341C263.251 80.0698 263.814 79.2302 264.382 78.2152C264.975 77.1969 265.559 76.0992 266.132 74.9221C266.701 73.7187 267.223 72.5617 267.697 71.4513C268.194 70.3111 268.616 69.315 268.963 68.4633C269.306 67.5851 269.549 66.9753 269.693 66.6339C269.867 66.3155 270.06 66.0483 270.274 65.8322C270.488 65.6162 270.78 65.4841 271.151 65.4359C272.393 65.2744 273.209 65.7599 273.599 66.8925L273.784 68.3205C273.936 69.484 274.047 70.6527 274.119 71.8266C274.214 72.9705 274.332 74.0846 274.473 75.1688L274.777 77.5091C274.912 77.9219 275.133 78.283 275.442 78.5924C275.752 78.9018 276.034 79.2146 276.291 79.5309C276.57 79.8173 276.739 80.1853 276.797 80.6348C276.876 81.243 276.758 81.7828 276.443 82.254C276.128 82.7252 275.666 83.0004 275.058 83.0795C274.264 83.1826 273.595 83.0007 273.051 82.5337C272.502 82.0402 272.048 81.4405 271.687 80.7344C271.467 80.279 271.203 79.6949 270.895 78.982C270.61 78.2391 270.327 77.5096 270.045 76.7932C269.738 77.5323 269.378 78.2783 268.965 79.0312C268.575 79.7541 268.157 80.4673 267.71 81.1708C267.002 82.3385 266.135 83.4327 265.112 84.4532C264.088 85.4736 262.915 86.0698 261.593 86.2417Z" fill="#5A5A5A"/>
<path d="M284.481 82.8628C283.82 82.9487 283.307 82.8272 282.941 82.4982C282.572 82.1428 282.312 81.6926 282.161 81.1476C282.006 80.5762 281.894 80.026 281.825 79.4971C281.667 78.2807 281.535 77.0608 281.43 75.8375C281.351 74.6108 281.24 73.4421 281.095 72.3314C280.941 71.1414 280.661 70.0215 280.255 68.9717C279.85 67.9218 279.577 66.8548 279.436 65.7706L279.234 64.2236C279.4 63.6374 279.603 63.2345 279.844 63.015C280.081 62.7691 280.424 62.6169 280.874 62.5584C281.693 62.4519 282.323 62.639 282.762 63.1197C283.197 63.574 283.514 64.1513 283.713 64.8515C283.934 65.5219 284.109 66.1445 284.238 66.7194C284.302 67.0069 284.429 67.5685 284.618 68.4044C284.834 69.2369 285.003 70.0216 285.126 70.7586L285.285 70.738L285.423 70.5587C285.829 69.7529 286.255 68.8909 286.7 67.9725C287.145 67.054 287.65 66.1817 288.215 65.3553C288.807 64.5255 289.483 63.8325 290.244 63.2764C291.002 62.6938 291.897 62.3355 292.928 62.2014C294.25 62.0295 295.424 62.2668 296.449 62.9134C297.471 63.5335 298.378 64.4105 299.171 65.5444C299.96 66.6519 300.645 67.8806 301.223 69.2306C301.802 70.5806 302.297 71.9012 302.707 73.1924C303.117 74.4837 303.476 75.5933 303.785 76.5212L303.914 77.5129C303.989 78.0947 303.906 78.6971 303.665 79.3201C303.419 79.9167 302.953 80.2597 302.266 80.349C301.552 80.4419 300.999 80.3255 300.607 80C300.241 79.671 299.968 79.2225 299.786 78.6545C299.703 78.4234 299.587 78.0485 299.439 77.53C299.287 76.985 299.117 76.402 298.929 75.7811C298.737 75.1337 298.565 74.5376 298.414 73.9925C298.259 73.4211 298.138 73.0066 298.051 72.749C297.903 72.2304 297.637 71.6331 297.253 70.9569C296.892 70.2508 296.558 69.6488 296.252 69.1509C295.942 68.6265 295.562 68.0843 295.112 67.5242C294.663 66.9641 294.082 66.7305 293.368 66.8233C292.733 66.9058 292.18 67.2062 291.71 67.7245C291.266 68.2394 290.885 68.8267 290.568 69.4865C290.276 70.1428 290.016 70.7279 289.787 71.2417C289.264 72.3854 288.806 73.5206 288.415 74.6471C288.024 75.7736 287.605 76.9978 287.158 78.3198C286.985 78.8532 286.836 79.4642 286.71 80.1528C286.581 80.8149 286.363 81.4081 286.054 81.9322C285.746 82.4563 285.222 82.7665 284.481 82.8628Z" fill="#5A5A5A"/>
<path d="M313.413 80.5133C312.046 80.3414 310.86 79.904 309.854 79.2011C308.871 78.4684 308.081 77.5627 307.484 76.484C306.913 75.4019 306.547 74.2394 306.385 72.9966C306.162 71.2777 306.317 69.5768 306.851 67.8939C307.382 66.1846 308.188 64.6277 309.269 63.2232C310.374 61.7889 311.671 60.5983 313.161 59.6516C314.678 58.7015 316.296 58.1147 318.015 57.8912C318.623 57.8121 319.217 57.8291 319.796 57.942C320.399 58.025 320.992 58.0419 321.578 57.9927L321.669 57.4565C321.634 56.977 321.596 56.3769 321.556 55.656C321.516 54.9351 321.486 54.1861 321.466 53.4089C321.468 52.6018 321.476 51.8344 321.489 51.1067C321.529 50.3755 321.6 49.7881 321.704 49.3443C321.836 48.7086 322.073 48.1534 322.415 47.6787C322.753 47.1776 323.253 46.8841 323.914 46.7981C324.575 46.7122 325.026 46.8687 325.266 47.2678C325.532 47.6634 325.707 48.1785 325.789 48.8132L325.918 49.8048C325.943 52.894 326.043 55.9333 326.216 58.9225C326.413 61.8819 326.702 64.8292 327.083 67.7645C327.259 69.1131 327.497 70.4268 327.797 71.7053C328.095 72.9575 328.334 74.2843 328.517 75.6858C328.582 76.1883 328.568 76.701 328.475 77.2241C328.404 77.7173 328.039 78.0068 327.377 78.0928C326.69 78.1822 326.137 78.0658 325.719 77.7437C325.297 77.3952 324.969 76.9404 324.734 76.3792C324.5 75.8181 324.296 75.2799 324.121 74.7648C324.017 74.375 323.938 74.1836 323.885 74.1904L323.726 74.2111C322.547 75.8972 321.287 77.2711 319.946 78.3328C318.632 79.3911 317.036 80.0423 315.158 80.2864L313.413 80.5133ZM314.394 76.2714C315.426 76.1373 316.381 75.7307 317.261 75.0516C318.141 74.3725 318.892 73.5353 319.516 72.54C320.166 71.5412 320.635 70.4986 320.924 69.4123C321.236 68.2961 321.331 67.262 321.207 66.31C321.176 66.072 321.077 65.7218 320.909 65.2596C320.741 64.7974 320.544 64.3121 320.316 63.8039C320.089 63.2956 319.86 62.8816 319.63 62.5619C319.424 62.2123 319.254 62.0461 319.122 62.0633C317.853 62.2283 316.684 62.6492 315.615 63.3259C314.544 63.9762 313.615 64.7961 312.829 65.7856C312.07 66.7717 311.498 67.8545 311.114 69.0339C310.756 70.2099 310.656 71.4061 310.814 72.6225L311.02 74.2091C311.331 74.9485 311.768 75.5103 312.328 75.8946C312.886 76.2523 313.574 76.378 314.394 76.2714Z" fill="#5A5A5A"/>
<path d="M337.5 78.4991L360.578 94.331C372.872 102.764 388.774 103.86 402.108 97.1933L410.75 92.8722C428.263 84.1153 449.277 86.3873 464.514 98.6852L468 101.499" stroke="#5A5A5A" stroke-width="2" stroke-linecap="round"/>
<path d="M469.08 90.6367V90.6367C468.806 94.3893 469.01 98.1616 469.687 101.863L470.008 103.618L466.951 102.574C463.867 101.522 460.518 101.55 457.453 102.654V102.654" stroke="#5A5A5A" stroke-width="2" stroke-linecap="round"/>
</svg>
