<svg width="581" height="400" viewBox="0 0 581 400" fill="none" xmlns="http://www.w3.org/2000/svg">
<rect width="581" height="400" fill="white"/>
<path d="M258.43 297.062C261.801 296.356 265.236 296 268.68 296L325.189 296C330.692 296.001 336.157 296.909 341.364 298.689L389.473 315.137C391.146 315.709 392.902 316.001 394.671 316.001H410.284C433.156 316.001 442.812 345.156 424.462 358.808C421.198 361.237 417.417 362.877 413.414 363.603L326.704 379.314C316.876 381.095 306.837 381.393 296.921 380.2L237.124 373H164.33C143.893 373 125.036 362.005 114.97 344.218C107.837 331.615 116.942 316.001 131.423 316.001H144.897C160.258 316.001 175.578 314.414 190.612 311.265L258.43 297.062Z" fill="#F3F3F3"/>
<path d="M344.71 316.832L308.535 344V220.116L344.71 195V316.832Z" fill="white"/>
<path d="M179 220.116V344H308.535M179 220.116H308.535M179 220.116L226.695 195H344.71M308.535 344L344.71 316.832V195M308.535 344V220.116M344.71 195L308.535 220.116" stroke="#0098DA" stroke-linecap="round"/>
<path d="M163.693 70.4042C163.066 70.4736 162.52 70.2419 162.054 69.7092C161.611 69.1485 161.295 68.5865 161.106 68.0232L160.898 66.1411C160.764 64.9365 160.757 63.7181 160.874 62.4858C160.989 61.2284 160.982 60.0099 160.851 58.8305L160.814 58.4917C159.08 57.0577 157.637 55.6043 156.483 54.1316C155.355 52.6561 154.334 50.8892 153.42 48.8311C153.281 48.4909 153.14 48.1381 152.998 47.7728C152.881 47.4047 152.801 47.0199 152.756 46.6183C152.69 46.0161 152.81 45.4947 153.117 45.0544C153.446 44.5861 153.887 44.3214 154.439 44.2604C155.091 44.1882 155.625 44.307 156.04 44.6167C156.456 44.9264 156.793 45.3336 157.052 45.8384C157.336 46.3404 157.573 46.8731 157.762 47.4364C157.976 47.9969 158.184 48.4947 158.384 48.9298C158.49 49.1975 158.716 49.6298 159.061 50.2266C159.407 50.8235 159.807 51.4524 160.261 52.1134C160.715 52.7745 161.17 53.3337 161.627 53.7912C162.084 54.2487 162.501 54.4566 162.878 54.415C163.229 54.3761 163.571 54.1351 163.903 53.692C164.232 53.2237 164.54 52.6816 164.828 52.0655C165.112 51.4244 165.364 50.8251 165.581 50.2676C165.796 49.6849 165.965 49.2598 166.088 48.9922C166.247 48.5936 166.434 48.103 166.649 47.5203C166.861 46.9126 167.113 46.3133 167.403 45.7223C167.718 45.1286 168.082 44.6311 168.495 44.2298C168.905 43.8034 169.374 43.5611 169.901 43.5028C170.252 43.464 170.588 43.5157 170.909 43.6581C171.254 43.7976 171.537 44.0585 171.757 44.4406L171.861 45.3816C171.925 45.9588 171.899 46.5206 171.781 47.0671C171.686 47.5856 171.528 48.1111 171.308 48.6435C171.165 48.9641 170.938 49.4338 170.625 50.0526C170.338 50.6687 170.017 51.3265 169.662 52.0262C169.305 52.7007 168.955 53.3237 168.612 53.8951C168.291 54.4386 168.03 54.8358 167.829 55.0867C167.784 55.1424 167.618 55.364 167.331 55.7514C167.069 56.136 166.805 56.5081 166.54 56.8677C166.275 57.2272 166.109 57.4488 166.042 57.5324C165.688 58.0034 165.46 58.7017 165.359 59.6274C165.256 60.5279 165.213 61.5233 165.232 62.6134C165.248 63.6785 165.273 64.7046 165.306 65.6916C165.364 66.6759 165.364 67.4761 165.305 68.0923C165.234 69.5226 164.697 70.2932 163.693 70.4042Z" fill="#5A5A5A"/>
<path d="M188.06 67.5187C186.253 67.7186 184.529 67.5156 182.887 66.9097C181.245 66.3038 179.868 65.3384 178.756 64.0135C177.644 62.6886 176.983 61.0725 176.772 59.1652C176.628 57.8603 176.758 56.6266 177.163 55.4641C177.59 54.2738 178.164 53.1435 178.884 52.0732C179.628 51.0001 180.38 49.9898 181.139 49.0422C181.541 48.5405 182.044 48.1546 182.65 47.8844C183.252 47.5892 183.879 47.4055 184.532 47.3333C186.163 47.1529 187.751 47.1551 189.296 47.3399C190.84 47.5247 192.247 47.9534 193.515 48.626C194.805 49.2707 195.874 50.2067 196.721 51.4339C197.565 52.636 198.09 54.1656 198.296 56.0226C198.465 57.5534 198.293 58.9823 197.779 60.3092C197.265 61.6361 196.506 62.8124 195.502 63.8379C194.523 64.8607 193.384 65.6979 192.084 66.3497C190.807 66.9736 189.465 67.3633 188.06 67.5187ZM186.845 63.4237C188.225 63.271 189.504 62.8883 190.681 62.2755C191.855 61.6376 192.777 60.7863 193.447 59.7215C194.139 58.6289 194.404 57.3548 194.243 55.8993C194.102 54.6195 193.607 53.5946 192.76 52.8246C191.938 52.0519 190.94 51.5272 189.766 51.2506C188.59 50.9488 187.412 50.8632 186.232 50.9937C185.63 51.0603 185.15 51.2022 184.793 51.4195C184.436 51.6368 184.124 51.9127 183.856 52.2472C183.588 52.5816 183.276 52.9718 182.919 53.4177C182.297 54.2232 181.758 55.0956 181.303 56.035C180.845 56.9493 180.678 57.9585 180.8 59.0627C180.994 60.8194 181.661 62.0284 182.801 62.6898C183.941 63.3511 185.289 63.5958 186.845 63.4237Z" fill="#5A5A5A"/>
<path d="M209.088 64.812C208.009 64.9313 207.081 64.8054 206.303 64.4342C205.548 64.0351 204.927 63.4813 204.443 62.7729C203.958 62.0644 203.579 61.2807 203.306 60.4218C203.056 59.5351 202.882 58.6525 202.785 57.7742L202.581 55.9297C202.573 55.8544 202.578 55.5617 202.598 55.0515C202.615 54.5161 202.628 53.9432 202.637 53.3326C202.67 52.7192 202.696 52.2591 202.713 51.9524C202.749 51.5928 202.788 51.1439 202.83 50.6058C202.895 50.0398 202.986 49.4837 203.103 48.9372C203.243 48.3629 203.444 47.8835 203.706 47.4988C203.991 47.0863 204.359 46.8551 204.81 46.8051C205.488 46.7302 206.025 46.8741 206.42 47.2367C206.841 47.5966 207.084 48.0651 207.147 48.6423C207.2 49.1191 207.176 49.5917 207.076 50.0601C207 50.5257 206.938 51.0024 206.891 51.4903C206.821 52.4634 206.75 53.4364 206.68 54.4094C206.635 55.3797 206.667 56.3542 206.775 57.3329C206.814 57.6842 206.889 58.1332 207 58.6797C207.111 59.2262 207.304 59.7003 207.577 60.102C207.85 60.5036 208.262 60.6739 208.814 60.6128C209.241 60.5656 209.712 60.2341 210.228 59.6182C210.77 58.9994 211.318 58.2149 211.873 57.2644C212.454 56.3111 213.026 55.2825 213.589 54.1787C214.15 53.0498 214.665 51.964 215.134 50.9215C215.626 49.8511 216.043 48.9159 216.386 48.1158C216.727 47.2907 216.968 46.7178 217.111 46.3973C217.281 46.099 217.469 45.8496 217.676 45.6489C217.882 45.4483 218.161 45.3285 218.512 45.2897C219.692 45.1592 220.455 45.6336 220.803 46.7128L220.953 48.0679C221.075 49.1721 221.16 50.2805 221.207 51.393C221.276 52.4776 221.367 53.5344 221.481 54.5633L221.727 56.7842C221.847 57.1774 222.05 57.5232 222.337 57.8217C222.624 58.1202 222.886 58.4214 223.123 58.7255C223.382 59.0016 223.535 59.353 223.582 59.7796C223.646 60.3568 223.525 60.8656 223.218 61.306C222.911 61.7463 222.469 61.9984 221.891 62.0623C221.139 62.1456 220.509 61.9612 220.001 61.5093C219.491 61.0322 219.072 60.4563 218.743 59.7814C218.543 59.3463 218.303 58.7886 218.025 58.1081C217.769 57.3998 217.514 56.704 217.261 56.0208C216.956 56.7149 216.602 57.4145 216.197 58.1197C215.815 58.7971 215.406 59.4646 214.971 60.1224C214.279 61.215 213.439 62.2351 212.452 63.1826C211.464 64.13 210.343 64.6732 209.088 64.812Z" fill="#5A5A5A"/>
<path d="M245.018 61.0286C244.315 61.1063 243.762 60.9262 243.358 60.4882C242.976 60.0224 242.749 59.4633 242.677 58.8108C242.51 57.3051 242.429 55.7646 242.433 54.1893C242.461 52.6112 242.395 51.0944 242.234 49.6389C241.957 47.1294 241.586 44.6937 241.121 42.3319C240.682 39.9673 240.323 37.5302 240.046 35.0207L239.937 34.042C240.069 33.6211 240.277 33.3187 240.561 33.1348C240.868 32.923 241.197 32.7977 241.548 32.7589C242.125 32.695 242.612 32.8444 243.008 33.2071C243.429 33.567 243.771 34.0244 244.036 34.5794C244.3 35.1344 244.502 35.6963 244.641 36.2652C244.806 36.8313 244.909 37.3025 244.95 37.6789L246.332 50.1763L246.583 50.3771L246.617 50.3353C247.219 49.5828 247.775 48.7466 248.283 47.8268C248.816 46.9042 249.365 46.0178 249.932 45.1677C250.52 44.2897 251.187 43.5428 251.932 42.927C252.702 42.3084 253.626 41.9395 254.705 41.8201C255.659 41.7146 256.502 41.8754 257.235 42.3023C257.994 42.7265 258.618 43.3179 259.108 44.0766C259.598 44.8352 259.955 45.6467 260.178 46.5112L262.189 54.3665L262.314 55.4958C262.359 55.8973 262.381 56.3267 262.381 56.784C262.378 57.2161 262.267 57.5967 262.05 57.9255C261.857 58.2517 261.472 58.4466 260.895 58.5105C260.243 58.5826 259.7 58.3886 259.268 57.9283C258.859 57.4402 258.537 56.828 258.303 56.0918C258.069 55.3556 257.887 54.6264 257.757 53.9042C257.626 53.182 257.512 52.6104 257.414 52.1893C257.37 52.0164 257.296 51.6944 257.193 51.2231C257.115 50.7491 257.004 50.2025 256.859 49.5835C256.715 48.9644 256.548 48.3733 256.359 47.81C256.166 47.2215 255.949 46.7502 255.707 46.396C255.487 46.0139 255.239 45.8381 254.963 45.8687C254.536 45.9159 254.129 46.1387 253.741 46.5372C253.353 46.9357 253.042 47.3385 252.808 47.7454C251.692 49.5962 250.637 51.5418 249.643 53.5823C248.672 55.5949 247.696 57.5698 246.717 59.5071C246.552 59.8555 246.334 60.1844 246.064 60.4938C245.793 60.8031 245.445 60.9814 245.018 61.0286Z" fill="#5A5A5A"/>
<path d="M273.054 58.4993C271.9 58.627 270.791 58.4828 269.729 58.0668C268.667 57.6509 267.749 57.0412 266.974 56.2378C266.197 55.4093 265.645 54.4415 265.319 53.3345L265.107 51.4147C264.952 50.0094 265.046 48.5638 265.39 47.0778C265.733 45.5919 266.303 44.1953 267.098 42.8881C267.891 41.5557 268.886 40.4549 270.086 39.5856C271.282 38.6912 272.646 38.1593 274.177 37.99C274.804 37.9206 275.356 37.9739 275.833 38.1498C276.335 38.3229 276.788 38.5141 277.192 38.7234C277.618 38.9049 278.023 38.9999 278.405 39.0084C278.492 37.9573 278.693 37.2492 279.008 36.8841C279.32 36.4939 279.778 36.2655 280.38 36.1989C281.108 36.1184 281.624 36.3027 281.927 36.7518C282.253 37.1729 282.455 37.7349 282.533 38.4375C282.685 39.8177 282.798 41.177 282.87 42.5154C282.966 43.851 283.093 45.2214 283.248 46.6268C283.37 47.7309 283.559 48.8658 283.815 50.0314C284.071 51.197 284.26 52.3319 284.382 53.4361L284.47 54.2266C284.531 54.7787 284.475 55.3056 284.302 55.8074C284.151 56.2813 283.711 56.5585 282.984 56.639C282.306 56.7139 281.795 56.5673 281.449 56.1991C281.126 55.803 280.882 55.3219 280.718 54.7558C280.576 54.1619 280.441 53.6307 280.313 53.1622L280.146 53.0283C279.387 53.9759 278.708 54.8385 278.108 55.6161C277.533 56.3909 276.868 57.036 276.112 57.5515C275.353 58.0418 274.334 58.3577 273.054 58.4993ZM272.257 54.739C273.135 54.6419 273.934 54.2868 274.654 53.6738C275.396 53.0328 276.034 52.2511 276.567 51.3285C277.097 50.3807 277.485 49.4107 277.731 48.4182C277.977 47.4257 278.054 46.5154 277.962 45.6873C277.893 45.0599 277.736 44.4422 277.49 43.8343C277.243 43.2013 276.88 42.6825 276.404 42.2779C275.952 41.8706 275.35 41.7086 274.597 41.7919C273.769 41.8835 272.986 42.2623 272.246 42.9283C271.532 43.5915 270.911 44.4095 270.384 45.3823C269.854 46.3301 269.455 47.3141 269.186 48.3344C268.915 49.3297 268.823 50.2163 268.909 50.9942C268.978 51.6216 269.136 52.2392 269.381 52.8472C269.651 53.4524 270.023 53.9447 270.497 54.3241C270.968 54.6784 271.554 54.8167 272.257 54.739Z" fill="#5A5A5A"/>
<path d="M297.143 54.3108C296.215 54.4135 295.384 54.2514 294.651 53.8244C293.915 53.3724 293.252 52.7726 292.661 52.0251C292.096 51.2748 291.589 50.4799 291.14 49.6404C290.692 48.8009 290.29 48.0451 289.937 47.373C289.329 46.2463 288.725 45.0303 288.123 43.7252C287.547 42.4172 287.187 41.1108 287.042 39.8058C287.023 39.6302 286.989 39.4433 286.942 39.2453C286.92 39.0446 286.898 38.8438 286.875 38.6431C286.814 38.091 286.847 37.5794 286.972 37.1082C287.095 36.612 287.508 36.325 288.211 36.2473C288.788 36.1835 289.261 36.3217 289.628 36.6621C290.021 36.9996 290.335 37.4222 290.569 37.9298C290.828 38.4346 291.044 38.8933 291.216 39.3061C291.308 39.6769 291.432 40.1078 291.588 40.5986C291.769 41.0866 291.936 41.5634 292.089 42.0291C292.264 42.467 292.369 42.8365 292.402 43.1376C292.43 43.3886 292.508 43.634 292.636 43.8738C292.789 44.1109 292.88 44.3549 292.907 44.6058C292.916 44.6811 293.017 44.9112 293.212 45.2961C293.405 45.6558 293.629 46.0756 293.885 46.5553C294.139 47.0099 294.363 47.4296 294.558 47.8145C294.778 48.1966 294.92 48.4476 294.984 48.5675C295.229 48.9468 295.458 49.2899 295.669 49.5967C295.904 49.8756 296.108 50.0054 296.284 49.9859C296.535 49.9582 296.746 49.7952 296.916 49.4969C297.108 49.1708 297.261 48.8238 297.372 48.4558C297.509 48.085 297.605 47.8076 297.661 47.6236L300.234 38.4992C300.454 37.9668 300.721 37.5055 301.033 37.1153C301.368 36.6972 301.849 36.4535 302.476 36.3841C303.079 36.3175 303.55 36.5575 303.89 37.1042L304.023 38.3088C304.115 39.1369 304.118 39.9747 304.034 40.8223C303.95 41.6699 303.762 42.4909 303.468 43.2854L300.6 51.109C300.304 51.8784 299.861 52.5877 299.273 53.2371C298.681 53.8613 297.972 54.2192 297.143 54.3108Z" fill="#5A5A5A"/>
<path d="M319.021 53.6057C317.215 53.8056 315.515 53.7141 313.923 53.3313C312.354 52.9207 311.037 52.1519 309.972 51.0249C308.905 49.8728 308.262 48.3056 308.042 46.3231C307.876 44.8174 307.952 43.3229 308.271 41.8398C308.614 40.3539 309.186 38.9824 309.987 37.7253C310.785 36.4431 311.799 35.3911 313.029 34.5692C314.257 33.7222 315.686 33.2085 317.317 33.0281C318.421 32.906 319.475 33.018 320.479 33.3643C321.505 33.6826 322.353 34.2365 323.025 35.0259C323.719 35.7874 324.132 36.7705 324.265 37.975C324.393 39.1294 324.277 40.26 323.917 41.3667C323.556 42.4734 323.008 43.4866 322.271 44.4064C321.535 45.3261 320.666 46.0827 319.665 46.676C318.686 47.2415 317.632 47.5867 316.502 47.7116C316.327 47.7311 315.934 47.7365 315.323 47.7278C314.71 47.694 314.222 47.6464 313.859 47.5848C313.603 47.5624 313.391 47.4842 313.224 47.3503C313.171 47.3308 313.079 47.3029 312.948 47.2665C312.814 47.2051 312.722 47.1772 312.672 47.1828C312.928 47.8911 313.36 48.4657 313.967 48.9065C314.597 49.3195 315.289 49.5986 316.041 49.744C316.819 49.8866 317.547 49.9204 318.224 49.8455C318.701 49.7927 319.175 49.7149 319.647 49.612C320.14 49.4812 320.663 49.3853 321.215 49.3242C321.767 49.2631 322.261 49.361 322.695 49.6177C323.13 49.8744 323.385 50.3416 323.46 51.0191C323.521 51.5712 323.393 52.0173 323.075 52.3573C322.782 52.6945 322.377 52.9424 321.861 53.1011C321.371 53.257 320.862 53.3641 320.335 53.4224C319.836 53.503 319.398 53.5641 319.021 53.6057ZM316.02 43.3451C316.772 43.2618 317.497 43.0419 318.195 42.6854C318.914 42.301 319.48 41.7938 319.893 41.1639C320.331 40.5312 320.503 39.7883 320.409 38.935C320.328 38.2073 320.039 37.6551 319.54 37.2784C319.066 36.899 318.465 36.7495 317.738 36.83C317.085 36.9022 316.414 37.1542 315.725 37.586C315.037 38.0178 314.396 38.5458 313.805 39.1701C313.239 39.7916 312.791 40.4508 312.462 41.1476C312.129 41.8194 311.997 42.4564 312.063 43.0587L312.08 43.2093C312.743 43.2375 313.41 43.2908 314.079 43.3692C314.745 43.4225 315.392 43.4145 316.02 43.3451Z" fill="#5A5A5A"/>
<path d="M347.346 49.1394C346.719 49.2088 346.235 49.0844 345.895 48.7664C345.552 48.4233 345.314 47.9924 345.181 47.4737C345.044 46.93 344.948 46.4071 344.893 45.9052C344.765 44.7509 344.662 43.5937 344.585 42.4338C344.533 41.2711 344.448 40.1628 344.332 39.1088C344.207 37.9795 343.962 36.9143 343.597 35.9131C343.232 34.912 342.993 33.897 342.879 32.8681L342.717 31.4C342.884 30.8481 343.084 30.4704 343.316 30.2669C343.544 30.0384 343.872 29.9006 344.299 29.8534C345.076 29.7673 345.669 29.9558 346.076 30.4189C346.48 30.8568 346.769 31.409 346.945 32.0755C347.142 32.7141 347.297 33.3067 347.408 33.8532C347.464 34.1265 347.574 34.6605 347.738 35.4552C347.927 36.2471 348.073 36.993 348.176 37.6929L348.326 37.6763L348.46 37.509C348.859 36.7536 349.278 35.9453 349.716 35.084C350.154 34.2226 350.648 33.4059 351.198 32.6339C351.773 31.8591 352.425 31.2153 353.156 30.7027C353.884 30.1649 354.738 29.8419 355.716 29.7337C356.971 29.5949 358.078 29.8408 359.037 30.4714C359.993 31.0769 360.836 31.9236 361.566 33.0113C362.293 34.074 362.918 35.2495 363.442 36.5379C363.965 37.8263 364.409 39.0854 364.774 40.3152C365.139 41.545 365.459 42.6018 365.734 43.4858L365.838 44.4269C365.899 44.979 365.81 45.5477 365.57 46.1331C365.327 46.6934 364.879 47.0097 364.227 47.0818C363.549 47.1568 363.028 47.0366 362.663 46.7214C362.323 46.4033 362.072 45.9738 361.911 45.4328C361.835 45.2125 361.732 44.8556 361.602 44.362C361.468 43.8434 361.318 43.2884 361.151 42.6973C360.981 42.081 360.829 41.5135 360.696 40.9948C360.559 40.4511 360.452 40.0565 360.374 39.8111C360.244 39.3175 360.003 38.7472 359.652 38.1002C359.323 37.4253 359.018 36.8494 358.737 36.3725C358.453 35.8704 358.103 35.3503 357.688 34.8119C357.273 34.2736 356.726 34.0419 356.049 34.1169C355.446 34.1835 354.918 34.4578 354.463 34.94C354.033 35.4193 353.662 35.9684 353.35 36.5872C353.062 37.2033 352.805 37.7524 352.579 38.2346C352.063 39.3078 351.609 40.3741 351.219 41.4334C350.828 42.4927 350.409 43.644 349.962 44.8873C349.789 45.3891 349.637 45.9648 349.505 46.6144C349.371 47.2389 349.153 47.7964 348.852 48.2869C348.551 48.7775 348.049 49.0617 347.346 49.1394Z" fill="#5A5A5A"/>
<path d="M380.059 46.2833C378.252 46.4832 376.528 46.2802 374.886 45.6743C373.244 45.0684 371.867 44.103 370.755 42.7781C369.643 41.4531 368.982 39.8371 368.771 37.9298C368.627 36.6249 368.757 35.3912 369.162 34.2287C369.589 33.0384 370.163 31.9081 370.882 30.8378C371.627 29.7647 372.379 28.7544 373.138 27.8068C373.54 27.3051 374.043 26.9192 374.649 26.649C375.251 26.3538 375.878 26.1701 376.531 26.0979C378.162 25.9175 379.75 25.9197 381.295 26.1045C382.839 26.2893 384.245 26.718 385.514 27.3906C386.804 28.0353 387.873 28.9713 388.72 30.1985C389.564 31.4006 390.089 32.9302 390.295 34.7872C390.464 36.318 390.292 37.7469 389.778 39.0738C389.264 40.4007 388.505 41.577 387.501 42.6025C386.522 43.6253 385.382 44.4625 384.083 45.1143C382.806 45.7382 381.464 46.1279 380.059 46.2833ZM378.844 42.1883C380.224 42.0356 381.503 41.6529 382.68 41.0401C383.854 40.4022 384.776 39.5509 385.445 38.4861C386.137 37.3935 386.403 36.1194 386.242 34.6639C386.1 33.3841 385.606 32.3592 384.759 31.5892C383.937 30.8165 382.939 30.2918 381.765 30.0152C380.589 29.7134 379.411 29.6278 378.231 29.7583C377.629 29.8249 377.149 29.9668 376.792 30.1841C376.435 30.4014 376.123 30.6773 375.855 31.0118C375.587 31.3462 375.275 31.7364 374.918 32.1823C374.296 32.9878 373.757 33.8602 373.302 34.7996C372.844 35.7139 372.676 36.7231 372.799 37.8273C372.993 39.584 373.66 40.793 374.8 41.4544C375.94 42.1157 377.288 42.3604 378.844 42.1883Z" fill="#5A5A5A"/>
<path d="M163.516 118.624C162.361 118.752 161.253 118.608 160.191 118.192C159.129 117.776 158.211 117.166 157.436 116.363C156.658 115.534 156.107 114.566 155.781 113.459L155.569 111.54C155.413 110.134 155.508 108.689 155.851 107.203C156.195 105.717 156.765 104.32 157.56 103.013C158.352 101.681 159.348 100.58 160.548 99.7105C161.744 98.816 163.108 98.2842 164.639 98.1149C165.266 98.0455 165.818 98.0987 166.295 98.2746C166.797 98.4478 167.25 98.639 167.654 98.8483C168.08 99.0297 168.484 99.1247 168.866 99.1333C168.953 98.0822 169.154 97.3741 169.47 97.009C169.782 96.6188 170.24 96.3904 170.842 96.3238C171.57 96.2433 172.085 96.4276 172.389 96.8766C172.715 97.2978 172.917 97.8597 172.995 98.5624C173.147 99.9426 173.26 101.302 173.331 102.64C173.428 103.976 173.554 105.346 173.71 106.752C173.832 107.856 174.021 108.991 174.277 110.156C174.533 111.322 174.722 112.457 174.844 113.561L174.931 114.351C174.992 114.904 174.936 115.43 174.763 115.932C174.613 116.406 174.173 116.683 173.446 116.764C172.768 116.839 172.256 116.692 171.911 116.324C171.588 115.928 171.344 115.447 171.18 114.881C171.038 114.287 170.903 113.756 170.775 113.287L170.608 113.153C169.849 114.101 169.169 114.963 168.569 115.741C167.995 116.516 167.329 117.161 166.574 117.676C165.815 118.167 164.796 118.483 163.516 118.624ZM162.719 114.864C163.597 114.767 164.396 114.412 165.116 113.799C165.858 113.158 166.495 112.376 167.028 111.453C167.559 110.506 167.947 109.536 168.193 108.543C168.438 107.551 168.516 106.64 168.424 105.812C168.355 105.185 168.197 104.567 167.952 103.959C167.704 103.326 167.342 102.807 166.866 102.403C166.414 101.996 165.812 101.834 165.059 101.917C164.231 102.008 163.447 102.387 162.708 103.053C161.994 103.716 161.373 104.534 160.846 105.507C160.316 106.455 159.916 107.439 159.648 108.459C159.377 109.455 159.285 110.341 159.371 111.119C159.44 111.746 159.597 112.364 159.842 112.972C160.113 113.577 160.485 114.07 160.958 114.449C161.429 114.803 162.016 114.942 162.719 114.864Z" fill="#5A5A5A"/>
<path d="M187.63 115.005C185.823 115.204 184.256 114.933 182.93 114.191C181.625 113.421 180.58 112.355 179.794 110.994C179.031 109.605 178.558 108.082 178.375 106.426C178.167 104.544 178.389 102.767 179.042 101.094C179.721 99.4188 180.748 98.0224 182.123 96.9051C183.52 95.7598 185.173 95.0817 187.08 94.8708C187.657 94.807 188.304 94.7989 189.02 94.8467C189.759 94.8666 190.484 94.9896 191.195 95.2158C191.903 95.4169 192.497 95.7323 192.976 96.1619C193.481 96.5888 193.774 97.1786 193.858 97.9315C193.919 98.4835 193.765 98.9324 193.397 99.2779C193.029 99.6235 192.556 99.8282 191.979 99.892C191.377 99.9586 190.82 99.8677 190.31 99.6193C189.797 99.3458 189.286 99.0848 188.776 98.8364C188.263 98.5629 187.705 98.4595 187.103 98.5261C186.275 98.6177 185.55 98.9519 184.928 99.5288C184.306 100.106 183.799 100.809 183.408 101.64C183.018 102.471 182.733 103.341 182.554 104.249C182.397 105.13 182.361 105.947 182.444 106.7C182.586 107.98 182.946 108.943 183.526 109.591C184.128 110.21 184.883 110.609 185.792 110.788C186.723 110.939 187.741 110.953 188.845 110.831C189.874 110.717 190.805 110.411 191.639 109.913C192.498 109.411 193.356 108.897 194.212 108.371L194.965 108.287C196.094 108.162 196.721 108.665 196.846 109.794C196.921 110.471 196.721 111.078 196.247 111.613C195.798 112.145 195.19 112.619 194.423 113.034C193.653 113.424 192.826 113.757 191.942 114.032C191.058 114.308 190.232 114.526 189.462 114.688C188.692 114.849 188.082 114.955 187.63 115.005Z" fill="#5A5A5A"/>
<path d="M207.73 114.115C206.952 114.201 206.349 114.027 205.919 113.591C205.49 113.156 205.176 112.607 204.975 111.943C204.797 111.251 204.676 110.617 204.612 110.04L204.454 108.61C204.279 107.029 204.128 105.432 204.001 103.821C203.898 102.206 203.757 100.469 203.577 98.6093C202.952 98.7037 202.417 98.8011 201.97 98.9012C201.549 98.9986 201.113 99.0723 200.661 99.1222C199.507 99.2499 198.867 98.7491 198.742 97.6198C198.695 97.1932 198.726 96.7833 198.835 96.3903C198.941 95.9721 199.227 95.6865 199.693 95.5333L202.922 94.4141C203.338 94.2666 203.584 93.9725 203.663 93.532C203.763 93.0637 203.782 92.5409 203.718 91.9637C203.676 91.3587 203.649 90.7648 203.635 90.182C203.647 89.5965 203.782 89.0989 204.042 88.6891C204.326 88.2766 204.845 88.0288 205.598 87.9455C206.125 87.8872 206.53 87.9948 206.815 88.2681C207.121 88.5136 207.347 88.8316 207.492 89.222C207.636 89.6125 207.73 89.9959 207.771 90.3723C207.777 90.4225 207.784 90.5995 207.792 90.9035C207.797 91.1823 207.79 91.4625 207.771 91.7441C207.776 92.0229 207.783 92.2 207.791 92.2752L207.925 93.4798L212.517 92.9719C213.069 92.9108 213.525 93.1271 213.884 93.6208C214.241 94.0894 214.448 94.5872 214.507 95.1142C214.518 95.2146 214.501 95.407 214.456 95.6913C214.411 95.9757 214.302 96.2545 214.129 96.5276C213.954 96.7757 213.69 96.9191 213.339 96.958L208.521 97.4909C208.495 97.4937 208.448 97.5243 208.378 97.5828C208.306 97.6163 208.226 97.7013 208.14 97.8378L208.077 97.9591C208.026 98.6505 208 99.2123 207.997 99.6445C207.991 100.052 207.995 100.432 208.009 100.786C208.045 101.113 208.089 101.514 208.142 101.991C208.295 103.371 208.472 104.749 208.675 106.123C208.903 107.495 209.102 108.946 209.271 110.477C209.327 110.979 209.346 111.498 209.329 112.033C209.312 112.568 209.185 113.027 208.948 113.409C208.713 113.816 208.307 114.051 207.73 114.115Z" fill="#5A5A5A"/>
<path d="M221.169 88.3952C220.416 88.4784 219.737 88.3122 219.132 87.8965C218.527 87.4807 218.174 86.8086 218.071 85.8801C217.968 84.9516 218.222 84.263 218.833 83.8144C219.444 83.3658 220.088 83.1041 220.766 83.0291C221.544 82.9431 222.223 83.1093 222.802 83.5278C223.407 83.9436 223.762 84.6283 223.868 85.5819C223.968 86.4853 223.712 87.1613 223.101 87.6099C222.516 88.0557 221.872 88.3175 221.169 88.3952ZM222.165 111.185C221.688 111.238 221.297 111.027 220.99 110.553C220.684 110.079 220.44 109.598 220.259 109.11L219.722 104.254C219.708 104.128 219.697 103.799 219.689 103.267C219.703 102.706 219.708 102.058 219.703 101.322C219.72 100.558 219.729 99.833 219.729 99.1471C219.752 98.4333 219.766 97.8729 219.772 97.4658C219.791 96.9556 219.818 96.3938 219.852 95.7804C219.911 95.1642 220.066 94.6137 220.317 94.1286C220.568 93.6436 220.97 93.3706 221.522 93.3095C222.124 93.2429 222.567 93.3463 222.852 93.6197C223.158 93.8652 223.36 94.1985 223.458 94.6195C223.555 95.0406 223.629 95.477 223.679 95.9287L223.824 97.2462C223.83 97.2964 223.83 97.4107 223.824 97.5891C223.816 97.7425 223.797 97.9223 223.769 98.1286C223.691 99.0264 223.625 99.6941 223.572 100.132C223.541 100.542 223.517 100.9 223.5 101.207C223.506 101.485 223.536 101.876 223.592 102.378C223.625 102.679 223.667 103.055 223.717 103.507C223.792 103.956 223.869 104.544 223.95 105.272C223.986 105.598 224.035 105.923 224.096 106.247C224.154 106.545 224.203 106.87 224.242 107.221C224.283 107.598 224.29 108.003 224.262 108.438C224.231 109.077 224.069 109.679 223.776 110.245C223.48 110.785 222.943 111.099 222.165 111.185Z" fill="#5A5A5A"/>
<path d="M237.526 108.914C236.597 109.017 235.766 108.855 235.033 108.428C234.297 107.976 233.634 107.376 233.043 106.629C232.478 105.878 231.971 105.083 231.522 104.244C231.074 103.405 230.673 102.649 230.319 101.977C229.712 100.85 229.107 99.6339 228.506 98.3288C227.929 97.0208 227.569 95.7144 227.424 94.4094C227.405 94.2338 227.372 94.0469 227.324 93.8489C227.302 93.6482 227.28 93.4474 227.258 93.2467C227.197 92.6946 227.229 92.183 227.355 91.7118C227.478 91.2156 227.89 90.9286 228.593 90.8509C229.17 90.7871 229.643 90.9253 230.011 91.2657C230.404 91.6032 230.717 92.0258 230.951 92.5334C231.21 93.0381 231.426 93.4969 231.599 93.9097C231.69 94.2805 231.814 94.7114 231.97 95.2022C232.151 95.6902 232.318 96.167 232.471 96.6328C232.647 97.0706 232.751 97.4401 232.784 97.7412C232.812 97.9922 232.89 98.2376 233.018 98.4774C233.172 98.7145 233.262 98.9585 233.29 99.2094C233.298 99.2847 233.4 99.5148 233.595 99.8997C233.787 100.259 234.011 100.679 234.267 101.159C234.521 101.613 234.745 102.033 234.94 102.418C235.16 102.8 235.302 103.051 235.366 103.171C235.612 103.55 235.84 103.893 236.052 104.2C236.286 104.479 236.491 104.609 236.666 104.59C236.917 104.562 237.128 104.399 237.298 104.101C237.491 103.774 237.643 103.427 237.754 103.059C237.891 102.689 237.988 102.411 238.043 102.227L240.616 93.1028C240.837 92.5704 241.103 92.1091 241.415 91.7189C241.75 91.3008 242.231 91.0571 242.859 90.9877C243.461 90.9211 243.932 91.1611 244.272 91.7078L244.405 92.9124C244.497 93.7405 244.501 94.5783 244.416 95.4259C244.332 96.2735 244.144 97.0945 243.851 97.889L240.982 105.713C240.686 106.482 240.244 107.191 239.655 107.841C239.064 108.465 238.354 108.823 237.526 108.914Z" fill="#5A5A5A"/>
<path d="M259.404 108.209C257.597 108.409 255.897 108.318 254.306 107.935C252.736 107.524 251.419 106.755 250.355 105.629C249.287 104.476 248.644 102.909 248.425 100.927C248.258 99.421 248.334 97.9265 248.653 96.4434C248.996 94.9575 249.569 93.586 250.37 92.3289C251.168 91.0467 252.182 89.9947 253.412 89.1728C254.639 88.3258 256.068 87.8121 257.699 87.6317C258.803 87.5096 259.857 87.6216 260.861 87.9679C261.887 88.2862 262.736 88.8401 263.407 89.6295C264.101 90.391 264.515 91.3741 264.648 92.5786C264.775 93.733 264.659 94.8636 264.299 95.9703C263.939 97.077 263.39 98.0902 262.654 99.01C261.917 99.9297 261.048 100.686 260.047 101.28C259.068 101.845 258.014 102.19 256.885 102.315C256.709 102.335 256.316 102.34 255.705 102.331C255.092 102.298 254.604 102.25 254.242 102.188C253.985 102.166 253.773 102.088 253.606 101.954C253.553 101.934 253.461 101.906 253.33 101.87C253.196 101.809 253.104 101.781 253.054 101.786C253.31 102.495 253.742 103.069 254.35 103.51C254.98 103.923 255.671 104.202 256.424 104.348C257.201 104.49 257.929 104.524 258.607 104.449C259.084 104.396 259.558 104.319 260.029 104.216C260.522 104.085 261.045 103.989 261.597 103.928C262.149 103.867 262.643 103.965 263.078 104.221C263.513 104.478 263.767 104.945 263.842 105.623C263.903 106.175 263.775 106.621 263.457 106.961C263.164 107.298 262.76 107.546 262.244 107.705C261.753 107.861 261.244 107.968 260.717 108.026C260.218 108.107 259.78 108.168 259.404 108.209ZM256.402 97.9487C257.155 97.8654 257.88 97.6455 258.577 97.289C259.296 96.9046 259.863 96.3974 260.276 95.7675C260.714 95.1348 260.886 94.3919 260.791 93.5386C260.711 92.8109 260.421 92.2587 259.922 91.882C259.448 91.5026 258.848 91.3531 258.12 91.4336C257.467 91.5058 256.797 91.7578 256.108 92.1896C255.419 92.6214 254.779 93.1494 254.187 93.7737C253.621 94.3952 253.173 95.0544 252.844 95.7512C252.512 96.423 252.379 97.06 252.446 97.6623L252.462 97.8129C253.126 97.8411 253.792 97.8944 254.461 97.9728C255.128 98.0261 255.774 98.0181 256.402 97.9487Z" fill="#5A5A5A"/>
<path d="M295.077 103.692C293.27 103.892 291.545 103.689 289.903 103.083C288.262 102.477 286.885 101.512 285.773 100.187C284.661 98.8621 284 97.246 283.789 95.3388C283.644 94.0339 283.775 92.8002 284.18 91.6377C284.607 90.4474 285.18 89.317 285.9 88.2467C286.645 87.1737 287.397 86.1633 288.156 85.2157C288.558 84.7141 289.061 84.3281 289.666 84.058C290.269 83.7628 290.896 83.5791 291.549 83.5069C293.18 83.3265 294.768 83.3287 296.312 83.5135C297.857 83.6983 299.263 84.127 300.531 84.7995C301.822 85.4443 302.891 86.3802 303.738 87.6075C304.582 88.8096 305.107 90.3392 305.312 92.1962C305.482 93.727 305.309 95.1559 304.796 96.4828C304.282 97.8097 303.523 98.9859 302.519 100.011C301.54 101.034 300.4 101.872 299.101 102.523C297.823 103.147 296.482 103.537 295.077 103.692ZM293.862 99.5972C295.242 99.4446 296.52 99.0619 297.697 98.4491C298.872 97.8111 299.793 96.9598 300.463 95.8951C301.155 94.8025 301.421 93.5284 301.26 92.0729C301.118 90.793 300.624 89.7681 299.777 88.9982C298.954 88.2254 297.957 87.7008 296.783 87.4241C295.606 87.1224 294.428 87.0368 293.249 87.1672C292.647 87.2338 292.167 87.3758 291.81 87.5931C291.453 87.8104 291.141 88.0863 290.873 88.4207C290.605 88.7552 290.292 89.1454 289.935 89.5913C289.313 90.3968 288.775 91.2692 288.32 92.2086C287.862 93.1229 287.694 94.1321 287.816 95.2363C288.011 96.9929 288.678 98.2019 289.818 98.8633C290.958 99.5247 292.306 99.7693 293.862 99.5972Z" fill="#5A5A5A"/>
<path d="M312.424 102.155C311.972 102.205 311.617 102.092 311.358 101.815C311.098 101.539 310.909 101.205 310.789 100.811C310.667 100.393 310.55 100.025 310.438 99.7071L310.13 96.9215C309.975 95.5162 309.881 94.0914 309.848 92.6471C309.813 91.1777 309.719 89.7529 309.566 88.3727C309.494 87.7202 309.362 87.0998 309.17 86.5114C308.977 85.923 308.847 85.3151 308.777 84.6877L308.665 83.6714C308.824 83.2727 309.057 82.9675 309.364 82.7558C309.696 82.5413 310.05 82.4132 310.426 82.3716C310.978 82.3105 311.41 82.4278 311.723 82.7235C312.032 82.9941 312.26 83.3372 312.408 83.7527C312.581 84.1654 312.737 84.5419 312.876 84.8822C313.012 85.1973 313.196 85.3675 313.428 85.3927C314.103 84.8354 314.741 84.2948 315.344 83.7709C315.972 83.2443 316.634 82.8027 317.331 82.4461C318.051 82.0617 318.862 81.8196 319.766 81.7196C320.217 81.6697 320.705 81.7173 321.229 81.8626C321.779 82.005 322.262 82.2437 322.68 82.5785C323.096 82.8882 323.332 83.3065 323.391 83.8335C323.463 84.486 323.252 84.9919 322.758 85.3514C322.29 85.708 321.83 85.9113 321.378 85.9613C321.077 85.9946 320.781 85.9638 320.491 85.8688C320.201 85.7739 319.906 85.7431 319.605 85.7764C318.726 85.8735 317.923 86.191 317.195 86.7287C316.49 87.2386 315.881 87.8266 315.371 88.4927C314.86 89.1588 314.458 89.7748 314.165 90.3407C314.09 90.5776 314.056 90.9624 314.064 91.4949C314.073 92.0275 314.102 92.6339 314.151 93.3143C314.198 93.9695 314.244 94.6122 314.288 95.2423C314.358 95.8697 314.405 96.4107 314.43 96.8651C314.496 97.6961 314.497 98.5088 314.433 99.3034C314.391 100.07 314.222 100.724 313.926 101.265C313.627 101.78 313.126 102.077 312.424 102.155Z" fill="#5A5A5A"/>
<path d="M330.561 100.339C329.27 100.152 328.155 99.7162 327.216 99.0327C326.299 98.3212 325.567 97.4495 325.021 96.4176C324.501 95.383 324.175 94.2759 324.044 93.0964C323.864 91.4653 324.042 89.858 324.578 88.2745C325.111 86.666 325.903 85.2068 326.952 83.8969C328.023 82.5591 329.273 81.4556 330.701 80.5864C332.154 79.7145 333.696 79.1883 335.327 79.0079C335.904 78.944 336.466 78.9708 337.012 79.0882C337.581 79.1777 338.143 79.2044 338.698 79.1685L338.794 78.6625C338.769 78.208 338.745 77.6392 338.72 76.9561C338.695 76.2729 338.68 75.5633 338.675 74.8273C338.692 74.0633 338.713 73.337 338.739 72.6483C338.789 71.9569 338.868 71.4021 338.974 70.9839C339.111 70.3845 339.345 69.8633 339.677 69.4201C340.006 68.9518 340.485 68.683 341.112 68.6136C341.739 68.5442 342.163 68.7006 342.383 69.0827C342.628 69.462 342.784 69.9528 342.851 70.5551L342.955 71.4961C342.923 74.4209 342.962 77.2997 343.072 80.1326C343.204 82.9376 343.425 85.7328 343.733 88.5184C343.874 89.7982 344.076 91.046 344.337 92.2618C344.596 93.4525 344.799 94.7129 344.946 96.0429C344.999 96.5197 344.976 97.0048 344.878 97.4983C344.803 97.9639 344.451 98.2314 343.824 98.3008C343.172 98.3729 342.65 98.2528 342.26 97.9403C341.867 97.6027 341.565 97.1662 341.353 96.6308C341.141 96.0954 340.958 95.5822 340.802 95.0914C340.71 94.7206 340.639 94.5379 340.589 94.5435L340.438 94.5601C339.292 96.1349 338.074 97.4126 336.785 98.3934C335.522 99.3714 333.999 99.959 332.217 100.156L330.561 100.339ZM331.567 96.3415C332.545 96.2332 333.457 95.8656 334.303 95.2387C335.148 94.6118 335.874 93.8329 336.483 92.9019C337.116 91.9682 337.579 90.9898 337.873 89.9667C338.188 88.9157 338.296 87.9385 338.196 87.0351C338.171 86.8092 338.084 86.476 337.933 86.0354C337.783 85.5948 337.605 85.1318 337.399 84.6466C337.192 84.1613 336.984 83.7653 336.772 83.4585C336.582 83.1238 336.425 82.9634 336.299 82.9773C335.095 83.1105 333.981 83.4878 332.957 84.109C331.931 84.7052 331.037 85.4645 330.275 86.387C329.539 87.3068 328.978 88.3214 328.592 89.4309C328.232 90.5376 328.116 91.6681 328.244 92.8225L328.41 94.3282C328.691 95.0338 329.094 95.5735 329.618 95.9474C330.139 96.2961 330.789 96.4275 331.567 96.3415Z" fill="#5A5A5A"/>
<path d="M360.164 97.0651C358.357 97.265 356.657 97.1735 355.066 96.7907C353.496 96.3801 352.179 95.6113 351.114 94.4843C350.047 93.3322 349.404 91.7649 349.185 89.7824C349.018 88.2767 349.094 86.7823 349.413 85.2992C349.756 83.8132 350.329 82.4417 351.13 81.1847C351.928 79.9025 352.942 78.8505 354.172 78.0286C355.399 77.1816 356.828 76.6679 358.459 76.4875C359.563 76.3654 360.617 76.4774 361.621 76.8237C362.647 77.142 363.495 77.6959 364.167 78.4853C364.861 79.2468 365.274 80.2299 365.408 81.4344C365.535 82.5888 365.419 83.7194 365.059 84.8261C364.699 85.9328 364.15 86.946 363.414 87.8658C362.677 88.7855 361.808 89.542 360.807 90.1354C359.828 90.7009 358.774 91.0461 357.645 91.171C357.469 91.1905 357.076 91.1958 356.465 91.1872C355.852 91.1534 355.364 91.1058 355.002 91.0442C354.745 91.0218 354.533 90.9436 354.366 90.8097C354.313 90.7902 354.221 90.7622 354.09 90.7259C353.956 90.6645 353.864 90.6366 353.814 90.6421C354.07 91.3505 354.502 91.925 355.11 92.3659C355.74 92.7788 356.431 93.058 357.184 93.2034C357.961 93.346 358.689 93.3798 359.367 93.3049C359.844 93.2521 360.318 93.1743 360.789 93.0714C361.282 92.9406 361.805 92.8446 362.357 92.7836C362.909 92.7225 363.403 92.8204 363.838 93.0771C364.272 93.3338 364.527 93.801 364.602 94.4785C364.663 95.0306 364.535 95.4767 364.217 95.8167C363.924 96.1539 363.52 96.4018 363.004 96.5605C362.513 96.7164 362.004 96.8235 361.477 96.8818C360.978 96.9624 360.54 97.0235 360.164 97.0651ZM357.162 86.8045C357.915 86.7212 358.64 86.5013 359.337 86.1448C360.056 85.7604 360.623 85.2532 361.036 84.6233C361.474 83.9906 361.646 83.2476 361.551 82.3944C361.471 81.6667 361.181 81.1145 360.682 80.7378C360.208 80.3584 359.607 80.2089 358.88 80.2894C358.227 80.3615 357.557 80.6135 356.868 81.0454C356.179 81.4772 355.539 82.0052 354.947 82.6295C354.381 83.251 353.933 83.9101 353.604 84.607C353.272 85.2788 353.139 85.9158 353.205 86.5181L353.222 86.6687C353.886 86.6969 354.552 86.7502 355.221 86.8286C355.887 86.8819 356.534 86.8739 357.162 86.8045Z" fill="#5A5A5A"/>
<path d="M372.968 95.4584C372.516 95.5084 372.161 95.3953 371.902 95.1191C371.643 94.843 371.453 94.5083 371.333 94.1151C371.211 93.6968 371.094 93.3287 370.983 93.0108L370.675 90.2252C370.519 88.8199 370.425 87.3951 370.392 85.9508C370.357 84.4814 370.263 83.0566 370.11 81.6764C370.038 81.0239 369.906 80.4035 369.714 79.8151C369.522 79.2267 369.391 78.6188 369.322 77.9914L369.209 76.9751C369.368 76.5764 369.601 76.2712 369.908 76.0595C370.24 75.845 370.594 75.7169 370.97 75.6753C371.523 75.6142 371.955 75.7315 372.267 76.0272C372.576 76.2978 372.805 76.6409 372.952 77.0564C373.125 77.4692 373.281 77.8456 373.42 78.1859C373.556 78.501 373.74 78.6712 373.972 78.6964C374.647 78.1391 375.286 77.5985 375.888 77.0746C376.516 76.548 377.178 76.1064 377.875 75.7498C378.595 75.3654 379.406 75.1233 380.31 75.0234C380.762 74.9734 381.249 75.021 381.774 75.1663C382.323 75.3088 382.806 75.5474 383.224 75.8822C383.64 76.1919 383.876 76.6102 383.935 77.1372C384.007 77.7897 383.796 78.2956 383.303 78.6551C382.834 79.0117 382.374 79.215 381.922 79.265C381.621 79.2983 381.325 79.2675 381.035 79.1725C380.746 79.0776 380.45 79.0468 380.149 79.0801C379.271 79.1772 378.467 79.4947 377.739 80.0324C377.034 80.5423 376.426 81.1303 375.915 81.7964C375.404 82.4625 375.003 83.0785 374.71 83.6444C374.634 83.8813 374.601 84.2661 374.609 84.7986C374.617 85.3312 374.646 85.9376 374.696 86.618C374.743 87.2732 374.788 87.9159 374.833 88.5461C374.902 89.1734 374.949 89.7144 374.974 90.1688C375.04 90.9998 375.041 91.8125 374.977 92.6071C374.935 93.3738 374.766 94.0276 374.47 94.5683C374.171 95.084 373.671 95.3807 372.968 95.4584Z" fill="#5A5A5A"/>
<path d="M393.703 93.3557C393 93.4334 392.19 93.4595 391.273 93.4339C390.358 93.4334 389.458 93.3298 388.571 93.123C387.684 92.9163 386.919 92.5437 386.275 92.0052C385.657 91.464 385.293 90.7041 385.185 89.7253C385.113 89.0729 385.214 88.4902 385.487 87.9773C385.758 87.4393 386.257 87.1301 386.985 87.0496C387.436 86.9996 387.8 87.0737 388.076 87.2718C388.352 87.4699 388.596 87.7224 388.808 88.0292C389.045 88.3332 389.308 88.647 389.598 88.9706C389.91 89.2663 390.304 89.5021 390.781 89.678C391.283 89.8511 391.935 89.8932 392.738 89.8044C393.315 89.7406 393.936 89.6085 394.6 89.408C395.286 89.1798 395.859 88.8497 396.319 88.4177C396.779 87.9858 396.973 87.4436 396.901 86.7911C396.837 86.2139 396.549 85.7886 396.036 85.5151C395.52 85.2165 394.872 84.9833 394.092 84.8157C393.311 84.648 392.493 84.4845 391.637 84.3251C390.778 84.1406 389.95 83.8893 389.153 83.571C388.356 83.2528 387.683 82.7938 387.134 82.1941C386.582 81.5692 386.248 80.7298 386.131 79.6758C386.023 78.6971 386.168 77.8301 386.567 77.0747C386.966 76.3193 387.517 75.6741 388.22 75.1391C388.946 74.5763 389.736 74.1459 390.592 73.848C391.471 73.5222 392.324 73.3135 393.152 73.2219C393.629 73.1692 394.188 73.1709 394.829 73.227C395.468 73.258 396.102 73.3656 396.732 73.5499C397.362 73.7343 397.903 74.0301 398.354 74.4374C398.803 74.8196 399.064 75.337 399.136 75.9894C399.263 77.1438 398.75 77.7848 397.596 77.9125L397.106 77.9666C396.306 77.6233 395.63 77.3678 395.078 77.2002C394.526 77.0327 393.912 76.9864 393.234 77.0613C392.933 77.0946 392.51 77.1794 391.967 77.3158C391.445 77.4243 390.984 77.615 390.582 77.8881C390.18 78.1611 390.007 78.5486 390.063 79.0505C390.11 79.4771 390.387 79.802 390.895 80.0253C391.402 80.2487 392.046 80.4442 392.826 80.6118C393.607 80.7795 394.428 80.9681 395.29 81.1777C396.151 81.3872 396.985 81.6888 397.79 82.0823C398.593 82.4508 399.272 82.9599 399.826 83.6099C400.381 84.2598 400.716 85.1117 400.833 86.1657C401.002 87.6965 400.749 88.9692 400.074 89.9838C399.424 90.9956 398.52 91.7814 397.363 92.3412C396.227 92.8732 395.007 93.2113 393.703 93.3557Z" fill="#5A5A5A"/>
<path d="M163.693 70.4042C163.066 70.4736 162.52 70.2419 162.054 69.7092C161.611 69.1485 161.295 68.5865 161.106 68.0232L160.898 66.1411C160.764 64.9365 160.757 63.7181 160.874 62.4858C160.989 61.2284 160.982 60.0099 160.851 58.8305L160.814 58.4917C159.08 57.0577 157.637 55.6043 156.483 54.1316C155.355 52.6561 154.334 50.8892 153.42 48.8311C153.281 48.4909 153.14 48.1381 152.998 47.7728C152.881 47.4047 152.801 47.0199 152.756 46.6183C152.69 46.0161 152.81 45.4947 153.117 45.0544C153.446 44.5861 153.887 44.3214 154.439 44.2604C155.091 44.1882 155.625 44.307 156.04 44.6167C156.456 44.9264 156.793 45.3336 157.052 45.8384C157.336 46.3404 157.573 46.8731 157.762 47.4364C157.976 47.9969 158.184 48.4947 158.384 48.9298C158.49 49.1975 158.716 49.6298 159.061 50.2266C159.407 50.8235 159.807 51.4524 160.261 52.1134C160.715 52.7745 161.17 53.3337 161.627 53.7912C162.084 54.2487 162.501 54.4566 162.878 54.415C163.229 54.3761 163.571 54.1351 163.903 53.692C164.232 53.2237 164.54 52.6816 164.828 52.0655C165.112 51.4244 165.364 50.8251 165.581 50.2676C165.796 49.6849 165.965 49.2598 166.088 48.9922C166.247 48.5936 166.434 48.103 166.649 47.5203C166.861 46.9126 167.113 46.3133 167.403 45.7223C167.718 45.1286 168.082 44.6311 168.495 44.2298C168.905 43.8034 169.374 43.5611 169.901 43.5028C170.252 43.464 170.588 43.5157 170.909 43.6581C171.254 43.7976 171.537 44.0585 171.757 44.4406L171.861 45.3816C171.925 45.9588 171.899 46.5206 171.781 47.0671C171.686 47.5856 171.528 48.1111 171.308 48.6435C171.165 48.9641 170.938 49.4338 170.625 50.0526C170.338 50.6687 170.017 51.3265 169.662 52.0262C169.305 52.7007 168.955 53.3237 168.612 53.8951C168.291 54.4386 168.03 54.8358 167.829 55.0867C167.784 55.1424 167.618 55.364 167.331 55.7514C167.069 56.136 166.805 56.5081 166.54 56.8677C166.275 57.2272 166.109 57.4488 166.042 57.5324C165.688 58.0034 165.46 58.7017 165.359 59.6274C165.256 60.5279 165.213 61.5233 165.232 62.6134C165.248 63.6785 165.273 64.7046 165.306 65.6916C165.364 66.6759 165.364 67.4761 165.305 68.0923C165.234 69.5226 164.697 70.2932 163.693 70.4042Z" stroke="#5A5A5A" stroke-width="2"/>
<path d="M188.06 67.5187C186.253 67.7186 184.529 67.5156 182.887 66.9097C181.245 66.3038 179.868 65.3384 178.756 64.0135C177.644 62.6886 176.983 61.0725 176.772 59.1652C176.628 57.8603 176.758 56.6266 177.163 55.4641C177.59 54.2738 178.164 53.1435 178.884 52.0732C179.628 51.0001 180.38 49.9898 181.139 49.0422C181.541 48.5405 182.044 48.1546 182.65 47.8844C183.252 47.5892 183.879 47.4055 184.532 47.3333C186.163 47.1529 187.751 47.1551 189.296 47.3399C190.84 47.5247 192.247 47.9534 193.515 48.626C194.805 49.2707 195.874 50.2067 196.721 51.4339C197.565 52.636 198.09 54.1656 198.296 56.0226C198.465 57.5534 198.293 58.9823 197.779 60.3092C197.265 61.6361 196.506 62.8124 195.502 63.8379C194.523 64.8607 193.384 65.6979 192.084 66.3497C190.807 66.9736 189.465 67.3633 188.06 67.5187ZM186.845 63.4237C188.225 63.271 189.504 62.8883 190.681 62.2755C191.855 61.6376 192.777 60.7863 193.447 59.7215C194.139 58.6289 194.404 57.3548 194.243 55.8993C194.102 54.6195 193.607 53.5946 192.76 52.8246C191.938 52.0519 190.94 51.5272 189.766 51.2506C188.59 50.9488 187.412 50.8632 186.232 50.9937C185.63 51.0603 185.15 51.2022 184.793 51.4195C184.436 51.6368 184.124 51.9127 183.856 52.2472C183.588 52.5816 183.276 52.9718 182.919 53.4177C182.297 54.2232 181.758 55.0956 181.303 56.035C180.845 56.9493 180.678 57.9585 180.8 59.0627C180.994 60.8194 181.661 62.0284 182.801 62.6898C183.941 63.3511 185.289 63.5958 186.845 63.4237Z" stroke="#5A5A5A" stroke-width="2"/>
<path d="M209.088 64.812C208.009 64.9313 207.081 64.8054 206.303 64.4342C205.548 64.0351 204.927 63.4813 204.443 62.7729C203.958 62.0644 203.579 61.2807 203.306 60.4218C203.056 59.5351 202.882 58.6525 202.785 57.7742L202.581 55.9297C202.573 55.8544 202.578 55.5617 202.598 55.0515C202.615 54.5161 202.628 53.9432 202.637 53.3326C202.67 52.7192 202.696 52.2591 202.713 51.9524C202.749 51.5928 202.788 51.1439 202.83 50.6058C202.895 50.0398 202.986 49.4837 203.103 48.9372C203.243 48.3629 203.444 47.8835 203.706 47.4988C203.991 47.0863 204.359 46.8551 204.81 46.8051C205.488 46.7302 206.025 46.8741 206.42 47.2367C206.841 47.5966 207.084 48.0651 207.147 48.6423C207.2 49.1191 207.176 49.5917 207.076 50.0601C207 50.5257 206.938 51.0024 206.891 51.4903C206.821 52.4634 206.75 53.4364 206.68 54.4094C206.635 55.3797 206.667 56.3542 206.775 57.3329C206.814 57.6842 206.889 58.1332 207 58.6797C207.111 59.2262 207.304 59.7003 207.577 60.102C207.85 60.5036 208.262 60.6739 208.814 60.6128C209.241 60.5656 209.712 60.2341 210.228 59.6182C210.77 58.9994 211.318 58.2149 211.873 57.2644C212.454 56.3111 213.026 55.2825 213.589 54.1787C214.15 53.0498 214.665 51.964 215.134 50.9215C215.626 49.8511 216.043 48.9159 216.386 48.1158C216.727 47.2907 216.968 46.7178 217.111 46.3973C217.281 46.099 217.469 45.8496 217.676 45.6489C217.882 45.4483 218.161 45.3285 218.512 45.2897C219.692 45.1592 220.455 45.6336 220.803 46.7128L220.953 48.0679C221.075 49.1721 221.16 50.2805 221.207 51.393C221.276 52.4776 221.367 53.5344 221.481 54.5633L221.727 56.7842C221.847 57.1774 222.05 57.5232 222.337 57.8217C222.624 58.1202 222.886 58.4214 223.123 58.7255C223.382 59.0016 223.535 59.353 223.582 59.7796C223.646 60.3568 223.525 60.8656 223.218 61.306C222.911 61.7463 222.469 61.9984 221.891 62.0623C221.139 62.1456 220.509 61.9612 220.001 61.5093C219.491 61.0322 219.072 60.4563 218.743 59.7814C218.543 59.3463 218.303 58.7886 218.025 58.1081C217.769 57.3998 217.514 56.704 217.261 56.0208C216.956 56.7149 216.602 57.4145 216.197 58.1197C215.815 58.7971 215.406 59.4646 214.971 60.1224C214.279 61.215 213.439 62.2351 212.452 63.1826C211.464 64.13 210.343 64.6732 209.088 64.812Z" stroke="#5A5A5A" stroke-width="2"/>
<path d="M245.018 61.0286C244.315 61.1063 243.762 60.9262 243.358 60.4882C242.976 60.0224 242.749 59.4633 242.677 58.8108C242.51 57.3051 242.429 55.7646 242.433 54.1893C242.461 52.6112 242.395 51.0944 242.234 49.6389C241.957 47.1294 241.586 44.6937 241.121 42.3319C240.682 39.9673 240.323 37.5302 240.046 35.0207L239.937 34.042C240.069 33.6211 240.277 33.3187 240.561 33.1348C240.868 32.923 241.197 32.7977 241.548 32.7589C242.125 32.695 242.612 32.8444 243.008 33.2071C243.429 33.567 243.771 34.0244 244.036 34.5794C244.3 35.1344 244.502 35.6963 244.641 36.2652C244.806 36.8313 244.909 37.3025 244.95 37.6789L246.332 50.1763L246.583 50.3771L246.617 50.3353C247.219 49.5828 247.775 48.7466 248.283 47.8268C248.816 46.9042 249.365 46.0178 249.932 45.1677C250.52 44.2897 251.187 43.5428 251.932 42.927C252.702 42.3084 253.626 41.9395 254.705 41.8201C255.659 41.7146 256.502 41.8754 257.235 42.3023C257.994 42.7265 258.618 43.3179 259.108 44.0766C259.598 44.8352 259.955 45.6467 260.178 46.5112L262.189 54.3665L262.314 55.4958C262.359 55.8973 262.381 56.3267 262.381 56.784C262.378 57.2161 262.267 57.5967 262.05 57.9255C261.857 58.2517 261.472 58.4466 260.895 58.5105C260.243 58.5826 259.7 58.3886 259.268 57.9283C258.859 57.4402 258.537 56.828 258.303 56.0918C258.069 55.3556 257.887 54.6264 257.757 53.9042C257.626 53.182 257.512 52.6104 257.414 52.1893C257.37 52.0164 257.296 51.6944 257.193 51.2231C257.115 50.7491 257.004 50.2025 256.859 49.5835C256.715 48.9644 256.548 48.3733 256.359 47.81C256.166 47.2215 255.949 46.7502 255.707 46.396C255.487 46.0139 255.239 45.8381 254.963 45.8687C254.536 45.9159 254.129 46.1387 253.741 46.5372C253.353 46.9357 253.042 47.3385 252.808 47.7454C251.692 49.5962 250.637 51.5418 249.643 53.5823C248.672 55.5949 247.696 57.5698 246.717 59.5071C246.552 59.8555 246.334 60.1844 246.064 60.4938C245.793 60.8031 245.445 60.9814 245.018 61.0286Z" stroke="#5A5A5A" stroke-width="2"/>
<path d="M273.054 58.4993C271.9 58.627 270.791 58.4828 269.729 58.0668C268.667 57.6509 267.749 57.0412 266.974 56.2378C266.197 55.4093 265.645 54.4415 265.319 53.3345L265.107 51.4147C264.952 50.0094 265.046 48.5638 265.39 47.0778C265.733 45.5919 266.303 44.1953 267.098 42.8881C267.891 41.5557 268.886 40.4549 270.086 39.5856C271.282 38.6912 272.646 38.1593 274.177 37.99C274.804 37.9206 275.356 37.9739 275.833 38.1498C276.335 38.3229 276.788 38.5141 277.192 38.7234C277.618 38.9049 278.023 38.9999 278.405 39.0084C278.492 37.9573 278.693 37.2492 279.008 36.8841C279.32 36.4939 279.778 36.2655 280.38 36.1989C281.108 36.1184 281.624 36.3027 281.927 36.7518C282.253 37.1729 282.455 37.7349 282.533 38.4375C282.685 39.8177 282.798 41.177 282.87 42.5154C282.966 43.851 283.093 45.2214 283.248 46.6268C283.37 47.7309 283.559 48.8658 283.815 50.0314C284.071 51.197 284.26 52.3319 284.382 53.4361L284.47 54.2266C284.531 54.7787 284.475 55.3056 284.302 55.8074C284.151 56.2813 283.711 56.5585 282.984 56.639C282.306 56.7139 281.795 56.5673 281.449 56.1991C281.126 55.803 280.882 55.3219 280.718 54.7558C280.576 54.1619 280.441 53.6307 280.313 53.1622L280.146 53.0283C279.387 53.9759 278.708 54.8385 278.108 55.6161C277.533 56.3909 276.868 57.036 276.112 57.5515C275.353 58.0418 274.334 58.3577 273.054 58.4993ZM272.257 54.739C273.135 54.6419 273.934 54.2868 274.654 53.6738C275.396 53.0328 276.034 52.2511 276.567 51.3285C277.097 50.3807 277.485 49.4107 277.731 48.4182C277.977 47.4257 278.054 46.5154 277.962 45.6873C277.893 45.0599 277.736 44.4422 277.49 43.8343C277.243 43.2013 276.88 42.6825 276.404 42.2779C275.952 41.8706 275.35 41.7086 274.597 41.7919C273.769 41.8835 272.986 42.2623 272.246 42.9283C271.532 43.5915 270.911 44.4095 270.384 45.3823C269.854 46.3301 269.455 47.3141 269.186 48.3344C268.915 49.3297 268.823 50.2163 268.909 50.9942C268.978 51.6216 269.136 52.2392 269.381 52.8472C269.651 53.4524 270.023 53.9447 270.497 54.3241C270.968 54.6784 271.554 54.8167 272.257 54.739Z" stroke="#5A5A5A" stroke-width="2"/>
<path d="M297.143 54.3108C296.215 54.4135 295.384 54.2514 294.651 53.8244C293.915 53.3724 293.252 52.7726 292.661 52.0251C292.096 51.2748 291.589 50.4799 291.14 49.6404C290.692 48.8009 290.29 48.0451 289.937 47.373C289.329 46.2463 288.725 45.0303 288.123 43.7252C287.547 42.4172 287.187 41.1108 287.042 39.8058C287.023 39.6302 286.989 39.4433 286.942 39.2453C286.92 39.0446 286.898 38.8438 286.875 38.6431C286.814 38.091 286.847 37.5794 286.972 37.1082C287.095 36.612 287.508 36.325 288.211 36.2473C288.788 36.1835 289.261 36.3217 289.628 36.6621C290.021 36.9996 290.335 37.4222 290.569 37.9298C290.828 38.4346 291.044 38.8933 291.216 39.3061C291.308 39.6769 291.432 40.1078 291.588 40.5986C291.769 41.0866 291.936 41.5634 292.089 42.0291C292.264 42.467 292.369 42.8365 292.402 43.1376C292.43 43.3886 292.508 43.634 292.636 43.8738C292.789 44.1109 292.88 44.3549 292.907 44.6058C292.916 44.6811 293.017 44.9112 293.212 45.2961C293.405 45.6558 293.629 46.0756 293.885 46.5553C294.139 47.0099 294.363 47.4296 294.558 47.8145C294.778 48.1966 294.92 48.4476 294.984 48.5675C295.229 48.9468 295.458 49.2899 295.669 49.5967C295.904 49.8756 296.108 50.0054 296.284 49.9859C296.535 49.9582 296.746 49.7952 296.916 49.4969C297.108 49.1708 297.261 48.8238 297.372 48.4558C297.509 48.085 297.605 47.8076 297.661 47.6236L300.234 38.4992C300.454 37.9668 300.721 37.5055 301.033 37.1153C301.368 36.6972 301.849 36.4535 302.476 36.3841C303.079 36.3175 303.55 36.5575 303.89 37.1042L304.023 38.3088C304.115 39.1369 304.118 39.9747 304.034 40.8223C303.95 41.6699 303.762 42.4909 303.468 43.2854L300.6 51.109C300.304 51.8784 299.861 52.5877 299.273 53.2371C298.681 53.8613 297.972 54.2192 297.143 54.3108Z" stroke="#5A5A5A" stroke-width="2"/>
<path d="M319.021 53.6057C317.215 53.8056 315.515 53.7141 313.923 53.3313C312.354 52.9207 311.037 52.1519 309.972 51.0249C308.905 49.8728 308.262 48.3056 308.042 46.3231C307.876 44.8174 307.952 43.3229 308.271 41.8398C308.614 40.3539 309.186 38.9824 309.987 37.7253C310.785 36.4431 311.799 35.3911 313.029 34.5692C314.257 33.7222 315.686 33.2085 317.317 33.0281C318.421 32.906 319.475 33.018 320.479 33.3643C321.505 33.6826 322.353 34.2365 323.025 35.0259C323.719 35.7874 324.132 36.7705 324.265 37.975C324.393 39.1294 324.277 40.26 323.917 41.3667C323.556 42.4734 323.008 43.4866 322.271 44.4064C321.535 45.3261 320.666 46.0827 319.665 46.676C318.686 47.2415 317.632 47.5867 316.502 47.7116C316.327 47.7311 315.934 47.7365 315.323 47.7278C314.71 47.694 314.222 47.6464 313.859 47.5848C313.603 47.5624 313.391 47.4842 313.224 47.3503C313.171 47.3308 313.079 47.3029 312.948 47.2665C312.814 47.2051 312.722 47.1772 312.672 47.1828C312.928 47.8911 313.36 48.4657 313.967 48.9065C314.597 49.3195 315.289 49.5986 316.041 49.744C316.819 49.8866 317.547 49.9204 318.224 49.8455C318.701 49.7927 319.175 49.7149 319.647 49.612C320.14 49.4812 320.663 49.3853 321.215 49.3242C321.767 49.2631 322.261 49.361 322.695 49.6177C323.13 49.8744 323.385 50.3416 323.46 51.0191C323.521 51.5712 323.393 52.0173 323.075 52.3573C322.782 52.6945 322.377 52.9424 321.861 53.1011C321.371 53.257 320.862 53.3641 320.335 53.4224C319.836 53.503 319.398 53.5641 319.021 53.6057ZM316.02 43.3451C316.772 43.2618 317.497 43.0419 318.195 42.6854C318.914 42.301 319.48 41.7938 319.893 41.1639C320.331 40.5312 320.503 39.7883 320.409 38.935C320.328 38.2073 320.039 37.6551 319.54 37.2784C319.066 36.899 318.465 36.7495 317.738 36.83C317.085 36.9022 316.414 37.1542 315.725 37.586C315.037 38.0178 314.396 38.5458 313.805 39.1701C313.239 39.7916 312.791 40.4508 312.462 41.1476C312.129 41.8194 311.997 42.4564 312.063 43.0587L312.08 43.2093C312.743 43.2375 313.41 43.2908 314.079 43.3692C314.745 43.4225 315.392 43.4145 316.02 43.3451Z" stroke="#5A5A5A" stroke-width="2"/>
<path d="M347.346 49.1394C346.719 49.2088 346.235 49.0844 345.895 48.7664C345.552 48.4233 345.314 47.9924 345.181 47.4737C345.044 46.93 344.948 46.4071 344.893 45.9052C344.765 44.7509 344.662 43.5937 344.585 42.4338C344.533 41.2711 344.448 40.1628 344.332 39.1088C344.207 37.9795 343.962 36.9143 343.597 35.9131C343.232 34.912 342.993 33.897 342.879 32.8681L342.717 31.4C342.884 30.8481 343.084 30.4704 343.316 30.2669C343.544 30.0384 343.872 29.9006 344.299 29.8534C345.076 29.7673 345.669 29.9558 346.076 30.4189C346.48 30.8568 346.769 31.409 346.945 32.0755C347.142 32.7141 347.297 33.3067 347.408 33.8532C347.464 34.1265 347.574 34.6605 347.738 35.4552C347.927 36.2471 348.073 36.993 348.176 37.6929L348.326 37.6763L348.46 37.509C348.859 36.7536 349.278 35.9453 349.716 35.084C350.154 34.2226 350.648 33.4059 351.198 32.6339C351.773 31.8591 352.425 31.2153 353.156 30.7027C353.884 30.1649 354.738 29.8419 355.716 29.7337C356.971 29.5949 358.078 29.8408 359.037 30.4714C359.993 31.0769 360.836 31.9236 361.566 33.0113C362.293 34.074 362.918 35.2495 363.442 36.5379C363.965 37.8263 364.409 39.0854 364.774 40.3152C365.139 41.545 365.459 42.6018 365.734 43.4858L365.838 44.4269C365.899 44.979 365.81 45.5477 365.57 46.1331C365.327 46.6934 364.879 47.0097 364.227 47.0818C363.549 47.1568 363.028 47.0366 362.663 46.7214C362.323 46.4033 362.072 45.9738 361.911 45.4328C361.835 45.2125 361.732 44.8556 361.602 44.362C361.468 43.8434 361.318 43.2884 361.151 42.6973C360.981 42.081 360.829 41.5135 360.696 40.9948C360.559 40.4511 360.452 40.0565 360.374 39.8111C360.244 39.3175 360.003 38.7472 359.652 38.1002C359.323 37.4253 359.018 36.8494 358.737 36.3725C358.453 35.8704 358.103 35.3503 357.688 34.8119C357.273 34.2736 356.726 34.0419 356.049 34.1169C355.446 34.1835 354.918 34.4578 354.463 34.94C354.033 35.4193 353.662 35.9684 353.35 36.5872C353.062 37.2033 352.805 37.7524 352.579 38.2346C352.063 39.3078 351.609 40.3741 351.219 41.4334C350.828 42.4927 350.409 43.644 349.962 44.8873C349.789 45.3891 349.637 45.9648 349.505 46.6144C349.371 47.2389 349.153 47.7964 348.852 48.2869C348.551 48.7775 348.049 49.0617 347.346 49.1394Z" stroke="#5A5A5A" stroke-width="2"/>
<path d="M380.059 46.2833C378.252 46.4832 376.528 46.2802 374.886 45.6743C373.244 45.0684 371.867 44.103 370.755 42.7781C369.643 41.4531 368.982 39.8371 368.771 37.9298C368.627 36.6249 368.757 35.3912 369.162 34.2287C369.589 33.0384 370.163 31.9081 370.882 30.8378C371.627 29.7647 372.379 28.7544 373.138 27.8068C373.54 27.3051 374.043 26.9192 374.649 26.649C375.251 26.3538 375.878 26.1701 376.531 26.0979C378.162 25.9175 379.75 25.9197 381.295 26.1045C382.839 26.2893 384.245 26.718 385.514 27.3906C386.804 28.0353 387.873 28.9713 388.72 30.1985C389.564 31.4006 390.089 32.9302 390.295 34.7872C390.464 36.318 390.292 37.7469 389.778 39.0738C389.264 40.4007 388.505 41.577 387.501 42.6025C386.522 43.6253 385.382 44.4625 384.083 45.1143C382.806 45.7382 381.464 46.1279 380.059 46.2833ZM378.844 42.1883C380.224 42.0356 381.503 41.6529 382.68 41.0401C383.854 40.4022 384.776 39.5509 385.445 38.4861C386.137 37.3935 386.403 36.1194 386.242 34.6639C386.1 33.3841 385.606 32.3592 384.759 31.5892C383.937 30.8165 382.939 30.2918 381.765 30.0152C380.589 29.7134 379.411 29.6278 378.231 29.7583C377.629 29.8249 377.149 29.9668 376.792 30.1841C376.435 30.4014 376.123 30.6773 375.855 31.0118C375.587 31.3462 375.275 31.7364 374.918 32.1823C374.296 32.9878 373.757 33.8602 373.302 34.7996C372.844 35.7139 372.676 36.7231 372.799 37.8273C372.993 39.584 373.66 40.793 374.8 41.4544C375.94 42.1157 377.288 42.3604 378.844 42.1883Z" stroke="#5A5A5A" stroke-width="2"/>
<path d="M163.516 118.624C162.361 118.752 161.253 118.608 160.191 118.192C159.129 117.776 158.211 117.166 157.436 116.363C156.658 115.534 156.107 114.566 155.781 113.459L155.569 111.54C155.413 110.134 155.508 108.689 155.851 107.203C156.195 105.717 156.765 104.32 157.56 103.013C158.352 101.681 159.348 100.58 160.548 99.7105C161.744 98.816 163.108 98.2842 164.639 98.1149C165.266 98.0455 165.818 98.0987 166.295 98.2746C166.797 98.4478 167.25 98.639 167.654 98.8483C168.08 99.0297 168.484 99.1247 168.866 99.1333C168.953 98.0822 169.154 97.3741 169.47 97.009C169.782 96.6188 170.24 96.3904 170.842 96.3238C171.57 96.2433 172.085 96.4276 172.389 96.8766C172.715 97.2978 172.917 97.8597 172.995 98.5624C173.147 99.9426 173.26 101.302 173.331 102.64C173.428 103.976 173.554 105.346 173.71 106.752C173.832 107.856 174.021 108.991 174.277 110.156C174.533 111.322 174.722 112.457 174.844 113.561L174.931 114.351C174.992 114.904 174.936 115.43 174.763 115.932C174.613 116.406 174.173 116.683 173.446 116.764C172.768 116.839 172.256 116.692 171.911 116.324C171.588 115.928 171.344 115.447 171.18 114.881C171.038 114.287 170.903 113.756 170.775 113.287L170.608 113.153C169.849 114.101 169.169 114.963 168.569 115.741C167.995 116.516 167.329 117.161 166.574 117.676C165.815 118.167 164.796 118.483 163.516 118.624ZM162.719 114.864C163.597 114.767 164.396 114.412 165.116 113.799C165.858 113.158 166.495 112.376 167.028 111.453C167.559 110.506 167.947 109.536 168.193 108.543C168.438 107.551 168.516 106.64 168.424 105.812C168.355 105.185 168.197 104.567 167.952 103.959C167.704 103.326 167.342 102.807 166.866 102.403C166.414 101.996 165.812 101.834 165.059 101.917C164.231 102.008 163.447 102.387 162.708 103.053C161.994 103.716 161.373 104.534 160.846 105.507C160.316 106.455 159.916 107.439 159.648 108.459C159.377 109.455 159.285 110.341 159.371 111.119C159.44 111.746 159.597 112.364 159.842 112.972C160.113 113.577 160.485 114.07 160.958 114.449C161.429 114.803 162.016 114.942 162.719 114.864Z" stroke="#5A5A5A" stroke-width="2"/>
<path d="M187.63 115.005C185.823 115.204 184.256 114.933 182.93 114.191C181.625 113.421 180.58 112.355 179.794 110.994C179.031 109.605 178.558 108.082 178.375 106.426C178.167 104.544 178.389 102.767 179.042 101.094C179.721 99.4188 180.748 98.0224 182.123 96.9051C183.52 95.7598 185.173 95.0817 187.08 94.8708C187.657 94.807 188.304 94.7989 189.02 94.8467C189.759 94.8666 190.484 94.9896 191.195 95.2158C191.903 95.4169 192.497 95.7323 192.976 96.1619C193.481 96.5888 193.774 97.1786 193.858 97.9315C193.919 98.4835 193.765 98.9324 193.397 99.2779C193.029 99.6235 192.556 99.8282 191.979 99.892C191.377 99.9586 190.82 99.8677 190.31 99.6193C189.797 99.3458 189.286 99.0848 188.776 98.8364C188.263 98.5629 187.705 98.4595 187.103 98.5261C186.275 98.6177 185.55 98.9519 184.928 99.5288C184.306 100.106 183.799 100.809 183.408 101.64C183.018 102.471 182.733 103.341 182.554 104.249C182.397 105.13 182.361 105.947 182.444 106.7C182.586 107.98 182.946 108.943 183.526 109.591C184.128 110.21 184.883 110.609 185.792 110.788C186.723 110.939 187.741 110.953 188.845 110.831C189.874 110.717 190.805 110.411 191.639 109.913C192.498 109.411 193.356 108.897 194.212 108.371L194.965 108.287C196.094 108.162 196.721 108.665 196.846 109.794C196.921 110.471 196.721 111.078 196.247 111.613C195.798 112.145 195.19 112.619 194.423 113.034C193.653 113.424 192.826 113.757 191.942 114.032C191.058 114.308 190.232 114.526 189.462 114.688C188.692 114.849 188.082 114.955 187.63 115.005Z" stroke="#5A5A5A" stroke-width="2"/>
<path d="M207.73 114.115C206.952 114.201 206.349 114.027 205.919 113.591C205.49 113.156 205.176 112.607 204.975 111.943C204.797 111.251 204.676 110.617 204.612 110.04L204.454 108.61C204.279 107.029 204.128 105.432 204.001 103.821C203.898 102.206 203.757 100.469 203.577 98.6093C202.952 98.7037 202.417 98.8011 201.97 98.9012C201.549 98.9986 201.113 99.0723 200.661 99.1222C199.507 99.2499 198.867 98.7491 198.742 97.6198C198.695 97.1932 198.726 96.7833 198.835 96.3903C198.941 95.9721 199.227 95.6865 199.693 95.5333L202.922 94.4141C203.338 94.2666 203.584 93.9725 203.663 93.532C203.763 93.0637 203.782 92.5409 203.718 91.9637C203.676 91.3587 203.649 90.7648 203.635 90.182C203.647 89.5965 203.782 89.0989 204.042 88.6891C204.326 88.2766 204.845 88.0288 205.598 87.9455C206.125 87.8872 206.53 87.9948 206.815 88.2681C207.121 88.5136 207.347 88.8316 207.492 89.222C207.636 89.6125 207.73 89.9959 207.771 90.3723C207.777 90.4225 207.784 90.5995 207.792 90.9035C207.797 91.1823 207.79 91.4625 207.771 91.7441C207.776 92.0229 207.783 92.2 207.791 92.2752L207.925 93.4798L212.517 92.9719C213.069 92.9108 213.525 93.1271 213.884 93.6208C214.241 94.0894 214.448 94.5872 214.507 95.1142C214.518 95.2146 214.501 95.407 214.456 95.6913C214.411 95.9757 214.302 96.2545 214.129 96.5276C213.954 96.7757 213.69 96.9191 213.339 96.958L208.521 97.4909C208.495 97.4937 208.448 97.5243 208.378 97.5828C208.306 97.6163 208.226 97.7013 208.14 97.8378L208.077 97.9591C208.026 98.6505 208 99.2123 207.997 99.6445C207.991 100.052 207.995 100.432 208.009 100.786C208.045 101.113 208.089 101.514 208.142 101.991C208.295 103.371 208.472 104.749 208.675 106.123C208.903 107.495 209.102 108.946 209.271 110.477C209.327 110.979 209.346 111.498 209.329 112.033C209.312 112.568 209.185 113.027 208.948 113.409C208.713 113.816 208.307 114.051 207.73 114.115Z" stroke="#5A5A5A" stroke-width="2"/>
<path d="M221.169 88.3952C220.416 88.4784 219.737 88.3122 219.132 87.8965C218.527 87.4807 218.174 86.8086 218.071 85.8801C217.968 84.9516 218.222 84.263 218.833 83.8144C219.444 83.3658 220.088 83.1041 220.766 83.0291C221.544 82.9431 222.223 83.1093 222.802 83.5278C223.407 83.9436 223.762 84.6283 223.868 85.5819C223.968 86.4853 223.712 87.1613 223.101 87.6099C222.516 88.0557 221.872 88.3175 221.169 88.3952ZM222.165 111.185C221.688 111.238 221.297 111.027 220.99 110.553C220.684 110.079 220.44 109.598 220.259 109.11L219.722 104.254C219.708 104.128 219.697 103.799 219.689 103.267C219.703 102.706 219.708 102.058 219.703 101.322C219.72 100.558 219.729 99.833 219.729 99.1471C219.752 98.4333 219.766 97.8729 219.772 97.4658C219.791 96.9556 219.818 96.3938 219.852 95.7804C219.911 95.1642 220.066 94.6137 220.317 94.1286C220.568 93.6436 220.97 93.3706 221.522 93.3095C222.124 93.2429 222.567 93.3463 222.852 93.6197C223.158 93.8652 223.36 94.1985 223.458 94.6195C223.555 95.0406 223.629 95.477 223.679 95.9287L223.824 97.2462C223.83 97.2964 223.83 97.4107 223.824 97.5891C223.816 97.7425 223.797 97.9223 223.769 98.1286C223.691 99.0264 223.625 99.6941 223.572 100.132C223.541 100.542 223.517 100.9 223.5 101.207C223.506 101.485 223.536 101.876 223.592 102.378C223.625 102.679 223.667 103.055 223.717 103.507C223.792 103.956 223.869 104.544 223.95 105.272C223.986 105.598 224.035 105.923 224.096 106.247C224.154 106.545 224.203 106.87 224.242 107.221C224.283 107.598 224.29 108.003 224.262 108.438C224.231 109.077 224.069 109.679 223.776 110.245C223.48 110.785 222.943 111.099 222.165 111.185Z" stroke="#5A5A5A" stroke-width="2"/>
<path d="M237.526 108.914C236.597 109.017 235.766 108.855 235.033 108.428C234.297 107.976 233.634 107.376 233.043 106.629C232.478 105.878 231.971 105.083 231.522 104.244C231.074 103.405 230.673 102.649 230.319 101.977C229.712 100.85 229.107 99.6339 228.506 98.3288C227.929 97.0208 227.569 95.7144 227.424 94.4094C227.405 94.2338 227.372 94.0469 227.324 93.8489C227.302 93.6482 227.28 93.4474 227.258 93.2467C227.197 92.6946 227.229 92.183 227.355 91.7118C227.478 91.2156 227.89 90.9286 228.593 90.8509C229.17 90.7871 229.643 90.9253 230.011 91.2657C230.404 91.6032 230.717 92.0258 230.951 92.5334C231.21 93.0381 231.426 93.4969 231.599 93.9097C231.69 94.2805 231.814 94.7114 231.97 95.2022C232.151 95.6902 232.318 96.167 232.471 96.6328C232.647 97.0706 232.751 97.4401 232.784 97.7412C232.812 97.9922 232.89 98.2376 233.018 98.4774C233.172 98.7145 233.262 98.9585 233.29 99.2094C233.298 99.2847 233.4 99.5148 233.595 99.8997C233.787 100.259 234.011 100.679 234.267 101.159C234.521 101.613 234.745 102.033 234.94 102.418C235.16 102.8 235.302 103.051 235.366 103.171C235.612 103.55 235.84 103.893 236.052 104.2C236.286 104.479 236.491 104.609 236.666 104.59C236.917 104.562 237.128 104.399 237.298 104.101C237.491 103.774 237.643 103.427 237.754 103.059C237.891 102.689 237.988 102.411 238.043 102.227L240.616 93.1028C240.837 92.5704 241.103 92.1091 241.415 91.7189C241.75 91.3008 242.231 91.0571 242.859 90.9877C243.461 90.9211 243.932 91.1611 244.272 91.7078L244.405 92.9124C244.497 93.7405 244.501 94.5783 244.416 95.4259C244.332 96.2735 244.144 97.0945 243.851 97.889L240.982 105.713C240.686 106.482 240.244 107.191 239.655 107.841C239.064 108.465 238.354 108.823 237.526 108.914Z" stroke="#5A5A5A" stroke-width="2"/>
<path d="M259.404 108.209C257.597 108.409 255.897 108.318 254.306 107.935C252.736 107.524 251.419 106.755 250.355 105.629C249.287 104.476 248.644 102.909 248.425 100.927C248.258 99.421 248.334 97.9265 248.653 96.4434C248.996 94.9575 249.569 93.586 250.37 92.3289C251.168 91.0467 252.182 89.9947 253.412 89.1728C254.639 88.3258 256.068 87.8121 257.699 87.6317C258.803 87.5096 259.857 87.6216 260.861 87.9679C261.887 88.2862 262.736 88.8401 263.407 89.6295C264.101 90.391 264.515 91.3741 264.648 92.5786C264.775 93.733 264.659 94.8636 264.299 95.9703C263.939 97.077 263.39 98.0902 262.654 99.01C261.917 99.9297 261.048 100.686 260.047 101.28C259.068 101.845 258.014 102.19 256.885 102.315C256.709 102.335 256.316 102.34 255.705 102.331C255.092 102.298 254.604 102.25 254.242 102.188C253.985 102.166 253.773 102.088 253.606 101.954C253.553 101.934 253.461 101.906 253.33 101.87C253.196 101.809 253.104 101.781 253.054 101.786C253.31 102.495 253.742 103.069 254.35 103.51C254.98 103.923 255.671 104.202 256.424 104.348C257.201 104.49 257.929 104.524 258.607 104.449C259.084 104.396 259.558 104.319 260.029 104.216C260.522 104.085 261.045 103.989 261.597 103.928C262.149 103.867 262.643 103.965 263.078 104.221C263.513 104.478 263.767 104.945 263.842 105.623C263.903 106.175 263.775 106.621 263.457 106.961C263.164 107.298 262.76 107.546 262.244 107.705C261.753 107.861 261.244 107.968 260.717 108.026C260.218 108.107 259.78 108.168 259.404 108.209ZM256.402 97.9487C257.155 97.8654 257.88 97.6455 258.577 97.289C259.296 96.9046 259.863 96.3974 260.276 95.7675C260.714 95.1348 260.886 94.3919 260.791 93.5386C260.711 92.8109 260.421 92.2587 259.922 91.882C259.448 91.5026 258.848 91.3531 258.12 91.4336C257.467 91.5058 256.797 91.7578 256.108 92.1896C255.419 92.6214 254.779 93.1494 254.187 93.7737C253.621 94.3952 253.173 95.0544 252.844 95.7512C252.512 96.423 252.379 97.06 252.446 97.6623L252.462 97.8129C253.126 97.8411 253.792 97.8944 254.461 97.9728C255.128 98.0261 255.774 98.0181 256.402 97.9487Z" stroke="#5A5A5A" stroke-width="2"/>
<path d="M295.077 103.692C293.27 103.892 291.545 103.689 289.903 103.083C288.262 102.477 286.885 101.512 285.773 100.187C284.661 98.8621 284 97.246 283.789 95.3388C283.644 94.0339 283.775 92.8002 284.18 91.6377C284.607 90.4474 285.18 89.317 285.9 88.2467C286.645 87.1737 287.397 86.1633 288.156 85.2157C288.558 84.7141 289.061 84.3281 289.666 84.058C290.269 83.7628 290.896 83.5791 291.549 83.5069C293.18 83.3265 294.768 83.3287 296.312 83.5135C297.857 83.6983 299.263 84.127 300.531 84.7995C301.822 85.4443 302.891 86.3802 303.738 87.6075C304.582 88.8096 305.107 90.3392 305.312 92.1962C305.482 93.727 305.309 95.1559 304.796 96.4828C304.282 97.8097 303.523 98.9859 302.519 100.011C301.54 101.034 300.4 101.872 299.101 102.523C297.823 103.147 296.482 103.537 295.077 103.692ZM293.862 99.5972C295.242 99.4446 296.52 99.0619 297.697 98.4491C298.872 97.8111 299.793 96.9598 300.463 95.8951C301.155 94.8025 301.421 93.5284 301.26 92.0729C301.118 90.793 300.624 89.7681 299.777 88.9982C298.954 88.2254 297.957 87.7008 296.783 87.4241C295.606 87.1224 294.428 87.0368 293.249 87.1672C292.647 87.2338 292.167 87.3758 291.81 87.5931C291.453 87.8104 291.141 88.0863 290.873 88.4207C290.605 88.7552 290.292 89.1454 289.935 89.5913C289.313 90.3968 288.775 91.2692 288.32 92.2086C287.862 93.1229 287.694 94.1321 287.816 95.2363C288.011 96.9929 288.678 98.2019 289.818 98.8633C290.958 99.5247 292.306 99.7693 293.862 99.5972Z" stroke="#5A5A5A" stroke-width="2"/>
<path d="M312.424 102.155C311.972 102.205 311.617 102.092 311.358 101.815C311.098 101.539 310.909 101.205 310.789 100.811C310.667 100.393 310.55 100.025 310.438 99.7071L310.13 96.9215C309.975 95.5162 309.881 94.0914 309.848 92.6471C309.813 91.1777 309.719 89.7529 309.566 88.3727C309.494 87.7202 309.362 87.0998 309.17 86.5114C308.977 85.923 308.847 85.3151 308.777 84.6877L308.665 83.6714C308.824 83.2727 309.057 82.9675 309.364 82.7558C309.696 82.5413 310.05 82.4132 310.426 82.3716C310.978 82.3105 311.41 82.4278 311.723 82.7235C312.032 82.9941 312.26 83.3372 312.408 83.7527C312.581 84.1654 312.737 84.5419 312.876 84.8822C313.012 85.1973 313.196 85.3675 313.428 85.3927C314.103 84.8354 314.741 84.2948 315.344 83.7709C315.972 83.2443 316.634 82.8027 317.331 82.4461C318.051 82.0617 318.862 81.8196 319.766 81.7196C320.217 81.6697 320.705 81.7173 321.229 81.8626C321.779 82.005 322.262 82.2437 322.68 82.5785C323.096 82.8882 323.332 83.3065 323.391 83.8335C323.463 84.486 323.252 84.9919 322.758 85.3514C322.29 85.708 321.83 85.9113 321.378 85.9613C321.077 85.9946 320.781 85.9638 320.491 85.8688C320.201 85.7739 319.906 85.7431 319.605 85.7764C318.726 85.8735 317.923 86.191 317.195 86.7287C316.49 87.2386 315.881 87.8266 315.371 88.4927C314.86 89.1588 314.458 89.7748 314.165 90.3407C314.09 90.5776 314.056 90.9624 314.064 91.4949C314.073 92.0275 314.102 92.6339 314.151 93.3143C314.198 93.9695 314.244 94.6122 314.288 95.2423C314.358 95.8697 314.405 96.4107 314.43 96.8651C314.496 97.6961 314.497 98.5088 314.433 99.3034C314.391 100.07 314.222 100.724 313.926 101.265C313.627 101.78 313.126 102.077 312.424 102.155Z" stroke="#5A5A5A" stroke-width="2"/>
<path d="M330.561 100.339C329.27 100.152 328.155 99.7162 327.216 99.0327C326.299 98.3212 325.567 97.4495 325.021 96.4176C324.501 95.383 324.175 94.2759 324.044 93.0964C323.864 91.4653 324.042 89.858 324.578 88.2745C325.111 86.666 325.903 85.2068 326.952 83.8969C328.023 82.5591 329.273 81.4556 330.701 80.5864C332.154 79.7145 333.696 79.1883 335.327 79.0079C335.904 78.944 336.466 78.9708 337.012 79.0882C337.581 79.1777 338.143 79.2044 338.698 79.1685L338.794 78.6625C338.769 78.208 338.745 77.6392 338.72 76.9561C338.695 76.2729 338.68 75.5633 338.675 74.8273C338.692 74.0633 338.713 73.337 338.739 72.6483C338.789 71.9569 338.868 71.4021 338.974 70.9839C339.111 70.3845 339.345 69.8633 339.677 69.4201C340.006 68.9518 340.485 68.683 341.112 68.6136C341.739 68.5442 342.163 68.7006 342.383 69.0827C342.628 69.462 342.784 69.9528 342.851 70.5551L342.955 71.4961C342.923 74.4209 342.962 77.2997 343.072 80.1326C343.204 82.9376 343.425 85.7328 343.733 88.5184C343.874 89.7982 344.076 91.046 344.337 92.2618C344.596 93.4525 344.799 94.7129 344.946 96.0429C344.999 96.5197 344.976 97.0048 344.878 97.4983C344.803 97.9639 344.451 98.2314 343.824 98.3008C343.172 98.3729 342.65 98.2528 342.26 97.9403C341.867 97.6027 341.565 97.1662 341.353 96.6308C341.141 96.0954 340.958 95.5822 340.802 95.0914C340.71 94.7206 340.639 94.5379 340.589 94.5435L340.438 94.5601C339.292 96.1349 338.074 97.4126 336.785 98.3934C335.522 99.3714 333.999 99.959 332.217 100.156L330.561 100.339ZM331.567 96.3415C332.545 96.2332 333.457 95.8656 334.303 95.2387C335.148 94.6118 335.874 93.8329 336.483 92.9019C337.116 91.9682 337.579 90.9898 337.873 89.9667C338.188 88.9157 338.296 87.9385 338.196 87.0351C338.171 86.8092 338.084 86.476 337.933 86.0354C337.783 85.5948 337.605 85.1318 337.399 84.6466C337.192 84.1613 336.984 83.7653 336.772 83.4585C336.582 83.1238 336.425 82.9634 336.299 82.9773C335.095 83.1105 333.981 83.4878 332.957 84.109C331.931 84.7052 331.037 85.4645 330.275 86.387C329.539 87.3068 328.978 88.3214 328.592 89.4309C328.232 90.5376 328.116 91.6681 328.244 92.8225L328.41 94.3282C328.691 95.0338 329.094 95.5735 329.618 95.9474C330.139 96.2961 330.789 96.4275 331.567 96.3415Z" stroke="#5A5A5A" stroke-width="2"/>
<path d="M360.164 97.0651C358.357 97.265 356.657 97.1735 355.066 96.7907C353.496 96.3801 352.179 95.6113 351.114 94.4843C350.047 93.3322 349.404 91.7649 349.185 89.7824C349.018 88.2767 349.094 86.7823 349.413 85.2992C349.756 83.8132 350.329 82.4417 351.13 81.1847C351.928 79.9025 352.942 78.8505 354.172 78.0286C355.399 77.1816 356.828 76.6679 358.459 76.4875C359.563 76.3654 360.617 76.4774 361.621 76.8237C362.647 77.142 363.495 77.6959 364.167 78.4853C364.861 79.2468 365.274 80.2299 365.408 81.4344C365.535 82.5888 365.419 83.7194 365.059 84.8261C364.699 85.9328 364.15 86.946 363.414 87.8658C362.677 88.7855 361.808 89.542 360.807 90.1354C359.828 90.7009 358.774 91.0461 357.645 91.171C357.469 91.1905 357.076 91.1958 356.465 91.1872C355.852 91.1534 355.364 91.1058 355.002 91.0442C354.745 91.0218 354.533 90.9436 354.366 90.8097C354.313 90.7902 354.221 90.7622 354.09 90.7259C353.956 90.6645 353.864 90.6366 353.814 90.6421C354.07 91.3505 354.502 91.925 355.11 92.3659C355.74 92.7788 356.431 93.058 357.184 93.2034C357.961 93.346 358.689 93.3798 359.367 93.3049C359.844 93.2521 360.318 93.1743 360.789 93.0714C361.282 92.9406 361.805 92.8446 362.357 92.7836C362.909 92.7225 363.403 92.8204 363.838 93.0771C364.272 93.3338 364.527 93.801 364.602 94.4785C364.663 95.0306 364.535 95.4767 364.217 95.8167C363.924 96.1539 363.52 96.4018 363.004 96.5605C362.513 96.7164 362.004 96.8235 361.477 96.8818C360.978 96.9624 360.54 97.0235 360.164 97.0651ZM357.162 86.8045C357.915 86.7212 358.64 86.5013 359.337 86.1448C360.056 85.7604 360.623 85.2532 361.036 84.6233C361.474 83.9906 361.646 83.2476 361.551 82.3944C361.471 81.6667 361.181 81.1145 360.682 80.7378C360.208 80.3584 359.607 80.2089 358.88 80.2894C358.227 80.3615 357.557 80.6135 356.868 81.0454C356.179 81.4772 355.539 82.0052 354.947 82.6295C354.381 83.251 353.933 83.9101 353.604 84.607C353.272 85.2788 353.139 85.9158 353.205 86.5181L353.222 86.6687C353.886 86.6969 354.552 86.7502 355.221 86.8286C355.887 86.8819 356.534 86.8739 357.162 86.8045Z" stroke="#5A5A5A" stroke-width="2"/>
<path d="M372.968 95.4584C372.516 95.5084 372.161 95.3953 371.902 95.1191C371.643 94.843 371.453 94.5083 371.333 94.1151C371.211 93.6968 371.094 93.3287 370.983 93.0108L370.675 90.2252C370.519 88.8199 370.425 87.3951 370.392 85.9508C370.357 84.4814 370.263 83.0566 370.11 81.6764C370.038 81.0239 369.906 80.4035 369.714 79.8151C369.522 79.2267 369.391 78.6188 369.322 77.9914L369.209 76.9751C369.368 76.5764 369.601 76.2712 369.908 76.0595C370.24 75.845 370.594 75.7169 370.97 75.6753C371.523 75.6142 371.955 75.7315 372.267 76.0272C372.576 76.2978 372.805 76.6409 372.952 77.0564C373.125 77.4692 373.281 77.8456 373.42 78.1859C373.556 78.501 373.74 78.6712 373.972 78.6964C374.647 78.1391 375.286 77.5985 375.888 77.0746C376.516 76.548 377.178 76.1064 377.875 75.7498C378.595 75.3654 379.406 75.1233 380.31 75.0234C380.762 74.9734 381.249 75.021 381.774 75.1663C382.323 75.3088 382.806 75.5474 383.224 75.8822C383.64 76.1919 383.876 76.6102 383.935 77.1372C384.007 77.7897 383.796 78.2956 383.303 78.6551C382.834 79.0117 382.374 79.215 381.922 79.265C381.621 79.2983 381.325 79.2675 381.035 79.1725C380.746 79.0776 380.45 79.0468 380.149 79.0801C379.271 79.1772 378.467 79.4947 377.739 80.0324C377.034 80.5423 376.426 81.1303 375.915 81.7964C375.404 82.4625 375.003 83.0785 374.71 83.6444C374.634 83.8813 374.601 84.2661 374.609 84.7986C374.617 85.3312 374.646 85.9376 374.696 86.618C374.743 87.2732 374.788 87.9159 374.833 88.5461C374.902 89.1734 374.949 89.7144 374.974 90.1688C375.04 90.9998 375.041 91.8125 374.977 92.6071C374.935 93.3738 374.766 94.0276 374.47 94.5683C374.171 95.084 373.671 95.3807 372.968 95.4584Z" stroke="#5A5A5A" stroke-width="2"/>
<path d="M393.703 93.3557C393 93.4334 392.19 93.4595 391.273 93.4339C390.358 93.4334 389.458 93.3298 388.571 93.123C387.684 92.9163 386.919 92.5437 386.275 92.0052C385.657 91.464 385.293 90.7041 385.185 89.7253C385.113 89.0729 385.214 88.4902 385.487 87.9773C385.758 87.4393 386.257 87.1301 386.985 87.0496C387.436 86.9996 387.8 87.0737 388.076 87.2718C388.352 87.4699 388.596 87.7224 388.808 88.0292C389.045 88.3332 389.308 88.647 389.598 88.9706C389.91 89.2663 390.304 89.5021 390.781 89.678C391.283 89.8511 391.935 89.8932 392.738 89.8044C393.315 89.7406 393.936 89.6085 394.6 89.408C395.286 89.1798 395.859 88.8497 396.319 88.4177C396.779 87.9858 396.973 87.4436 396.901 86.7911C396.837 86.2139 396.549 85.7886 396.036 85.5151C395.52 85.2165 394.872 84.9833 394.092 84.8157C393.311 84.648 392.493 84.4845 391.637 84.3251C390.778 84.1406 389.95 83.8893 389.153 83.571C388.356 83.2528 387.683 82.7938 387.134 82.1941C386.582 81.5692 386.248 80.7298 386.131 79.6758C386.023 78.6971 386.168 77.8301 386.567 77.0747C386.966 76.3193 387.517 75.6741 388.22 75.1391C388.946 74.5763 389.736 74.1459 390.592 73.848C391.471 73.5222 392.324 73.3135 393.152 73.2219C393.629 73.1692 394.188 73.1709 394.829 73.227C395.468 73.258 396.102 73.3656 396.732 73.5499C397.362 73.7343 397.903 74.0301 398.354 74.4374C398.803 74.8196 399.064 75.337 399.136 75.9894C399.263 77.1438 398.75 77.7848 397.596 77.9125L397.106 77.9666C396.306 77.6233 395.63 77.3678 395.078 77.2002C394.526 77.0327 393.912 76.9864 393.234 77.0613C392.933 77.0946 392.51 77.1794 391.967 77.3158C391.445 77.4243 390.984 77.615 390.582 77.8881C390.18 78.1611 390.007 78.5486 390.063 79.0505C390.11 79.4771 390.387 79.802 390.895 80.0253C391.402 80.2487 392.046 80.4442 392.826 80.6118C393.607 80.7795 394.428 80.9681 395.29 81.1777C396.151 81.3872 396.985 81.6888 397.79 82.0823C398.593 82.4508 399.272 82.9599 399.826 83.6099C400.381 84.2598 400.716 85.1117 400.833 86.1657C401.002 87.6965 400.749 88.9692 400.074 89.9838C399.424 90.9956 398.52 91.7814 397.363 92.3412C396.227 92.8732 395.007 93.2113 393.703 93.3557Z" stroke="#5A5A5A" stroke-width="2"/>
<path d="M169.74 179.606C165.01 171.392 156.31 165.699 146.139 165.254C130.325 164.562 116.944 176.821 116.252 192.636C115.561 208.45 127.82 221.83 143.634 222.522C156.038 223.064 166.944 215.64 171.405 204.782" stroke="#0098DA" stroke-width="2" stroke-linecap="round"/>
<rect x="143.125" y="176.918" width="3.09448" height="17.4252" rx="1.54724" fill="#373435" stroke="#373435"/>
<rect x="163.136" y="201.338" width="3.09448" height="21.5197" rx="1.54724" transform="rotate(114.44 163.136 201.338)" fill="#373435" stroke="#373435"/>
<circle cx="144.161" cy="194.329" r="2.55905" fill="#0098DA"/>
<path d="M173.285 185.199C173.225 185.493 172.921 185.668 172.637 185.573L165.416 183.157C165.007 183.021 164.952 182.466 165.325 182.25L174.064 177.205C174.437 176.989 174.89 177.315 174.804 177.737L173.285 185.199Z" fill="#0098DA" stroke="#0098DA"/>
<path d="M179 344.001V220.117H308.535V344.001H179Z" fill="#D9D9D9" stroke="#373435" stroke-linecap="round"/>
<path d="M344.71 316.832L308.535 344V220.116L344.71 195V316.832Z" fill="#D9D9D9" stroke="#373435" stroke-linecap="round"/>
<path d="M308.535 220.116L344.71 195H226.695L179 220.116H308.535Z" fill="#D9D9D9" stroke="#373435" stroke-linecap="round"/>
<path d="M214 207H204L213.001 202H223.001H233.001H243.001H253.001H263.001H273.001H283.001H293.001H303.001H313.001H323.001H334.5V221L327 227.5V217V207H314H304H294H284H274H264H254H244H234H224H214Z" fill="#FFCC29"/>
<path d="M327 207H204L213.001 202H334.5M327 207V227.5L334.5 221V202M327 207L334.5 202M223.001 202L214 207M233.001 202L224 207M243.001 202L234 207M253.001 202L244 207M263.001 202L254 207M273.001 202L264 207M283.001 202L274 207M293.001 202L284 207M303.001 202L294 207M313.001 202L304 207M323.001 202L314 207M334.5 210L327 217" stroke="#ED3237"/>
</svg>
