<svg width="147" height="96" viewBox="0 0 147 96" fill="none" xmlns="http://www.w3.org/2000/svg">
<path d="M106 40.4804V91.9692C106 94.1963 107.802 96.0017 110.024 96.0017H142.833C145.056 96.0017 146.857 94.1963 146.857 91.9692V40.4804C146.857 35.7029 145.083 31.0965 141.88 27.5582L139.361 24.7762C135.693 20.7243 133.661 15.4492 133.661 9.97822V0.644531H119.196V9.97822C119.196 15.4492 117.164 20.7243 113.496 24.7762L110.977 27.5582C107.774 31.0965 106 35.7029 106 40.4804Z" fill="white"/>
<path fill-rule="evenodd" clip-rule="evenodd" d="M119.097 0.644531H133.761V10.0913C133.761 15.5068 135.763 20.7285 139.378 24.7394L141.877 27.5127C145.082 31.0684 146.857 35.6976 146.857 40.4985V91.8271C146.857 94.1327 145 96.0017 142.71 96.0017H110.147C107.857 96.0017 106 94.1327 106 91.8271V40.4985C106 35.6976 107.775 31.0684 110.98 27.5127L113.479 24.7394C117.094 20.7285 119.097 15.5068 119.097 10.0913V0.644531ZM119.404 0.953759V10.0913C119.404 15.5837 117.373 20.8794 113.707 24.9472L111.207 27.7205C108.054 31.2193 106.307 35.7744 106.307 40.4985V91.8271C106.307 93.9619 108.026 95.6924 110.147 95.6924H142.71C144.831 95.6924 146.55 93.9619 146.55 91.8271V40.4985C146.55 35.7744 144.803 31.2193 141.65 27.7205L139.15 24.9472C135.484 20.8794 133.453 15.5837 133.453 10.0913V0.953759H119.404Z" fill="#C5C5C5"/>
<path d="M118.071 0.928571C118.071 0.415735 118.503 0 119.036 0H133.821C134.354 0 134.786 0.415736 134.786 0.928571V4.64286C134.786 5.15569 134.354 5.57143 133.821 5.57143H126.429H119.036C118.503 5.57143 118.071 5.15569 118.071 4.64286V0.928571Z" fill="white"/>
<path fill-rule="evenodd" clip-rule="evenodd" d="M133.821 0.309524H119.036C118.681 0.309524 118.393 0.586681 118.393 0.928571V4.64286C118.393 4.98475 118.681 5.26191 119.036 5.26191H133.821C134.176 5.26191 134.464 4.98475 134.464 4.64286V0.928571C134.464 0.586681 134.176 0.309524 133.821 0.309524ZM119.036 0C118.503 0 118.071 0.415735 118.071 0.928571V4.64286C118.071 5.15569 118.503 5.57143 119.036 5.57143H133.821C134.354 5.57143 134.786 5.15569 134.786 4.64286V0.928571C134.786 0.415736 134.354 0 133.821 0H119.036Z" fill="#C5C5C5"/>
<path fill-rule="evenodd" clip-rule="evenodd" d="M133.857 6.49888L119 6.49888L119 5.57031L133.857 5.57031L133.857 6.49888Z" fill="#C5C5C5"/>
<path d="M80.8895 38.835V29.9297C78.7409 35.5541 42.3942 36.0228 24.4894 35.5541V38.835H80.8895Z" stroke="#C5C5C5" stroke-width="0.5"/>
<path d="M81.3817 30.3001C81.3817 30.6181 81.1726 30.9785 80.6518 31.3719C80.1367 31.7609 79.3612 32.1469 78.3384 32.5206C76.2958 33.267 73.3258 33.9436 69.6388 34.5134C62.2687 35.6524 52.0782 36.358 40.8159 36.358C29.5536 36.358 19.363 35.6524 11.9929 34.5134C8.30587 33.9436 5.33596 33.267 3.29331 32.5206C2.27053 32.1469 1.49505 31.7609 0.979902 31.3719C0.459115 30.9785 0.25 30.6181 0.25 30.3001C0.25 29.982 0.459115 29.6216 0.979902 29.2283C1.49505 28.8393 2.27053 28.4533 3.29331 28.0796C5.33596 27.3332 8.30587 26.6566 11.9929 26.0868C19.363 24.9478 29.5536 24.2422 40.8159 24.2422C52.0782 24.2422 62.2687 24.9478 69.6388 26.0868C73.3258 26.6566 76.2958 27.3332 78.3384 28.0796C79.3612 28.4533 80.1367 28.8393 80.6518 29.2283C81.1726 29.6216 81.3817 29.982 81.3817 30.3001Z" fill="white" stroke="#C5C5C5" stroke-width="0.5"/>
<path d="M60.6025 30.3005C60.6025 30.3354 60.567 30.4459 60.2942 30.6096C60.0397 30.7623 59.6482 30.9183 59.1207 31.0714C58.0695 31.3766 56.5363 31.6545 54.6273 31.889C50.8129 32.3574 45.536 32.6479 39.7025 32.6479C33.8689 32.6479 28.5921 32.3574 24.7776 31.889C22.8686 31.6545 21.3354 31.3766 20.2842 31.0714C19.7567 30.9183 19.3652 30.7623 19.1108 30.6096C18.8379 30.4459 18.8024 30.3354 18.8024 30.3005C18.8024 30.2656 18.8379 30.1551 19.1108 29.9914C19.3652 29.8387 19.7567 29.6827 20.2842 29.5296C21.3354 29.2244 22.8686 28.9464 24.7776 28.712C28.5921 28.2436 33.8689 27.9531 39.7025 27.9531C45.536 27.9531 50.8129 28.2436 54.6273 28.712C56.5363 28.9464 58.0695 29.2244 59.1207 29.5296C59.6482 29.6827 60.0397 29.8387 60.2942 29.9914C60.567 30.1551 60.6025 30.2656 60.6025 30.3005Z" fill="#D9D9D9" stroke="#C5C5C5" stroke-width="0.5"/>
<path d="M0.734207 80.3677L0.370972 30.6719C34.1326 42.5384 82.0035 38.3132 93.2274 38.3132H140C140.552 38.3132 141 38.7609 141 39.3132V90.3261C141 90.8783 140.552 91.3261 140 91.3261H108.043C90.2344 91.4759 50.6049 92.7617 34.8629 91.3261C17.7566 89.7659 6.85706 85.1652 1.64501 82.0065C1.07349 81.6601 0.739092 81.036 0.734207 80.3677Z" fill="white" stroke="#C5C5C5" stroke-width="0.5"/>
<rect width="45" height="36" transform="matrix(-4.37114e-08 1 1 4.37114e-08 95 43)" fill="#ED3237"/>
<path d="M112.319 76.8008L104.335 76.8008L104.335 71.7683L105.853 71.7683L105.853 75.0008L107.702 75.0008L107.702 72.2336L109.221 72.2336L109.221 75.0008L112.319 75.0008L112.319 76.8008Z" fill="black"/>
<path d="M112.319 70.1347L104.335 70.1347L104.335 68.3348L112.319 68.3348L112.319 70.1347Z" fill="black"/>
<path d="M112.319 64.8233L104.335 67.2354L104.335 65.3253L108.057 64.3702C108.49 64.2478 108.915 64.1417 109.331 64.0519C109.747 63.9539 110.176 63.8437 110.617 63.7213L110.617 63.6723C110.176 63.558 109.747 63.4519 109.331 63.3539C108.915 63.256 108.49 63.1499 108.057 63.0356L104.335 62.0927L104.335 60.2561L112.319 62.656L112.319 64.8233Z" fill="black"/>
<path d="M112.319 59.1582L104.335 59.1582L104.335 54.1624L105.853 54.1624L105.853 57.3582L107.457 57.3582L107.457 54.64L108.964 54.64L108.964 57.3582L110.8 57.3582L110.8 54.04L112.319 54.04L112.319 59.1582Z" fill="black"/>
<path d="M121.139 80.2578L114.74 80.2578L114.74 79.8078L120.751 79.8078L120.751 76.8341L121.139 76.8341L121.139 80.2578Z" fill="black"/>
<path d="M117.371 74.5293L118.566 74.9402L118.566 72.6511L117.371 73.062C116.989 73.1924 116.624 73.3163 116.274 73.4337C115.925 73.5511 115.552 73.6652 115.157 73.7761L115.157 73.8152C115.552 73.9261 115.925 74.0402 116.274 74.1576C116.624 74.275 116.989 74.3989 117.371 74.5293ZM121.139 76.2901L114.74 74.0206L114.74 73.5707L121.139 71.3012L121.139 71.7707L118.945 72.524L118.945 75.0771L121.139 75.8401L121.139 76.2901Z" fill="black"/>
<path d="M121.139 70.0748L114.74 70.0748L114.74 68.3336C114.74 67.6815 114.866 67.163 115.119 66.7783C115.365 66.3935 115.756 66.2011 116.294 66.2011C116.63 66.2011 116.925 66.2859 117.177 66.4555C117.423 66.625 117.595 66.8728 117.692 67.1989L117.731 67.1989C117.795 66.7815 117.961 66.4457 118.226 66.1913C118.485 65.937 118.835 65.8098 119.275 65.8098C119.89 65.8098 120.356 66.0283 120.673 66.4652C120.984 66.8956 121.139 67.4761 121.139 68.2065L121.139 70.0748ZM117.556 69.6249L117.556 68.5097C117.556 67.851 117.449 67.3782 117.235 67.0913C117.015 66.7978 116.718 66.6511 116.342 66.6511C115.889 66.6511 115.572 66.8043 115.39 67.1109C115.203 67.4174 115.109 67.8673 115.109 68.4608L115.109 69.6249L117.556 69.6249ZM120.77 69.6249L120.77 68.3238C120.77 67.6847 120.65 67.1793 120.411 66.8076C120.171 66.4359 119.796 66.25 119.284 66.25C118.825 66.25 118.485 66.4326 118.265 66.7978C118.038 67.1565 117.925 67.6652 117.925 68.3238L117.925 69.6249L120.77 69.6249Z" fill="black"/>
<path d="M121.139 64.2239L114.74 64.2239L114.74 60.6926L115.128 60.6926L115.128 63.7739L117.546 63.7739L117.546 61.1914L117.935 61.1914L117.935 63.7739L120.751 63.7739L120.751 60.5947L121.139 60.5947L121.139 64.2239Z" fill="black"/>
<path d="M121.139 58.9939L114.74 58.9939L114.74 58.5439L120.751 58.5439L120.751 55.5702L121.139 55.5702L121.139 58.9939Z" fill="black"/>
<path d="M121.256 52.731C121.256 53.2005 121.165 53.6179 120.984 53.9831C120.803 54.3483 120.573 54.658 120.294 54.9124L119.984 54.6189C120.243 54.3841 120.453 54.1037 120.615 53.7777C120.77 53.4516 120.848 53.1027 120.848 52.731C120.848 52.2353 120.728 51.8441 120.489 51.5571C120.249 51.2702 119.942 51.1267 119.566 51.1267C119.301 51.1267 119.087 51.1789 118.925 51.2832C118.763 51.3876 118.631 51.5278 118.527 51.7038C118.417 51.8734 118.317 52.0658 118.226 52.281L117.789 53.2592C117.705 53.4418 117.601 53.6374 117.478 53.8461C117.349 54.0483 117.184 54.2211 116.983 54.3646C116.776 54.5015 116.514 54.57 116.196 54.57C115.886 54.57 115.614 54.4885 115.381 54.3255C115.141 54.1624 114.957 53.9407 114.827 53.6603C114.691 53.3733 114.623 53.0505 114.623 52.6918C114.623 52.3071 114.701 51.9614 114.856 51.6549C115.005 51.3484 115.183 51.0974 115.39 50.9017L115.682 51.156C115.488 51.3452 115.332 51.5669 115.216 51.8212C115.093 52.0756 115.031 52.3658 115.031 52.6918C115.031 53.1157 115.135 53.4614 115.342 53.7287C115.549 53.9896 115.827 54.12 116.177 54.12C116.423 54.12 116.624 54.0613 116.779 53.944C116.934 53.82 117.061 53.6733 117.158 53.5038C117.255 53.3277 117.339 53.1614 117.41 53.0049L117.838 52.0267C117.941 51.7854 118.064 51.5636 118.207 51.3615C118.343 51.1528 118.517 50.9865 118.731 50.8626C118.938 50.7322 119.207 50.6669 119.537 50.6669C119.861 50.6669 120.155 50.7517 120.421 50.9213C120.68 51.0908 120.883 51.3321 121.032 51.6452C121.181 51.9517 121.256 52.3136 121.256 52.731Z" fill="black"/>
</svg>
