<svg width="581" height="400" viewBox="0 0 581 400" fill="none" xmlns="http://www.w3.org/2000/svg">
<rect width="581" height="400" fill="white"/>
<path d="M310.034 257.671C314.656 257.482 319.229 256.653 323.623 255.208L379.93 236.681C389.425 233.557 399.638 233.35 409.252 236.088L505.662 263.542C506.466 263.771 507.287 263.937 508.117 264.038L520.364 265.524C550.536 269.186 552.278 312.302 522.501 318.387L338.99 354.79C328.648 356.842 318.046 357.245 307.578 355.984L248.624 348.886H155.984C147.214 348.886 138.491 347.604 130.092 345.082L85.2903 331.624C54.4084 322.347 57.908 277.538 89.8556 273.169L157.726 263.886L310.034 257.671Z" fill="#F3F3F3"/>
<path d="M195 315.387C195 326.709 185.822 335.887 174.5 335.887C163.178 335.887 154 326.709 154 315.387C154 304.065 163.178 294.887 174.5 294.887C185.822 294.887 195 304.065 195 315.387Z" fill="white"/>
<path fill-rule="evenodd" clip-rule="evenodd" d="M174.5 334.748C185.193 334.748 193.861 326.08 193.861 315.387C193.861 304.694 185.193 296.026 174.5 296.026C163.807 296.026 155.139 304.694 155.139 315.387C155.139 326.08 163.807 334.748 174.5 334.748ZM174.5 335.887C185.822 335.887 195 326.709 195 315.387C195 304.065 185.822 294.887 174.5 294.887C163.178 294.887 154 304.065 154 315.387C154 326.709 163.178 335.887 174.5 335.887Z" fill="#373435"/>
<path d="M322 315.387C322 326.709 312.822 335.887 301.5 335.887C290.178 335.887 281 326.709 281 315.387C281 304.065 290.178 294.887 301.5 294.887C312.822 294.887 322 304.065 322 315.387Z" fill="white"/>
<path fill-rule="evenodd" clip-rule="evenodd" d="M301.5 334.748C312.193 334.748 320.861 326.08 320.861 315.387C320.861 304.694 312.193 296.026 301.5 296.026C290.807 296.026 282.139 304.694 282.139 315.387C282.139 326.08 290.807 334.748 301.5 334.748ZM301.5 335.887C312.822 335.887 322 326.709 322 315.387C322 304.065 312.822 294.887 301.5 294.887C290.178 294.887 281 304.065 281 315.387C281 326.709 290.178 335.887 301.5 335.887Z" fill="#373435"/>
<path d="M391 256.387C391 267.709 381.598 276.887 370 276.887C358.402 276.887 349 267.709 349 256.387C349 245.065 358.402 235.887 370 235.887C381.598 235.887 391 245.065 391 256.387Z" fill="white"/>
<path fill-rule="evenodd" clip-rule="evenodd" d="M370 275.748C381.008 275.748 389.87 267.046 389.87 256.387C389.87 245.728 381.008 237.026 370 237.026C358.992 237.026 350.13 245.728 350.13 256.387C350.13 267.046 358.992 275.748 370 275.748ZM370 276.887C381.598 276.887 391 267.709 391 256.387C391 245.065 381.598 235.887 370 235.887C358.402 235.887 349 245.065 349 256.387C349 267.709 358.402 276.887 370 276.887Z" fill="#373435"/>
<path d="M187 315.387C187 322.29 181.404 327.887 174.5 327.887C167.596 327.887 162 322.29 162 315.387C162 308.483 167.596 302.887 174.5 302.887C181.404 302.887 187 308.483 187 315.387Z" fill="#ED3237"/>
<path fill-rule="evenodd" clip-rule="evenodd" d="M174.5 326.75C180.776 326.75 185.864 321.663 185.864 315.387C185.864 309.111 180.776 304.023 174.5 304.023C168.224 304.023 163.136 309.111 163.136 315.387C163.136 321.663 168.224 326.75 174.5 326.75ZM174.5 327.887C181.404 327.887 187 322.29 187 315.387C187 308.483 181.404 302.887 174.5 302.887C167.596 302.887 162 308.483 162 315.387C162 322.29 167.596 327.887 174.5 327.887Z" fill="#373435"/>
<path d="M314 315.387C314 322.29 308.404 327.887 301.5 327.887C294.596 327.887 289 322.29 289 315.387C289 308.483 294.596 302.887 301.5 302.887C308.404 302.887 314 308.483 314 315.387Z" fill="#ED3237"/>
<path fill-rule="evenodd" clip-rule="evenodd" d="M301.5 326.75C307.776 326.75 312.864 321.663 312.864 315.387C312.864 309.111 307.776 304.023 301.5 304.023C295.224 304.023 290.136 309.111 290.136 315.387C290.136 321.663 295.224 326.75 301.5 326.75ZM301.5 327.887C308.404 327.887 314 322.29 314 315.387C314 308.483 308.404 302.887 301.5 302.887C294.596 302.887 289 308.483 289 315.387C289 322.29 294.596 327.887 301.5 327.887Z" fill="#373435"/>
<path d="M383 256.387C383 263.29 377.404 268.887 370.5 268.887C363.596 268.887 358 263.29 358 256.387C358 249.483 363.596 243.887 370.5 243.887C377.404 243.887 383 249.483 383 256.387Z" fill="#ED3237"/>
<path fill-rule="evenodd" clip-rule="evenodd" d="M370.5 267.75C376.776 267.75 381.864 262.663 381.864 256.387C381.864 250.111 376.776 245.023 370.5 245.023C364.224 245.023 359.136 250.111 359.136 256.387C359.136 262.663 364.224 267.75 370.5 267.75ZM370.5 268.887C377.404 268.887 383 263.29 383 256.387C383 249.483 377.404 243.887 370.5 243.887C363.596 243.887 358 249.483 358 256.387C358 263.29 363.596 268.887 370.5 268.887Z" fill="#373435"/>
<path d="M232 138.887L146 172.56V238.887L388 217.352V138.887H232Z" fill="white"/>
<path fill-rule="evenodd" clip-rule="evenodd" d="M231.488 137.887H388V217.512L145 238.887V172.35L231.488 137.887ZM231.689 139.013L146.134 173.136V237.658L386.866 216.481V139.013H231.689Z" fill="#373435"/>
<path d="M105.848 101.036C124.812 117.538 140.662 155.125 145.483 172.887L157.924 166.637C154.415 156.739 132.677 111.241 124.58 101.726C123.984 101.026 124.189 99.7502 125.038 99.4017L190.008 72.746C190.573 72.5141 191.193 72.4171 191.771 72.6151C203.011 76.4663 217.326 116.979 226.136 140.769L231 138.387C222.243 115.303 206.945 71.9345 188.304 63.9701C188.036 63.856 187.742 63.8615 187.473 63.971L106.444 96.9465C104.797 97.6168 104.505 99.8667 105.848 101.036Z" fill="#0098DA"/>
<path fill-rule="evenodd" clip-rule="evenodd" d="M188.127 65.057C188.008 65.0067 187.869 65.0046 187.728 65.0616L106.233 97.9217C105.003 98.4177 104.736 100.132 105.793 101.044C115.413 109.339 124.207 122.892 131.193 136.544C138.012 149.87 143.139 163.351 145.647 172.257L157.5 167.387C155.535 162.126 148.965 147.949 142.25 134.612C138.79 127.741 135.188 120.885 131.944 115.158C128.692 109.416 125.823 104.851 123.828 102.528C123.398 102.028 123.277 101.354 123.386 100.767C123.496 100.18 123.857 99.5834 124.506 99.3194L189.849 72.757C190.491 72.4959 191.264 72.358 192.021 72.6149C193.561 73.1375 195.114 74.3128 196.662 75.9463C198.216 77.5864 199.802 79.7275 201.399 82.2408C204.593 87.2678 207.868 93.8407 211.058 101.014C216.524 113.306 220.396 123.739 224.569 134.979C225.181 136.627 225.77 138.214 226.334 139.724L230.5 138.387C230.003 137.088 229.21 134.771 228.668 133.344C224.407 122.127 220.133 110.958 213.541 97.5502C209.777 89.8955 205.713 82.7304 201.431 76.9918C197.141 71.2418 192.675 66.9822 188.127 65.057ZM187.301 64.0121C187.7 63.851 188.154 63.8379 188.572 64.015C193.399 66.0581 198.013 70.511 202.344 76.3166C206.684 82.1334 210.784 89.3669 214.562 97.0524C221.18 110.512 225.474 121.735 229.734 132.948C230.338 134.539 231.187 137.003 231.734 138.43L231.905 138.877L225.741 141.387L225.505 140.753C224.869 139.051 224.199 137.248 223.5 135.365C219.326 124.123 215.468 113.729 210.018 101.473C206.837 94.3179 203.588 87.8037 200.438 82.8462C198.862 80.3672 197.321 78.2916 195.834 76.7233C194.342 75.1484 192.941 74.1234 191.654 73.6866C191.248 73.5489 190.774 73.6043 190.279 73.8053L124.936 100.368C124.731 100.451 124.562 100.664 124.505 100.973C124.447 101.284 124.523 101.595 124.693 101.792C126.769 104.21 129.687 108.868 132.935 114.602C136.191 120.351 139.802 127.224 143.267 134.105C150.19 147.856 156.966 162.509 158.744 167.477L158.913 167.95L144.917 173.887L144.734 173.22C142.322 164.412 137.139 150.66 130.179 137.058C123.214 123.446 114.5 110.05 105.048 101.9C103.403 100.481 103.723 97.7122 105.806 96.8722L187.301 64.0121Z" fill="#373435"/>
<path d="M388.335 138.887L326.488 173.318L316.016 285.181C315.747 288.046 318.997 289.915 321.396 288.275L387.044 243.395C388.929 242.107 390.037 239.977 389.999 237.717L388.335 138.887Z" fill="#D9D9D9"/>
<path fill-rule="evenodd" clip-rule="evenodd" d="M388.344 137.887L389.999 237.98C390.04 240.436 388.857 242.75 386.847 244.15L322.199 289.171C319.443 291.09 315.71 288.903 316.018 285.55L326.358 173.04L388.344 137.887ZM327.427 173.735L317.141 285.654C316.921 288.049 319.588 289.611 321.556 288.24L386.204 243.22C387.905 242.035 388.906 240.077 388.871 237.998L387.248 139.809L327.427 173.735Z" fill="#373435"/>
<path d="M167.64 293.887H307.36C320.113 293.887 330.349 283.369 329.991 270.634L327.239 172.887H145V271.27C145 283.761 155.136 293.887 167.64 293.887Z" fill="#D9D9D9"/>
<path fill-rule="evenodd" clip-rule="evenodd" d="M144 171.887H328.21L330.991 270.883C331.36 284.029 320.819 294.887 307.686 294.887H167.314C154.438 294.887 144 284.434 144 271.539V171.887ZM145.137 173.026V271.539C145.137 283.805 155.066 293.748 167.314 293.748H307.686C320.178 293.748 330.205 283.42 329.854 270.915L327.105 173.026H145.137Z" fill="#373435"/>
<path d="M176.116 195.384C176.071 193.158 177.839 191.316 180.065 191.27C182.292 191.224 184.134 192.992 184.179 195.219L185.784 273.386C185.83 275.613 184.062 277.455 181.835 277.501C179.609 277.546 177.766 275.778 177.721 273.552L176.116 195.384Z" fill="white" stroke="#373435"/>
<path d="M227.097 194.455C227.051 192.228 228.819 190.386 231.046 190.34C233.272 190.295 235.114 192.063 235.16 194.289L236.764 272.457C236.81 274.683 235.042 276.525 232.816 276.571C230.589 276.617 228.747 274.849 228.701 272.622L227.097 194.455Z" fill="white" stroke="#373435"/>
<path d="M278.077 193.291C278.032 191.064 279.8 189.222 282.026 189.176C284.253 189.131 286.095 190.899 286.14 193.125L287.745 271.293C287.79 273.519 286.023 275.361 283.796 275.407C281.569 275.453 279.727 273.685 279.682 271.458L278.077 193.291Z" fill="white" stroke="#373435"/>
<path d="M375.513 162.343C375.483 160.905 376.625 159.716 378.063 159.686C379.501 159.657 380.69 160.798 380.72 162.236L381.979 223.574C382.008 225.012 380.866 226.202 379.429 226.231C377.991 226.261 376.801 225.119 376.772 223.681L375.513 162.343Z" fill="white" stroke="#373435"/>
<path d="M355.118 173.675C355.089 172.237 356.23 171.048 357.668 171.018C359.106 170.989 360.296 172.13 360.325 173.568L361.584 234.906C361.614 236.344 360.472 237.534 359.034 237.563C357.596 237.593 356.407 236.451 356.377 235.013L355.118 173.675Z" fill="white" stroke="#373435"/>
<path d="M252.051 70.3484C251.449 70.3992 250.932 70.1637 250.501 69.6417C250.091 69.0937 249.802 68.5475 249.635 68.0032L249.482 66.1951C249.384 65.0379 249.407 63.8705 249.55 62.693C249.69 61.4914 249.713 60.324 249.617 59.1909L249.59 58.8655C247.967 57.4487 246.623 56.0205 245.556 54.581C244.513 53.1395 243.58 51.4216 242.757 49.4274C242.632 49.098 242.507 48.7566 242.38 48.4031C242.277 48.0476 242.209 47.6769 242.177 47.2912C242.128 46.7126 242.255 46.2162 242.56 45.802C242.886 45.3617 243.314 45.1191 243.843 45.0744C244.469 45.0215 244.977 45.1486 245.366 45.4556C245.756 45.7626 246.068 46.1611 246.303 46.6511C246.563 47.139 246.776 47.6552 246.943 48.1995C247.134 48.7418 247.321 49.2238 247.502 49.6455C247.596 49.9046 247.801 50.3243 248.117 50.9046C248.433 51.4849 248.8 52.0974 249.218 52.7419C249.636 53.3864 250.058 53.9335 250.483 54.3831C250.909 54.8327 251.302 55.0423 251.663 55.0117C252 54.9833 252.333 54.7609 252.661 54.3447C252.988 53.9043 253.296 53.3927 253.586 52.8097C253.874 52.2027 254.129 51.6348 254.351 51.1062C254.571 50.5534 254.743 50.1504 254.867 49.8971C255.029 49.5192 255.22 49.0539 255.439 48.5011C255.657 47.9243 255.912 47.3564 256.204 46.7976C256.52 46.2367 256.881 45.7692 257.285 45.3951C257.688 44.9968 258.142 44.7764 258.647 44.7337C258.984 44.7052 259.304 44.7631 259.607 44.9075C259.934 45.0498 260.199 45.3067 260.4 45.6782L260.476 46.5822C260.523 47.1367 260.483 47.6742 260.358 48.1947C260.254 48.6891 260.09 49.1885 259.866 49.693C259.722 49.9966 259.493 50.4408 259.179 51.0258C258.889 51.6088 258.566 52.231 258.21 52.8924C257.852 53.5296 257.502 54.1177 257.159 54.6565C256.839 55.1692 256.58 55.5431 256.382 55.7784C256.338 55.8307 256.173 56.0388 255.889 56.4028C255.629 56.7647 255.368 57.1146 255.105 57.4524C254.843 57.7902 254.679 57.9983 254.613 58.0767C254.262 58.5191 254.028 59.1824 253.908 60.0665C253.787 60.9266 253.722 61.879 253.714 62.9238C253.703 63.9444 253.701 64.9279 253.709 65.8743C253.74 66.8185 253.72 67.5851 253.648 68.1738C253.546 69.5422 253.013 70.267 252.051 70.3484Z" fill="#5A5A5A"/>
<path d="M276.144 68.13C274.411 68.2764 272.767 68.039 271.212 67.4178C269.657 66.7965 268.364 65.8375 267.333 64.5406C266.303 63.2437 265.71 61.6792 265.555 59.847C265.449 58.5934 265.604 57.4148 266.02 56.3114C266.457 55.1818 267.034 54.1133 267.748 53.106C268.487 52.0966 269.231 51.1475 269.98 50.2587C270.376 49.7881 270.867 49.431 271.452 49.1873C272.036 48.9194 272.64 48.7591 273.266 48.7062C274.83 48.574 276.348 48.6156 277.821 48.8311C279.293 49.0466 280.628 49.4923 281.824 50.1681C283.042 50.8178 284.041 51.741 284.821 52.9377C285.599 54.1103 286.063 55.5885 286.214 57.3725C286.338 58.8431 286.138 60.2075 285.614 61.4658C285.091 62.7241 284.336 63.8319 283.35 64.7893C282.389 65.7447 281.279 66.5183 280.02 67.1103C278.783 67.6762 277.491 68.0161 276.144 68.13ZM275.082 64.177C276.406 64.0651 277.638 63.7303 278.778 63.1726C279.917 62.5908 280.819 61.7983 281.486 60.795C282.174 59.7656 282.46 58.5517 282.342 57.1535C282.238 55.924 281.79 54.9299 280.999 54.1712C280.232 53.4106 279.29 52.8831 278.175 52.5889C277.057 52.2706 275.933 52.1592 274.802 52.2548C274.224 52.3037 273.762 52.4277 273.415 52.627C273.069 52.8262 272.763 53.0827 272.499 53.3964C272.235 53.7101 271.926 54.0761 271.574 54.4944C270.959 55.2505 270.423 56.0728 269.965 56.9613C269.504 57.8257 269.319 58.7883 269.409 59.849C269.551 61.5366 270.16 62.7114 271.234 63.3733C272.307 64.0352 273.59 64.3031 275.082 64.177Z" fill="#5A5A5A"/>
<path d="M297.04 65.9996C296.005 66.0871 295.12 65.9433 294.386 65.5684C293.673 65.1673 293.094 64.6214 292.648 63.9307C292.202 63.24 291.859 62.4799 291.619 61.6503C291.401 60.7946 291.257 59.9449 291.185 59.1011L291.036 57.3292C291.029 57.2569 291.042 56.9766 291.074 56.4883C291.103 55.9759 291.129 55.4274 291.153 54.8427C291.2 54.256 291.235 53.8159 291.259 53.5226C291.303 53.1789 291.351 52.7499 291.405 52.2355C291.48 51.695 291.581 51.1645 291.707 50.644C291.854 50.0973 292.058 49.643 292.318 49.2811C292.601 48.893 292.958 48.6807 293.392 48.6441C294.041 48.5892 294.551 48.7404 294.921 49.0976C295.314 49.4528 295.534 49.9077 295.581 50.4622C295.62 50.9202 295.585 51.3723 295.478 51.8185C295.394 52.2626 295.323 52.7177 295.266 53.1839C295.175 54.1143 295.084 55.0446 294.993 55.9749C294.926 56.9032 294.932 57.8375 295.012 58.7777C295.04 59.1152 295.101 59.5471 295.194 60.0734C295.287 60.5998 295.459 61.0587 295.71 61.4502C295.961 61.8417 296.352 62.0151 296.881 61.9704C297.29 61.9358 297.749 61.6299 298.258 61.0528C298.79 60.4736 299.334 59.7357 299.888 58.839C300.467 57.9403 301.039 56.9693 301.605 55.9259C302.169 54.8585 302.689 53.8313 303.163 52.8443C303.659 51.8311 304.081 50.9457 304.429 50.1878C304.775 49.4059 305.02 48.8632 305.164 48.5597C305.334 48.2782 305.52 48.0439 305.722 47.8569C305.925 47.6698 306.194 47.562 306.531 47.5336C307.662 47.438 308.381 47.9114 308.687 48.9538L308.797 50.2557C308.887 51.3164 308.94 52.3802 308.958 53.4471C308.997 54.4878 309.059 55.5024 309.142 56.4908L309.323 58.6244C309.427 59.004 309.613 59.3403 309.88 59.6334C310.148 59.9265 310.391 60.2216 310.61 60.5187C310.851 60.7897 310.989 61.1301 311.023 61.5399C311.07 62.0944 310.941 62.5787 310.637 62.993C310.333 63.4072 309.904 63.6376 309.35 63.6844C308.628 63.7454 308.03 63.5532 307.557 63.1076C307.081 62.638 306.694 62.0758 306.396 61.4211C306.215 60.9994 306 60.4591 305.75 59.8004C305.523 59.1155 305.296 58.4426 305.07 57.7819C304.762 58.4392 304.406 59.1006 304.002 59.766C303.62 60.4053 303.213 61.0346 302.78 61.6539C302.092 62.6833 301.264 63.6395 300.296 64.5225C299.328 65.4056 298.243 65.8979 297.04 65.9996Z" fill="#5A5A5A"/>
<path d="M317.796 64.9737C317.363 65.0103 317.026 64.8931 316.785 64.6221C316.544 64.3511 316.371 64.0258 316.266 63.6462C316.159 63.2425 316.057 62.887 315.958 62.5797L315.732 59.9037C315.618 58.5536 315.563 57.1864 315.567 55.8021C315.569 54.3937 315.514 53.0265 315.402 51.7005C315.349 51.0737 315.238 50.4761 315.069 49.9077C314.899 49.3393 314.789 48.7537 314.738 48.151L314.656 47.1746C314.818 46.7967 315.048 46.5102 315.347 46.315C315.669 46.1178 316.011 46.0039 316.372 45.9734C316.902 45.9286 317.312 46.0518 317.603 46.3428C317.892 46.6097 318.102 46.9441 318.233 47.3458C318.388 47.7454 318.528 48.1099 318.653 48.4393C318.775 48.7446 318.947 48.9122 319.168 48.9421C319.827 48.425 320.451 47.9231 321.04 47.4363C321.653 46.9474 322.297 46.5409 322.973 46.2167C323.67 45.8664 324.452 45.6547 325.319 45.5814C325.752 45.5448 326.217 45.6026 326.715 45.7548C327.236 45.9049 327.693 46.1456 328.085 46.4767C328.474 46.7837 328.69 47.1903 328.733 47.6966C328.786 48.3234 328.572 48.8028 328.091 49.1348C327.634 49.4648 327.189 49.6481 326.756 49.6847C326.467 49.7091 326.185 49.6722 325.911 49.5741C325.636 49.4759 325.354 49.439 325.065 49.4634C324.223 49.5346 323.447 49.8187 322.738 50.3157C322.05 50.7866 321.454 51.3347 320.95 51.96C320.445 52.5854 320.046 53.1655 319.752 53.7002C319.674 53.9253 319.632 54.293 319.627 54.8034C319.622 55.3137 319.634 55.8954 319.665 56.5483C319.694 57.1772 319.722 57.7939 319.749 58.3987C319.8 59.0014 319.832 59.5207 319.844 59.9567C319.888 60.7543 319.868 61.5329 319.787 62.2924C319.728 63.0258 319.55 63.6479 319.254 64.1585C318.956 64.645 318.47 64.9168 317.796 64.9737Z" fill="#5A5A5A"/>
<path d="M353.958 61.0068C352.225 61.1533 350.733 60.8544 349.483 60.1103C348.254 59.3401 347.281 58.2933 346.564 56.97C345.868 55.6205 345.453 54.1502 345.318 52.5591C345.165 50.751 345.422 49.054 346.088 47.4681C346.778 45.8801 347.794 44.5681 349.136 43.532C350.5 42.4697 352.097 41.8613 353.926 41.7067C354.48 41.6599 355.098 41.6684 355.782 41.7319C356.488 41.7694 357.178 41.9053 357.853 42.1397C358.525 42.35 359.085 42.6668 359.533 43.0903C360.004 43.5117 360.271 44.0841 360.332 44.8073C360.377 45.3377 360.219 45.7638 359.858 46.0856C359.498 46.4075 359.041 46.5918 358.487 46.6386C357.91 46.6874 357.38 46.5865 356.899 46.3358C356.415 46.0611 355.932 45.7984 355.45 45.5477C354.967 45.2729 354.436 45.16 353.859 45.2088C353.064 45.2759 352.363 45.578 351.754 46.1151C351.145 46.6522 350.643 47.3137 350.249 48.0997C349.855 48.8857 349.561 49.7118 349.368 50.5779C349.197 51.4179 349.142 52.1996 349.203 52.9228C349.307 54.1523 349.628 55.0842 350.166 55.7186C350.726 56.3268 351.439 56.7279 352.304 56.9219C353.19 57.0897 354.163 57.1289 355.222 57.0394C356.209 56.956 357.107 56.6859 357.916 56.229C358.75 55.77 359.583 55.299 360.415 54.8159L361.137 54.7549C362.219 54.6634 362.807 55.1601 362.898 56.2449C362.953 56.8958 362.748 57.4717 362.281 57.9724C361.838 58.4712 361.245 58.9098 360.502 59.2883C359.756 59.6427 358.957 59.9408 358.105 60.1828C357.253 60.4248 356.457 60.6135 355.717 60.7489C354.977 60.8842 354.391 60.9702 353.958 61.0068Z" fill="#5A5A5A"/>
<path d="M374.433 60.1868C373.326 60.2804 372.269 60.1147 371.264 59.6898C370.259 59.2649 369.396 58.658 368.674 57.8691C367.951 57.0561 367.448 56.1154 367.163 55.0468L367.008 53.2025C366.894 51.8525 367.019 50.47 367.384 49.0552C367.749 47.6404 368.328 46.3167 369.121 45.0843C369.911 43.8277 370.891 42.798 372.059 41.9952C373.225 41.1682 374.542 40.6927 376.01 40.5686C376.612 40.5177 377.138 40.5825 377.59 40.7629C378.065 40.9412 378.494 41.1356 378.875 41.3462C379.279 41.5306 379.663 41.6317 380.028 41.6494C380.137 40.6447 380.346 39.9714 380.657 39.6295C380.965 39.2636 381.408 39.0562 381.986 39.0073C382.684 38.9484 383.172 39.1377 383.452 39.5754C383.753 39.987 383.932 40.5303 383.989 41.2053C384.101 42.5313 384.175 43.8362 384.211 45.12C384.271 46.4018 384.358 47.7177 384.472 49.0677C384.562 50.1285 384.715 51.2203 384.931 52.3432C385.147 53.4661 385.3 54.558 385.389 55.6187L385.454 56.3781C385.498 56.9085 385.432 57.4119 385.254 57.8882C385.098 58.3384 384.671 58.593 383.973 58.652C383.324 58.7069 382.838 58.5537 382.517 58.1924C382.217 57.8049 381.996 57.338 381.853 56.7917C381.732 56.2192 381.616 55.707 381.505 55.255L381.348 55.1226C380.599 56.0114 379.929 56.8208 379.336 57.5507C378.767 58.2786 378.115 58.8801 377.38 59.355C376.642 59.8058 375.66 60.0831 374.433 60.1868ZM373.763 56.5649C374.605 56.4938 375.378 56.1735 376.081 55.6042C376.806 55.0087 377.435 54.2757 377.968 53.4052C378.498 52.5106 378.893 51.591 379.152 50.6464C379.412 49.7018 379.508 48.8317 379.441 48.0362C379.39 47.4335 379.255 46.8379 379.035 46.2494C378.814 45.6369 378.48 45.1309 378.034 44.7315C377.613 44.3301 377.041 44.1599 376.319 44.221C375.525 44.2881 374.766 44.6314 374.043 45.251C373.344 45.8685 372.73 46.6367 372.202 47.5554C371.671 48.45 371.265 49.3827 370.984 50.3534C370.7 51.3 370.59 52.147 370.653 52.8944C370.704 53.4971 370.84 54.0927 371.059 54.6811C371.302 55.2675 371.646 55.7484 372.09 56.1236C372.531 56.4748 373.089 56.6219 373.763 56.5649Z" fill="#5A5A5A"/>
<path d="M392.314 58.6755C391.881 58.7121 391.544 58.5949 391.303 58.3239C391.062 58.0529 390.889 57.7276 390.784 57.348C390.677 56.9442 390.575 56.5887 390.476 56.2814L390.25 53.6054C390.136 52.2554 390.081 50.8882 390.085 49.5039C390.087 48.0954 390.032 46.7282 389.92 45.4023C389.867 44.7755 389.756 44.1779 389.587 43.6094C389.417 43.041 389.307 42.4555 389.256 41.8528L389.174 40.8764C389.336 40.4985 389.566 40.212 389.865 40.0168C390.187 39.8195 390.529 39.7057 390.89 39.6751C391.42 39.6304 391.83 39.7535 392.121 40.0446C392.41 40.3115 392.62 40.6458 392.751 41.0475C392.906 41.4472 393.046 41.8117 393.171 42.1411C393.294 42.4463 393.465 42.6139 393.686 42.6438C394.345 42.1268 394.969 41.6249 395.558 41.138C396.171 40.6492 396.816 40.2427 397.491 39.9185C398.188 39.5682 398.97 39.3564 399.837 39.2832C400.27 39.2466 400.735 39.3044 401.233 39.4565C401.755 39.6067 402.211 39.8473 402.603 40.1784C402.992 40.4854 403.208 40.8921 403.251 41.3983C403.304 42.0252 403.09 42.5046 402.609 42.8366C402.152 43.1665 401.707 43.3498 401.274 43.3864C400.985 43.4109 400.704 43.374 400.429 43.2758C400.154 43.1776 399.872 43.1408 399.583 43.1652C398.741 43.2364 397.965 43.5205 397.256 44.0175C396.568 44.4883 395.972 45.0364 395.468 45.6618C394.963 46.2872 394.564 46.8672 394.27 47.402C394.192 47.6271 394.15 47.9948 394.145 48.5051C394.14 49.0155 394.152 49.5971 394.183 50.2501C394.212 50.8789 394.24 51.4957 394.267 52.1004C394.318 52.7031 394.35 53.2225 394.362 53.6584C394.406 54.456 394.387 55.2346 394.305 55.9942C394.246 56.7276 394.068 57.3496 393.772 57.8602C393.474 58.3468 392.988 58.6185 392.314 58.6755Z" fill="#5A5A5A"/>
<path d="M411.992 57.3765C411.246 57.4396 410.673 57.2573 410.273 56.8298C409.873 56.4023 409.586 55.8681 409.41 55.2274C409.257 54.5605 409.157 53.9498 409.11 53.3953L408.994 52.0212C408.866 50.5023 408.76 48.9695 408.678 47.4225C408.62 45.8735 408.527 44.2059 408.401 42.4199C407.801 42.4949 407.287 42.5748 406.858 42.6596C406.453 42.7424 406.034 42.8021 405.6 42.8387C404.493 42.9323 403.894 42.4366 403.802 41.3517C403.768 40.9419 403.807 40.5501 403.921 40.1763C404.033 39.7783 404.313 39.5118 404.763 39.3767L407.878 38.385C408.279 38.254 408.522 37.9785 408.608 37.5585C408.716 37.1124 408.746 36.612 408.699 36.0576C408.674 35.4769 408.663 34.9073 408.664 34.3488C408.689 33.7882 408.831 33.3149 409.089 32.9289C409.371 32.5408 409.873 32.3163 410.595 32.2552C411.101 32.2125 411.486 32.3257 411.751 32.5946C412.038 32.8374 412.246 33.1476 412.375 33.5252C412.504 33.9028 412.584 34.2724 412.614 34.634C412.618 34.6823 412.621 34.852 412.621 35.1434C412.619 35.4106 412.606 35.6788 412.58 35.9481C412.578 36.2153 412.58 36.3851 412.587 36.4574L412.684 37.6146L417.088 37.2424C417.618 37.1976 418.048 37.4162 418.38 37.898C418.709 38.3558 418.895 38.8378 418.938 39.3441C418.946 39.4405 418.926 39.6244 418.876 39.8957C418.826 40.1669 418.715 40.4313 418.543 40.6886C418.369 40.9219 418.113 41.0527 417.776 41.0812L413.156 41.4717C413.132 41.4737 413.086 41.5019 413.018 41.5562C412.947 41.5864 412.869 41.6659 412.783 41.7946L412.72 41.9092C412.655 42.5702 412.615 43.1077 412.602 43.5216C412.586 43.9114 412.581 44.2761 412.585 44.6157C412.612 44.9291 412.644 45.3148 412.683 45.7728C412.795 47.0988 412.931 48.4227 413.092 49.7446C413.276 51.0644 413.43 52.4596 413.554 53.9302C413.595 54.4124 413.601 54.9096 413.571 55.422C413.542 55.9344 413.409 56.3705 413.173 56.7304C412.939 57.1144 412.545 57.3298 411.992 57.3765Z" fill="#5A5A5A"/>
<path d="M441.018 31.7599C440.296 31.8209 439.651 31.6448 439.083 31.2314C438.515 30.8181 438.193 30.1655 438.118 29.2735C438.042 28.3815 438.302 27.7282 438.897 27.3137C439.493 26.8992 440.115 26.6645 440.765 26.6096C441.511 26.5466 442.156 26.7227 442.7 27.138C443.268 27.5514 443.591 28.2161 443.668 29.1322C443.742 30.0001 443.481 30.6412 442.886 31.0557C442.314 31.4682 441.692 31.7029 441.018 31.7599ZM441.411 53.6153C440.954 53.6539 440.585 53.4423 440.303 52.9805C440.022 52.5187 439.801 52.0518 439.64 51.5798L439.245 46.9149C439.235 46.7944 439.233 46.4789 439.238 45.9686C439.265 45.4321 439.286 44.8113 439.299 44.106C439.334 43.3746 439.36 42.6804 439.377 42.0234C439.416 41.3403 439.444 40.8038 439.459 40.414C439.491 39.9257 439.53 39.3882 439.577 38.8015C439.649 38.2127 439.811 37.6892 440.063 37.2308C440.315 36.7725 440.706 36.5209 441.235 36.4762C441.813 36.4274 442.234 36.5374 442.499 36.8064C442.786 37.0492 442.971 37.3735 443.054 37.7793C443.137 38.185 443.196 38.6049 443.233 39.0388L443.34 40.3045C443.344 40.3527 443.341 40.4622 443.331 40.633C443.32 40.7797 443.298 40.9515 443.266 41.1484C443.169 42.0065 443.089 42.6445 443.028 43.0624C442.988 43.4543 442.957 43.7969 442.933 44.0902C442.931 44.3574 442.951 44.7321 442.992 45.2143C443.016 45.5036 443.047 45.8652 443.083 46.2992C443.144 46.7311 443.204 47.2966 443.263 47.9957C443.289 48.3091 443.328 48.6215 443.379 48.9329C443.427 49.2201 443.466 49.5325 443.494 49.87C443.525 50.2317 443.521 50.6204 443.484 51.0364C443.438 51.6472 443.269 52.22 442.974 52.7547C442.678 53.2654 442.157 53.5522 441.411 53.6153Z" fill="#5A5A5A"/>
<path d="M456.148 53.4623C455.474 53.5193 454.699 53.5241 453.823 53.4768C452.948 53.4536 452.09 53.3319 451.247 53.1117C450.404 52.8916 449.682 52.5156 449.079 51.9838C448.501 51.45 448.172 50.7129 448.093 49.7727C448.04 49.1459 448.15 48.5903 448.424 48.1058C448.697 47.5972 449.182 47.3134 449.879 47.2544C450.313 47.2178 450.659 47.2978 450.918 47.4944C451.177 47.6911 451.404 47.939 451.599 48.2381C451.818 48.5353 452.062 48.8424 452.331 49.1596C452.622 49.4506 452.993 49.6863 453.445 49.8667C453.92 50.045 454.543 50.1016 455.313 50.0365C455.867 49.9898 456.463 49.8786 457.103 49.7032C457.765 49.5016 458.321 49.1996 458.771 48.7973C459.222 48.395 459.421 47.8805 459.368 47.2537C459.321 46.6992 459.056 46.2846 458.572 46.0098C458.086 45.7109 457.472 45.4715 456.73 45.2914C455.988 45.1114 455.209 44.9343 454.395 44.7604C453.578 44.5623 452.793 44.3009 452.038 43.9762C451.284 43.6515 450.651 43.1951 450.141 42.6069C449.629 41.9946 449.33 41.1822 449.244 40.1697C449.165 39.2295 449.325 38.4025 449.725 37.6889C450.126 36.9752 450.668 36.3709 451.354 35.8759C452.061 35.3548 452.827 34.9622 453.653 34.6982C454.501 34.408 455.322 34.2293 456.117 34.1622C456.574 34.1236 457.108 34.1391 457.72 34.2088C458.33 34.2544 458.934 34.3733 459.532 34.5656C460.13 34.7578 460.639 35.0547 461.061 35.4561C461.481 35.8334 461.717 36.3354 461.77 36.9622C461.864 38.0712 461.357 38.6724 460.25 38.766L459.781 38.8057C459.024 38.4569 458.384 38.1953 457.861 38.0211C457.337 37.8468 456.75 37.7871 456.1 37.842C455.812 37.8664 455.406 37.9372 454.882 38.0543C454.381 38.1452 453.935 38.3164 453.544 38.568C453.153 38.8195 452.978 39.1864 453.019 39.6685C453.054 40.0784 453.311 40.3966 453.791 40.6231C454.27 40.8497 454.881 41.053 455.624 41.233C456.366 41.4131 457.146 41.6142 457.965 41.8364C458.784 42.0585 459.573 42.3682 460.334 42.7652C461.092 43.1381 461.729 43.6428 462.243 44.2791C462.757 44.9155 463.057 45.74 463.143 46.7525C463.267 48.2231 462.994 49.4359 462.323 50.391C461.677 51.344 460.793 52.0742 459.673 52.5817C458.575 53.063 457.4 53.3566 456.148 53.4623Z" fill="#5A5A5A"/>
<path d="M312.819 112.114C311.087 112.26 309.464 112.13 307.951 111.724C306.46 111.291 305.22 110.522 304.23 109.416C303.237 108.286 302.661 106.769 302.5 104.864C302.377 103.418 302.487 101.988 302.828 100.575C303.193 99.1603 303.774 97.8607 304.571 96.6765C305.365 95.4682 306.361 94.4857 307.557 93.729C308.751 92.9482 310.131 92.4917 311.695 92.3595C312.754 92.27 313.759 92.4036 314.71 92.7602C315.683 93.0907 316.481 93.6424 317.104 94.4153C317.749 95.1621 318.12 96.1141 318.218 97.2712C318.311 98.3802 318.173 99.4603 317.801 100.511C317.429 101.563 316.88 102.52 316.153 103.382C315.426 104.245 314.577 104.948 313.605 105.491C312.655 106.009 311.638 106.313 310.555 106.405C310.387 106.419 310.011 106.414 309.427 106.391C308.841 106.343 308.376 106.285 308.031 106.218C307.786 106.19 307.586 106.109 307.429 105.977C307.379 105.957 307.292 105.928 307.167 105.89C307.041 105.828 306.953 105.799 306.905 105.803C307.133 106.488 307.532 107.049 308.102 107.486C308.694 107.898 309.348 108.182 310.065 108.34C310.805 108.496 311.5 108.547 312.15 108.492C312.607 108.453 313.062 108.39 313.515 108.303C313.99 108.19 314.493 108.112 315.022 108.067C315.551 108.022 316.021 108.128 316.43 108.385C316.84 108.642 317.072 109.095 317.127 109.746C317.172 110.277 317.038 110.701 316.726 111.019C316.437 111.334 316.045 111.562 315.547 111.701C315.074 111.838 314.585 111.928 314.08 111.971C313.6 112.035 313.18 112.083 312.819 112.114ZM310.201 102.21C310.923 102.149 311.621 101.956 312.297 101.632C312.994 101.282 313.548 100.81 313.959 100.217C314.393 99.6219 314.576 98.9145 314.506 98.0948C314.447 97.3957 314.184 96.8595 313.716 96.4863C313.272 96.111 312.702 95.9529 312.004 96.0119C311.378 96.0647 310.73 96.2894 310.061 96.6859C309.392 97.0824 308.767 97.5723 308.186 98.1556C307.629 98.7368 307.185 99.3571 306.853 100.016C306.518 100.652 306.376 101.259 306.425 101.837L306.437 101.982C307.071 102.025 307.707 102.093 308.345 102.185C308.98 102.252 309.599 102.261 310.201 102.21Z" fill="#5A5A5A"/>
<path d="M326.846 110.017C326.317 110.062 325.833 109.933 325.396 109.63C324.98 109.301 324.75 108.871 324.705 108.341C324.638 107.545 324.597 106.772 324.582 106.021C324.591 105.267 324.563 104.505 324.497 103.733L324.296 101.346C324.212 100.358 324.094 99.3847 323.94 98.4265C323.808 97.4422 323.569 96.479 323.223 95.5371C323.102 95.2559 322.993 94.9617 322.894 94.6544C322.817 94.3209 322.765 93.9854 322.736 93.6479C322.695 93.1658 322.775 92.6734 322.975 92.1709C323.173 91.6443 323.585 91.3546 324.21 91.3017C324.716 91.259 325.141 91.4173 325.486 91.7766C325.83 92.1117 326.109 92.5495 326.325 93.0897C326.538 93.6058 326.704 94.1381 326.823 94.6865C326.964 95.2087 327.086 95.6476 327.189 96.0031C327.263 96.3125 327.364 96.6439 327.491 96.9973C327.618 97.3508 327.695 97.6963 327.724 98.0338C327.726 98.058 327.756 98.1282 327.815 98.2447C327.873 98.3612 327.931 98.4777 327.989 98.5941C328.255 98.0132 328.553 97.381 328.883 96.6976C329.236 95.988 329.628 95.3235 330.06 94.7042C330.515 94.0588 331.026 93.5178 331.595 93.0813C332.188 92.6427 332.858 92.3918 333.604 92.3288C334.374 92.2637 334.968 92.4077 335.385 92.7609C335.825 93.088 336.189 93.5186 336.476 94.0527C336.762 94.5627 337.047 95.0728 337.333 95.5828C337.449 95.8158 337.531 96.0638 337.577 96.327C337.622 96.566 337.703 96.8141 337.822 97.0711L338.17 96.4589C338.594 95.7432 339.074 94.9622 339.608 94.1158C340.165 93.2432 340.803 92.4851 341.524 91.8414C342.244 91.1736 343.084 90.7991 344.047 90.7177C344.817 90.6526 345.486 90.8267 346.054 91.24C346.645 91.6272 347.138 92.1561 347.534 92.8268C347.954 93.4954 348.28 94.1963 348.511 94.9294C348.743 95.6625 348.885 96.3424 348.938 96.9692L349.586 104.636C349.617 104.997 349.59 105.4 349.506 105.844C349.445 106.262 349.295 106.639 349.057 106.975C348.816 107.286 348.456 107.463 347.974 107.503C347.421 107.55 346.959 107.395 346.59 107.038C346.22 106.68 346.017 106.285 345.981 105.851L345.424 99.2693C345.418 99.197 345.393 99.0413 345.348 98.8023C345.304 98.5632 345.246 98.3132 345.176 98.052C345.129 97.7889 345.101 97.597 345.091 97.4765C345.075 97.2836 345.025 96.9843 344.942 96.5786C344.86 96.1728 344.731 95.7952 344.556 95.4458C344.381 95.0964 344.149 94.9339 343.86 94.9583L343.535 94.9857C342.866 95.6736 342.376 96.322 342.064 96.9311C341.75 97.5161 341.52 98.094 341.374 98.6647C341.228 99.2355 341.098 99.8414 340.982 100.482C340.865 101.099 340.68 101.783 340.429 102.532C340.313 103.173 340.086 103.787 339.748 104.374C339.432 104.935 338.949 105.243 338.299 105.298C337.674 105.351 337.178 105.223 336.813 104.914C336.469 104.579 336.192 104.165 335.981 103.673C335.793 103.179 335.632 102.707 335.497 102.257C335.431 102.044 335.316 101.69 335.153 101.194C334.99 100.698 334.811 100.154 334.615 99.5638C334.444 98.9712 334.276 98.4149 334.111 97.8947C333.944 97.3504 333.825 96.9476 333.754 96.6865C333.591 96.4817 333.438 96.3855 333.293 96.3977C333.077 96.416 332.861 96.592 332.647 96.9257C332.433 97.2595 332.278 97.5761 332.182 97.8756C332.056 98.1047 331.884 98.5077 331.666 99.0846C331.447 99.6374 331.238 100.177 331.04 100.704C330.866 101.228 330.75 101.578 330.692 101.753C330.656 101.902 330.541 102.263 330.348 102.838C330.178 103.411 329.979 104.071 329.752 104.819C329.522 105.542 329.311 106.204 329.12 106.802C328.928 107.401 328.804 107.8 328.748 107.999C328.546 108.478 328.329 108.921 328.097 109.329C327.889 109.735 327.472 109.965 326.846 110.017Z" fill="#5A5A5A"/>
<path d="M357.953 118.023C357.568 118.056 357.246 117.974 356.987 117.777C356.728 117.58 356.472 117.274 356.219 116.859L356.008 114.363C355.81 112.025 355.76 109.71 355.857 107.42C355.979 105.127 355.937 102.775 355.734 100.365L355.407 96.4954C355.216 96.2444 354.994 96.0568 354.741 95.9325C354.512 95.8061 354.305 95.6536 354.121 95.475C353.936 95.2964 353.827 95.0142 353.795 94.6285C353.756 94.1704 353.786 93.8037 353.883 93.5284C354.005 93.251 354.33 92.7865 354.856 92.135L354.545 88.4465C354.512 88.0608 354.702 87.729 355.115 87.4514C355.552 87.1716 355.927 87.0185 356.239 86.9921C356.649 86.9575 356.972 87.0516 357.209 87.2744C357.443 87.4731 357.634 87.724 357.781 88.0273C357.928 88.3305 358.06 88.5986 358.176 88.8315C358.291 89.0404 358.432 89.1377 358.601 89.1234C358.842 89.1031 359.088 89.0094 359.341 88.8424C359.617 88.6733 359.873 88.5425 360.107 88.4498C360.294 88.3612 360.54 88.2675 360.847 88.1688C361.152 88.0459 361.446 87.9481 361.731 87.8755C362.014 87.7788 362.179 87.7284 362.227 87.7243L363.815 87.5901C365.307 87.464 366.726 87.6112 368.07 88.0317C369.412 88.4282 370.537 89.1222 371.445 90.1138C372.353 91.1054 372.876 92.4208 373.015 94.0602C373.137 95.5067 372.971 96.9776 372.515 98.4729C372.058 99.944 371.375 101.325 370.466 102.616C369.555 103.883 368.468 104.934 367.206 105.769C365.966 106.578 364.611 107.044 363.143 107.168C362.686 107.207 362.212 107.186 361.72 107.106C361.253 107.024 360.779 107.004 360.297 107.045L359.972 107.072C359.999 107.677 360.008 108.356 359.999 109.109C360.016 109.885 360.027 110.588 360.032 111.219C360.037 111.85 360.051 112.298 360.073 112.563C360.081 112.659 360.076 112.745 360.058 112.819L360.041 113.039C360.021 113.381 359.989 113.723 359.946 114.067C359.928 114.433 359.922 114.785 359.926 115.125C359.884 115.493 359.797 115.888 359.663 116.313C359.555 116.759 359.357 117.14 359.069 117.455C358.806 117.793 358.435 117.982 357.953 118.023ZM362.636 103.314C363.623 103.231 364.529 102.911 365.354 102.356C366.178 101.776 366.893 101.06 367.499 100.208C368.104 99.3313 368.559 98.4066 368.865 97.4339C369.168 96.437 369.281 95.4805 369.204 94.5644C369.094 93.2626 368.557 92.361 367.594 91.8597C366.654 91.3564 365.559 91.1576 364.308 91.2633C363.85 91.302 363.419 91.3627 363.014 91.4455C362.607 91.5042 362.23 91.6332 361.884 91.8324C360.609 92.5229 359.822 93.245 359.522 93.9987C359.22 94.7284 359.109 95.5633 359.188 96.5035C359.221 96.8893 359.269 97.3101 359.331 97.7661C359.392 98.198 359.443 98.6551 359.484 99.1372L359.725 101.994C359.76 102.404 359.944 102.716 360.277 102.931C360.608 103.121 360.994 103.246 361.436 103.306C361.899 103.34 362.299 103.343 362.636 103.314Z" fill="#5A5A5A"/>
<path d="M383.978 106.281C383.232 106.344 382.659 106.162 382.259 105.735C381.86 105.307 381.572 104.773 381.397 104.132C381.243 103.465 381.143 102.855 381.096 102.3L380.98 100.926C380.852 99.4072 380.747 97.8743 380.664 96.3273C380.606 94.7783 380.514 93.1107 380.387 91.3247C379.787 91.3997 379.273 91.4796 378.844 91.5644C378.439 91.6472 378.02 91.7069 377.587 91.7435C376.48 91.8371 375.88 91.3414 375.789 90.2566C375.754 89.8467 375.794 89.4549 375.907 89.0811C376.019 88.6831 376.3 88.4166 376.749 88.2816L379.864 87.2898C380.265 87.1588 380.508 86.8833 380.594 86.4633C380.702 86.0172 380.732 85.5168 380.685 84.9624C380.661 84.3817 380.649 83.8122 380.65 83.2536C380.675 82.693 380.817 82.2197 381.075 81.8337C381.358 81.4456 381.86 81.2211 382.582 81.1601C383.087 81.1173 383.472 81.2305 383.737 81.4994C384.024 81.7422 384.232 82.0524 384.361 82.43C384.49 82.8076 384.57 83.1772 384.6 83.5389C384.605 83.5871 384.607 83.7568 384.607 84.0482C384.605 84.3154 384.592 84.5836 384.566 84.8529C384.564 85.1201 384.567 85.2899 384.573 85.3622L384.671 86.5194L389.074 86.1472C389.604 86.1024 390.034 86.321 390.366 86.8028C390.695 87.2606 390.882 87.7426 390.924 88.2489C390.933 88.3453 390.912 88.5292 390.862 88.8005C390.812 89.0718 390.701 89.3361 390.529 89.5934C390.355 89.8267 390.099 89.9575 389.762 89.986L385.142 90.3765C385.118 90.3786 385.072 90.4067 385.004 90.4611C384.934 90.4913 384.855 90.5707 384.769 90.6994L384.706 90.814C384.641 91.4751 384.602 92.0125 384.588 92.4264C384.573 92.8162 384.567 93.1809 384.572 93.5205C384.598 93.8339 384.631 94.2196 384.669 94.6776C384.781 96.0036 384.918 97.3275 385.078 98.6494C385.262 99.9692 385.416 101.364 385.541 102.835C385.581 103.317 385.587 103.814 385.558 104.327C385.528 104.839 385.395 105.275 385.159 105.635C384.925 106.019 384.531 106.235 383.978 106.281Z" fill="#5A5A5A"/>
<path d="M402.273 113.549C401.84 113.585 401.497 113.396 401.244 112.98C400.992 112.589 400.85 112.188 400.815 111.778C400.75 111.007 400.856 110.257 401.134 109.53C401.414 108.826 401.656 108.114 401.862 107.392C401.956 107.068 402.066 106.646 402.191 106.126C402.343 105.627 402.482 105.118 402.607 104.598C402.757 104.075 402.877 103.628 402.967 103.256C403.056 102.884 403.099 102.674 403.095 102.626L403.086 102.518C401.754 102.533 400.618 102.277 399.676 101.75C398.735 101.222 397.961 100.523 397.354 99.6513C396.747 98.7799 396.266 97.813 395.909 96.7505C395.551 95.6639 395.276 94.5582 395.084 93.4332C394.916 92.3063 394.79 91.2486 394.706 90.2601C394.68 89.9467 394.657 89.5359 394.639 89.0276C394.618 88.4952 394.633 87.9597 394.685 87.4212C394.76 86.8806 394.903 86.4194 395.113 86.0374C395.347 85.6534 395.693 85.4421 396.15 85.4035C397.04 85.3282 397.645 85.6049 397.965 86.2334C398.309 86.8599 398.513 87.5589 398.579 88.3304C398.623 88.8607 398.629 89.358 398.596 89.8221C398.586 90.2843 398.605 90.7926 398.652 91.3471L398.682 91.7087C398.697 91.8774 398.763 92.236 398.882 92.7844C399.001 93.3328 399.122 93.8932 399.243 94.4657C399.388 95.0361 399.497 95.464 399.569 95.7492C399.757 96.5346 400.057 97.2134 400.468 97.7856C400.878 98.3337 401.408 98.5803 402.058 98.5253C402.828 98.4603 403.476 98.102 404.003 97.4504C404.554 96.7969 405.017 95.9686 405.393 94.9657C405.792 93.9607 406.164 92.9095 406.507 91.8121C406.849 90.6907 407.196 89.6295 407.547 88.6285C407.899 87.6276 408.302 86.8044 408.756 86.159C409.235 85.5116 409.799 85.1604 410.449 85.1055C411.532 85.0139 412.124 85.5709 412.226 86.7763C412.295 87.5959 412.229 88.3906 412.027 89.1604C411.85 89.928 411.598 90.6777 411.272 91.4094C410.97 92.1391 410.643 92.8587 410.291 93.5683C409.939 94.2779 409.636 94.9955 409.383 95.721C408.593 97.8516 407.881 100.036 407.246 102.275C406.634 104.488 406.046 106.711 405.483 108.943C405.338 109.514 405.149 110.149 404.917 110.849C404.685 111.548 404.361 112.158 403.945 112.679C403.552 113.198 402.995 113.488 402.273 113.549Z" fill="#5A5A5A"/>
<path d="M252.051 70.3484C251.449 70.3992 250.932 70.1637 250.501 69.6417C250.091 69.0937 249.802 68.5475 249.635 68.0032L249.482 66.1951C249.384 65.0379 249.407 63.8705 249.55 62.693C249.69 61.4914 249.713 60.324 249.617 59.1909L249.59 58.8655C247.967 57.4487 246.623 56.0205 245.556 54.581C244.513 53.1395 243.58 51.4216 242.757 49.4274C242.632 49.098 242.507 48.7566 242.38 48.4031C242.277 48.0476 242.209 47.6769 242.177 47.2912C242.128 46.7126 242.255 46.2162 242.56 45.802C242.886 45.3617 243.314 45.1191 243.843 45.0744C244.469 45.0215 244.977 45.1486 245.366 45.4556C245.756 45.7626 246.068 46.1611 246.303 46.6511C246.563 47.139 246.776 47.6552 246.943 48.1995C247.134 48.7418 247.321 49.2238 247.502 49.6455C247.596 49.9046 247.801 50.3243 248.117 50.9046C248.433 51.4849 248.8 52.0974 249.218 52.7419C249.636 53.3864 250.058 53.9335 250.483 54.3831C250.909 54.8327 251.302 55.0423 251.663 55.0117C252 54.9833 252.333 54.7609 252.661 54.3447C252.988 53.9043 253.296 53.3927 253.586 52.8097C253.874 52.2027 254.129 51.6348 254.351 51.1062C254.571 50.5534 254.743 50.1504 254.867 49.8971C255.029 49.5192 255.22 49.0539 255.439 48.5011C255.657 47.9243 255.912 47.3564 256.204 46.7976C256.52 46.2367 256.881 45.7692 257.285 45.3951C257.688 44.9968 258.142 44.7764 258.647 44.7337C258.984 44.7052 259.304 44.7631 259.607 44.9075C259.934 45.0498 260.199 45.3067 260.4 45.6782L260.476 46.5822C260.523 47.1367 260.483 47.6742 260.358 48.1947C260.254 48.6891 260.09 49.1885 259.866 49.693C259.722 49.9966 259.493 50.4408 259.179 51.0258C258.889 51.6088 258.566 52.231 258.21 52.8924C257.852 53.5296 257.502 54.1177 257.159 54.6565C256.839 55.1692 256.58 55.5431 256.382 55.7784C256.338 55.8307 256.173 56.0388 255.889 56.4028C255.629 56.7647 255.368 57.1146 255.105 57.4524C254.843 57.7902 254.679 57.9983 254.613 58.0767C254.262 58.5191 254.028 59.1824 253.908 60.0665C253.787 60.9266 253.722 61.879 253.714 62.9238C253.703 63.9444 253.701 64.9279 253.709 65.8743C253.74 66.8185 253.72 67.5851 253.648 68.1738C253.546 69.5422 253.013 70.267 252.051 70.3484Z" stroke="#5A5A5A" stroke-width="2"/>
<path d="M276.144 68.13C274.411 68.2764 272.767 68.039 271.212 67.4178C269.657 66.7965 268.364 65.8375 267.333 64.5406C266.303 63.2437 265.71 61.6792 265.555 59.847C265.449 58.5934 265.604 57.4148 266.02 56.3114C266.457 55.1818 267.034 54.1133 267.748 53.106C268.487 52.0966 269.231 51.1475 269.98 50.2587C270.376 49.7881 270.867 49.431 271.452 49.1873C272.036 48.9194 272.64 48.7591 273.266 48.7062C274.83 48.574 276.348 48.6156 277.821 48.8311C279.293 49.0466 280.628 49.4923 281.824 50.1681C283.042 50.8178 284.041 51.741 284.821 52.9377C285.599 54.1103 286.063 55.5885 286.214 57.3725C286.338 58.8431 286.138 60.2075 285.614 61.4658C285.091 62.7241 284.336 63.8319 283.35 64.7893C282.389 65.7447 281.279 66.5183 280.02 67.1103C278.783 67.6762 277.491 68.0161 276.144 68.13ZM275.082 64.177C276.406 64.0651 277.638 63.7303 278.778 63.1726C279.917 62.5908 280.819 61.7983 281.486 60.795C282.174 59.7656 282.46 58.5517 282.342 57.1535C282.238 55.924 281.79 54.9299 280.999 54.1712C280.232 53.4106 279.29 52.8831 278.175 52.5889C277.057 52.2706 275.933 52.1592 274.802 52.2548C274.224 52.3037 273.762 52.4277 273.415 52.627C273.069 52.8262 272.763 53.0827 272.499 53.3964C272.235 53.7101 271.926 54.0761 271.574 54.4944C270.959 55.2505 270.423 56.0728 269.965 56.9613C269.504 57.8257 269.319 58.7883 269.409 59.849C269.551 61.5366 270.16 62.7114 271.234 63.3733C272.307 64.0352 273.59 64.3031 275.082 64.177Z" stroke="#5A5A5A" stroke-width="2"/>
<path d="M297.04 65.9996C296.005 66.0871 295.12 65.9433 294.386 65.5684C293.673 65.1673 293.094 64.6214 292.648 63.9307C292.202 63.24 291.859 62.4799 291.619 61.6503C291.401 60.7946 291.257 59.9449 291.185 59.1011L291.036 57.3292C291.029 57.2569 291.042 56.9766 291.074 56.4883C291.103 55.9759 291.129 55.4274 291.153 54.8427C291.2 54.256 291.235 53.8159 291.259 53.5226C291.303 53.1789 291.351 52.7499 291.405 52.2355C291.48 51.695 291.581 51.1645 291.707 50.644C291.854 50.0973 292.058 49.643 292.318 49.2811C292.601 48.893 292.958 48.6807 293.392 48.6441C294.041 48.5892 294.551 48.7404 294.921 49.0976C295.314 49.4528 295.534 49.9077 295.581 50.4622C295.62 50.9202 295.585 51.3723 295.478 51.8185C295.394 52.2626 295.323 52.7177 295.266 53.1839C295.175 54.1143 295.084 55.0446 294.993 55.9749C294.926 56.9032 294.932 57.8375 295.012 58.7777C295.04 59.1152 295.101 59.5471 295.194 60.0734C295.287 60.5998 295.459 61.0587 295.71 61.4502C295.961 61.8417 296.352 62.0151 296.881 61.9704C297.29 61.9358 297.749 61.6299 298.258 61.0528C298.79 60.4736 299.334 59.7357 299.888 58.839C300.467 57.9403 301.039 56.9693 301.605 55.9259C302.169 54.8585 302.689 53.8313 303.163 52.8443C303.659 51.8311 304.081 50.9457 304.429 50.1878C304.775 49.4059 305.02 48.8632 305.164 48.5597C305.334 48.2782 305.52 48.0439 305.722 47.8569C305.925 47.6698 306.194 47.562 306.531 47.5336C307.662 47.438 308.381 47.9114 308.687 48.9538L308.797 50.2557C308.887 51.3164 308.94 52.3802 308.958 53.4471C308.997 54.4878 309.059 55.5024 309.142 56.4908L309.323 58.6244C309.427 59.004 309.613 59.3403 309.88 59.6334C310.148 59.9265 310.391 60.2216 310.61 60.5187C310.851 60.7897 310.989 61.1301 311.023 61.5399C311.07 62.0944 310.941 62.5787 310.637 62.993C310.333 63.4072 309.904 63.6376 309.35 63.6844C308.628 63.7454 308.03 63.5532 307.557 63.1076C307.081 62.638 306.694 62.0758 306.396 61.4211C306.215 60.9994 306 60.4591 305.75 59.8004C305.523 59.1155 305.296 58.4426 305.07 57.7819C304.762 58.4392 304.406 59.1006 304.002 59.766C303.62 60.4053 303.213 61.0346 302.78 61.6539C302.092 62.6833 301.264 63.6395 300.296 64.5225C299.328 65.4056 298.243 65.8979 297.04 65.9996Z" stroke="#5A5A5A" stroke-width="2"/>
<path d="M317.796 64.9737C317.363 65.0103 317.026 64.8931 316.785 64.6221C316.544 64.3511 316.371 64.0258 316.266 63.6462C316.159 63.2425 316.057 62.887 315.958 62.5797L315.732 59.9037C315.618 58.5536 315.563 57.1864 315.567 55.8021C315.569 54.3937 315.514 53.0265 315.402 51.7005C315.349 51.0737 315.238 50.4761 315.069 49.9077C314.899 49.3393 314.789 48.7537 314.738 48.151L314.656 47.1746C314.818 46.7967 315.048 46.5102 315.347 46.315C315.669 46.1178 316.011 46.0039 316.372 45.9734C316.902 45.9286 317.312 46.0518 317.603 46.3428C317.892 46.6097 318.102 46.9441 318.233 47.3458C318.388 47.7454 318.528 48.1099 318.653 48.4393C318.775 48.7446 318.947 48.9122 319.168 48.9421C319.827 48.425 320.451 47.9231 321.04 47.4363C321.653 46.9474 322.297 46.5409 322.973 46.2167C323.67 45.8664 324.452 45.6547 325.319 45.5814C325.752 45.5448 326.217 45.6026 326.715 45.7548C327.236 45.9049 327.693 46.1456 328.085 46.4767C328.474 46.7837 328.69 47.1903 328.733 47.6966C328.786 48.3234 328.572 48.8028 328.091 49.1348C327.634 49.4648 327.189 49.6481 326.756 49.6847C326.467 49.7091 326.185 49.6722 325.911 49.5741C325.636 49.4759 325.354 49.439 325.065 49.4634C324.223 49.5346 323.447 49.8187 322.738 50.3157C322.05 50.7866 321.454 51.3347 320.95 51.96C320.445 52.5854 320.046 53.1655 319.752 53.7002C319.674 53.9253 319.632 54.293 319.627 54.8034C319.622 55.3137 319.634 55.8954 319.665 56.5483C319.694 57.1772 319.722 57.7939 319.749 58.3987C319.8 59.0014 319.832 59.5207 319.844 59.9567C319.888 60.7543 319.868 61.5329 319.787 62.2924C319.728 63.0258 319.55 63.6479 319.254 64.1585C318.956 64.645 318.47 64.9168 317.796 64.9737Z" stroke="#5A5A5A" stroke-width="2"/>
<path d="M353.958 61.0068C352.225 61.1533 350.733 60.8544 349.483 60.1103C348.254 59.3401 347.281 58.2933 346.564 56.97C345.868 55.6205 345.453 54.1502 345.318 52.5591C345.165 50.751 345.422 49.054 346.088 47.4681C346.778 45.8801 347.794 44.5681 349.136 43.532C350.5 42.4697 352.097 41.8613 353.926 41.7067C354.48 41.6599 355.098 41.6684 355.782 41.7319C356.488 41.7694 357.178 41.9053 357.853 42.1397C358.525 42.35 359.085 42.6668 359.533 43.0903C360.004 43.5117 360.271 44.0841 360.332 44.8073C360.377 45.3377 360.219 45.7638 359.858 46.0856C359.498 46.4075 359.041 46.5918 358.487 46.6386C357.91 46.6874 357.38 46.5865 356.899 46.3358C356.415 46.0611 355.932 45.7984 355.45 45.5477C354.967 45.2729 354.436 45.16 353.859 45.2088C353.064 45.2759 352.363 45.578 351.754 46.1151C351.145 46.6522 350.643 47.3137 350.249 48.0997C349.855 48.8857 349.561 49.7118 349.368 50.5779C349.197 51.4179 349.142 52.1996 349.203 52.9228C349.307 54.1523 349.628 55.0842 350.166 55.7186C350.726 56.3268 351.439 56.7279 352.304 56.9219C353.19 57.0897 354.163 57.1289 355.222 57.0394C356.209 56.956 357.107 56.6859 357.916 56.229C358.75 55.77 359.583 55.299 360.415 54.8159L361.137 54.7549C362.219 54.6634 362.807 55.1601 362.898 56.2449C362.953 56.8958 362.748 57.4717 362.281 57.9724C361.838 58.4712 361.245 58.9098 360.502 59.2883C359.756 59.6427 358.957 59.9408 358.105 60.1828C357.253 60.4248 356.457 60.6135 355.717 60.7489C354.977 60.8842 354.391 60.9702 353.958 61.0068Z" stroke="#5A5A5A" stroke-width="2"/>
<path d="M374.433 60.1868C373.326 60.2804 372.269 60.1147 371.264 59.6898C370.259 59.2649 369.396 58.658 368.674 57.8691C367.951 57.0561 367.448 56.1154 367.163 55.0468L367.008 53.2025C366.894 51.8525 367.019 50.47 367.384 49.0552C367.749 47.6404 368.328 46.3167 369.121 45.0843C369.911 43.8277 370.891 42.798 372.059 41.9952C373.225 41.1682 374.542 40.6927 376.01 40.5686C376.612 40.5177 377.138 40.5825 377.59 40.7629C378.065 40.9412 378.494 41.1356 378.875 41.3462C379.279 41.5306 379.663 41.6317 380.028 41.6494C380.137 40.6447 380.346 39.9714 380.657 39.6295C380.965 39.2636 381.408 39.0562 381.986 39.0073C382.684 38.9484 383.172 39.1377 383.452 39.5754C383.753 39.987 383.932 40.5303 383.989 41.2053C384.101 42.5313 384.175 43.8362 384.211 45.12C384.271 46.4018 384.358 47.7177 384.472 49.0677C384.562 50.1285 384.715 51.2203 384.931 52.3432C385.147 53.4661 385.3 54.558 385.389 55.6187L385.454 56.3781C385.498 56.9085 385.432 57.4119 385.254 57.8882C385.098 58.3384 384.671 58.593 383.973 58.652C383.324 58.7069 382.838 58.5537 382.517 58.1924C382.217 57.8049 381.996 57.338 381.853 56.7917C381.732 56.2192 381.616 55.707 381.505 55.255L381.348 55.1226C380.599 56.0114 379.929 56.8208 379.336 57.5507C378.767 58.2786 378.115 58.8801 377.38 59.355C376.642 59.8058 375.66 60.0831 374.433 60.1868ZM373.763 56.5649C374.605 56.4938 375.378 56.1735 376.081 55.6042C376.806 55.0087 377.435 54.2757 377.968 53.4052C378.498 52.5106 378.893 51.591 379.152 50.6464C379.412 49.7018 379.508 48.8317 379.441 48.0362C379.39 47.4335 379.255 46.8379 379.035 46.2494C378.814 45.6369 378.48 45.1309 378.034 44.7315C377.613 44.3301 377.041 44.1599 376.319 44.221C375.525 44.2881 374.766 44.6314 374.043 45.251C373.344 45.8685 372.73 46.6367 372.202 47.5554C371.671 48.45 371.265 49.3827 370.984 50.3534C370.7 51.3 370.59 52.147 370.653 52.8944C370.704 53.4971 370.84 54.0927 371.059 54.6811C371.302 55.2675 371.646 55.7484 372.09 56.1236C372.531 56.4748 373.089 56.6219 373.763 56.5649Z" stroke="#5A5A5A" stroke-width="2"/>
<path d="M392.314 58.6755C391.881 58.7121 391.544 58.5949 391.303 58.3239C391.062 58.0529 390.889 57.7276 390.784 57.348C390.677 56.9442 390.575 56.5887 390.476 56.2814L390.25 53.6054C390.136 52.2554 390.081 50.8882 390.085 49.5039C390.087 48.0954 390.032 46.7282 389.92 45.4023C389.867 44.7755 389.756 44.1779 389.587 43.6094C389.417 43.041 389.307 42.4555 389.256 41.8528L389.174 40.8764C389.336 40.4985 389.566 40.212 389.865 40.0168C390.187 39.8195 390.529 39.7057 390.89 39.6751C391.42 39.6304 391.83 39.7535 392.121 40.0446C392.41 40.3115 392.62 40.6458 392.751 41.0475C392.906 41.4472 393.046 41.8117 393.171 42.1411C393.294 42.4463 393.465 42.6139 393.686 42.6438C394.345 42.1268 394.969 41.6249 395.558 41.138C396.171 40.6492 396.816 40.2427 397.491 39.9185C398.188 39.5682 398.97 39.3564 399.837 39.2832C400.27 39.2466 400.735 39.3044 401.233 39.4565C401.755 39.6067 402.211 39.8473 402.603 40.1784C402.992 40.4854 403.208 40.8921 403.251 41.3983C403.304 42.0252 403.09 42.5046 402.609 42.8366C402.152 43.1665 401.707 43.3498 401.274 43.3864C400.985 43.4109 400.704 43.374 400.429 43.2758C400.154 43.1776 399.872 43.1408 399.583 43.1652C398.741 43.2364 397.965 43.5205 397.256 44.0175C396.568 44.4883 395.972 45.0364 395.468 45.6618C394.963 46.2872 394.564 46.8672 394.27 47.402C394.192 47.6271 394.15 47.9948 394.145 48.5051C394.14 49.0155 394.152 49.5971 394.183 50.2501C394.212 50.8789 394.24 51.4957 394.267 52.1004C394.318 52.7031 394.35 53.2225 394.362 53.6584C394.406 54.456 394.387 55.2346 394.305 55.9942C394.246 56.7276 394.068 57.3496 393.772 57.8602C393.474 58.3468 392.988 58.6185 392.314 58.6755Z" stroke="#5A5A5A" stroke-width="2"/>
<path d="M411.992 57.3765C411.246 57.4396 410.673 57.2573 410.273 56.8298C409.873 56.4023 409.586 55.8681 409.41 55.2274C409.257 54.5605 409.157 53.9498 409.11 53.3953L408.994 52.0212C408.866 50.5023 408.76 48.9695 408.678 47.4225C408.62 45.8735 408.527 44.2059 408.401 42.4199C407.801 42.4949 407.287 42.5748 406.858 42.6596C406.453 42.7424 406.034 42.8021 405.6 42.8387C404.493 42.9323 403.894 42.4366 403.802 41.3517C403.768 40.9419 403.807 40.5501 403.921 40.1763C404.033 39.7783 404.313 39.5118 404.763 39.3767L407.878 38.385C408.279 38.254 408.522 37.9785 408.608 37.5585C408.716 37.1124 408.746 36.612 408.699 36.0576C408.674 35.4769 408.663 34.9073 408.664 34.3488C408.689 33.7882 408.831 33.3149 409.089 32.9289C409.371 32.5408 409.873 32.3163 410.595 32.2552C411.101 32.2125 411.486 32.3257 411.751 32.5946C412.038 32.8374 412.246 33.1476 412.375 33.5252C412.504 33.9028 412.584 34.2724 412.614 34.634C412.618 34.6823 412.621 34.852 412.621 35.1434C412.619 35.4106 412.606 35.6788 412.58 35.9481C412.578 36.2153 412.58 36.3851 412.587 36.4574L412.684 37.6146L417.088 37.2424C417.618 37.1976 418.048 37.4162 418.38 37.898C418.709 38.3558 418.895 38.8378 418.938 39.3441C418.946 39.4405 418.926 39.6244 418.876 39.8957C418.826 40.1669 418.715 40.4313 418.543 40.6886C418.369 40.9219 418.113 41.0527 417.776 41.0812L413.156 41.4717C413.132 41.4737 413.086 41.5019 413.018 41.5562C412.947 41.5864 412.869 41.6659 412.783 41.7946L412.72 41.9092C412.655 42.5702 412.615 43.1077 412.602 43.5216C412.586 43.9114 412.581 44.2761 412.585 44.6157C412.612 44.9291 412.644 45.3148 412.683 45.7728C412.795 47.0988 412.931 48.4227 413.092 49.7446C413.276 51.0644 413.43 52.4596 413.554 53.9302C413.595 54.4124 413.601 54.9096 413.571 55.422C413.542 55.9344 413.409 56.3705 413.173 56.7304C412.939 57.1144 412.545 57.3298 411.992 57.3765Z" stroke="#5A5A5A" stroke-width="2"/>
<path d="M441.018 31.7599C440.296 31.8209 439.651 31.6448 439.083 31.2314C438.515 30.8181 438.193 30.1655 438.118 29.2735C438.042 28.3815 438.302 27.7282 438.897 27.3137C439.493 26.8992 440.115 26.6645 440.765 26.6096C441.511 26.5466 442.156 26.7227 442.7 27.138C443.268 27.5514 443.591 28.2161 443.668 29.1322C443.742 30.0001 443.481 30.6412 442.886 31.0557C442.314 31.4682 441.692 31.7029 441.018 31.7599ZM441.411 53.6153C440.954 53.6539 440.585 53.4423 440.303 52.9805C440.022 52.5187 439.801 52.0518 439.64 51.5798L439.245 46.9149C439.235 46.7944 439.233 46.4789 439.238 45.9686C439.265 45.4321 439.286 44.8113 439.299 44.106C439.334 43.3746 439.36 42.6804 439.377 42.0234C439.416 41.3403 439.444 40.8038 439.459 40.414C439.491 39.9257 439.53 39.3882 439.577 38.8015C439.649 38.2127 439.811 37.6892 440.063 37.2308C440.315 36.7725 440.706 36.5209 441.235 36.4762C441.813 36.4274 442.234 36.5374 442.499 36.8064C442.786 37.0492 442.971 37.3735 443.054 37.7793C443.137 38.185 443.196 38.6049 443.233 39.0388L443.34 40.3045C443.344 40.3527 443.341 40.4622 443.331 40.633C443.32 40.7797 443.298 40.9515 443.266 41.1484C443.169 42.0065 443.089 42.6445 443.028 43.0624C442.988 43.4543 442.957 43.7969 442.933 44.0902C442.931 44.3574 442.951 44.7321 442.992 45.2143C443.016 45.5036 443.047 45.8652 443.083 46.2992C443.144 46.7311 443.204 47.2966 443.263 47.9957C443.289 48.3091 443.328 48.6215 443.379 48.9329C443.427 49.2201 443.466 49.5325 443.494 49.87C443.525 50.2317 443.521 50.6204 443.484 51.0364C443.438 51.6472 443.269 52.22 442.974 52.7547C442.678 53.2654 442.157 53.5522 441.411 53.6153Z" stroke="#5A5A5A" stroke-width="2"/>
<path d="M456.148 53.4623C455.474 53.5193 454.699 53.5241 453.823 53.4768C452.948 53.4536 452.09 53.3319 451.247 53.1117C450.404 52.8916 449.682 52.5156 449.079 51.9838C448.501 51.45 448.172 50.7129 448.093 49.7727C448.04 49.1459 448.15 48.5903 448.424 48.1058C448.697 47.5972 449.182 47.3134 449.879 47.2544C450.313 47.2178 450.659 47.2978 450.918 47.4944C451.177 47.6911 451.404 47.939 451.599 48.2381C451.818 48.5353 452.062 48.8424 452.331 49.1596C452.622 49.4506 452.993 49.6863 453.445 49.8667C453.92 50.045 454.543 50.1016 455.313 50.0365C455.867 49.9898 456.463 49.8786 457.103 49.7032C457.765 49.5016 458.321 49.1996 458.771 48.7973C459.222 48.395 459.421 47.8805 459.368 47.2537C459.321 46.6992 459.056 46.2846 458.572 46.0098C458.086 45.7109 457.472 45.4715 456.73 45.2914C455.988 45.1114 455.209 44.9343 454.395 44.7604C453.578 44.5623 452.793 44.3009 452.038 43.9762C451.284 43.6515 450.651 43.1951 450.141 42.6069C449.629 41.9946 449.33 41.1822 449.244 40.1697C449.165 39.2295 449.325 38.4025 449.725 37.6889C450.126 36.9752 450.668 36.3709 451.354 35.8759C452.061 35.3548 452.827 34.9622 453.653 34.6982C454.501 34.408 455.322 34.2293 456.117 34.1622C456.574 34.1236 457.108 34.1391 457.72 34.2088C458.33 34.2544 458.934 34.3733 459.532 34.5656C460.13 34.7578 460.639 35.0547 461.061 35.4561C461.481 35.8334 461.717 36.3354 461.77 36.9622C461.864 38.0712 461.357 38.6724 460.25 38.766L459.781 38.8057C459.024 38.4569 458.384 38.1953 457.861 38.0211C457.337 37.8468 456.75 37.7871 456.1 37.842C455.812 37.8664 455.406 37.9372 454.882 38.0543C454.381 38.1452 453.935 38.3164 453.544 38.568C453.153 38.8195 452.978 39.1864 453.019 39.6685C453.054 40.0784 453.311 40.3966 453.791 40.6231C454.27 40.8497 454.881 41.053 455.624 41.233C456.366 41.4131 457.146 41.6142 457.965 41.8364C458.784 42.0585 459.573 42.3682 460.334 42.7652C461.092 43.1381 461.729 43.6428 462.243 44.2791C462.757 44.9155 463.057 45.74 463.143 46.7525C463.267 48.2231 462.994 49.4359 462.323 50.391C461.677 51.344 460.793 52.0742 459.673 52.5817C458.575 53.063 457.4 53.3566 456.148 53.4623Z" stroke="#5A5A5A" stroke-width="2"/>
<path d="M312.819 112.114C311.087 112.26 309.464 112.13 307.951 111.724C306.46 111.291 305.22 110.522 304.23 109.416C303.237 108.286 302.661 106.769 302.5 104.864C302.377 103.418 302.487 101.988 302.828 100.575C303.193 99.1603 303.774 97.8607 304.571 96.6765C305.365 95.4682 306.361 94.4857 307.557 93.729C308.751 92.9482 310.131 92.4917 311.695 92.3595C312.754 92.27 313.759 92.4036 314.71 92.7602C315.683 93.0907 316.481 93.6424 317.104 94.4153C317.749 95.1621 318.12 96.1141 318.218 97.2712C318.311 98.3802 318.173 99.4603 317.801 100.511C317.429 101.563 316.88 102.52 316.153 103.382C315.426 104.245 314.577 104.948 313.605 105.491C312.655 106.009 311.638 106.313 310.555 106.405C310.387 106.419 310.011 106.414 309.427 106.391C308.841 106.343 308.376 106.285 308.031 106.218C307.786 106.19 307.586 106.109 307.429 105.977C307.379 105.957 307.292 105.928 307.167 105.89C307.041 105.828 306.953 105.799 306.905 105.803C307.133 106.488 307.532 107.049 308.102 107.486C308.694 107.898 309.348 108.182 310.065 108.34C310.805 108.496 311.5 108.547 312.15 108.492C312.607 108.453 313.062 108.39 313.515 108.303C313.99 108.19 314.493 108.112 315.022 108.067C315.551 108.022 316.021 108.128 316.43 108.385C316.84 108.642 317.072 109.095 317.127 109.746C317.172 110.277 317.038 110.701 316.726 111.019C316.437 111.334 316.045 111.562 315.547 111.701C315.074 111.838 314.585 111.928 314.08 111.971C313.6 112.035 313.18 112.083 312.819 112.114ZM310.201 102.21C310.923 102.149 311.621 101.956 312.297 101.632C312.994 101.282 313.548 100.81 313.959 100.217C314.393 99.6219 314.576 98.9145 314.506 98.0948C314.447 97.3957 314.184 96.8595 313.716 96.4863C313.272 96.111 312.702 95.9529 312.004 96.0119C311.378 96.0647 310.73 96.2894 310.061 96.6859C309.392 97.0824 308.767 97.5723 308.186 98.1556C307.629 98.7368 307.185 99.3571 306.853 100.016C306.518 100.652 306.376 101.259 306.425 101.837L306.437 101.982C307.071 102.025 307.707 102.093 308.345 102.185C308.98 102.252 309.599 102.261 310.201 102.21Z" stroke="#5A5A5A" stroke-width="2"/>
<path d="M326.846 110.017C326.317 110.062 325.833 109.933 325.396 109.63C324.98 109.301 324.75 108.871 324.705 108.341C324.638 107.545 324.597 106.772 324.582 106.021C324.591 105.267 324.563 104.505 324.497 103.733L324.296 101.346C324.212 100.358 324.094 99.3847 323.94 98.4265C323.808 97.4422 323.569 96.479 323.223 95.5371C323.102 95.2559 322.993 94.9617 322.894 94.6544C322.817 94.3209 322.765 93.9854 322.736 93.6479C322.695 93.1658 322.775 92.6734 322.975 92.1709C323.173 91.6443 323.585 91.3546 324.21 91.3017C324.716 91.259 325.141 91.4173 325.486 91.7766C325.83 92.1117 326.109 92.5495 326.325 93.0897C326.538 93.6058 326.704 94.1381 326.823 94.6865C326.964 95.2087 327.086 95.6476 327.189 96.0031C327.263 96.3125 327.364 96.6439 327.491 96.9973C327.618 97.3508 327.695 97.6963 327.724 98.0338C327.726 98.058 327.756 98.1282 327.815 98.2447C327.873 98.3612 327.931 98.4777 327.989 98.5941C328.255 98.0132 328.553 97.381 328.883 96.6976C329.236 95.988 329.628 95.3235 330.06 94.7042C330.515 94.0588 331.026 93.5178 331.595 93.0813C332.188 92.6427 332.858 92.3918 333.604 92.3288C334.374 92.2637 334.968 92.4077 335.385 92.7609C335.825 93.088 336.189 93.5186 336.476 94.0527C336.762 94.5627 337.047 95.0728 337.333 95.5828C337.449 95.8158 337.531 96.0638 337.577 96.327C337.622 96.566 337.703 96.8141 337.822 97.0711L338.17 96.4589C338.594 95.7432 339.074 94.9622 339.608 94.1158C340.165 93.2432 340.803 92.4851 341.524 91.8414C342.244 91.1736 343.084 90.7991 344.047 90.7177C344.817 90.6526 345.486 90.8267 346.054 91.24C346.645 91.6272 347.138 92.1561 347.534 92.8268C347.954 93.4954 348.28 94.1963 348.511 94.9294C348.743 95.6625 348.885 96.3424 348.938 96.9692L349.586 104.636C349.617 104.997 349.59 105.4 349.506 105.844C349.445 106.262 349.295 106.639 349.057 106.975C348.816 107.286 348.456 107.463 347.974 107.503C347.421 107.55 346.959 107.395 346.59 107.038C346.22 106.68 346.017 106.285 345.981 105.851L345.424 99.2693C345.418 99.197 345.393 99.0413 345.348 98.8023C345.304 98.5632 345.246 98.3132 345.176 98.052C345.129 97.7889 345.101 97.597 345.091 97.4765C345.075 97.2836 345.025 96.9843 344.942 96.5786C344.86 96.1728 344.731 95.7952 344.556 95.4458C344.381 95.0964 344.149 94.9339 343.86 94.9583L343.535 94.9857C342.866 95.6736 342.376 96.322 342.064 96.9311C341.75 97.5161 341.52 98.094 341.374 98.6647C341.228 99.2355 341.098 99.8414 340.982 100.482C340.865 101.099 340.68 101.783 340.429 102.532C340.313 103.173 340.086 103.787 339.748 104.374C339.432 104.935 338.949 105.243 338.299 105.298C337.674 105.351 337.178 105.223 336.813 104.914C336.469 104.579 336.192 104.165 335.981 103.673C335.793 103.179 335.632 102.707 335.497 102.257C335.431 102.044 335.316 101.69 335.153 101.194C334.99 100.698 334.811 100.154 334.615 99.5638C334.444 98.9712 334.276 98.4149 334.111 97.8947C333.944 97.3504 333.825 96.9476 333.754 96.6865C333.591 96.4817 333.438 96.3855 333.293 96.3977C333.077 96.416 332.861 96.592 332.647 96.9257C332.433 97.2595 332.278 97.5761 332.182 97.8756C332.056 98.1047 331.884 98.5077 331.666 99.0846C331.447 99.6374 331.238 100.177 331.04 100.704C330.866 101.228 330.75 101.578 330.692 101.753C330.656 101.902 330.541 102.263 330.348 102.838C330.178 103.411 329.979 104.071 329.752 104.819C329.522 105.542 329.311 106.204 329.12 106.802C328.928 107.401 328.804 107.8 328.748 107.999C328.546 108.478 328.329 108.921 328.097 109.329C327.889 109.735 327.472 109.965 326.846 110.017Z" stroke="#5A5A5A" stroke-width="2"/>
<path d="M357.953 118.023C357.568 118.056 357.246 117.974 356.987 117.777C356.728 117.58 356.472 117.274 356.219 116.859L356.008 114.363C355.81 112.025 355.76 109.71 355.857 107.42C355.979 105.127 355.937 102.775 355.734 100.365L355.407 96.4954C355.216 96.2444 354.994 96.0568 354.741 95.9325C354.512 95.8061 354.305 95.6536 354.121 95.475C353.936 95.2964 353.827 95.0142 353.795 94.6285C353.756 94.1704 353.786 93.8037 353.883 93.5284C354.005 93.251 354.33 92.7865 354.856 92.135L354.545 88.4465C354.512 88.0608 354.702 87.729 355.115 87.4514C355.552 87.1716 355.927 87.0185 356.239 86.9921C356.649 86.9575 356.972 87.0516 357.209 87.2744C357.443 87.4731 357.634 87.724 357.781 88.0273C357.928 88.3305 358.06 88.5986 358.176 88.8315C358.291 89.0404 358.432 89.1377 358.601 89.1234C358.842 89.1031 359.088 89.0094 359.341 88.8424C359.617 88.6733 359.873 88.5425 360.107 88.4498C360.294 88.3612 360.54 88.2675 360.847 88.1688C361.152 88.0459 361.446 87.9481 361.731 87.8755C362.014 87.7788 362.179 87.7284 362.227 87.7243L363.815 87.5901C365.307 87.464 366.726 87.6112 368.07 88.0317C369.412 88.4282 370.537 89.1222 371.445 90.1138C372.353 91.1054 372.876 92.4208 373.015 94.0602C373.137 95.5067 372.971 96.9776 372.515 98.4729C372.058 99.944 371.375 101.325 370.466 102.616C369.555 103.883 368.468 104.934 367.206 105.769C365.966 106.578 364.611 107.044 363.143 107.168C362.686 107.207 362.212 107.186 361.72 107.106C361.253 107.024 360.779 107.004 360.297 107.045L359.972 107.072C359.999 107.677 360.008 108.356 359.999 109.109C360.016 109.885 360.027 110.588 360.032 111.219C360.037 111.85 360.051 112.298 360.073 112.563C360.081 112.659 360.076 112.745 360.058 112.819L360.041 113.039C360.021 113.381 359.989 113.723 359.946 114.067C359.928 114.433 359.922 114.785 359.926 115.125C359.884 115.493 359.797 115.888 359.663 116.313C359.555 116.759 359.357 117.14 359.069 117.455C358.806 117.793 358.435 117.982 357.953 118.023ZM362.636 103.314C363.623 103.231 364.529 102.911 365.354 102.356C366.178 101.776 366.893 101.06 367.499 100.208C368.104 99.3313 368.559 98.4066 368.865 97.4339C369.168 96.437 369.281 95.4805 369.204 94.5644C369.094 93.2626 368.557 92.361 367.594 91.8597C366.654 91.3564 365.559 91.1576 364.308 91.2633C363.85 91.302 363.419 91.3627 363.014 91.4455C362.607 91.5042 362.23 91.6332 361.884 91.8324C360.609 92.5229 359.822 93.245 359.522 93.9987C359.22 94.7284 359.109 95.5633 359.188 96.5035C359.221 96.8893 359.269 97.3101 359.331 97.7661C359.392 98.198 359.443 98.6551 359.484 99.1372L359.725 101.994C359.76 102.404 359.944 102.716 360.277 102.931C360.608 103.121 360.994 103.246 361.436 103.306C361.899 103.34 362.299 103.343 362.636 103.314Z" stroke="#5A5A5A" stroke-width="2"/>
<path d="M383.978 106.281C383.232 106.344 382.659 106.162 382.259 105.735C381.86 105.307 381.572 104.773 381.397 104.132C381.243 103.465 381.143 102.855 381.096 102.3L380.98 100.926C380.852 99.4072 380.747 97.8743 380.664 96.3273C380.606 94.7783 380.514 93.1107 380.387 91.3247C379.787 91.3997 379.273 91.4796 378.844 91.5644C378.439 91.6472 378.02 91.7069 377.587 91.7435C376.48 91.8371 375.88 91.3414 375.789 90.2566C375.754 89.8467 375.794 89.4549 375.907 89.0811C376.019 88.6831 376.3 88.4166 376.749 88.2816L379.864 87.2898C380.265 87.1588 380.508 86.8833 380.594 86.4633C380.702 86.0172 380.732 85.5168 380.685 84.9624C380.661 84.3817 380.649 83.8122 380.65 83.2536C380.675 82.693 380.817 82.2197 381.075 81.8337C381.358 81.4456 381.86 81.2211 382.582 81.1601C383.087 81.1173 383.472 81.2305 383.737 81.4994C384.024 81.7422 384.232 82.0524 384.361 82.43C384.49 82.8076 384.57 83.1772 384.6 83.5389C384.605 83.5871 384.607 83.7568 384.607 84.0482C384.605 84.3154 384.592 84.5836 384.566 84.8529C384.564 85.1201 384.567 85.2899 384.573 85.3622L384.671 86.5194L389.074 86.1472C389.604 86.1024 390.034 86.321 390.366 86.8028C390.695 87.2606 390.882 87.7426 390.924 88.2489C390.933 88.3453 390.912 88.5292 390.862 88.8005C390.812 89.0718 390.701 89.3361 390.529 89.5934C390.355 89.8267 390.099 89.9575 389.762 89.986L385.142 90.3765C385.118 90.3786 385.072 90.4067 385.004 90.4611C384.934 90.4913 384.855 90.5707 384.769 90.6994L384.706 90.814C384.641 91.4751 384.602 92.0125 384.588 92.4264C384.573 92.8162 384.567 93.1809 384.572 93.5205C384.598 93.8339 384.631 94.2196 384.669 94.6776C384.781 96.0036 384.918 97.3275 385.078 98.6494C385.262 99.9692 385.416 101.364 385.541 102.835C385.581 103.317 385.587 103.814 385.558 104.327C385.528 104.839 385.395 105.275 385.159 105.635C384.925 106.019 384.531 106.235 383.978 106.281Z" stroke="#5A5A5A" stroke-width="2"/>
<path d="M402.273 113.549C401.84 113.585 401.497 113.396 401.244 112.98C400.992 112.589 400.85 112.188 400.815 111.778C400.75 111.007 400.856 110.257 401.134 109.53C401.414 108.826 401.656 108.114 401.862 107.392C401.956 107.068 402.066 106.646 402.191 106.126C402.343 105.627 402.482 105.118 402.607 104.598C402.757 104.075 402.877 103.628 402.967 103.256C403.056 102.884 403.099 102.674 403.095 102.626L403.086 102.518C401.754 102.533 400.618 102.277 399.676 101.75C398.735 101.222 397.961 100.523 397.354 99.6513C396.747 98.7799 396.266 97.813 395.909 96.7505C395.551 95.6639 395.276 94.5582 395.084 93.4332C394.916 92.3063 394.79 91.2486 394.706 90.2601C394.68 89.9467 394.657 89.5359 394.639 89.0276C394.618 88.4952 394.633 87.9597 394.685 87.4212C394.76 86.8806 394.903 86.4194 395.113 86.0374C395.347 85.6534 395.693 85.4421 396.15 85.4035C397.04 85.3282 397.645 85.6049 397.965 86.2334C398.309 86.8599 398.513 87.5589 398.579 88.3304C398.623 88.8607 398.629 89.358 398.596 89.8221C398.586 90.2843 398.605 90.7926 398.652 91.3471L398.682 91.7087C398.697 91.8774 398.763 92.236 398.882 92.7844C399.001 93.3328 399.122 93.8932 399.243 94.4657C399.388 95.0361 399.497 95.464 399.569 95.7492C399.757 96.5346 400.057 97.2134 400.468 97.7856C400.878 98.3337 401.408 98.5803 402.058 98.5253C402.828 98.4603 403.476 98.102 404.003 97.4504C404.554 96.7969 405.017 95.9686 405.393 94.9657C405.792 93.9607 406.164 92.9095 406.507 91.8121C406.849 90.6907 407.196 89.6295 407.547 88.6285C407.899 87.6276 408.302 86.8044 408.756 86.159C409.235 85.5116 409.799 85.1604 410.449 85.1055C411.532 85.0139 412.124 85.5709 412.226 86.7763C412.295 87.5959 412.229 88.3906 412.027 89.1604C411.85 89.928 411.598 90.6777 411.272 91.4094C410.97 92.1391 410.643 92.8587 410.291 93.5683C409.939 94.2779 409.636 94.9955 409.383 95.721C408.593 97.8516 407.881 100.036 407.246 102.275C406.634 104.488 406.046 106.711 405.483 108.943C405.338 109.514 405.149 110.149 404.917 110.849C404.685 111.548 404.361 112.158 403.945 112.679C403.552 113.198 402.995 113.488 402.273 113.549Z" stroke="#5A5A5A" stroke-width="2"/>
</svg>
