<svg width="136" height="132" viewBox="0 0 136 132" fill="none" xmlns="http://www.w3.org/2000/svg">
<path d="M43.2102 55.9039L43.6864 54.3185C43.8453 53.7896 43.5453 53.232 43.0163 53.0731L32.852 50.02C32.323 49.8611 31.7654 50.1611 31.6066 50.6901L21.8693 83.1067C21.7105 83.6357 22.0105 84.1933 22.5394 84.3521L32.7038 87.4053C33.2327 87.5642 33.7903 87.2642 33.9492 86.7352L34.8073 83.8783M43.2102 55.9039C44.5663 56.7734 48.2959 58.8179 49.8218 59.2762C51.3477 59.7345 58.2151 59.0248 61.1401 58.5171M43.2102 55.9039L34.8073 83.8783M61.1401 58.5171C62.5608 56.8644 65.2623 53.1011 69.7896 52.7975C74.3169 52.4938 81.3827 54.2003 84.3497 55.0915C88.5673 55.6653 98.0835 56.4443 102.408 54.9706M61.1401 58.5171L55.4157 63.7291C53.5076 65.4664 50.0853 69.4753 51.6615 71.6123C53.6317 74.2835 60.6079 73.073 68.5019 67.7791C75.7631 62.9095 87.9416 75.4399 94.9598 79.766C100.808 83.3712 115.875 90.9006 111.485 98.5928C110.07 101.073 106.67 100.769 102.94 99.3514M34.8073 83.8783L44.5955 95.1361M91.1403 92.4817C93.7667 94.5157 98.5794 97.6944 102.94 99.3514M102.94 99.3514C104.219 100.476 106.257 103.538 104.17 106.793C102.084 110.048 96.9849 107.638 94.6964 106.026M94.6964 106.026L83.5715 99.219M94.6964 106.026C95.2258 107.341 96.0047 110.44 94.885 112.321C94.1849 113.498 92.322 113.675 91.0239 113.642C90.1266 113.62 89.2766 113.288 88.5099 112.821L82.9321 109.424M76.1935 105.321L82.9321 109.424M82.9321 109.424C84.0336 111.141 85.6007 115.078 83.0566 117.086C80.5125 119.095 77.4397 117.709 76.7617 117.275L69.0694 112.885" stroke="black" stroke-width="2" stroke-linecap="round"/>
<path d="M113.526 82.5677C112.084 83.521 109.074 85.3893 107.801 87.7797" stroke="black" stroke-width="2" stroke-linecap="round"/>
<path d="M126.44 80.8749L116.27 85.4445C115.746 85.6799 115.132 85.4266 114.926 84.8903L113.75 81.8231L102.431 52.2981C102.241 51.8009 102.473 51.2414 102.96 51.0258L112.346 46.8702C112.86 46.6425 113.461 46.8833 113.675 47.4031L126.954 79.5813C127.16 80.0807 126.933 80.6535 126.44 80.8749Z" stroke="black" stroke-width="2" stroke-linecap="round"/>
<path d="M22.4397 84.2699L32.5234 87.211C33.0477 87.3639 33.5977 87.0679 33.7589 86.5461L43.6799 54.4213C43.8403 53.9019 43.5563 53.3494 43.0406 53.1775L32.9425 49.8115C32.4087 49.6336 31.8334 49.9308 31.6695 50.469L21.763 83.0188C21.6009 83.5515 21.9051 84.114 22.4397 84.2699Z" stroke="black" stroke-width="2" stroke-linecap="round"/>
<path d="M46.2257 94.352C47.244 93.045 49.129 92.811 50.436 93.8293L51.1934 94.4194C52.5004 95.4377 52.7344 97.3227 51.7161 98.6297L50.4643 100.236L49.2125 101.843C48.1942 103.15 46.3091 103.384 45.0022 102.366L44.2447 101.776C42.9378 100.757 42.7037 98.8724 43.722 97.5654L46.2257 94.352Z" stroke="black" stroke-width="2"/>
<path d="M52.3322 97.8277C53.3433 96.4976 55.2463 96.2498 56.5643 97.2767L58.0486 98.4331C59.3556 99.4514 59.5896 101.336 58.5713 102.643L55.2733 106.876C54.2339 108.21 52.298 108.422 50.9948 107.344L49.593 106.185C48.3531 105.16 48.1429 103.339 49.1166 102.058L50.7875 99.8597L52.3322 97.8277Z" stroke="black" stroke-width="2"/>
<path d="M59.2887 101.797C60.3091 100.477 62.211 100.243 63.521 101.277L64.6132 102.139C65.9082 103.161 66.1351 105.036 65.1213 106.337L61.4064 111.105C60.3639 112.443 58.4204 112.652 57.118 111.565L56.0675 110.689C54.8288 109.655 54.6291 107.827 55.6155 106.551L59.2887 101.797Z" stroke="black" stroke-width="2"/>
<path d="M64.9693 106.526C65.9834 105.244 67.8374 105.009 69.1384 105.999L69.4955 106.271C70.825 107.282 71.0724 109.185 70.0458 110.502L67.4336 113.855C66.3998 115.182 64.4772 115.4 63.1728 114.338L62.8008 114.035C61.5288 112.999 61.3245 111.134 62.3421 109.847L64.9693 106.526Z" stroke="black" stroke-width="2"/>
<path d="M67.6318 21.7216L71.1875 25.1982C71.6169 25.6181 72.3169 25.5674 72.6813 25.0901L79.6318 15.9883" stroke="black" stroke-width="2" stroke-linecap="round"/>
<path fill-rule="evenodd" clip-rule="evenodd" d="M73.9527 1.13675C73.8777 0.936812 73.7385 0.759236 73.5429 0.638154C73.3748 0.534131 73.188 0.485901 73.004 0.488371C72.8201 0.485901 72.6332 0.534131 72.4652 0.638154C72.2686 0.759881 72.1288 0.938698 72.0542 1.13994C71.5046 1.99805 70.5748 3.25621 69.462 4.40753C68.2465 5.66516 66.9273 6.67448 65.7343 7.01535C63.4181 7.67711 59.6262 7.69002 57.245 7.56655C56.1427 7.5094 55.1273 8.36256 55.1321 9.54963C55.1433 12.3269 55.4991 16.1915 56.2351 19.9685C56.9664 23.7207 58.0957 27.5099 59.7149 30.0553C63.8307 36.5252 67.3444 40.3746 72.2432 42.3297C72.3947 42.4145 72.5676 42.4596 72.7445 42.4575C72.9211 42.4596 73.0937 42.4146 73.2452 42.33C78.1127 40.394 82.3938 36.5929 86.5526 30.0553C88.1718 27.5099 89.3012 23.7207 90.0325 19.9685C90.7685 16.1915 91.1243 12.3269 91.1355 9.54963C91.1403 8.36256 90.1249 7.5094 89.0226 7.56655C86.6413 7.69002 82.8495 7.67711 80.5333 7.01535C79.3279 6.67093 77.9397 5.65019 76.658 4.38953C75.482 3.23295 74.4991 1.97806 73.9527 1.13675ZM73.0157 3.27102C72.4421 4.05751 71.7174 4.95183 70.9001 5.79745C69.6197 7.12221 67.9975 8.44874 66.2837 8.93839C63.6162 9.70055 59.5252 9.68747 57.1414 9.56387C57.1376 9.56367 57.1346 9.5639 57.1322 9.5643C57.1447 12.2053 57.4864 15.9333 58.1982 19.5859C58.9169 23.2738 59.9899 26.7612 61.4024 28.9818C65.3816 35.2371 68.5661 38.6292 72.7454 40.3745C77.0123 38.61 80.9271 35.1723 84.8651 28.9818C86.2777 26.7612 87.3507 23.2738 88.0694 19.5859C88.7812 15.9333 89.1229 12.2053 89.1354 9.5643C89.133 9.5639 89.13 9.56367 89.1262 9.56387C86.7424 9.68747 82.6514 9.70055 79.9839 8.93839C78.2825 8.45229 76.5994 7.13719 75.2556 5.81544C74.3938 4.96786 73.6212 4.06703 73.0157 3.27102Z" fill="black"/>
</svg>
