<svg width="147" height="96" viewBox="0 0 147 96" fill="none" xmlns="http://www.w3.org/2000/svg">
<path d="M0 40.4804V91.9692C0 94.1963 1.80152 96.0017 4.02381 96.0017H36.8333C39.0556 96.0017 40.8571 94.1963 40.8571 91.9692V40.4804C40.8571 35.7029 39.0828 31.0965 35.8797 27.5582L33.3613 24.7762C29.6933 20.7243 27.6614 15.4492 27.6614 9.97822V0.644531H13.1958V9.97822C13.1958 15.4492 11.1639 20.7243 7.49582 24.7762L4.97742 27.5582C1.77432 31.0965 0 35.7029 0 40.4804Z" fill="white"/>
<path fill-rule="evenodd" clip-rule="evenodd" d="M13.0966 0.644531H27.7606V10.0913C27.7606 15.5068 29.763 20.7285 33.3778 24.7394L35.8773 27.5127C39.082 31.0684 40.8571 35.6976 40.8571 40.4985V91.8271C40.8571 94.1327 39.0004 96.0017 36.71 96.0017H4.14715C1.85675 96.0017 0 94.1327 0 91.8271V40.4985C0 35.6976 1.77518 31.0684 4.97983 27.5127L7.4793 24.7394C11.0941 20.7285 13.0966 15.5068 13.0966 10.0913V0.644531ZM13.4037 0.953759V10.0913C13.4037 15.5837 11.3729 20.8794 7.70682 24.9472L5.20735 27.7205C2.05397 31.2193 0.307197 35.7744 0.307197 40.4985V91.8271C0.307197 93.9619 2.02641 95.6924 4.14715 95.6924H36.71C38.8307 95.6924 40.5499 93.9619 40.5499 91.8271V40.4985C40.5499 35.7744 38.8032 31.2193 35.6498 27.7205L33.1503 24.9472C29.4842 20.8794 27.4534 15.5837 27.4534 10.0913V0.953759H13.4037Z" fill="#C5C5C5"/>
<path d="M12.0714 0.928571C12.0714 0.415735 12.5031 0 13.0357 0H27.8214C28.354 0 28.7857 0.415736 28.7857 0.928571V4.64286C28.7857 5.15569 28.354 5.57143 27.8214 5.57143H20.4286H13.0357C12.5031 5.57143 12.0714 5.15569 12.0714 4.64286V0.928571Z" fill="white"/>
<path fill-rule="evenodd" clip-rule="evenodd" d="M27.8214 0.309524H13.0357C12.6807 0.309524 12.3928 0.586681 12.3928 0.928571V4.64286C12.3928 4.98475 12.6807 5.26191 13.0357 5.26191H27.8214C28.1765 5.26191 28.4643 4.98475 28.4643 4.64286V0.928571C28.4643 0.586681 28.1765 0.309524 27.8214 0.309524ZM13.0357 0C12.5031 0 12.0714 0.415735 12.0714 0.928571V4.64286C12.0714 5.15569 12.5031 5.57143 13.0357 5.57143H27.8214C28.354 5.57143 28.7857 5.15569 28.7857 4.64286V0.928571C28.7857 0.415736 28.354 0 27.8214 0H13.0357Z" fill="#C5C5C5"/>
<path fill-rule="evenodd" clip-rule="evenodd" d="M27.8571 6.49888L13 6.49888L13 5.57031L27.8571 5.57031L27.8571 6.49888Z" fill="#C5C5C5"/>
<path d="M66.1107 38.835V29.9297C68.2592 35.5541 104.606 36.0228 122.511 35.5541V38.835H66.1107Z" stroke="#C5C5C5" stroke-width="0.5"/>
<path d="M65.6184 30.3001C65.6184 30.6181 65.8275 30.9785 66.3483 31.3719C66.8635 31.7609 67.6389 32.1469 68.6617 32.5206C70.7044 33.267 73.6743 33.9436 77.3613 34.5134C84.7314 35.6524 94.922 36.358 106.184 36.358C117.447 36.358 127.637 35.6524 135.007 34.5134C138.694 33.9436 141.664 33.267 143.707 32.5206C144.73 32.1469 145.505 31.7609 146.02 31.3719C146.541 30.9785 146.75 30.6181 146.75 30.3001C146.75 29.982 146.541 29.6216 146.02 29.2283C145.505 28.8393 144.73 28.4533 143.707 28.0796C141.664 27.3332 138.694 26.6566 135.007 26.0868C127.637 24.9478 117.447 24.2422 106.184 24.2422C94.922 24.2422 84.7314 24.9478 77.3613 26.0868C73.6743 26.6566 70.7044 27.3332 68.6617 28.0796C67.6389 28.4533 66.8635 28.8393 66.3483 29.2283C65.8275 29.6216 65.6184 29.982 65.6184 30.3001Z" fill="white" stroke="#C5C5C5" stroke-width="0.5"/>
<path d="M86.3976 30.3005C86.3976 30.3354 86.4331 30.4459 86.706 30.6096C86.9604 30.7623 87.3519 30.9183 87.8794 31.0714C88.9306 31.3766 90.4638 31.6545 92.3728 31.889C96.1873 32.3574 101.464 32.6479 107.298 32.6479C113.131 32.6479 118.408 32.3574 122.223 31.889C124.131 31.6545 125.665 31.3766 126.716 31.0714C127.243 30.9183 127.635 30.7623 127.889 30.6096C128.162 30.4459 128.198 30.3354 128.198 30.3005C128.198 30.2656 128.162 30.1551 127.889 29.9914C127.635 29.8387 127.243 29.6827 126.716 29.5296C125.665 29.2244 124.131 28.9464 122.223 28.712C118.408 28.2436 113.131 27.9531 107.298 27.9531C101.464 27.9531 96.1873 28.2436 92.3728 28.712C90.4638 28.9464 88.9306 29.2244 87.8794 29.5296C87.3519 29.6827 86.9604 29.8387 86.706 29.9914C86.4331 30.1551 86.3976 30.2656 86.3976 30.3005Z" fill="#D9D9D9" stroke="#C5C5C5" stroke-width="0.5"/>
<path d="M146.266 80.3677L146.629 30.6719C112.867 42.5384 64.9966 38.3132 53.7727 38.3132H6.99998C6.44769 38.3132 5.99998 38.7609 5.99998 39.3132V90.3261C5.99998 90.8783 6.44769 91.3261 6.99998 91.3261H38.9571C56.7657 91.4759 96.3952 92.7617 112.137 91.3261C129.243 89.7659 140.143 85.1652 145.355 82.0065C145.927 81.6601 146.261 81.036 146.266 80.3677Z" fill="white" stroke="#C5C5C5" stroke-width="0.5"/>
<rect width="45" height="36" transform="matrix(-1 -8.74228e-08 -8.74228e-08 1 64 50)" fill="#ED3237"/>
<path d="M30.1992 67.3194L30.1992 59.3359L35.2317 59.3359L35.2317 60.8543L31.9992 60.8543L31.9992 62.7032L34.7664 62.7032L34.7664 64.2215L31.9992 64.2215L31.9992 67.3194L30.1992 67.3194Z" fill="black"/>
<path d="M36.8653 67.3194L36.8653 59.3359L38.6652 59.3359L38.6652 67.3194L36.8653 67.3194Z" fill="black"/>
<path d="M42.1767 67.3194L39.7646 59.3359L41.6747 59.3359L42.6298 63.0583C42.7522 63.4909 42.8583 63.9154 42.9481 64.3317C43.0461 64.748 43.1563 65.1766 43.2787 65.6174H43.3277C43.442 65.1766 43.5481 64.748 43.6461 64.3317C43.744 63.9154 43.8501 63.4909 43.9644 63.0583L44.9073 59.3359L46.7439 59.3359L44.344 67.3194L42.1767 67.3194Z" fill="black"/>
<path d="M47.8418 67.3194L47.8418 59.3359L52.8376 59.3359L52.8376 60.8543L49.6418 60.8543L49.6418 62.4583L52.36 62.4583L52.36 63.9644L49.6418 63.9644L49.6418 65.801L52.96 65.801L52.96 67.3194L47.8418 67.3194Z" fill="black"/>
<path d="M26.7422 76.1409L26.7422 69.7415H27.1922L27.1922 75.7525L30.1659 75.7525L30.1659 76.1409L26.7422 76.1409Z" fill="black"/>
<path d="M32.4707 72.3731L32.0598 73.5676L34.3489 73.5676L33.938 72.3731C33.8076 71.9912 33.6837 71.6254 33.5663 71.2758C33.4489 70.9262 33.3348 70.554 33.2239 70.1591H33.1848C33.0739 70.554 32.9598 70.9262 32.8424 71.2758C32.725 71.6254 32.6011 71.9912 32.4707 72.3731ZM30.7099 76.1409L32.9794 69.7415H33.4293L35.6988 76.1409H35.2293L34.476 73.9463L31.9229 73.9463L31.1599 76.1409H30.7099Z" fill="black"/>
<path d="M36.9252 76.1409L36.9252 69.7415L38.6664 69.7415C39.3185 69.7415 39.837 69.8678 40.2217 70.1202C40.6065 70.3663 40.7989 70.7579 40.7989 71.2952C40.7989 71.6319 40.7141 71.9264 40.5445 72.1789C40.375 72.4249 40.1272 72.5965 39.8011 72.6936V72.7324C40.2185 72.7972 40.5543 72.9623 40.8087 73.2277C41.063 73.4866 41.1902 73.8362 41.1902 74.2764C41.1902 74.8915 40.9717 75.3576 40.5348 75.6748C40.1044 75.9855 39.5239 76.1409 38.7935 76.1409L36.9252 76.1409ZM37.3751 72.5576L38.4903 72.5576C39.149 72.5576 39.6218 72.4508 39.9087 72.2372C40.2022 72.0171 40.3489 71.7193 40.3489 71.3438C40.3489 70.8906 40.1957 70.5734 39.8891 70.3921C39.5826 70.2044 39.1327 70.1105 38.5392 70.1105L37.3751 70.1105L37.3751 72.5576ZM37.3751 75.7719L38.6762 75.7719C39.3153 75.7719 39.8207 75.6521 40.1924 75.4126C40.5641 75.1731 40.75 74.7976 40.75 74.2862C40.75 73.8265 40.5674 73.4866 40.2022 73.2665C39.8435 73.0399 39.3348 72.9267 38.6762 72.9267L37.3751 72.9267L37.3751 75.7719Z" fill="black"/>
<path d="M42.7761 76.1409L42.7761 69.7415L46.3074 69.7415V70.13L43.2261 70.13L43.2261 72.5479L45.8086 72.5479L45.8086 72.9364L43.2261 72.9364L43.2261 75.7525L46.4053 75.7525V76.1409L42.7761 76.1409Z" fill="black"/>
<path d="M48.0061 76.1409L48.0061 69.7415H48.4561L48.4561 75.7525L51.4298 75.7525V76.1409L48.0061 76.1409Z" fill="black"/>
<path d="M54.269 76.2574C53.7995 76.2574 53.3821 76.1668 53.0169 75.9855C52.6517 75.8043 52.342 75.5744 52.0876 75.2961L52.3811 74.9853C52.6159 75.2443 52.8963 75.4547 53.2223 75.6165C53.5484 75.7719 53.8973 75.8496 54.269 75.8496C54.7647 75.8496 55.1559 75.7298 55.4429 75.4903C55.7298 75.2508 55.8733 74.9433 55.8733 74.5678C55.8733 74.3023 55.8211 74.0887 55.7168 73.9269C55.6124 73.765 55.4722 73.6323 55.2962 73.5287C55.1266 73.4187 54.9342 73.3183 54.719 73.2277L53.7408 72.7907C53.5582 72.7065 53.3626 72.603 53.1539 72.48C52.9517 72.3505 52.7789 72.1854 52.6354 71.9847C52.4985 71.7775 52.43 71.5154 52.43 71.1981C52.43 70.8874 52.5115 70.6155 52.6745 70.3824C52.8376 70.1429 53.0593 69.9584 53.3397 69.8289C53.6267 69.693 53.9495 69.625 54.3082 69.625C54.6929 69.625 55.0386 69.7027 55.3451 69.8581C55.6516 70.007 55.9026 70.185 56.0983 70.3921L55.844 70.6835C55.6548 70.4893 55.4331 70.3339 55.1788 70.2174C54.9244 70.0944 54.6342 70.0329 54.3082 70.0329C53.8843 70.0329 53.5386 70.1364 53.2713 70.3436C53.0104 70.5508 52.88 70.8291 52.88 71.1787C52.88 71.4247 52.9387 71.6254 53.056 71.7808C53.18 71.9362 53.3267 72.0624 53.4962 72.1595C53.6723 72.2566 53.8386 72.3408 53.9951 72.412L54.9733 72.8393C55.2146 72.9428 55.4364 73.0658 55.6385 73.2083C55.8472 73.3442 56.0135 73.519 56.1374 73.7326C56.2678 73.9398 56.3331 74.2085 56.3331 74.5386C56.3331 74.8623 56.2483 75.1569 56.0787 75.4223C55.9092 75.6813 55.6679 75.8852 55.3548 76.0341C55.0483 76.183 54.6864 76.2574 54.269 76.2574Z" fill="black"/>
</svg>
