<svg width="140" height="141" viewBox="0 0 140 141" fill="none" xmlns="http://www.w3.org/2000/svg">
<path d="M116.737 89.2997L70.0008 116.772L23.2632 89.2997L70.0008 59.9297L116.737 89.2997Z" fill="#FFCC29"/>
<path d="M70.001 112.008L27.8037 87.2055L29.2476 84.7773L70.001 108.731L110.753 84.7773L112.197 87.2055L70.001 112.008Z" fill="white"/>
<path d="M70.0006 118.411L20.5454 89.341L70.0006 58.2578L70.7581 58.7344L119.456 89.3326L70.0006 118.411ZM25.9821 89.2606L70.0006 115.134L114.018 89.2606L70.0006 61.5982L25.9821 89.2606Z" fill="black"/>
<path d="M116.737 71.4183L70.0008 98.8889L23.2632 71.4183L70.0008 42.0469L116.737 71.4183Z" fill="#FFCC29"/>
<path d="M70.001 94.1294L27.8037 69.3265L29.2476 66.8984L70.001 90.8524L110.753 66.8984L112.197 69.3265L70.001 94.1294Z" fill="white"/>
<path d="M70.0006 100.528L20.5454 71.4579L70.0006 40.3789L70.7581 40.8555L119.456 71.4536L70.0006 100.528ZM25.9821 71.3775L70.0006 97.2506L114.018 71.3775L70.0006 43.7151L25.9821 71.3775Z" fill="black"/>
<path d="M116.737 53.538L70.0008 81.0086L23.2632 53.538L70.0008 24.168L116.737 53.538Z" fill="white"/>
<path d="M70.001 76.2491L27.8037 51.4462L29.2476 49.0195L70.001 72.9735L90.377 60.9965L110.753 49.0195L112.197 51.4462L70.001 76.2491Z" fill="#FFCC29"/>
<path d="M70.0006 82.6472L20.5454 53.5776L70.0006 22.5L70.7581 22.9752L119.456 53.5733L70.0006 82.6472ZM25.9821 53.4972L70.0006 79.3717L114.018 53.4972L70.0006 25.8362L25.9821 53.4972Z" fill="black"/>
</svg>
