<svg width="77" height="90" viewBox="0 0 77 90" fill="none" xmlns="http://www.w3.org/2000/svg">
<path d="M77 0H0V90H77V0Z" fill="#373435"/>
<path fill-rule="evenodd" clip-rule="evenodd" d="M25.7808 45.7813L8.90607 41.0849C-1.74287 60.5209 9.29531 71.7839 9.29531 71.7839L0 69.2223V90H52.7799C52.7799 90 81.5024 73.027 76.39 45C70.9813 15.3756 38.7091 16.5374 38.7091 16.5374L41.6546 10.3918L77 20.9578V0H29.8844L14.7795 31.6226L27.443 38.5108C29.6419 34.6992 33.7597 32.1337 38.4768 32.1337C45.5067 32.1337 51.2055 37.8317 51.2055 44.8606C51.2055 51.8894 45.5067 57.5874 38.4768 57.5874C31.7565 57.5874 26.2526 52.3803 25.7808 45.7813Z" fill="#FFCC29"/>
<path d="M38.4999 57.5C41.6371 57.5 44.1802 54.9816 44.1802 51.875C44.1802 48.7684 41.6371 46.25 38.4999 46.25C35.3627 46.25 32.8196 48.7684 32.8196 51.875C32.8196 54.9816 35.3627 57.5 38.4999 57.5Z" fill="white"/>
<path d="M77 66.625L66.6938 89.9992H77V66.625Z" fill="#ED3237"/>
<path d="M0 56.6348L18.8869 0H0V56.6348Z" fill="#0098DA"/>
</svg>
