<svg width="69" height="55" viewBox="0 0 69 55" fill="none" xmlns="http://www.w3.org/2000/svg">
<path d="M40.8064 20.4032C40.8064 31.6716 31.6716 40.8064 20.4032 40.8064C9.13483 40.8064 0 31.6716 0 20.4032C0 9.13483 9.13483 0 20.4032 0C31.6716 0 40.8064 9.13483 40.8064 20.4032Z" fill="#DE1212" fill-opacity="0.94"/>
<path d="M63.9293 20.4032C63.9293 31.6716 54.7945 40.8064 43.5261 40.8064C32.2578 40.8064 23.1229 31.6716 23.1229 20.4032C23.1229 9.13483 32.2578 0 43.5261 0C54.7945 0 63.9293 9.13483 63.9293 20.4032Z" fill="#DE8C12" fill-opacity="0.67"/>
<path d="M2.53671 47.2223L2.59648 48.026C3.10568 47.4017 3.7942 47.0895 4.66204 47.0895C5.58745 47.0895 6.22284 47.4548 6.5682 48.1854C7.07297 47.4548 7.79248 47.0895 8.72675 47.0895C9.50603 47.0895 10.0861 47.3175 10.4669 47.7736C10.8477 48.2252 11.038 48.9071 11.038 49.8192V54.4086H9.11196V49.8259C9.11196 49.4185 9.03226 49.1219 8.87286 48.9359C8.71346 48.7455 8.4323 48.6503 8.02937 48.6503C7.45376 48.6503 7.05526 48.9248 6.83387 49.4739L6.84051 54.4086H4.92107V49.8325C4.92107 49.4163 4.83915 49.1152 4.67533 48.9293C4.5115 48.7433 4.23255 48.6503 3.83848 48.6503C3.29386 48.6503 2.89979 48.8761 2.65626 49.3278V54.4086H0.736816V47.2223H2.53671Z" fill="#1F5D8E"/>
<path d="M16.6835 54.4086C16.5949 54.236 16.5307 54.0212 16.4909 53.7644C16.0259 54.2824 15.4215 54.5415 14.6777 54.5415C13.9737 54.5415 13.3892 54.3378 12.9243 53.9304C12.4638 53.5231 12.2335 53.0095 12.2335 52.3896C12.2335 51.628 12.5147 51.0435 13.077 50.6362C13.6438 50.2288 14.4607 50.0229 15.5278 50.0185H16.4112V49.6067C16.4112 49.2746 16.3248 49.009 16.1521 48.8097C15.9839 48.6105 15.716 48.5108 15.3485 48.5108C15.0253 48.5108 14.7707 48.5883 14.5847 48.7433C14.4032 48.8983 14.3124 49.1108 14.3124 49.3809H12.3929C12.3929 48.9647 12.5214 48.5795 12.7782 48.2252C13.035 47.871 13.3981 47.5943 13.8674 47.395C14.3367 47.1914 14.8636 47.0895 15.4481 47.0895C16.3337 47.0895 17.0355 47.3131 17.5535 47.7603C18.076 48.2031 18.3372 48.8274 18.3372 49.6333V52.7482C18.3417 53.4301 18.4369 53.9459 18.6228 54.2957V54.4086H16.6835ZM15.0961 53.0737C15.3795 53.0737 15.6407 53.0117 15.8798 52.8877C16.1189 52.7593 16.296 52.5888 16.4112 52.3763V51.1409H15.6939C14.733 51.1409 14.2216 51.473 14.1596 52.1372L14.153 52.2501C14.153 52.4892 14.2371 52.6862 14.4054 52.8412C14.5736 52.9962 14.8039 53.0737 15.0961 53.0737Z" fill="#1F5D8E"/>
<path d="M23.7037 52.4228C23.7037 52.1881 23.5864 52.0044 23.3517 51.8715C23.1215 51.7343 22.7495 51.6125 22.2359 51.5062C20.5268 51.1476 19.6722 50.4214 19.6722 49.3278C19.6722 48.6902 19.9357 48.1588 20.4626 47.7338C20.9939 47.3043 21.6869 47.0895 22.5414 47.0895C23.4535 47.0895 24.1819 47.3043 24.7265 47.7338C25.2756 48.1633 25.5501 48.7212 25.5501 49.4075H23.6307C23.6307 49.1329 23.5421 48.9071 23.365 48.73C23.1879 48.5485 22.9111 48.4577 22.5348 48.4577C22.2115 48.4577 21.9614 48.5308 21.7843 48.6769C21.6072 48.823 21.5186 49.009 21.5186 49.2348C21.5186 49.4473 21.6182 49.62 21.8175 49.7528C22.0212 49.8812 22.3621 49.9941 22.8403 50.0916C23.3185 50.1845 23.7214 50.2908 24.0491 50.4104C25.063 50.7823 25.57 51.4265 25.57 52.3431C25.57 52.9984 25.2889 53.5297 24.7265 53.9371C24.1642 54.34 23.438 54.5415 22.5481 54.5415C21.9459 54.5415 21.4101 54.4352 20.9408 54.2227C20.4759 54.0057 20.1106 53.7113 19.8449 53.3393C19.5792 52.963 19.4464 52.5578 19.4464 52.1239H21.2662C21.2839 52.4648 21.4101 52.7261 21.6448 52.9076C21.8795 53.0892 22.1938 53.1799 22.5879 53.1799C22.9554 53.1799 23.2322 53.1113 23.4181 52.974C23.6085 52.8323 23.7037 52.6486 23.7037 52.4228Z" fill="#1F5D8E"/>
<path d="M29.11 45.4557V47.2223H30.3387V48.6304H29.11V52.2169C29.11 52.4826 29.1609 52.6729 29.2628 52.7881C29.3646 52.9032 29.5595 52.9608 29.8473 52.9608C30.0598 52.9608 30.248 52.9453 30.4118 52.9143V54.3688C30.0354 54.4839 29.648 54.5415 29.2495 54.5415C27.9035 54.5415 27.2172 53.8618 27.1906 52.5025V48.6304H26.1412V47.2223H27.1906V45.4557H29.11Z" fill="#1F5D8E"/>
<path d="M34.7156 54.5415C33.6618 54.5415 32.8028 54.2182 32.1386 53.5718C31.4789 52.9253 31.149 52.0641 31.149 50.9882V50.8022C31.149 50.0805 31.2885 49.4362 31.5674 48.8695C31.8464 48.2983 32.2405 47.8599 32.7497 47.5544C33.2633 47.2445 33.8478 47.0895 34.5031 47.0895C35.486 47.0895 36.2587 47.3995 36.821 48.0193C37.3878 48.6392 37.6711 49.5182 37.6711 50.6561V51.4398H33.095C33.157 51.9092 33.343 52.2855 33.6529 52.5689C33.9673 52.8523 34.3636 52.994 34.8418 52.994C35.5812 52.994 36.1591 52.7261 36.5753 52.1903L37.5184 53.2463C37.2306 53.6537 36.8409 53.9725 36.3494 54.2027C35.858 54.4286 35.3134 54.5415 34.7156 54.5415ZM34.4964 48.6437C34.1156 48.6437 33.8057 48.7721 33.5666 49.0289C33.3319 49.2857 33.1814 49.6532 33.115 50.1314H35.7849V49.9786C35.7761 49.5536 35.6609 49.2259 35.4395 48.9957C35.2182 48.761 34.9038 48.6437 34.4964 48.6437Z" fill="#1F5D8E"/>
<path d="M42.8052 49.0222C42.5439 48.9868 42.3137 48.9691 42.1144 48.9691C41.3883 48.9691 40.9123 49.2149 40.6865 49.7063V54.4086H38.767V47.2223H40.5802L40.6333 48.0791C41.0185 47.4194 41.5521 47.0895 42.234 47.0895C42.4465 47.0895 42.6458 47.1183 42.8317 47.1759L42.8052 49.0222Z" fill="#1F5D8E"/>
<path d="M46.5909 52.994C46.9451 52.994 47.2329 52.8965 47.4543 52.7017C47.6757 52.5069 47.7908 52.2479 47.7997 51.9247H49.5996C49.5952 52.4117 49.4623 52.8589 49.2011 53.2663C48.9398 53.6692 48.5812 53.9836 48.1251 54.2094C47.6735 54.4308 47.1732 54.5415 46.6241 54.5415C45.5969 54.5415 44.7866 54.216 44.1933 53.5651C43.5999 52.9098 43.3033 52.0066 43.3033 50.8553V50.7292C43.3033 49.6222 43.5977 48.7389 44.1866 48.0791C44.7755 47.4194 45.5836 47.0895 46.6108 47.0895C47.5097 47.0895 48.2292 47.3463 48.7694 47.8599C49.314 48.3691 49.5907 49.0488 49.5996 49.8989H47.7997C47.7908 49.527 47.6757 49.2259 47.4543 48.9957C47.2329 48.761 46.9407 48.6437 46.5776 48.6437C46.1304 48.6437 45.7917 48.8075 45.5614 49.1352C45.3356 49.4584 45.2227 49.9853 45.2227 50.7159V50.9151C45.2227 51.6546 45.3356 52.1859 45.5614 52.5091C45.7873 52.8323 46.1304 52.994 46.5909 52.994Z" fill="#1F5D8E"/>
<path d="M54.8598 54.4086C54.7712 54.236 54.707 54.0212 54.6672 53.7644C54.2023 54.2824 53.5979 54.5415 52.854 54.5415C52.15 54.5415 51.5655 54.3378 51.1006 53.9304C50.6401 53.5231 50.4099 53.0095 50.4099 52.3896C50.4099 51.628 50.691 51.0435 51.2534 50.6362C51.8201 50.2288 52.637 50.0229 53.7041 50.0185H54.5875V49.6067C54.5875 49.2746 54.5011 49.009 54.3284 48.8097C54.1602 48.6105 53.8923 48.5108 53.5248 48.5108C53.2016 48.5108 52.947 48.5883 52.761 48.7433C52.5795 48.8983 52.4887 49.1108 52.4887 49.3809H50.5693C50.5693 48.9647 50.6977 48.5795 50.9545 48.2252C51.2113 47.871 51.5744 47.5943 52.0437 47.395C52.5131 47.1914 53.04 47.0895 53.6244 47.0895C54.51 47.0895 55.2118 47.3131 55.7298 47.7603C56.2523 48.2031 56.5136 48.8274 56.5136 49.6333V52.7482C56.518 53.4301 56.6132 53.9459 56.7992 54.2957V54.4086H54.8598ZM53.2724 53.0737C53.5558 53.0737 53.817 53.0117 54.0561 52.8877C54.2952 52.7593 54.4724 52.5888 54.5875 52.3763V51.1409H53.8702C52.9093 51.1409 52.3979 51.473 52.3359 52.1372L52.3293 52.2501C52.3293 52.4892 52.4134 52.6862 52.5817 52.8412C52.7499 52.9962 52.9802 53.0737 53.2724 53.0737Z" fill="#1F5D8E"/>
<path d="M62.0261 49.0222C61.7649 48.9868 61.5347 48.9691 61.3354 48.9691C60.6093 48.9691 60.1333 49.2149 59.9075 49.7063V54.4086H57.988V47.2223H59.8012L59.8543 48.0791C60.2395 47.4194 60.7731 47.0895 61.455 47.0895C61.6675 47.0895 61.8667 47.1183 62.0527 47.1759L62.0261 49.0222Z" fill="#1F5D8E"/>
<path d="M62.5243 50.7624C62.5243 49.6421 62.7744 48.7499 63.2748 48.0858C63.7795 47.4216 64.4681 47.0895 65.3403 47.0895C66.0399 47.0895 66.6178 47.3508 67.0738 47.8732V44.207H68.9999V54.4086H67.2664L67.1734 53.6448C66.6952 54.2426 66.0798 54.5415 65.3271 54.5415C64.4813 54.5415 63.8017 54.2094 63.2881 53.5452C62.7789 52.8766 62.5243 51.949 62.5243 50.7624ZM64.4437 50.9018C64.4437 51.5749 64.5611 52.0907 64.7957 52.4493C65.0304 52.808 65.3713 52.9873 65.8185 52.9873C66.4119 52.9873 66.8303 52.7371 67.0738 52.2368V49.4008C66.8347 48.9005 66.4207 48.6503 65.8318 48.6503C64.9064 48.6503 64.4437 49.4008 64.4437 50.9018Z" fill="#1F5D8E"/>
</svg>
