<svg width="255" height="86" viewBox="0 0 255 86" fill="none" xmlns="http://www.w3.org/2000/svg">
<path d="M80.8406 66.0861C79.6372 66.0811 78.5771 65.934 77.6602 65.6446C76.7433 65.3292 75.8911 64.8714 75.1038 64.271C74.3426 63.6707 73.5285 62.9144 72.6613 62.0021C72.266 61.2995 71.9625 60.6752 71.7509 60.1291C71.5654 59.5571 71.471 58.8817 71.4678 58.1029C71.4651 57.4797 71.6067 56.9351 71.8926 56.469C72.1784 56.0029 72.7006 55.7714 73.4593 55.7745C74.0087 55.7768 74.5202 56.1034 74.9938 56.7544C75.1265 57.2223 75.3643 57.7685 75.707 58.393C76.0497 59.0175 76.5623 59.6168 77.2449 60.1908C77.9537 60.7649 78.8843 61.2231 80.0368 61.5653C80.3511 61.6445 80.7044 61.6849 81.0968 61.6866C81.777 61.6894 82.4697 61.5624 83.175 61.3057C83.9064 61.0491 84.5196 60.6752 85.0146 60.184C85.5096 59.6928 85.7555 59.0837 85.7525 58.3567C85.7499 57.7336 85.5384 57.2005 85.1179 56.7574C84.7237 56.3144 84.2381 55.9359 83.6613 55.622C83.1105 55.2822 82.5991 54.9945 82.1272 54.7589C81.2098 54.3137 80.2791 53.8556 79.3354 53.3843C78.3916 52.9131 77.526 52.3643 76.7386 51.738C75.951 51.0856 75.3069 50.3171 74.8061 49.4323C74.3315 48.5476 74.0916 47.4822 74.0863 46.2359C74.0804 44.808 74.4416 43.6152 75.1701 42.6576C75.8984 41.6741 76.8371 40.938 77.9862 40.4495C79.1612 39.9351 80.3897 39.6806 81.6716 39.6859C82.1163 39.6878 82.6789 39.729 83.3595 39.8097C84.0661 39.8905 84.8123 40.0234 85.5979 40.2084C86.3835 40.3934 87.1301 40.6561 87.8379 40.9966C88.5456 41.311 89.1228 41.7159 89.5696 42.211C90.0164 42.7061 90.2413 43.3042 90.2442 44.0052C90.2466 44.5764 90.0264 45.0817 89.5835 45.5212C89.1666 45.9349 88.6705 46.1406 88.0949 46.1382C87.4671 46.1356 86.9303 46.0165 86.4845 45.781C86.0388 45.5455 85.6061 45.2841 85.1863 44.9968C84.7927 44.7096 84.3338 44.448 83.8096 44.2122C83.2854 43.9764 82.6439 43.8569 81.8853 43.8537L80.7473 43.849C80.0943 44.106 79.5464 44.4412 79.1034 44.8548C78.6603 45.2424 78.4396 45.6439 78.4413 46.0593C78.4446 46.8381 78.7221 47.5013 79.2737 48.0488C79.8516 48.5964 80.5862 49.1057 81.4776 49.5767C82.3951 50.0219 83.3519 50.4802 84.348 50.9516C85.3702 51.4232 86.3275 51.9853 87.2197 52.6381C88.1379 53.265 88.8737 54.0469 89.427 54.9838C90.0063 55.8949 90.2988 57.0255 90.3045 58.3756C90.3099 59.6477 90.0398 60.763 89.4945 61.7213C88.9491 62.6797 88.22 63.4815 87.3071 64.1268C86.3942 64.772 85.376 65.2611 84.2525 65.594C83.129 65.9268 81.9917 66.0909 80.8406 66.0861Z" fill="#373435"/>
<path d="M104.107 65.4036C103.348 65.4004 102.797 65.0606 102.455 64.3842C102.111 63.6818 101.939 62.9801 101.936 62.2791C102.499 59.3996 102.853 56.5712 102.999 53.7938C103.144 50.9905 103.223 48.0182 103.236 44.8768C102.216 44.8985 101.366 44.9339 100.686 44.983C100.006 45.0322 99.3257 45.0553 98.6455 45.0525L96.1341 45.0421C95.5057 44.9097 95.0076 44.674 94.64 44.3349C94.2985 43.996 94.1263 43.502 94.1236 42.8529C94.1199 41.9702 94.366 41.3871 94.8618 41.1035C95.3838 40.7941 95.9979 40.6409 96.7042 40.6438C96.8612 40.6445 97.0182 40.6451 97.1751 40.6458C97.3321 40.6464 97.4891 40.6601 97.6462 40.6867C98.143 40.6368 98.9014 40.5751 99.9214 40.5014C100.941 40.4018 102.04 40.3154 103.217 40.2424C104.393 40.1434 105.479 40.0571 106.472 39.9833C107.466 39.9095 108.198 39.8477 108.669 39.7977L110.239 39.8042C110.814 39.8066 111.508 39.8484 112.319 39.9296C113.157 40.011 113.981 40.1831 114.793 40.4461C115.605 40.6831 116.274 41.0494 116.799 41.5448C117.351 42.0404 117.628 42.7036 117.632 43.5344C117.634 44.0277 117.453 44.5202 117.089 45.012C116.724 45.4778 116.254 45.7095 115.679 45.7072C115.365 45.7059 115.037 45.6006 114.696 45.3915C114.355 45.1565 114.028 44.9993 113.713 44.9201C113.032 44.7096 112.326 44.5899 111.593 44.5609C110.86 44.5319 110.154 44.516 109.474 44.5132L107.943 44.5068L107.787 44.623C107.788 44.9605 107.777 45.5057 107.754 46.2585C107.731 47.0113 107.709 47.868 107.687 48.8285C107.665 49.763 107.642 50.6976 107.62 51.6321C107.624 52.5668 107.627 53.3716 107.63 54.0467C107.635 55.1631 107.561 56.2921 107.409 57.4338C107.283 58.5497 107.182 59.393 107.106 59.9639C107.055 60.3791 106.953 60.8849 106.798 61.4814C106.644 62.052 106.476 62.5965 106.295 63.115C106.114 63.6335 105.919 64.048 105.711 64.3587C105.53 64.6695 105.308 64.9282 105.048 65.1349C104.787 65.3155 104.473 65.4051 104.107 65.4036Z" fill="#373435"/>
<path d="M122.974 66.0658C122.399 66.0634 121.953 65.9448 121.638 65.7098C121.35 65.4749 121.204 64.994 121.201 64.2671C121.198 63.5921 121.314 63.1252 121.548 62.8666C121.808 62.5821 122.108 62.3756 122.448 62.2472C122.788 62.1188 123.075 61.9512 123.309 61.7445C123.57 61.5379 123.699 61.162 123.697 60.6167C123.695 60.1494 123.654 59.6819 123.573 59.2143C123.519 58.7467 123.491 58.3312 123.49 57.9677L123.486 57.1888C123.485 56.8513 123.496 56.3062 123.519 55.5534C123.568 54.8007 123.617 53.983 123.665 53.1005C123.714 52.192 123.749 51.3354 123.772 50.5307C123.821 49.7261 123.845 49.1161 123.843 48.7007C124.05 48.0265 124.165 47.4947 124.19 47.1054C124.214 46.7161 124.225 46.1709 124.222 45.4699L124.218 44.5742C123.955 44.2875 123.653 44.0526 123.313 43.8695C122.998 43.6605 122.709 43.4256 122.446 43.1649C122.21 42.8783 122.09 42.4884 122.088 41.9951C122.086 41.4759 122.228 41.087 122.515 40.8286C122.828 40.5703 123.194 40.442 123.612 40.4437C124.005 40.4453 124.358 40.4857 124.672 40.5649C124.986 40.6181 125.287 40.6453 125.575 40.6465L125.968 40.6482C126.674 40.6511 127.38 40.5631 128.085 40.3843C128.817 40.1797 129.536 40.0788 130.242 40.0817L130.439 40.0825C130.962 40.0847 131.381 40.2292 131.696 40.5161C132.011 40.803 132.17 41.245 132.173 41.8421C132.175 42.5172 132.047 42.971 131.786 43.2036C131.525 43.4361 131.225 43.6037 130.885 43.7061C130.493 43.8083 130.128 43.8977 129.788 43.9742C129.474 44.0508 129.174 44.2702 128.888 44.6325C128.121 48.8612 127.746 53.1044 127.764 57.3623C127.767 58.0374 127.769 58.5956 127.771 59.0369C127.799 59.4784 127.867 60.1277 127.976 60.9849C128.055 61.167 128.265 61.2977 128.605 61.377C128.945 61.4303 129.325 61.4968 129.744 61.5764C130.163 61.656 130.517 61.8263 130.806 62.0871C131.121 62.348 131.279 62.777 131.282 63.3742C131.284 63.9454 131.09 64.3729 130.699 64.6569C130.334 64.941 129.864 65.1337 129.288 65.2352C128.739 65.3368 128.177 65.3994 127.602 65.4229C127.053 65.4466 126.595 65.4967 126.229 65.573C125.837 65.6493 125.419 65.7514 124.975 65.8794C124.53 66.0074 124.112 66.0705 123.72 66.0689L122.974 66.0658Z" fill="#373435"/>
<path d="M147.809 67.3369C145.611 67.3278 143.647 66.8264 141.916 65.8327C140.186 64.839 138.82 63.4703 137.818 61.7267C136.817 59.9571 136.311 57.9559 136.302 55.7231C136.296 54.373 136.499 52.9589 136.912 51.4808C137.324 49.9767 137.907 48.5252 138.659 47.1264C139.438 45.7276 140.362 44.4593 141.429 43.3214C142.523 42.1576 143.749 41.241 145.107 40.5716C146.464 39.9022 147.915 39.5707 149.458 39.5771C150.635 39.582 151.801 39.8205 152.954 40.2926C154.133 40.7648 155.104 41.4698 155.866 42.4076C156.655 43.3195 157.052 44.4635 157.058 45.8395L157.063 47.0078C156.882 47.4484 156.634 47.72 156.321 47.8226C156.007 47.9251 155.654 47.9756 155.262 47.974C154.712 47.9717 154.28 47.8271 153.965 47.5402C153.676 47.2534 153.426 46.9019 153.215 46.4856C153.004 46.0694 152.78 45.653 152.543 45.2367C152.306 44.8203 151.977 44.4684 151.557 44.1811C151.164 43.8939 150.601 43.7488 149.868 43.7457C148.455 43.7399 147.188 44.0851 146.066 44.7815C144.97 45.452 144.032 46.3438 143.252 47.4569C142.472 48.5701 141.875 49.7749 141.462 51.0713C141.049 52.3417 140.845 53.5741 140.85 54.7683C140.853 55.677 141.001 56.6123 141.293 57.5741C141.585 58.51 141.994 59.3944 142.521 60.2273C143.073 61.0345 143.743 61.6993 144.53 62.2218C145.317 62.7183 146.208 62.9686 147.202 62.9728C148.405 62.9777 149.608 62.762 150.809 62.3257C152.011 61.8893 153.055 61.2705 153.941 60.4693C154.358 60.0816 154.801 59.707 155.27 59.3455C155.74 58.984 156.275 58.8044 156.877 58.8069C157.452 58.8093 157.95 59.0061 158.371 59.3973C158.817 59.7626 159.041 60.2957 159.044 60.9967C159.046 61.2823 158.968 61.5676 158.812 61.8525C158.657 62.1375 158.475 62.4093 158.267 62.6681C158.084 62.901 157.876 63.1208 157.641 63.3275C157.407 63.5083 157.172 63.702 156.938 63.9088C155.634 65.0197 154.225 65.8707 152.71 66.4615C151.195 67.0524 149.562 67.3442 147.809 67.3369Z" fill="#373435"/>
<path d="M164.271 65.2632C163.85 64.8201 163.574 64.3906 163.441 63.9746C163.335 63.5328 163.28 62.9874 163.278 62.3383C163.273 61.2739 163.386 60.2358 163.618 59.2243C163.849 58.2127 164.106 57.2012 164.39 56.1899C164.673 55.1785 164.878 54.1539 165.005 53.1159L164.993 50.234C164.988 49.0917 164.944 47.9491 164.86 46.8065C164.803 45.6379 164.772 44.4825 164.767 43.3401L164.761 41.7823C164.889 41.1598 165.097 40.7452 165.384 40.5387C165.697 40.3064 166.141 40.1914 166.716 40.1938C167.344 40.1964 167.829 40.3931 168.171 40.7839C168.538 41.1489 168.802 41.6173 168.961 42.1892C169.121 42.735 169.215 43.3066 169.243 43.9038C169.272 44.5011 169.287 45.0204 169.289 45.4618C169.29 45.6695 169.305 46.1109 169.334 46.786C169.363 47.4352 169.392 48.1623 169.421 48.9672C169.451 49.7722 169.467 50.5122 169.47 51.1872L169.627 51.1879C169.862 50.9811 170.174 50.7228 170.566 50.4129C170.957 50.077 171.282 49.8187 171.543 49.6381C172.377 48.8367 173.198 48.0482 174.006 47.2727C174.813 46.4712 175.529 45.5915 176.153 44.6334C176.439 44.1673 176.802 43.5976 177.244 42.9244C177.712 42.2254 178.22 41.6044 178.767 41.0615C179.314 40.5185 179.875 40.2482 180.451 40.2506C181.026 40.253 181.524 40.4757 181.945 40.9188C182.391 41.3361 182.616 41.8433 182.618 42.4404C182.622 43.2712 182.364 44.1399 181.844 45.0464C181.351 45.9271 180.753 46.7684 180.05 47.5703C179.373 48.3464 178.748 49.0188 178.175 49.5876C178.045 49.7169 177.797 49.9495 177.432 50.2855C177.093 50.6216 176.703 51.0094 176.26 51.449C175.817 51.8885 175.387 52.3151 174.97 52.7288C174.58 53.1425 174.241 53.4787 173.954 53.7371L173.955 53.8929L174.113 54.0882C174.795 54.5065 175.569 55.0289 176.434 55.6556C177.326 56.2564 178.192 56.8961 179.032 57.5746C179.898 58.2272 180.62 58.8533 181.198 59.4528C181.698 59.9482 182.132 60.5082 182.5 61.1328C182.896 61.7575 183.095 62.4463 183.098 63.1993C183.1 63.7704 182.919 64.1721 182.553 64.4042C182.214 64.6365 181.731 64.7513 181.103 64.7487C180.737 64.7472 180.344 64.6158 179.924 64.3544C179.504 64.0931 179.111 63.8188 178.743 63.5317C178.402 63.2966 178.035 62.9966 177.641 62.6315C177.247 62.2404 176.853 61.8623 176.459 61.4972C176.091 61.1322 175.763 60.8712 175.475 60.7143C174.373 60.0606 173.311 59.3163 172.287 58.4813C171.263 57.6463 170.2 56.9019 169.099 56.2483L168.981 56.2478C168.854 57.0002 168.726 57.8305 168.599 58.7386C168.498 59.6469 168.358 60.542 168.179 61.424C167.999 62.306 167.715 63.0966 167.325 63.796C167.092 64.2104 166.792 64.5597 166.427 64.8438C166.062 65.1278 165.618 65.2688 165.095 65.2666L164.271 65.2632Z" fill="#373435"/>
<path d="M195.987 66.1734C194.286 66.1663 192.912 65.888 191.863 65.3385C190.84 64.7631 190.065 63.981 189.538 62.9923C189.037 61.9776 188.705 60.808 188.542 59.4832C188.406 58.1586 188.348 56.7304 188.367 55.1987C187.974 54.8855 187.671 54.5857 187.461 54.2993C187.277 54.0129 187.183 53.5842 187.181 53.013C187.178 52.4418 187.294 52.0399 187.529 51.8072C187.789 51.5486 188.089 51.3292 188.429 51.1489C188.768 50.9426 189.055 50.6582 189.288 50.2957C189.367 50.2181 189.445 50.0886 189.522 49.9072C189.6 49.6998 189.651 49.5183 189.677 49.3626C189.884 48.8183 190.012 48.2606 190.062 47.6897C190.138 47.0928 190.254 46.5092 190.408 45.9386L190.407 45.7439C190.407 45.718 190.289 45.6526 190.053 45.5477C189.556 45.3639 189.044 45.1411 188.52 44.8793C187.996 44.6176 187.732 44.1362 187.729 43.4352C187.726 42.6303 187.946 42.0601 188.389 41.7244C188.833 41.3887 189.394 41.1704 190.074 41.0693C191.747 40.7907 193.342 40.5766 194.858 40.4271C196.401 40.2517 198.023 40.1676 199.723 40.1746C200.22 40.1767 200.77 40.2049 201.372 40.2593C201.974 40.2878 202.55 40.394 203.1 40.578C203.65 40.7361 204.096 40.9976 204.437 41.3624C204.805 41.7015 204.99 42.1696 204.992 42.7667C204.994 43.1821 204.852 43.5839 204.566 43.9722C204.28 44.3604 203.901 44.5536 203.43 44.5516L197.23 44.526C196.419 44.5226 195.78 44.8315 195.311 45.4527C194.869 46.048 194.558 46.7996 194.379 47.7075C194.199 48.5895 194.085 49.4588 194.037 50.3153C194.952 50.2931 195.737 50.2575 196.391 50.2082C197.044 50.159 197.659 50.1356 198.235 50.138L199.804 50.1445C201.219 50.5917 201.929 51.4384 201.934 52.6846C201.937 53.3077 201.664 53.7739 201.116 54.0832C200.568 54.3665 199.862 54.5583 198.999 54.6586C198.162 54.733 197.273 54.7813 196.331 54.8033C195.39 54.7994 194.54 54.8219 193.781 54.8706C193.284 54.8945 192.971 55.1139 192.842 55.5288C192.713 55.9437 192.649 56.3848 192.651 56.8521C192.652 57.0598 192.653 57.2805 192.654 57.5141C192.681 57.7219 192.695 57.9037 192.696 58.0595C192.697 58.4749 192.726 58.9424 192.78 59.4618C192.834 59.9553 192.98 60.3973 193.217 60.7877C193.454 61.1781 193.848 61.4524 194.398 61.6104L196.164 61.6177C197.393 61.6228 198.609 61.4721 199.811 61.1655C201.04 60.859 202.269 60.7084 203.498 60.7134C204.178 60.7163 204.676 60.8481 204.991 61.1091C205.306 61.37 205.465 61.9029 205.469 62.7077C205.472 63.5904 205.083 64.2768 204.3 64.7669C203.517 65.231 202.616 65.5647 201.597 65.7682C200.682 65.9462 199.753 66.0592 198.812 66.1072C197.87 66.1552 196.929 66.1773 195.987 66.1734Z" fill="#373435"/>
<path d="M214.049 66.8323C213.395 66.8296 212.884 66.6587 212.516 66.3197C212.175 65.9808 211.898 65.4863 211.686 64.8364L211.677 62.7334C211.668 60.5006 211.776 58.2683 212.002 56.0365C212.255 53.8048 212.376 51.5725 212.367 49.3397C212.364 48.8205 212.349 48.2622 212.32 47.665C212.318 47.0678 212.25 46.4055 212.116 45.678C211.487 45.5196 210.95 45.2838 210.504 44.9704C210.058 44.657 209.834 44.1757 209.831 43.5267C209.828 42.8257 210.087 42.2686 210.609 41.8553C211.13 41.4161 211.796 41.0943 212.606 40.89C213.416 40.6597 214.265 40.5074 215.155 40.4332C216.07 40.3332 216.92 40.2848 217.705 40.288C218.489 40.2653 219.104 40.2549 219.549 40.2567C221.275 40.2639 222.951 40.4655 224.574 40.8617C226.224 41.232 227.666 41.9129 228.899 42.9046C230.159 43.8964 231.055 45.341 231.586 47.2385L231.593 48.8352C231.593 49.0429 231.594 49.2636 231.595 49.4972C231.622 49.731 231.636 49.9517 231.637 50.1594C231.638 50.3412 231.626 50.5358 231.601 50.7434C231.575 50.951 231.524 51.1455 231.446 51.3269C230.954 52.4672 230.251 53.373 229.338 54.0443C228.452 54.6896 227.486 55.2568 226.442 55.7458C226.259 55.7969 225.985 55.8867 225.619 56.015C225.253 56.1173 225.07 56.2593 225.071 56.4411L225.072 56.6358C225.702 57.1057 226.293 57.6274 226.844 58.2009C227.422 58.7744 227.987 59.335 228.539 59.8825C229.143 60.4561 229.682 61.1204 230.156 61.8753C230.656 62.6043 230.908 63.3063 230.911 63.9813C230.913 64.6564 230.719 65.1878 230.329 65.5756C229.938 65.9375 229.402 66.117 228.722 66.1142C228.408 66.1129 228.081 66.0466 227.74 65.9154C227.399 65.5505 227.083 65.2247 226.794 64.9379C226.531 64.6253 226.255 64.2736 225.966 63.883C225.676 63.4404 225.295 62.9585 224.822 62.4373C224.375 61.8903 223.902 61.3821 223.403 60.9127C222.93 60.4174 222.496 60.0262 222.103 59.739C221.84 59.4783 221.433 59.178 220.883 58.8382C220.358 58.4726 219.807 58.0939 219.23 57.702C218.679 57.3103 218.206 56.893 217.812 56.45C217.417 56.007 217.219 55.5518 217.217 55.0845C217.215 54.5912 217.462 54.1898 217.958 53.8803C218.454 53.5708 219.08 53.3138 219.838 53.1092C220.622 52.8788 221.445 52.6486 222.307 52.4185C223.196 52.1885 224.019 51.9193 224.776 51.6109C225.56 51.3026 226.199 50.9158 226.694 50.4505C227.189 49.9593 227.435 49.3502 227.432 48.6232C227.428 47.6626 227.111 46.9214 226.481 46.3995C225.877 45.8778 225.117 45.5112 224.2 45.2997C223.31 45.0623 222.407 44.9288 221.491 44.899C220.575 44.8433 219.803 44.8141 219.176 44.8115L217.253 44.8036L217.096 44.9587L216.188 62.3627C216.164 62.726 216.139 63.1673 216.115 63.6864C216.091 64.1796 216.015 64.6726 215.886 65.1653C215.784 65.6322 215.589 66.0338 215.303 66.3702C215.016 66.6805 214.598 66.8346 214.049 66.8323Z" fill="#373435"/>
<path d="M244.935 66.7654C243.731 66.7605 242.671 66.6133 241.754 66.3239C240.837 66.0086 239.985 65.5507 239.198 64.9503C238.437 64.35 237.622 63.5937 236.755 62.6815C236.36 61.9788 236.056 61.3545 235.845 60.8084C235.659 60.2365 235.565 59.5611 235.562 58.7822C235.559 58.1591 235.701 57.6145 235.987 57.1483C236.272 56.6822 236.795 56.4507 237.553 56.4538C238.103 56.4561 238.614 56.7827 239.088 57.4338C239.221 57.9016 239.458 58.4478 239.801 59.0723C240.144 59.6968 240.656 60.2961 241.339 60.8701C242.048 61.4442 242.978 61.9024 244.131 62.2447C244.445 62.3239 244.798 62.3643 245.191 62.3659C245.871 62.3687 246.564 62.2418 247.269 61.9851C248 61.7285 248.614 61.3546 249.109 60.8633C249.604 60.3721 249.85 59.763 249.846 59.036C249.844 58.4129 249.632 57.8798 249.212 57.4367C248.818 56.9937 248.332 56.6153 247.755 56.3013C247.204 55.9615 246.693 55.6738 246.221 55.4382C245.304 54.9931 244.373 54.5349 243.429 54.0637C242.486 53.5924 241.62 53.0436 240.833 52.4173C240.045 51.765 239.401 50.9964 238.9 50.1116C238.425 49.2269 238.186 48.1615 238.18 46.9153C238.174 45.4873 238.536 44.2946 239.264 43.337C239.992 42.3534 240.931 41.6174 242.08 41.1288C243.255 40.6145 244.484 40.3599 245.766 40.3652C246.21 40.3671 246.773 40.4083 247.453 40.4891C248.16 40.5699 248.906 40.7028 249.692 40.8878C250.477 41.0727 251.224 41.3355 251.932 41.6759C252.64 41.9904 253.217 42.3952 253.664 42.8903C254.11 43.3854 254.335 43.9835 254.338 44.6845C254.341 45.2557 254.12 45.761 253.677 46.2006C253.261 46.6142 252.764 46.8199 252.189 46.8175C251.561 46.8149 251.024 46.6958 250.579 46.4603C250.133 46.2248 249.7 45.9634 249.28 45.6761C248.887 45.3889 248.428 45.1274 247.904 44.8915C247.379 44.6557 246.738 44.5362 245.979 44.5331L244.841 44.5284C244.188 44.7853 243.64 45.1205 243.197 45.5341C242.754 45.9217 242.534 46.3232 242.535 46.7386C242.539 47.5175 242.816 48.1807 243.368 48.7281C243.946 49.2757 244.68 49.7851 245.572 50.2561C246.489 50.7012 247.446 51.1595 248.442 51.631C249.464 52.1025 250.421 52.6647 251.314 53.3174C252.232 53.9443 252.968 54.7262 253.521 55.6632C254.1 56.5742 254.393 57.7048 254.398 59.0549C254.404 60.3271 254.134 61.4423 253.588 62.4007C253.043 63.359 252.314 64.1608 251.401 64.8061C250.488 65.4514 249.47 65.9404 248.346 66.2733C247.223 66.6062 246.086 66.7702 244.935 66.7654Z" fill="#373435"/>
<path d="M58.4227 28.2639C57.1802 28.2588 56.4321 27.6356 56.1784 26.3943L56.1709 24.6149C56.1579 21.5143 56.3105 18.3875 56.6286 15.2344C56.9742 12.0545 57.1403 8.87378 57.1269 5.69234C57.1238 4.93743 57.3281 4.27773 57.7399 3.71326C58.1791 3.12194 58.7991 2.82794 59.5999 2.83125C60.2625 2.83399 60.7325 2.98422 61.0099 3.28194C61.3148 3.57977 61.4959 3.95797 61.553 4.41655C61.6377 4.84827 61.681 5.2933 61.6829 5.75164C61.6945 8.52866 61.5821 11.3456 61.3456 14.2025C61.109 17.0324 60.9697 20.0245 60.9277 23.1787L62.1288 23.1837C62.4323 23.131 62.8737 23.0654 63.4532 22.9869C64.0326 22.8815 64.6396 22.7762 65.2742 22.671C65.9364 22.5659 66.5572 22.4741 67.1367 22.3956C67.7162 22.3171 68.1577 22.2515 68.4612 22.1989L69.7037 22.204C70.0902 22.2056 70.5459 22.221 71.0706 22.2501C71.6228 22.2524 72.1477 22.322 72.6453 22.4588C73.1703 22.5688 73.5992 22.7863 73.9319 23.1112C74.2644 23.4092 74.432 23.8682 74.4346 24.4883C74.4377 25.2163 74.2053 25.768 73.7375 26.1435C73.2973 26.5191 72.7462 26.773 72.0841 26.905C71.4496 27.0372 70.8563 27.1022 70.304 27.0999L65.8311 27.0814C65.5276 27.134 65.0586 27.213 64.424 27.3182C63.817 27.4235 63.1548 27.5421 62.4375 27.6739C61.7202 27.8058 61.058 27.9243 60.4511 28.0297C59.8441 28.135 59.3888 28.214 59.0853 28.2667L58.4227 28.2639Z" fill="#373435"/>
<path d="M82.1315 28.9687C81.7173 28.967 81.3026 28.8439 80.8875 28.5996C80.4722 28.3282 80.1808 27.9766 80.0133 27.5445L80.0081 26.2908C80.005 25.5628 80.1262 24.8489 80.3718 24.1489C80.6174 23.4489 80.7524 22.735 80.777 22.0072C80.1971 22.0048 79.6035 21.9889 78.9959 21.9594C78.4159 21.9031 77.9181 21.7258 77.5027 21.4275C77.1148 21.1023 76.9192 20.5353 76.9158 19.7265C76.9124 18.9177 77.1171 18.3523 77.5299 18.0305C77.9703 17.7088 78.5079 17.5088 79.1426 17.4306C79.7773 17.3523 80.3982 17.2875 81.0054 17.2361C81.6127 17.1847 82.0951 17.0114 82.4528 16.7163L83.0715 16.1123C83.2909 15.7627 83.4411 15.3724 83.5222 14.9413C83.6032 14.5103 83.7672 14.12 84.0142 13.7706C84.1784 13.4208 84.4385 12.8826 84.7944 12.1562C85.1779 11.4298 85.5749 10.6496 85.9856 9.8155C86.3962 8.98141 86.7796 8.22809 87.1357 7.55555C87.4918 6.883 87.7384 6.42569 87.8755 6.18361C88.1496 5.72641 88.4925 5.17513 88.9039 4.52977C89.3428 3.85757 89.8374 3.26648 90.3874 2.7565C90.9651 2.24664 91.5577 1.99296 92.1651 1.99548C93.0763 1.99925 93.8091 2.27189 94.3635 2.8134C94.9455 3.32807 95.4176 3.9636 95.7797 4.72001C96.1417 5.44945 96.4759 6.13833 96.7823 6.78666C98.1197 9.67701 99.3196 12.6881 100.382 15.82C101.472 18.9519 102.341 22.083 102.989 25.2131L102.992 25.8198C102.994 26.332 102.803 26.8704 102.419 27.435C102.062 27.9728 101.621 28.2406 101.097 28.2384C100.324 28.2352 99.7291 28.0305 99.3133 27.6244C98.8974 27.2182 98.5915 26.7047 98.3957 26.0838C98.1998 25.4629 98.0452 24.8152 97.9319 24.1407C97.8463 23.4663 97.7195 22.8592 97.5516 22.3193C97.3835 21.7524 97.1056 21.3334 96.718 21.0622L93.0733 21.0471C92.6592 21.0454 92.2174 21.0435 91.748 21.0416C91.2785 21.0127 90.8091 20.9973 90.3397 20.9953C89.7599 20.9929 89.1802 21.0175 88.6006 21.069C88.0486 21.1206 87.5245 21.2398 87.0283 21.4265C86.3941 21.6395 85.9402 22.042 85.6666 22.6341C85.3929 23.1991 85.1885 23.8453 85.0535 24.5727C84.9184 25.2731 84.7694 25.96 84.6066 26.6333C84.4438 27.3067 84.1838 27.8718 83.8268 28.3287C83.4697 28.7586 82.9046 28.9719 82.1315 28.9687ZM88.3743 16.4982L89.4097 16.5025C90.3485 16.5064 91.2182 16.51 92.0189 16.5133C92.8471 16.4898 93.9375 16.4403 95.2901 16.3651L95.2886 16.0011C95.2874 15.7045 95.2448 15.4212 95.1608 15.1513C95.1043 14.8545 95.0064 14.5575 94.8671 14.2604C94.6714 13.6664 94.4061 12.9643 94.0714 12.1541C93.7366 11.317 93.4158 10.5472 93.1092 9.84499C92.8024 9.11578 92.5794 8.61608 92.4402 8.34589C92.4125 8.31882 92.3296 8.30499 92.1916 8.30442L92.0673 8.30391C91.8752 8.57272 91.7108 8.86861 91.5741 9.19157C91.4649 9.48769 91.3004 9.7701 91.0806 10.0388C90.9713 10.308 90.7797 10.7116 90.5059 11.2497C90.2595 11.7609 89.9858 12.3259 89.6847 12.9448C89.3835 13.5367 89.096 14.1151 88.8222 14.6802C88.576 15.2184 88.3845 15.649 88.2478 15.9719L88.2487 16.1741C88.2496 16.3898 88.2915 16.4979 88.3743 16.4982Z" fill="#373435"/>
<path d="M116.997 29.7197C115.92 29.7152 115.023 29.6441 114.304 29.5063C113.613 29.3686 113.046 29.0428 112.602 28.5287C112.186 27.9877 111.851 27.164 111.598 26.0576C110.796 25.8655 110.215 25.5261 109.854 25.0393C109.52 24.5257 109.352 23.8645 109.349 23.0556L109.345 22.2468C109.533 20.8456 109.707 19.5522 109.867 18.3666C110.028 17.154 110.105 15.8602 110.1 14.4852C110.095 13.4067 110.077 12.463 110.046 11.6541C110.043 10.8183 109.983 9.83396 109.868 8.70113C109.895 8.56644 109.729 8.44443 109.37 8.3351C109.01 8.22576 108.775 8.15739 108.665 8.12997C108.305 7.99368 107.973 7.77662 107.668 7.47878C107.363 7.15399 107.209 6.69502 107.207 6.10187C107.204 5.42784 107.519 4.82252 108.152 4.28593C108.812 3.72248 109.652 3.22719 110.672 2.80003C111.719 2.373 112.808 2.02701 113.939 1.76209C115.07 1.4702 116.132 1.25891 117.126 1.12822C118.119 0.970567 118.905 0.892941 119.485 0.895341C120.866 0.901057 122.165 1.17604 123.382 1.7203C124.599 2.23759 125.596 3.0101 126.373 4.03783C127.151 5.0386 127.543 6.28042 127.549 7.76329L127.553 8.77434C127.472 9.09754 127.307 9.47431 127.061 9.90466C126.842 10.3351 126.623 10.7521 126.403 11.1556C126.212 11.5592 126.116 11.8824 126.117 12.125C126.118 12.2598 126.284 12.4223 126.617 12.6124C126.976 12.7756 127.35 12.9389 127.737 13.1023C128.152 13.2388 128.428 13.3748 128.567 13.5102C129.675 14.5123 130.494 15.5132 131.023 16.513C131.579 17.5128 131.861 18.7272 131.867 20.1562L131.873 21.7739C131.548 23.2284 130.822 24.4656 129.694 25.4854C128.594 26.5054 127.3 27.3358 125.811 27.9767C124.323 28.5907 122.792 29.0427 121.22 29.3327C119.647 29.5958 118.24 29.7248 116.997 29.7197ZM114.078 24.9759L116.522 24.9861C117.847 24.9915 119.048 24.9426 120.124 24.8392C121.228 24.709 122.262 24.4302 123.227 24.0028C124.191 23.5484 125.155 22.838 126.117 21.8714C126.502 21.4955 126.79 21.1192 126.982 20.7426C127.174 20.3659 127.268 19.908 127.266 19.3688C127.262 18.479 126.887 17.7361 126.139 17.1398C125.39 16.5166 124.547 16.2031 123.608 16.1992L117.106 16.1723C116.36 16.1692 115.986 15.7498 115.982 14.914C115.982 14.8061 115.981 14.6983 115.981 14.5904C116.008 14.4827 116.022 14.3884 116.021 14.3075C116.018 13.5795 116.25 13.0008 116.718 12.5714C117.186 12.115 117.764 11.74 118.453 11.4462C119.142 11.1256 119.817 10.8048 120.478 10.484C121.167 10.1364 121.745 9.73437 122.212 9.27797C122.68 8.79461 122.912 8.16199 122.909 7.38011C122.906 6.84089 122.698 6.43561 122.282 6.16428C121.895 5.89307 121.438 5.70245 120.913 5.59244C120.388 5.48242 119.918 5.42656 119.504 5.42484C118.621 5.42118 117.696 5.5252 116.731 5.73689C115.765 5.94858 115.008 6.36333 114.458 6.98116L114.465 8.51795C114.47 9.8121 114.503 11.1064 114.564 12.4007C114.652 13.6952 114.699 14.9895 114.704 16.2837L114.712 18.0631C114.713 18.2788 114.7 18.6427 114.675 19.1549C114.649 19.6401 114.61 20.1252 114.557 20.6103C114.531 21.0955 114.519 21.4459 114.52 21.6616C114.522 22.2008 114.428 22.7396 114.237 23.2781C114.073 23.7896 113.965 24.3149 113.912 24.8539L114.078 24.9759Z" fill="#373435"/>
<path d="M145.255 29.23C143.461 29.2226 142.01 28.9335 140.903 28.3627C139.824 27.7651 139.006 26.9529 138.449 25.9261C137.92 24.8724 137.57 23.6578 137.399 22.282C137.255 20.9064 137.193 19.4233 137.214 17.8327C136.799 17.5075 136.48 17.1961 136.258 16.8986C136.063 16.6013 135.965 16.156 135.962 15.5628C135.96 14.9697 136.082 14.5523 136.33 14.3107C136.605 14.0422 136.921 13.8144 137.279 13.6271C137.637 13.4129 137.94 13.1176 138.187 12.7412C138.269 12.6606 138.352 12.5262 138.434 12.3378C138.516 12.1224 138.57 11.9339 138.597 11.7723C138.815 11.207 138.951 10.6279 139.004 10.035C139.084 9.41522 139.206 8.8091 139.369 8.21664L139.368 8.01443C139.368 7.98747 139.243 7.91955 138.994 7.81068C138.469 7.61978 137.93 7.38838 137.376 7.11648C136.823 6.84458 136.545 6.34465 136.542 5.61669C136.538 4.7809 136.77 4.18872 137.238 3.84016C137.706 3.49161 138.299 3.2649 139.016 3.16002C140.782 2.87077 142.466 2.64857 144.066 2.49343C145.695 2.31144 147.406 2.22417 149.201 2.2316C149.725 2.23377 150.305 2.26313 150.941 2.31968C151.576 2.34927 152.184 2.45963 152.764 2.65076C153.345 2.81493 153.815 3.08648 154.176 3.46543C154.564 3.81753 154.759 4.30363 154.762 4.92374C154.763 5.35512 154.613 5.77239 154.311 6.17555C154.009 6.57872 153.61 6.77927 153.113 6.77721L146.569 6.75012C145.713 6.74658 145.038 7.06731 144.544 7.71233C144.077 8.33049 143.749 9.111 143.56 10.0538C143.37 10.9697 143.25 11.8724 143.198 12.7619C144.164 12.739 144.993 12.7019 145.683 12.6509C146.373 12.5998 147.021 12.5755 147.629 12.578L149.286 12.5849C150.778 13.0494 151.528 13.9288 151.533 15.2229C151.536 15.87 151.248 16.3541 150.669 16.6752C150.091 16.9694 149.346 17.1685 148.436 17.2726C147.552 17.3498 146.614 17.3998 145.62 17.4227C144.626 17.4186 143.729 17.4418 142.928 17.4924C142.404 17.5172 142.073 17.745 141.937 18.1758C141.801 18.6066 141.734 19.0647 141.736 19.55C141.737 19.7657 141.738 19.9949 141.739 20.2375C141.767 20.4533 141.782 20.6421 141.782 20.8039C141.784 21.2352 141.814 21.7207 141.871 22.2601C141.929 22.7726 142.083 23.2316 142.333 23.637C142.583 24.0425 142.998 24.3273 143.579 24.4915L145.442 24.4992C146.74 24.5045 148.023 24.3481 149.292 24.0298C150.589 23.7116 151.886 23.5553 153.183 23.5606C153.901 23.5636 154.426 23.7006 154.759 23.9716C155.091 24.2425 155.259 24.7959 155.263 25.6317C155.267 26.5484 154.855 27.2612 154.029 27.77C153.203 28.2519 152.252 28.5984 151.176 28.8097C150.21 28.9944 149.231 29.1117 148.237 29.1615C147.243 29.2113 146.249 29.2341 145.255 29.23Z" fill="#373435"/>
<path d="M162.408 28.6944C161.166 28.6893 160.418 28.0661 160.164 26.8248L160.156 25.0454C160.143 21.9448 160.296 18.818 160.614 15.6649C160.96 12.485 161.126 9.30426 161.112 6.12283C161.109 5.36791 161.313 4.70822 161.725 4.14374C162.165 3.55242 162.785 3.25842 163.585 3.26174C164.248 3.26448 164.718 3.41471 164.995 3.71243C165.3 4.01026 165.481 4.38846 165.538 4.84703C165.623 5.27875 165.666 5.72379 165.668 6.18213C165.68 8.95914 165.568 11.7761 165.331 14.633C165.094 17.4629 164.955 20.4549 164.913 23.6092L166.114 23.6142C166.418 23.5615 166.859 23.4959 167.439 23.4174C168.018 23.312 168.625 23.2067 169.26 23.1014C169.922 22.9963 170.543 22.9045 171.122 22.8261C171.702 22.7476 172.143 22.682 172.447 22.6293L173.689 22.6345C174.076 22.6361 174.531 22.6514 175.056 22.6806C175.608 22.6829 176.133 22.7524 176.631 22.8893C177.156 22.9993 177.585 23.2168 177.917 23.5417C178.25 23.8396 178.417 24.2987 178.42 24.9188C178.423 25.6467 178.191 26.1985 177.723 26.574C177.283 26.9496 176.732 27.2035 176.069 27.3355C175.435 27.4677 174.842 27.5326 174.289 27.5304L169.816 27.5118C169.513 27.5645 169.044 27.6434 168.409 27.7487C167.802 27.854 167.14 27.9726 166.423 28.1044C165.706 28.2362 165.043 28.3548 164.436 28.4602C163.829 28.5655 163.374 28.6445 163.071 28.6972L162.408 28.6944Z" fill="#373435"/>
<path d="M191.213 29.8247C189.943 29.8194 188.824 29.6665 187.856 29.3659C186.888 29.0384 185.989 28.5629 185.158 27.9393C184.355 27.3159 183.496 26.5305 182.581 25.5831C182.163 24.8534 181.843 24.205 181.62 23.6379C181.424 23.044 181.324 22.3426 181.321 21.5337C181.318 20.8867 181.468 20.3211 181.77 19.837C182.071 19.353 182.622 19.1126 183.423 19.116C184.003 19.1184 184.543 19.4576 185.043 20.1337C185.183 20.6196 185.434 21.1868 185.795 21.8353C186.157 22.4839 186.698 23.1062 187.418 23.7024C188.166 24.2986 189.148 24.7745 190.365 25.13C190.696 25.2123 191.069 25.2542 191.484 25.2559C192.201 25.2589 192.933 25.1271 193.677 24.8606C194.449 24.5942 195.096 24.206 195.619 23.6959C196.141 23.1858 196.401 22.5533 196.397 21.7983C196.395 21.1513 196.172 20.5977 195.728 20.1375C195.312 19.6774 194.799 19.2844 194.191 18.9583C193.609 18.6054 193.07 18.3066 192.572 18.0619C191.603 17.5996 190.621 17.1237 189.625 16.6343C188.629 16.1448 187.715 15.5749 186.884 14.9244C186.053 14.2469 185.374 13.4488 184.845 12.5299C184.344 11.6112 184.091 10.5047 184.086 9.21059C184.079 7.72772 184.461 6.4891 185.23 5.49473C185.998 4.4734 186.989 3.70911 188.202 3.20188C189.442 2.6678 190.739 2.40356 192.092 2.40916C192.561 2.4111 193.155 2.454 193.873 2.53786C194.619 2.62183 195.406 2.75989 196.236 2.95205C197.065 3.14421 197.853 3.41708 198.6 3.77066C199.347 4.09728 199.956 4.5177 200.427 5.03191C200.899 5.54611 201.136 6.1672 201.139 6.89515C201.142 7.4883 200.909 8.01307 200.442 8.46947C200.002 8.89903 199.478 9.11254 198.871 9.11003C198.208 9.10729 197.641 8.98362 197.171 8.73902C196.701 8.49443 196.244 8.22293 195.801 7.92452C195.385 7.62623 194.901 7.35462 194.348 7.10968C193.795 6.86475 193.118 6.74062 192.317 6.7373L191.116 6.73233C190.427 6.99909 189.848 7.34718 189.381 7.77662C188.913 8.1791 188.68 8.59603 188.682 9.02741C188.685 9.83625 188.978 10.525 189.56 11.0935C190.17 11.6623 190.946 12.1912 191.886 12.6804C192.855 13.1427 193.864 13.6187 194.916 14.1084C195.994 14.5981 197.005 15.182 197.946 15.8599C198.915 16.511 199.692 17.323 200.276 18.296C200.887 19.2422 201.196 20.4162 201.202 21.8182C201.207 23.1393 200.922 24.2975 200.347 25.2926C199.771 26.2878 199.001 27.1204 198.038 27.7904C197.074 28.4605 196 28.9683 194.814 29.3139C193.628 29.6594 192.428 29.8297 191.213 29.8247Z" fill="#373435"/>
<path d="M141.282 85.6647C140.988 85.6647 140.731 85.546 140.509 85.3087C140.287 85.0626 140.097 84.7594 139.938 84.399C139.788 84.0387 139.665 83.6783 139.57 83.318C139.482 82.9488 139.423 82.6412 139.391 82.3951C139.383 82.2984 139.367 82.1622 139.344 81.9864C139.328 81.8018 139.308 81.6173 139.284 81.4327C139.26 81.2393 139.241 81.0679 139.225 80.9185C139.217 80.7691 139.213 80.6812 139.213 80.6549V80.2593C139.213 80.0748 139.225 79.8858 139.249 79.6924C139.272 79.4991 139.332 79.3365 139.427 79.2046C139.53 79.0728 139.7 79.0069 139.938 79.0069C140.073 79.0069 140.196 79.0464 140.307 79.1255C140.426 79.2046 140.485 79.3233 140.485 79.4815C140.485 80.0264 140.497 80.5406 140.521 81.024C140.545 81.4986 140.604 81.9644 140.699 82.4215C140.794 82.8785 140.953 83.3619 141.175 83.8717H141.27C141.428 83.4498 141.571 83.0235 141.698 82.5929C141.825 82.1534 141.955 81.7183 142.09 81.2877C142.146 81.1119 142.225 80.9361 142.328 80.7603C142.439 80.5758 142.574 80.4219 142.732 80.2989C142.899 80.1758 143.081 80.1143 143.279 80.1143C143.485 80.1143 143.668 80.189 143.826 80.3384C143.993 80.4879 144.139 80.6812 144.266 80.9185C144.393 81.1558 144.504 81.4063 144.599 81.67C144.694 81.9337 144.777 82.1798 144.849 82.4083C144.92 82.6368 144.983 82.8214 145.039 82.962H145.051C145.067 82.9972 145.082 83.0411 145.098 83.0939C145.122 83.1378 145.146 83.1817 145.17 83.2257C145.32 82.7423 145.471 82.2589 145.621 81.7755C145.78 81.2921 145.942 80.8175 146.109 80.3516C146.156 80.211 146.232 80.044 146.335 79.8506C146.446 79.6485 146.569 79.4683 146.703 79.3101C146.846 79.1519 146.993 79.0728 147.143 79.0728C147.302 79.0728 147.433 79.1343 147.536 79.2574C147.639 79.3716 147.69 79.5123 147.69 79.6793C147.69 79.7584 147.686 79.8331 147.678 79.9034C147.678 79.9737 147.663 80.0484 147.631 80.1275C147.575 80.2945 147.504 80.5318 147.417 80.8394C147.338 81.1383 147.242 81.4722 147.131 81.8414C147.02 82.2017 146.898 82.5709 146.763 82.9488C146.628 83.318 146.478 83.6608 146.311 83.9772C146.153 84.2848 145.978 84.5353 145.788 84.7286C145.606 84.9132 145.411 85.0055 145.205 85.0055C144.975 85.0055 144.761 84.9044 144.563 84.7023C144.373 84.4913 144.199 84.2364 144.04 83.9376C143.89 83.63 143.759 83.3268 143.648 83.0279C143.537 82.7203 143.446 82.4742 143.374 82.2896C143.366 82.2721 143.358 82.2545 143.351 82.2369C143.343 82.2105 143.331 82.1842 143.315 82.1578H143.291L143.244 82.2237C143.204 82.3643 143.148 82.5709 143.077 82.8434C143.006 83.1158 142.915 83.4147 142.804 83.7399C142.701 84.0563 142.578 84.3639 142.435 84.6627C142.292 84.9528 142.126 85.1945 141.936 85.3878C141.745 85.5724 141.527 85.6647 141.282 85.6647Z" fill="#373435"/>
<path d="M150.25 77.4776C150.012 77.4776 149.806 77.3941 149.631 77.2271C149.457 77.0601 149.37 76.814 149.37 76.4888C149.37 76.1636 149.473 75.9351 149.679 75.8032C149.885 75.6714 150.095 75.6055 150.309 75.6055C150.555 75.6055 150.761 75.689 150.927 75.856C151.102 76.023 151.189 76.2734 151.189 76.6074C151.189 76.9238 151.086 77.148 150.88 77.2798C150.682 77.4116 150.472 77.4776 150.25 77.4776ZM149.774 85.401C149.624 85.401 149.509 85.3131 149.429 85.1373C149.35 84.9616 149.291 84.7858 149.251 84.61V82.9093C149.251 82.8653 149.259 82.7511 149.275 82.5665C149.299 82.3731 149.322 82.149 149.346 81.8941C149.378 81.6305 149.406 81.38 149.429 81.1427C149.461 80.8966 149.485 80.7032 149.501 80.5626C149.524 80.3868 149.552 80.1934 149.584 79.9825C149.624 79.7715 149.691 79.587 149.786 79.4288C149.881 79.2706 150.016 79.1915 150.19 79.1915C150.381 79.1915 150.515 79.2442 150.595 79.3497C150.682 79.4463 150.733 79.5694 150.749 79.7188C150.765 79.8682 150.773 80.022 150.773 80.1802V80.6417C150.773 80.6592 150.769 80.6988 150.761 80.7603C150.753 80.8131 150.741 80.8746 150.725 80.9449C150.67 81.2525 150.626 81.481 150.595 81.6305C150.571 81.7711 150.551 81.8941 150.535 81.9996C150.527 82.0963 150.523 82.2325 150.523 82.4083C150.523 82.5138 150.523 82.6456 150.523 82.8038C150.531 82.962 150.535 83.1686 150.535 83.4234C150.535 83.5377 150.539 83.652 150.547 83.7662C150.555 83.8717 150.559 83.986 150.559 84.109C150.559 84.2408 150.547 84.3815 150.523 84.5309C150.491 84.7506 150.42 84.9528 150.309 85.1373C150.198 85.3131 150.02 85.401 149.774 85.401Z" fill="#373435"/>
<path d="M154.051 85.8624C153.805 85.8624 153.623 85.7789 153.504 85.612C153.385 85.445 153.306 85.2428 153.266 85.0055C153.235 84.7594 153.219 84.5353 153.219 84.3331V83.8321C153.219 83.2784 153.227 82.7203 153.243 82.1578C153.266 81.5953 153.282 80.9888 153.29 80.3384C153.092 80.3472 152.922 80.3604 152.779 80.378C152.644 80.3956 152.505 80.4044 152.363 80.4044C151.998 80.4044 151.816 80.2066 151.816 79.8111C151.816 79.6617 151.84 79.521 151.887 79.3892C151.935 79.2486 152.034 79.1607 152.184 79.1255L153.231 78.8619C153.365 78.8267 153.453 78.7344 153.492 78.585C153.54 78.4268 153.564 78.2466 153.564 78.0445C153.572 77.8335 153.583 77.627 153.599 77.4248C153.623 77.2227 153.683 77.0557 153.778 76.9238C153.881 76.792 154.051 76.7261 154.289 76.7261C154.455 76.7261 154.578 76.7788 154.657 76.8843C154.745 76.981 154.804 77.0996 154.836 77.2403C154.868 77.3809 154.883 77.5171 154.883 77.649C154.883 77.6665 154.879 77.7281 154.871 77.8335C154.864 77.9302 154.852 78.0269 154.836 78.1236C154.828 78.2202 154.824 78.2818 154.824 78.3081V78.73H156.274C156.449 78.73 156.584 78.8223 156.679 79.0069C156.774 79.1827 156.821 79.3628 156.821 79.5474C156.821 79.5826 156.81 79.6485 156.786 79.7452C156.762 79.8419 156.718 79.9341 156.655 80.022C156.592 80.1011 156.504 80.1407 156.393 80.1407H154.871C154.864 80.1407 154.848 80.1495 154.824 80.1671C154.8 80.1758 154.772 80.2022 154.741 80.2462L154.717 80.2857C154.677 80.523 154.65 80.7164 154.634 80.8658C154.618 81.0064 154.606 81.1383 154.598 81.2613C154.598 81.3756 154.598 81.5162 154.598 81.6832C154.598 82.1666 154.606 82.65 154.622 83.1334C154.646 83.6168 154.657 84.1266 154.657 84.6627C154.657 84.8385 154.646 85.0187 154.622 85.2033C154.598 85.3878 154.543 85.5416 154.455 85.6647C154.368 85.7965 154.233 85.8624 154.051 85.8624Z" fill="#373435"/>
<path d="M158.526 85.5328C158.304 85.5328 158.137 85.4494 158.026 85.2824C157.923 85.1066 157.872 84.9044 157.872 84.6759C157.872 84.1486 157.9 83.6124 157.955 83.0675C158.019 82.5226 158.05 81.9952 158.05 81.4854C158.05 80.6065 158.019 79.7496 157.955 78.9146C157.9 78.0796 157.872 77.2227 157.872 76.3438V76.001C157.927 75.8604 158.003 75.7637 158.098 75.7109C158.201 75.6494 158.308 75.6187 158.419 75.6187C158.601 75.6187 158.748 75.689 158.859 75.8296C158.978 75.9702 159.069 76.1416 159.132 76.3438C159.196 76.5459 159.239 76.7481 159.263 76.9502C159.295 77.1524 159.311 77.3194 159.311 77.4512V81.8282L159.382 81.9073L159.394 81.8941C159.608 81.6568 159.81 81.3887 160 81.0899C160.198 80.7911 160.4 80.5054 160.607 80.233C160.821 79.9517 161.054 79.7188 161.308 79.5342C161.57 79.3497 161.871 79.2574 162.212 79.2574C162.513 79.2574 162.77 79.3453 162.984 79.521C163.206 79.6968 163.381 79.9254 163.508 80.2066C163.634 80.4879 163.718 80.7823 163.757 81.0899L164.114 83.8849V84.2804C164.114 84.421 164.106 84.5704 164.09 84.7286C164.074 84.8781 164.027 85.0055 163.948 85.111C163.876 85.2164 163.749 85.2692 163.567 85.2692C163.361 85.2692 163.198 85.1813 163.08 85.0055C162.969 84.8209 162.889 84.5968 162.842 84.3331C162.794 84.0695 162.763 83.8102 162.747 83.5553C162.731 83.3004 162.715 83.0982 162.699 82.9488C162.691 82.8873 162.679 82.773 162.663 82.6061C162.656 82.4391 162.64 82.2457 162.616 82.026C162.592 81.8062 162.56 81.5953 162.521 81.3931C162.481 81.1822 162.43 81.0108 162.366 80.879C162.311 80.7384 162.239 80.668 162.152 80.668C162.017 80.668 161.883 80.7296 161.748 80.8526C161.613 80.9757 161.502 81.1031 161.415 81.2349C161.003 81.8326 160.607 82.4654 160.226 83.1334C159.854 83.7926 159.481 84.4386 159.108 85.0714C159.045 85.1857 158.966 85.2911 158.871 85.3878C158.776 85.4845 158.661 85.5328 158.526 85.5328Z" fill="#373435"/>
<path d="M171.602 85.4669C171.261 85.4669 170.976 85.3878 170.746 85.2296C170.524 85.0626 170.349 84.8473 170.223 84.5836C170.096 84.3199 170.005 84.0343 169.949 83.7267C169.902 83.4103 169.878 83.0982 169.878 82.7906V82.1446C169.878 82.1183 169.89 82.0172 169.913 81.8414C169.937 81.6568 169.961 81.4591 169.985 81.2481C170.016 81.0372 170.04 80.879 170.056 80.7735C170.08 80.6505 170.108 80.4966 170.139 80.3121C170.179 80.1187 170.227 79.9297 170.282 79.7452C170.345 79.5518 170.425 79.3936 170.52 79.2706C170.623 79.1387 170.746 79.0728 170.888 79.0728C171.102 79.0728 171.265 79.1431 171.376 79.2837C171.495 79.4244 171.554 79.5958 171.554 79.7979C171.554 79.9649 171.53 80.1275 171.483 80.2857C171.443 80.4439 171.408 80.6065 171.376 80.7735C171.32 81.1075 171.265 81.4415 171.209 81.7755C171.162 82.1095 171.138 82.4478 171.138 82.7906C171.138 82.9137 171.146 83.0719 171.162 83.2652C171.178 83.4586 171.221 83.63 171.293 83.7794C171.364 83.9288 171.487 84.0035 171.661 84.0035C171.796 84.0035 171.954 83.9069 172.137 83.7135C172.327 83.5201 172.525 83.2696 172.731 82.962C172.945 82.6544 173.159 82.3204 173.373 81.96C173.587 81.5909 173.785 81.2349 173.968 80.8922C174.158 80.5406 174.321 80.233 174.455 79.9693C174.59 79.6968 174.685 79.5079 174.741 79.4024C174.804 79.3057 174.871 79.2266 174.943 79.1651C175.014 79.1036 175.105 79.0728 175.216 79.0728C175.589 79.0728 175.811 79.2662 175.882 79.6529V80.1275C175.882 80.5142 175.87 80.901 175.846 81.2877C175.831 81.6656 175.823 82.0348 175.823 82.3951V83.173C175.846 83.3136 175.898 83.441 175.977 83.5553C176.056 83.6695 176.128 83.7838 176.191 83.8981C176.263 84.0035 176.298 84.131 176.298 84.2804C176.298 84.4825 176.243 84.6539 176.132 84.7946C176.021 84.9352 175.874 85.0055 175.692 85.0055C175.454 85.0055 175.264 84.9176 175.121 84.7418C174.978 84.5573 174.867 84.3419 174.788 84.0958C174.741 83.9376 174.685 83.7355 174.622 83.4894C174.566 83.2345 174.511 82.984 174.455 82.7379C174.336 82.9664 174.202 83.1949 174.051 83.4234C173.908 83.6432 173.758 83.8585 173.599 84.0694C173.346 84.421 173.048 84.7418 172.707 85.0319C172.367 85.3219 171.998 85.4669 171.602 85.4669Z" fill="#373435"/>
<path d="M179.905 85.7965C179.683 85.7965 179.429 85.7746 179.144 85.7306C178.858 85.6954 178.581 85.6251 178.311 85.5197C178.042 85.4142 177.816 85.256 177.634 85.045C177.459 84.8341 177.372 84.5572 177.372 84.2145C177.372 83.986 177.424 83.7882 177.527 83.6212C177.63 83.4454 177.796 83.3575 178.026 83.3575C178.169 83.3575 178.28 83.3971 178.359 83.4762C178.438 83.5553 178.506 83.652 178.561 83.7662C178.624 83.8805 178.696 83.9991 178.775 84.1222C178.862 84.2364 178.977 84.3331 179.12 84.4122C179.27 84.4913 179.473 84.5309 179.726 84.5309C179.909 84.5309 180.107 84.5089 180.321 84.465C180.543 84.4122 180.733 84.3199 180.891 84.1881C181.05 84.0563 181.129 83.8761 181.129 83.6476C181.129 83.4454 181.054 83.2872 180.903 83.173C180.753 83.0499 180.559 82.9444 180.321 82.8565C180.083 82.7687 179.833 82.6808 179.572 82.5929C179.31 82.4962 179.06 82.3775 178.823 82.2369C178.585 82.0963 178.391 81.9117 178.24 81.6832C178.089 81.4459 178.014 81.1427 178.014 80.7735C178.014 80.4307 178.089 80.1363 178.24 79.8902C178.391 79.6441 178.585 79.4419 178.823 79.2837C179.068 79.1167 179.33 78.9981 179.607 78.9278C179.893 78.8487 180.166 78.8091 180.428 78.8091C180.578 78.8091 180.753 78.8311 180.951 78.875C181.149 78.9102 181.343 78.9717 181.533 79.0596C181.724 79.1475 181.882 79.2706 182.009 79.4288C182.136 79.5782 182.199 79.7671 182.199 79.9957C182.199 80.4 182.017 80.6021 181.652 80.6021H181.498C181.26 80.4527 181.058 80.3384 180.891 80.2593C180.725 80.1802 180.535 80.1407 180.321 80.1407C180.226 80.1407 180.091 80.1539 179.916 80.1802C179.75 80.1978 179.599 80.2462 179.465 80.3253C179.33 80.4044 179.263 80.5318 179.263 80.7076C179.263 80.857 179.338 80.9801 179.488 81.0767C179.639 81.1734 179.833 81.2657 180.071 81.3536C180.309 81.4415 180.559 81.5382 180.82 81.6436C181.082 81.7491 181.331 81.8853 181.569 82.0523C181.807 82.2105 182.001 82.4127 182.152 82.6588C182.302 82.9049 182.378 83.2125 182.378 83.5817C182.378 84.1178 182.255 84.5485 182.009 84.8737C181.771 85.1989 181.462 85.4362 181.082 85.5856C180.709 85.7262 180.317 85.7965 179.905 85.7965Z" fill="#373435"/>
<path d="M4.37961 14.7596C3.65653 14.7566 3.0102 14.5807 2.44061 14.232C1.87102 13.8833 1.42139 13.403 1.09172 12.791C0.762011 12.1698 0.595512 11.4673 0.592223 10.6835C0.590235 10.2095 0.657015 9.71309 0.792565 9.19414C0.928077 8.66607 1.11962 8.15647 1.36719 7.66532C1.62337 7.17421 1.92708 6.72887 2.27833 6.3293C2.63815 5.92065 3.04137 5.59876 3.488 5.36364C3.93463 5.12851 4.41188 5.01201 4.91976 5.01411C5.30712 5.01571 5.69053 5.09933 6.06997 5.26495C6.45803 5.43062 6.77756 5.67803 7.02857 6.00718C7.28815 6.32725 7.41896 6.72882 7.42099 7.21189L7.42271 7.62203C7.3631 7.77673 7.28172 7.87209 7.17858 7.90812C7.07544 7.94415 6.9593 7.9619 6.83018 7.96137C6.64941 7.96062 6.50717 7.9099 6.40345 7.80921C6.30834 7.70856 6.22604 7.58518 6.15657 7.43906C6.08709 7.29295 6.01331 7.14682 5.93523 7.00066C5.85714 6.85451 5.74902 6.73102 5.61087 6.63019C5.48133 6.5294 5.29605 6.4785 5.05502 6.47751C4.59018 6.47558 4.1732 6.5969 3.80409 6.84146C3.44354 7.07693 3.13497 7.3901 2.87837 7.78095C2.62177 8.1718 2.42556 8.5948 2.28975 9.04995C2.15389 9.49599 2.08684 9.92864 2.0886 10.3479C2.08994 10.6669 2.13866 10.9952 2.23476 11.3328C2.33083 11.6614 2.46556 11.9718 2.63894 12.2642C2.8209 12.5475 3.04138 12.7808 3.30039 12.9642C3.55936 13.1384 3.8524 13.2262 4.17951 13.2276C4.57548 13.2292 4.97113 13.1534 5.36645 13.0001C5.76177 12.8467 6.10518 12.6294 6.39667 12.3481C6.53383 12.2119 6.67961 12.0804 6.83402 11.9534C6.98843 11.8265 7.16463 11.7634 7.36261 11.7642C7.55199 11.765 7.71583 11.834 7.85414 11.9713C8.00101 12.0995 8.07496 12.2867 8.076 12.5328C8.07642 12.633 8.05101 12.7332 7.99979 12.8332C7.94856 12.9333 7.8887 13.0287 7.82022 13.1196C7.76031 13.2014 7.69177 13.2785 7.6146 13.3511C7.5374 13.4146 7.46021 13.4827 7.38304 13.5553C6.95428 13.9454 6.4907 14.2442 5.99231 14.4518C5.49392 14.6594 4.95636 14.762 4.37961 14.7596Z" fill="#373435"/>
<path d="M10.0567 14.578C9.90173 14.5774 9.78529 14.5222 9.70736 14.4125C9.62943 14.3028 9.57724 14.175 9.55081 14.0291C9.52433 13.874 9.49793 13.7372 9.47161 13.6186L9.46737 12.6069C9.46523 12.0965 9.48458 11.5816 9.52545 11.0623C9.56627 10.5338 9.58563 10.0189 9.58352 9.51763C9.58253 9.28066 9.56005 9.05271 9.5161 8.83378C9.47214 8.61486 9.44968 8.39147 9.44872 8.16361L9.44717 7.79447C9.51547 7.65804 9.60543 7.55816 9.71707 7.49482C9.83731 7.43152 9.962 7.40013 10.0911 7.40067C10.2805 7.40145 10.4228 7.46128 10.518 7.58016C10.6131 7.68993 10.6782 7.82235 10.7133 7.97744C10.757 8.13257 10.7963 8.274 10.8313 8.40174C10.8662 8.52037 10.9225 8.58896 11 8.60751C11.2489 8.43537 11.4849 8.26774 11.7081 8.1046C11.9398 7.94151 12.1803 7.81034 12.4295 7.71112C12.6873 7.60282 12.9711 7.5493 13.281 7.55059C13.4359 7.55123 13.5997 7.58836 13.7721 7.66199C13.9532 7.73566 14.1086 7.84111 14.2383 7.97836C14.3679 8.1065 14.4332 8.26627 14.434 8.45767C14.435 8.69465 14.3453 8.86745 14.165 8.97607C13.9933 9.08473 13.83 9.13874 13.675 9.1381C13.5717 9.13767 13.4726 9.11448 13.3778 9.06851C13.2829 9.02255 13.1838 8.99935 13.0805 8.99892C12.7792 8.99768 12.4955 9.07853 12.2293 9.24149C11.9717 9.39536 11.7444 9.58126 11.5473 9.79919C11.3503 10.0171 11.1919 10.2215 11.0722 10.4124C11.0381 10.4943 11.0128 10.6309 10.9964 10.8223C10.98 11.0136 10.968 11.2323 10.9604 11.4783C10.9528 11.7153 10.9452 11.9477 10.9375 12.1755C10.9385 12.4033 10.935 12.5993 10.9271 12.7633C10.9197 13.0641 10.8908 13.3556 10.8404 13.6379C10.7985 13.9112 10.7176 14.1387 10.5979 14.3205C10.4781 14.4932 10.2977 14.579 10.0567 14.578Z" fill="#373435"/>
<path d="M18.0402 14.6794C17.4204 14.6768 16.8476 14.5742 16.3216 14.3715C15.8043 14.1598 15.3854 13.8299 15.065 13.382C14.7446 12.9249 14.5829 12.3364 14.5799 11.6164C14.5776 11.0695 14.6571 10.5366 14.8185 10.0178C14.9885 9.49899 15.2318 9.03062 15.5486 8.61267C15.8653 8.18561 16.2469 7.84996 16.6935 7.60573C17.1401 7.35238 17.6431 7.22686 18.2026 7.22918C18.5814 7.23075 18.9347 7.31424 19.2625 7.47965C19.5988 7.63598 19.8667 7.86951 20.0659 8.18022C20.2738 8.48185 20.3786 8.85141 20.3805 9.2889C20.3822 9.70817 20.3021 10.1089 20.1402 10.491C19.9782 10.8731 19.7559 11.214 19.4731 11.5136C19.1903 11.8132 18.8684 12.0488 18.5076 12.2205C18.1554 12.3831 17.7856 12.4636 17.3982 12.462C17.338 12.4617 17.2045 12.4475 16.9978 12.4193C16.791 12.382 16.6273 12.3449 16.5067 12.3079C16.4205 12.2893 16.3515 12.2526 16.2996 12.1977C16.2823 12.1885 16.2522 12.1747 16.209 12.1563C16.1659 12.1288 16.1357 12.115 16.1185 12.1149C16.1798 12.3795 16.3056 12.6033 16.4957 12.7864C16.6945 12.9604 16.9188 13.0889 17.1688 13.172C17.4274 13.2551 17.6729 13.2971 17.9053 13.298C18.0689 13.2987 18.2324 13.2903 18.3958 13.2727C18.5679 13.2461 18.7486 13.2332 18.938 13.234C19.1274 13.2347 19.2911 13.2901 19.4293 13.4001C19.5675 13.51 19.6371 13.688 19.6382 13.9341C19.639 14.1346 19.5794 14.2893 19.4593 14.3982C19.3479 14.5071 19.2019 14.5794 19.0212 14.6151C18.8492 14.6509 18.6729 14.6684 18.4921 14.6676C18.32 14.676 18.1693 14.6799 18.0402 14.6794ZM17.3916 10.8761C17.6498 10.8772 17.9035 10.8281 18.1528 10.7288C18.4105 10.6205 18.6208 10.4619 18.7834 10.253C18.9547 10.044 19.0397 9.78464 19.0384 9.47475C19.0373 9.21043 18.959 9.00048 18.8034 8.84489C18.6564 8.68934 18.4581 8.61105 18.2084 8.61001C17.9846 8.60909 17.7482 8.67191 17.4991 8.79847C17.25 8.92504 17.0139 9.08812 16.791 9.28771C16.5766 9.48734 16.401 9.70536 16.2643 9.94176C16.1275 10.1691 16.0596 10.3921 16.0605 10.6108L16.0608 10.6655C16.2847 10.7029 16.5087 10.7494 16.7328 10.805C16.9568 10.8515 17.1764 10.8752 17.3916 10.8761Z" fill="#373435"/>
<path d="M24.1695 14.6364C23.7735 14.6348 23.4029 14.5376 23.0578 14.3447C22.7127 14.1519 22.4233 13.8955 22.1895 13.5755C21.9557 13.2465 21.8035 12.8767 21.7329 12.4663L21.73 11.769C21.7279 11.2586 21.8118 10.744 21.9818 10.2252C22.1517 9.70638 22.3951 9.22889 22.7117 8.79271C23.0283 8.34742 23.4056 7.99353 23.8435 7.73103C24.2814 7.45941 24.7629 7.32469 25.288 7.32687C25.5032 7.32776 25.6884 7.36954 25.8437 7.45221C26.0076 7.53492 26.1543 7.62211 26.2838 7.71379C26.4219 7.79639 26.5555 7.84707 26.6847 7.86583C26.752 7.49243 26.8457 7.24673 26.9657 7.12874C27.0857 7.00164 27.2489 6.93851 27.4555 6.93937C27.7052 6.9404 27.8734 7.02768 27.9602 7.20122C28.0556 7.36567 28.1038 7.57549 28.1049 7.8307C28.107 8.33199 28.0961 8.82412 28.0723 9.30707C28.0571 9.79007 28.0506 10.2868 28.0528 10.7972C28.0544 11.1982 28.0777 11.613 28.1225 12.0416C28.1674 12.4701 28.1906 12.8849 28.1923 13.2859L28.1935 13.5731C28.1944 13.7736 28.1564 13.9603 28.0797 14.1331C28.0115 14.2969 27.8526 14.3783 27.603 14.3772C27.3705 14.3763 27.2024 14.3026 27.0985 14.1564C27.0031 14.0011 26.9378 13.8185 26.9025 13.6087C26.8757 13.3899 26.8491 13.1938 26.8225 13.0205L26.7707 12.9656C26.4793 13.2743 26.2179 13.5558 25.9866 13.81C25.7638 14.0643 25.5151 14.2683 25.2403 14.4221C24.9654 14.5668 24.6085 14.6382 24.1695 14.6364ZM24.0346 13.2551C24.3358 13.2563 24.6195 13.1618 24.8856 12.9715C25.1602 12.7721 25.4044 12.5179 25.6183 12.2089C25.8322 11.8908 25.9987 11.5588 26.1177 11.213C26.2368 10.8671 26.2957 10.5438 26.2944 10.243C26.2935 10.0152 26.2624 9.78719 26.2012 9.55908C26.1399 9.32186 26.0358 9.12092 25.8887 8.95625C25.7503 8.79162 25.552 8.70877 25.2938 8.7077C25.0097 8.70653 24.7304 8.81018 24.4558 9.01867C24.1898 9.2272 23.9499 9.49508 23.7361 9.82231C23.5222 10.1404 23.3515 10.4769 23.2238 10.8319C23.0962 11.1777 23.0329 11.4919 23.0341 11.7744C23.0351 12.0023 23.0662 12.2303 23.1274 12.4584C23.1972 12.6865 23.3056 12.8784 23.4526 13.0339C23.5995 13.1803 23.7935 13.2541 24.0346 13.2551Z" fill="#373435"/>
<path d="M31.8447 14.8049C31.5779 14.8038 31.3795 14.7164 31.2497 14.5427C31.1198 14.369 31.0329 14.159 30.9888 13.9127C30.9533 13.6574 30.9351 13.4249 30.9342 13.2153L30.932 12.6957C30.9296 12.1215 30.9358 11.5428 30.9506 10.9596C30.9739 10.3763 30.9885 9.74752 30.9943 9.07309C30.7791 9.08131 30.5941 9.09421 30.4392 9.1118C30.293 9.12942 30.1424 9.13792 29.9874 9.13727C29.5915 9.13563 29.3926 8.92974 29.3909 8.51959C29.3902 8.36465 29.4155 8.21892 29.4665 8.08242C29.5176 7.9368 29.6248 7.8461 29.7882 7.81032L30.9233 7.5416C31.0695 7.50574 31.1638 7.41043 31.2062 7.25567C31.2571 7.09182 31.2822 6.90508 31.2813 6.69545C31.289 6.47674 31.301 6.26261 31.3173 6.05305C31.3423 5.84352 31.4061 5.67061 31.5088 5.53432C31.6202 5.39807 31.805 5.33048 32.0632 5.33155C32.244 5.3323 32.3776 5.38754 32.4642 5.49727C32.5593 5.59792 32.6244 5.72123 32.6594 5.8672C32.6944 6.01317 32.7122 6.15452 32.7128 6.29124C32.7129 6.30946 32.7089 6.37325 32.7007 6.48258C32.6925 6.58281 32.68 6.68301 32.6632 6.7832C32.6551 6.88342 32.651 6.94721 32.6511 6.97455L32.653 7.41204L34.2283 7.41856C34.4176 7.41935 34.5644 7.51565 34.6685 7.70749C34.7725 7.8902 34.825 8.07726 34.8258 8.26866C34.8259 8.30512 34.8133 8.37343 34.7879 8.47358C34.7625 8.57373 34.7155 8.66924 34.6471 8.76009C34.5785 8.84184 34.484 8.88246 34.3635 8.88196L32.7108 8.87512C32.7021 8.87508 32.685 8.88413 32.6592 8.90225C32.6334 8.91126 32.6034 8.93848 32.5692 8.98391L32.5435 9.02481C32.5015 9.27073 32.4722 9.47112 32.4557 9.62599C32.4391 9.77175 32.4267 9.90841 32.4187 10.036C32.4191 10.1545 32.4198 10.3003 32.4205 10.4735C32.4226 10.9748 32.4333 11.4761 32.4526 11.9775C32.4805 12.4789 32.4957 13.0075 32.498 13.5635C32.4988 13.7458 32.4866 13.9326 32.4616 14.1239C32.4366 14.3152 32.377 14.4745 32.2829 14.6017C32.1887 14.738 32.0427 14.8057 31.8447 14.8049Z" fill="#373435"/>
<path d="M39.3251 14.7675C38.7053 14.765 38.1325 14.6623 37.6065 14.4596C37.0892 14.2479 36.6703 13.918 36.3499 13.4701C36.0295 13.0131 35.8678 12.4245 35.8648 11.7045C35.8625 11.1576 35.942 10.6248 36.1034 10.1059C36.2734 9.58711 36.5167 9.11873 36.8335 8.70079C37.1502 8.27373 37.5318 7.93808 37.9784 7.69385C38.425 7.44049 38.928 7.31498 39.4875 7.31729C39.8663 7.31886 40.2196 7.40235 40.5474 7.56777C40.8837 7.7241 41.1515 7.95762 41.3508 8.26833C41.5587 8.56996 41.6635 8.93953 41.6654 9.37702C41.6671 9.79628 41.587 10.197 41.4251 10.5791C41.2631 10.9612 41.0408 11.3021 40.758 11.6017C40.4752 11.9013 40.1533 12.1369 39.7925 12.3086C39.4403 12.4712 39.0705 12.5517 38.6831 12.5501C38.6229 12.5499 38.4894 12.5356 38.2827 12.5074C38.0759 12.4701 37.9122 12.433 37.7915 12.396C37.7054 12.3774 37.6364 12.3407 37.5845 12.2858C37.5672 12.2766 37.5371 12.2628 37.4939 12.2444C37.4508 12.2169 37.4206 12.2031 37.4034 12.203C37.4647 12.4676 37.5905 12.6914 37.7806 12.8745C37.9794 13.0485 38.2037 13.177 38.4537 13.2601C38.7123 13.3432 38.9578 13.3852 39.1902 13.3862C39.3537 13.3868 39.5173 13.3784 39.6807 13.3609C39.8528 13.3342 40.0335 13.3213 40.2229 13.3221C40.4123 13.3229 40.576 13.3782 40.7142 13.4882C40.8524 13.5981 40.922 13.7761 40.9231 14.0222C40.9239 14.2227 40.8643 14.3774 40.7442 14.4863C40.6328 14.5952 40.4868 14.6675 40.3061 14.7032C40.1341 14.739 39.9577 14.7565 39.777 14.7557C39.6049 14.7641 39.4542 14.7681 39.3251 14.7675ZM38.6765 10.9642C38.9347 10.9653 39.1884 10.9162 39.4377 10.817C39.6954 10.7087 39.9057 10.55 40.0683 10.3411C40.2396 10.1322 40.3246 9.87275 40.3233 9.56286C40.3222 9.29854 40.2439 9.08859 40.0883 8.933C39.9413 8.77745 39.743 8.69916 39.4933 8.69813C39.2695 8.6972 39.0331 8.76002 38.784 8.88659C38.5349 9.01316 38.2988 9.17624 38.0759 9.37583C37.8615 9.57546 37.6859 9.79347 37.5492 10.0299C37.4124 10.2572 37.3445 10.4802 37.3454 10.6989L37.3457 10.7536C37.5696 10.791 37.7936 10.8375 38.0177 10.8931C38.2417 10.9396 38.4613 10.9633 38.6765 10.9642Z" fill="#373435"/>
<path d="M13.8235 32.4249C13.6636 32.4249 13.5437 32.3431 13.4637 32.1795C13.3838 32.025 13.3438 31.8705 13.3438 31.716C13.3438 31.4252 13.406 31.148 13.5304 30.8845C13.6547 30.63 13.7658 30.371 13.8635 30.1075C13.9079 29.9893 13.9612 29.8348 14.0234 29.644C14.0944 29.4622 14.1611 29.2759 14.2232 29.0851C14.2943 28.8943 14.352 28.7307 14.3965 28.5944C14.4409 28.458 14.4631 28.3808 14.4631 28.3626V28.3217C13.9745 28.2854 13.5659 28.1536 13.2372 27.9264C12.9085 27.6992 12.6465 27.4129 12.451 27.0676C12.2556 26.7223 12.109 26.3451 12.0113 25.9362C11.9136 25.5181 11.847 25.0955 11.8115 24.6684C11.7848 24.2413 11.7715 23.8414 11.7715 23.4688C11.7715 23.3507 11.7759 23.1962 11.7848 23.0053C11.7937 22.8054 11.8159 22.6055 11.8514 22.4055C11.8958 22.2056 11.9625 22.0375 12.0513 21.9011C12.149 21.7648 12.2823 21.6967 12.451 21.6967C12.7797 21.6967 12.9929 21.8194 13.0906 22.0647C13.1972 22.3101 13.2505 22.5782 13.2505 22.869C13.2505 23.0689 13.2372 23.2552 13.2106 23.4279C13.1928 23.6006 13.1839 23.7914 13.1839 24.0004V24.1368C13.1839 24.2004 13.1972 24.3367 13.2239 24.5457C13.2505 24.7547 13.2772 24.9683 13.3038 25.1864C13.3394 25.4045 13.366 25.5681 13.3838 25.6771C13.4282 25.977 13.517 26.2406 13.6503 26.4678C13.7835 26.6859 13.9701 26.795 14.2099 26.795C14.4942 26.795 14.7429 26.6814 14.9561 26.4542C15.1782 26.227 15.3736 25.9316 15.5424 25.5681C15.7201 25.2046 15.8888 24.8229 16.0487 24.423C16.2086 24.0141 16.3685 23.6278 16.5284 23.2643C16.6883 22.9008 16.8615 22.6055 17.0481 22.3783C17.2435 22.1511 17.4612 22.0375 17.701 22.0375C18.1008 22.0375 18.3006 22.2647 18.3006 22.719C18.3006 23.028 18.2518 23.3234 18.1541 23.6051C18.0652 23.8868 17.9497 24.1595 17.8076 24.423C17.6744 24.6866 17.5322 24.9456 17.3812 25.2C17.2302 25.4545 17.097 25.7135 16.9815 25.977C16.6261 26.7495 16.2975 27.5447 15.9954 28.3626C15.7023 29.1714 15.418 29.9848 15.1427 30.8027C15.0716 31.0117 14.9828 31.2435 14.8762 31.4979C14.7696 31.7524 14.6319 31.9705 14.4631 32.1523C14.3032 32.334 14.09 32.4249 13.8235 32.4249Z" fill="#373435"/>
<path d="M23.1122 28.8534C22.4726 28.8534 21.8775 28.7125 21.3267 28.4308C20.7759 28.149 20.3318 27.7492 19.9942 27.2312C19.6567 26.7132 19.4879 26.1088 19.4879 25.4181C19.4879 24.9456 19.5812 24.5094 19.7677 24.1095C19.9631 23.7005 20.2074 23.3188 20.5006 22.9644C20.8026 22.61 21.1046 22.2783 21.4066 21.9693C21.5665 21.8057 21.7575 21.6876 21.9796 21.6149C22.2017 21.5331 22.4282 21.4922 22.6592 21.4922C23.2366 21.4922 23.7918 21.5558 24.3248 21.683C24.8578 21.8103 25.333 22.0193 25.7505 22.3101C26.1769 22.5918 26.5145 22.969 26.7632 23.4415C27.0119 23.905 27.1363 24.473 27.1363 25.1455C27.1363 25.6999 27.0208 26.2042 26.7899 26.6586C26.5589 27.113 26.248 27.5038 25.8571 27.831C25.4751 28.1581 25.0443 28.4126 24.5646 28.5944C24.0938 28.767 23.6097 28.8534 23.1122 28.8534ZM22.8457 27.3402C23.3343 27.3402 23.7962 27.2539 24.2315 27.0812C24.6668 26.8995 25.0221 26.6314 25.2975 26.2769C25.5817 25.9134 25.7239 25.4681 25.7239 24.941C25.7239 24.4776 25.5906 24.0913 25.3241 23.7823C25.0665 23.4733 24.7378 23.2461 24.3381 23.1007C23.9384 22.9462 23.5297 22.869 23.1122 22.869C22.899 22.869 22.7258 22.9008 22.5926 22.9644C22.4593 23.028 22.3394 23.1144 22.2328 23.2234C22.1262 23.3325 22.0018 23.4597 21.8597 23.6051C21.611 23.8687 21.3889 24.1595 21.1935 24.4776C20.998 24.7865 20.9003 25.141 20.9003 25.5408C20.9003 26.177 21.0869 26.6359 21.4599 26.9176C21.833 27.1994 22.295 27.3402 22.8457 27.3402Z" fill="#373435"/>
<path d="M30.5706 28.717C30.1886 28.717 29.8688 28.6352 29.6112 28.4717C29.3624 28.299 29.167 28.0763 29.0249 27.8037C28.8828 27.5311 28.7806 27.2357 28.7184 26.9176C28.6651 26.5905 28.6385 26.2679 28.6385 25.9498V25.2818C28.6385 25.2546 28.6518 25.1501 28.6784 24.9683C28.7051 24.7774 28.7317 24.573 28.7584 24.3549C28.7939 24.1368 28.8206 23.9732 28.8383 23.8641C28.865 23.7369 28.8961 23.5779 28.9316 23.387C28.976 23.1871 29.0293 22.9917 29.0915 22.8008C29.1626 22.6009 29.2514 22.4373 29.358 22.3101C29.4735 22.1738 29.6112 22.1056 29.7711 22.1056C30.0109 22.1056 30.193 22.1783 30.3174 22.3237C30.4506 22.4691 30.5173 22.6463 30.5173 22.8554C30.5173 23.028 30.4906 23.1962 30.4373 23.3597C30.3929 23.5233 30.3529 23.6914 30.3174 23.8641C30.2552 24.2095 30.193 24.5548 30.1308 24.9001C30.0775 25.2455 30.0509 25.5954 30.0509 25.9498C30.0509 26.077 30.0598 26.2406 30.0775 26.4405C30.0953 26.6405 30.1442 26.8177 30.2241 26.9722C30.3041 27.1267 30.4417 27.2039 30.6372 27.2039C30.7882 27.2039 30.9659 27.1039 31.1702 26.904C31.3834 26.7041 31.6054 26.4451 31.8364 26.127C32.0763 25.8089 32.3161 25.4636 32.5559 25.091C32.7958 24.7093 33.0179 24.3412 33.2222 23.9868C33.4354 23.6233 33.6175 23.3052 33.7685 23.0326C33.9195 22.7509 34.0261 22.5555 34.0883 22.4464C34.1594 22.3464 34.2349 22.2647 34.3148 22.201C34.3948 22.1374 34.4969 22.1056 34.6213 22.1056C35.0388 22.1056 35.2875 22.3056 35.3675 22.7054V23.1962C35.3675 23.596 35.3541 23.9959 35.3275 24.3958C35.3097 24.7865 35.3008 25.1682 35.3008 25.5408V26.3451C35.3275 26.4905 35.3852 26.6223 35.4741 26.7404C35.5629 26.8586 35.6429 26.9767 35.7139 27.0949C35.7939 27.2039 35.8338 27.3357 35.8338 27.4902C35.8338 27.6992 35.7717 27.8764 35.6473 28.0218C35.5229 28.1672 35.3586 28.2399 35.1543 28.2399C34.8878 28.2399 34.6746 28.149 34.5147 27.9673C34.3548 27.7764 34.2304 27.5538 34.1416 27.2993C34.0883 27.1358 34.0261 26.9267 33.955 26.6723C33.8929 26.4087 33.8307 26.1497 33.7685 25.8953C33.6353 26.1315 33.4842 26.3678 33.3155 26.6041C33.1556 26.8313 32.9868 27.054 32.8091 27.2721C32.5249 27.6356 32.1917 27.9673 31.8098 28.2672C31.4278 28.5671 31.0147 28.717 30.5706 28.717Z" fill="#373435"/>
<path d="M37.9434 28.9897C37.7835 28.9897 37.6636 28.9351 37.5837 28.8261C37.5037 28.717 37.4504 28.5898 37.4238 28.4444C37.3971 28.2899 37.3705 28.1536 37.3438 28.0354V27.0267C37.3438 26.5178 37.366 26.0043 37.4104 25.4863C37.4548 24.9592 37.4771 24.4457 37.4771 23.9459C37.4771 23.7096 37.4548 23.4824 37.4104 23.2643C37.366 23.0462 37.3438 22.8236 37.3438 22.5964V22.2283C37.4149 22.092 37.5081 21.992 37.6236 21.9284C37.748 21.8648 37.8768 21.833 38.01 21.833C38.2055 21.833 38.352 21.8921 38.4498 22.0102C38.5475 22.1193 38.6141 22.251 38.6496 22.4055C38.6941 22.56 38.734 22.7009 38.7696 22.8281C38.8051 22.9462 38.8628 23.0144 38.9428 23.0326C39.2004 22.8599 39.4447 22.6918 39.6756 22.5282C39.9155 22.3646 40.1642 22.2328 40.4218 22.1329C40.6883 22.0238 40.9815 21.9693 41.3013 21.9693C41.4612 21.9693 41.6299 22.0057 41.8076 22.0784C41.9942 22.1511 42.1541 22.2556 42.2873 22.3919C42.4205 22.5191 42.4872 22.6782 42.4872 22.869C42.4872 23.1053 42.3939 23.278 42.2073 23.387C42.0297 23.4961 41.8609 23.5506 41.701 23.5506C41.5944 23.5506 41.4923 23.5279 41.3945 23.4824C41.2968 23.437 41.1947 23.4143 41.0881 23.4143C40.7772 23.4143 40.484 23.4961 40.2086 23.6596C39.9421 23.8141 39.7067 24.0004 39.5024 24.2185C39.2981 24.4367 39.1338 24.6411 39.0094 24.832C38.9739 24.9138 38.9472 25.0501 38.9295 25.2409C38.9117 25.4318 38.8984 25.6499 38.8895 25.8953C38.8806 26.1315 38.8717 26.3633 38.8628 26.5905C38.8628 26.8177 38.8584 27.0131 38.8495 27.1766C38.8406 27.4765 38.8095 27.7674 38.7562 28.0491C38.7118 28.3217 38.6274 28.5489 38.5031 28.7307C38.3787 28.9033 38.1922 28.9897 37.9434 28.9897Z" fill="#373435"/>
<path d="M231.099 29.7583C229.937 29.7535 228.803 29.5427 227.695 29.1258C226.588 28.7089 225.723 27.9838 225.1 26.9504C225.024 26.8002 224.911 26.5654 224.759 26.2462C224.608 25.927 224.532 25.683 224.531 25.5143L224.521 23.0123C224.518 22.3939 224.722 21.7856 225.132 21.1876C225.542 20.5896 226.027 20.0387 226.587 19.535C227.165 19.0127 227.679 18.5744 228.127 18.2201C228.333 18.0711 228.529 17.9219 228.716 17.7728C228.921 17.605 229.117 17.4277 229.304 17.2411C229.416 17.1666 229.472 17.0263 229.471 16.8201C229.469 16.4078 229.439 15.9954 229.381 15.5828C229.342 15.1516 229.321 14.7298 229.32 14.3175C229.316 13.4367 229.481 12.5659 229.815 11.7052C230.149 10.8444 230.652 10.1343 231.324 9.5749C231.996 9.01544 232.82 8.73773 233.794 8.74176C234.844 8.74611 235.707 9.10577 236.385 9.82074C237.081 10.5171 237.432 11.4275 237.437 12.552C237.44 13.3953 237.275 14.1255 236.94 14.7426C236.605 15.3597 236.167 15.9108 235.626 16.3958C235.103 16.8809 234.561 17.3659 234.001 17.8509C233.833 17.9251 233.749 18.0466 233.75 18.2153C233.75 18.3277 233.835 18.5436 234.005 18.8629C234.175 19.1822 234.392 19.5486 234.657 19.962C234.921 20.3754 235.194 20.7795 235.477 21.1742C235.76 21.5502 236.014 21.8698 236.24 22.1332C236.485 22.3778 236.654 22.5003 236.748 22.5007L236.86 22.5012L238.365 19.3308C238.513 19.0503 238.691 18.8636 238.896 18.7707C239.102 18.6591 239.355 18.604 239.655 18.6052C240.142 18.6072 240.499 18.7399 240.725 19.0032C240.951 19.2665 241.065 19.6137 241.066 20.0448C241.069 20.607 240.93 21.1312 240.651 21.6173C240.391 22.1035 240.121 22.5897 239.842 23.0758C239.582 23.5432 239.453 24.0581 239.455 24.6203C239.457 24.9577 239.598 25.23 239.88 25.4373C240.181 25.6447 240.519 25.8429 240.895 26.0319C241.289 26.2209 241.628 26.466 241.91 26.767C242.211 27.0494 242.363 27.4436 242.365 27.9496C242.366 28.2494 242.339 28.4836 242.283 28.652C242.246 28.8018 242.144 28.9982 241.977 29.2411L241.358 29.2386C240.871 29.2365 240.439 29.141 240.064 28.9521C239.688 28.7444 239.331 28.518 238.993 28.273C238.673 28.0093 238.363 27.7831 238.062 27.5944C237.78 27.3871 237.48 27.2828 237.161 27.2815L236.936 27.2805C236.04 28.064 235.115 28.6786 234.161 29.1244C233.207 29.5515 232.186 29.7628 231.099 29.7583ZM232.698 15.5403L232.811 15.5408C233.296 15.1305 233.735 14.6731 234.126 14.1687C234.518 13.6643 234.712 13.1217 234.71 12.5407C234.709 12.2595 234.633 11.9968 234.482 11.7526C234.349 11.4897 234.124 11.3575 233.805 11.3562C233.543 11.3551 233.3 11.4947 233.076 11.7749C232.852 12.0551 232.666 12.3916 232.518 12.7846C232.389 13.1776 232.325 13.5616 232.326 13.9364C232.327 14.0301 232.318 14.2081 232.3 14.4704C232.301 14.7328 232.33 14.9766 232.388 15.2017C232.445 15.4268 232.548 15.5397 232.698 15.5403ZM230.834 26.7493C231.508 26.752 232.182 26.6049 232.856 26.3078C233.529 26.0108 234.109 25.5727 234.593 24.9938C234.404 24.6182 234.178 24.2892 233.915 24.007C233.651 23.7248 233.387 23.4145 233.123 23.0761C232.84 22.6064 232.52 22.1552 232.162 21.7227C231.804 21.2902 231.484 20.8391 231.201 20.3694C231.182 20.3318 231.144 20.2848 231.087 20.2283C231.031 20.1719 230.975 20.1154 230.918 20.059C230.656 20.0954 230.338 20.2815 229.965 20.6173C229.591 20.9343 229.218 21.3263 228.845 21.7933C228.472 22.2416 228.155 22.6807 227.895 23.1106C227.653 23.5407 227.533 23.8869 227.534 24.1493C227.536 24.7303 227.698 25.2182 228.018 25.6131C228.357 25.9893 228.78 26.2722 229.286 26.4617C229.793 26.6512 230.309 26.7471 230.834 26.7493Z" fill="#373435"/>
</svg>
