<svg width="253" height="187" viewBox="0 0 253 187" fill="none" xmlns="http://www.w3.org/2000/svg">
<path d="M105 132.5L43.5 110.5L1 126.5V186.5H252V108.5L204 74.5L105 132.5Z" fill="#E5E5E5"/>
<path d="M136 79.5C136 90.8218 126.822 100 115.5 100C104.178 100 95 90.8218 95 79.5C95 68.1782 104.178 59 115.5 59C126.822 59 136 68.1782 136 79.5Z" fill="#D9D9D9"/>
<path d="M97.4409 6H5C2.79086 6 1 7.79086 1 10V182C1 184.209 2.79086 186 5 186H248C250.209 186 252 184.209 252 182V10C252 7.79086 250.209 6 248 6H155.559" stroke="#999696"/>
<path d="M125.5 0V28" stroke="#999696"/>
<path d="M119.5 20L125.5 28L131.5 20" stroke="#999696"/>
</svg>
