<svg width="74" height="79" viewBox="0 0 74 79" fill="none" xmlns="http://www.w3.org/2000/svg">
<path d="M26.5 21.9219L9 16.9221L70.5 16.9219V59.9219L60.5 49.9219L57.1483 45.4658L52.5 43.9217L46.3406 41.6423L41.6923 39.5834L38.5934 30.3187L33.5 27.4219L26.5 21.9219Z" fill="#F3F3F3" stroke="#F3F3F3" stroke-linecap="round"/>
<g filter="url(#filter0_d_2110_31761)">
<path d="M32 51.9219L55.5001 52.21L63.5 55.4219L67 60.4219L66.6034 58.7032C65.881 55.5728 64.3339 52.6927 62.1227 50.362L51.139 38.7846C48.3896 35.8866 45.3027 33.3285 41.9445 31.165L36.6 27.7219L24 19.9219C20.0203 18.2636 15.8248 17.1802 11.5398 16.7041L9 16.4219L17.0001 19.21L22.9 23.8219L26.5001 29.21L29.0001 35.21L31.0001 45.71L32 51.9219Z" fill="white"/>
</g>
<path d="M4.99997 17.2095L7.68093 17.1422C14.2707 16.9768 20.5073 20.1152 24.3011 25.5059V25.5059C27.5789 30.1634 29.653 35.5598 30.3383 41.2137L31.6238 51.8189L48.1988 51.8189C52.2497 51.8189 56.2599 52.6259 59.9954 54.1928L60.5926 54.4433C64.1713 55.9445 66.4999 59.4464 66.4998 63.3272V63.3272" stroke="#373435" stroke-linecap="round"/>
<defs>
<filter id="filter0_d_2110_31761" x="0" y="6.42188" width="74" height="60" filterUnits="userSpaceOnUse" color-interpolation-filters="sRGB">
<feFlood flood-opacity="0" result="BackgroundImageFix"/>
<feColorMatrix in="SourceAlpha" type="matrix" values="0 0 0 0 0 0 0 0 0 0 0 0 0 0 0 0 0 0 127 0" result="hardAlpha"/>
<feOffset dx="-1" dy="-2"/>
<feGaussianBlur stdDeviation="4"/>
<feComposite in2="hardAlpha" operator="out"/>
<feColorMatrix type="matrix" values="0 0 0 0 0 0 0 0 0 0 0 0 0 0 0 0 0 0 0.25 0"/>
<feBlend mode="normal" in2="BackgroundImageFix" result="effect1_dropShadow_2110_31761"/>
<feBlend mode="normal" in="SourceGraphic" in2="effect1_dropShadow_2110_31761" result="shape"/>
</filter>
</defs>
</svg>
