<?xml version="1.0" encoding="utf-8"?>
<!-- Generator: Adobe Illustrator 23.1.0, SVG Export Plug-In . SVG Version: 6.00 Build 0)  -->
<svg version="1.1" id="Слой_1" xmlns="http://www.w3.org/2000/svg" xmlns:xlink="http://www.w3.org/1999/xlink" x="0px" y="0px"
	 viewBox="0 0 520 80" style="enable-background:new 0 0 520 80;" xml:space="preserve">
<style type="text/css">
	.st0{fill:#FFFFFF;}
	.st1{fill:#373435;}
</style>
<g>
	<g>
		<path class="st0" d="M519.2,44.2c-0.1-0.2-0.1-0.4-0.2-0.7c-0.4-0.7-0.6-1.5-0.6-2.4c-0.5-1.1-2.3-2.4-3.1-3.2
			c-2.3-2.2-3.9-4.9-6.5-6.8c-4.6-3.3-9.8-5.7-13.7-9.9c-2-2.2-3.3-4.3-5.7-6.2c-2.7-2.1-5.2-4.6-8.1-6.5
			c-5.7-3.9-11.9-6.3-18.4-8.4c-0.2-0.1-0.4-0.1-0.5-0.2H0v80h520V45.9C519.6,45.4,519.4,44.8,519.2,44.2z"/>
	</g>
	<g>
		<path class="st1" d="M519.3,44.3c-0.1-0.2-0.1-0.4-0.1-0.6c0-0.1-0.1-0.1-0.1-0.2V79H1V1h464.3c-0.8-0.3-1.6-0.5-2.4-0.8
			c-0.2-0.1-0.4-0.1-0.5-0.2H0v80h520V45.9C519.7,45.4,519.4,44.9,519.3,44.3z"/>
	</g>
</g>
<g>
	<g>
		<g>
			<path class="st0" d="M485,35.5l25,0.4l6.5,3.1l3.5,5l-0.4-1.7c-0.7-3.1-2.3-6-4.5-8.3l-11-11.6c-2.7-2.9-5.8-5.5-9.2-7.6
				l-5.3-3.4L477,3.5c-4-1.7-8.2-2.7-12.5-3.2L462,0l7.5,3l6.4,4.4l7.1,11.1l0.6,11.4L485,35.5z"/>
		</g>
	</g>
	<g>
		<path class="st1" d="M519.5,47.4c-0.3,0-0.5-0.2-0.5-0.5c0-3.7-2.2-7-5.6-8.4l-0.6-0.3c-3.7-1.5-7.6-2.3-11.6-2.3h-17L482.9,25
			c-0.7-5.6-2.8-11.1-6.1-15.7c-3.7-5.2-9.6-8.3-16-8.3H458c-0.3,0-0.5-0.2-0.5-0.5S457.7,0,458,0h2.8c6.7,0,13,3.3,16.8,8.7
			c3.4,4.8,5.5,10.4,6.2,16.2l1.2,10h16.1c4.1,0,8.2,0.8,12,2.4l0.6,0.3c3.8,1.6,6.2,5.3,6.2,9.3C520,47.2,519.8,47.4,519.5,47.4z"
			/>
	</g>
</g>
</svg>
