<svg width="140" height="141" viewBox="0 0 140 141" fill="none" xmlns="http://www.w3.org/2000/svg">
<g clip-path="url(#clip0_2110_32264)">
<path d="M51.9841 39.4483L44.851 27.8125C37.6647 32.0109 31.6488 37.9294 27.3508 45.0293L39.3093 51.7115C42.4492 46.6447 46.8041 42.4312 51.9841 39.4483Z" fill="#FFCC29"/>
<path d="M38.5292 87.9102L26.8076 95.0041C31.1499 102.534 37.4007 108.801 44.9376 113.181L51.6565 101.297C46.171 98.0622 41.6425 93.4441 38.5292 87.9102Z" fill="#FFCC29"/>
<path d="M70.0007 106.282V119.908C79.4166 119.923 88.6414 117.268 96.5928 112.255L89.4583 100.613C83.6561 104.324 76.9001 106.293 70.0007 106.282Z" fill="#FFCC29"/>
<path d="M119.713 68.8516H105.988C106.012 69.386 106.027 69.9246 106.027 70.4661C106.035 76.1377 104.683 81.7295 102.082 86.7776L114.039 93.4584C117.792 86.3693 119.746 78.4767 119.734 70.4661C119.734 69.9246 119.724 69.3874 119.713 68.8516Z" fill="#FFCC29"/>
<path d="M39.3094 51.7057L27.3509 45.0234C22.9861 52.2356 20.5559 60.4405 20.293 68.8533H34.0117C34.2769 62.7817 36.1006 56.8786 39.3094 51.7057Z" fill="#FFCC29"/>
<path d="M100.027 50.6711L111.741 43.5785C107.205 36.6345 100.996 30.9276 93.6765 26.9766L86.9575 38.8605C92.2277 41.6646 96.7177 45.7222 100.027 50.6711Z" fill="#FFCC29"/>
<path d="M70.0007 34.6541V21.0274C61.1583 21.0156 52.4742 23.3585 44.8511 27.8126L51.9842 39.454C57.4586 36.302 63.6744 34.646 70.0007 34.6541Z" fill="#FFCC29"/>
<path d="M33.9736 70.4661C33.9736 69.9246 33.9877 69.386 34.0119 68.8516H20.2931C20.2761 69.3874 20.2662 69.9246 20.2662 70.4661C20.2528 79.0728 22.5104 87.5326 26.8135 95.001L38.5294 87.907C35.5337 82.5771 33.965 76.5716 33.9736 70.4661Z" fill="#FFCC29"/>
<path d="M51.6567 101.297L44.9377 113.181C52.5412 117.6 61.1931 119.923 70.0008 119.91V106.283C63.5461 106.293 57.2084 104.57 51.6567 101.297Z" fill="#FFCC29"/>
<path d="M89.4583 100.615L96.5928 112.257C103.958 107.612 109.973 101.133 114.039 93.4621L102.082 86.7812C99.1725 92.417 94.8179 97.1891 89.4583 100.615Z" fill="#FFCC29"/>
<path d="M105.988 68.8519H119.713C119.431 59.8611 116.674 51.1194 111.741 43.5781L100.027 50.6707C103.643 56.0779 105.705 62.3647 105.988 68.8519Z" fill="#FFCC29"/>
<path d="M86.9577 38.8632L93.6766 26.9792C86.4085 23.0608 78.2688 21.0146 70.0007 21.0274V34.6542C75.9157 34.6459 81.7409 36.0919 86.9577 38.8632Z" fill="#FFCC29"/>
<path d="M26.307 96.9584L25.5822 95.702C21.1656 88.0149 18.8442 79.3147 18.8477 70.4621C18.8477 69.9305 18.8576 69.3721 18.876 68.8024L18.92 67.4375H35.494L35.4287 68.9096C35.4032 69.4623 35.3918 69.9714 35.3918 70.4607C35.3915 76.3243 36.8977 82.0908 39.7676 87.2135L40.4342 88.3993L26.307 96.9584ZM21.6859 70.2618C21.6859 70.3295 21.6859 70.4028 21.6859 70.4663C21.6847 78.3334 23.6266 86.0805 27.341 93.0271L36.6485 87.3869C33.9593 82.1442 32.557 76.3429 32.5565 70.4578V70.2534L21.6859 70.2618Z" fill="black"/>
<path d="M71.4191 121.317H70.0007C60.9425 121.321 52.0459 118.932 44.2214 114.395L43.0186 113.69L51.1318 99.3398L52.38 100.076C57.7149 103.216 63.801 104.872 70.0007 104.87H71.4191V121.317ZM46.8681 112.642C53.5433 116.259 60.9832 118.258 68.5823 118.476V107.665C62.85 107.45 57.244 105.929 52.197 103.219L46.8681 112.642Z" fill="black"/>
<path d="M45.4668 115.123L44.2214 114.398C36.4733 109.891 30.0472 103.447 25.5823 95.7049L24.8958 94.5078L39.0499 85.9375L39.7676 87.2164C42.7584 92.5337 47.1094 96.9709 52.38 100.079L53.5729 100.784L45.4668 115.123ZM28.7467 95.4836C32.6742 101.865 38.0391 107.253 44.4186 111.221L49.7531 101.785C44.9938 98.7354 40.988 94.6573 38.0344 89.8546L28.7467 95.4836Z" fill="black"/>
<path d="M70.0007 121.317H68.5823V104.87H70.0007C76.628 104.878 83.1173 102.988 88.6923 99.4257L89.915 98.6445L98.5275 112.701L97.3502 113.443C89.1706 118.596 79.6843 121.327 70.0007 121.317ZM71.4191 107.665V118.476C79.6071 118.246 87.6009 115.944 94.6439 111.786L88.9888 102.555C83.65 105.682 77.6117 107.438 71.4191 107.665Z" fill="black"/>
<path d="M96.1304 114.213L87.5278 100.172L88.6923 99.4275C93.8411 96.1355 98.0245 91.5507 100.82 86.1363L101.492 84.832L115.937 92.9032L115.294 94.1172C111.112 102.006 104.926 108.669 97.3502 113.445L96.1304 114.213ZM91.3774 101.034L97.0396 110.276C103.266 106.087 108.43 100.519 112.124 94.0087L102.647 88.7125C99.8693 93.6092 96.0174 97.8206 91.3774 101.034Z" fill="black"/>
<path d="M114.615 95.401L100.197 87.344L100.82 86.137C103.326 81.2911 104.626 75.9175 104.608 70.4685C104.608 69.9778 104.597 69.4701 104.571 68.9174L104.506 67.4453H121.08L121.124 68.8102C121.142 69.3743 121.152 69.9383 121.152 70.4699C121.151 78.7078 119.141 86.8227 115.294 94.1193L114.615 95.401ZM103.946 86.2033L113.449 91.5107C116.654 84.9534 118.319 77.7586 118.321 70.4685C118.321 70.4008 118.321 70.3275 118.321 70.264H107.445V70.4685C107.462 75.906 106.267 81.2797 103.946 86.2033Z" fill="black"/>
<path d="M35.3676 70.2618H18.8291L18.8759 68.8066C19.1568 60.1547 21.6555 51.7173 26.1353 44.2943L26.8445 43.1211L41.2908 51.1922L40.515 52.4415C37.4399 57.4139 35.689 63.0827 35.4272 68.9138L35.3676 70.2618ZM21.7808 67.4417H32.6797C33.1183 62.094 34.715 56.9039 37.3605 52.2272L27.8742 46.9296C24.318 53.2248 22.2352 60.2359 21.7808 67.4417Z" fill="black"/>
<path d="M121.171 70.2617H104.632L104.571 68.9137C104.295 62.6837 102.316 56.6464 98.8453 51.4516L98.0283 50.229L112.181 41.6602L112.931 42.8093C117.999 50.5693 120.834 59.5595 121.131 68.8065L121.171 70.2617ZM107.322 67.4416H118.219C117.735 59.6778 115.355 52.1482 111.286 45.504L102 51.1273C105.03 56.0781 106.852 61.6652 107.322 67.4416Z" fill="black"/>
<path d="M87.5151 40.7581L86.2896 40.1067C81.2757 37.4526 75.6825 36.0644 70.0021 36.0641H68.5837V19.6172H70.0021C78.5044 19.6177 86.8729 21.7217 94.3532 25.7396L95.6184 26.4221L87.5151 40.7581ZM71.4205 33.2707C76.6153 33.4678 81.7123 34.7349 86.3889 36.9919L91.7235 27.5558C85.4107 24.4033 78.4805 22.6621 71.4191 22.4542L71.4205 33.2707Z" fill="black"/>
<path d="M99.5997 52.5826L98.8451 51.4546C95.6633 46.7016 91.3499 42.8035 86.288 40.1065L85.0115 39.4282L93.1261 25.0781L94.3545 25.7394C101.88 29.8054 108.267 35.6735 112.935 42.8124L113.73 44.0292L99.5997 52.5826ZM88.8894 38.3228C93.4277 40.9693 97.359 44.5303 100.431 48.7769L109.738 43.1367C105.675 37.3179 100.377 32.4564 94.2183 28.8951L88.8894 38.3228Z" fill="black"/>
<path d="M39.8017 53.5985L25.3894 45.5415L26.1426 44.2978C30.5642 36.9996 36.748 30.9137 44.1335 26.5917L45.3363 25.8867L53.9502 39.945L52.6935 40.6669C47.7202 43.5347 43.5371 47.5803 40.5166 52.4437L39.8017 53.5985ZM29.3396 44.5163L38.8429 49.8252C41.7715 45.4713 45.5846 41.7752 50.0369 38.9748L44.3803 29.7432C38.3389 33.5131 33.2043 38.5563 29.3396 44.5163Z" fill="black"/>
<path d="M51.4878 41.3588L42.8838 27.3161L44.1277 26.5913C51.9723 22.0199 60.902 19.6124 69.995 19.6172H71.4134V36.0641H69.995C63.9204 36.0623 57.9523 37.6501 52.6906 40.6679L51.4878 41.3588ZM46.8184 28.3158L52.4821 37.5587C57.455 34.9462 62.956 33.4806 68.5766 33.2707V22.4542C60.9621 22.6743 53.5081 24.683 46.8241 28.3158H46.8184Z" fill="black"/>
<path d="M59.113 86.6271C56.0493 86.4086 53.8182 87.6551 51.9416 89.529L50.0396 87.6395C51.9359 85.7402 52.8976 83.3431 52.8678 80.4201L72.8232 60.582L79.0642 66.7863L59.113 86.6271Z" fill="white"/>
<path d="M51.9432 91.5273L48.0383 87.6454L49.0312 86.6485C50.6822 84.9931 51.4737 82.9612 51.4425 80.4358V79.8436L72.8234 58.5898L81.0728 66.7921L59.655 88.0839L59.0054 88.036C56.7005 87.8682 54.8296 88.6381 52.9403 90.5261L51.9432 91.5273ZM51.9815 87.5791C53.9403 85.9773 56.0622 85.1905 58.4224 85.1905H58.5444L77.0616 66.7921L72.8234 62.5789L54.2793 81.0125C54.1956 83.5252 53.4254 85.7249 51.9815 87.5777V87.5791Z" fill="black"/>
<path d="M83.4531 63.3209L76.312 56.2219C75.2253 55.1415 73.4632 55.1415 72.3764 56.2219L72.3754 56.2228C71.2886 57.3032 71.2886 59.0549 72.3754 60.1353L79.5165 67.2344C80.6033 68.3148 82.3653 68.3148 83.4521 67.2344L83.4531 67.2334C84.5399 66.153 84.5399 64.4013 83.4531 63.3209Z" fill="#FFCC29"/>
<path d="M81.4839 69.4545C80.9309 69.4564 80.3831 69.3495 79.8718 69.1399C79.3606 68.9303 78.8962 68.6222 78.5053 68.2334L71.3651 61.1351C70.9749 60.7473 70.6653 60.2868 70.4541 59.7801C70.2429 59.2733 70.1341 58.7301 70.134 58.1816C70.134 57.633 70.2426 57.0898 70.4537 56.583C70.6648 56.0762 70.9743 55.6157 71.3644 55.2277C72.1523 54.4443 73.221 54.004 74.3354 54.0039C74.8872 54.0038 75.4336 54.1118 75.9435 54.3217C76.4533 54.5315 76.9165 54.8392 77.3068 55.227L84.447 62.3252C85.035 62.9091 85.4355 63.6532 85.5979 64.4634C85.7603 65.2737 85.6772 66.1136 85.3592 66.8769C85.0412 67.6402 84.5026 68.2925 83.8115 68.7514C83.1204 69.2102 82.3079 69.4549 81.4768 69.4545H81.4839ZM74.3437 56.8246C74.0738 56.8245 73.81 56.9039 73.5855 57.0528C73.361 57.2018 73.186 57.4136 73.0826 57.6614C72.9792 57.9093 72.952 58.182 73.0046 58.4452C73.0571 58.7084 73.187 58.9501 73.3778 59.1399L80.518 66.2381C80.774 66.4926 81.1212 66.6356 81.4832 66.6356C81.8453 66.6356 82.1925 66.4926 82.4484 66.2381C82.7044 65.9836 82.8482 65.6385 82.8482 65.2786C82.8482 64.9187 82.7044 64.5735 82.4484 64.319L75.3082 57.2208C75.1816 57.095 75.0312 56.9952 74.8657 56.9272C74.7002 56.8592 74.5228 56.8244 74.3437 56.8246Z" fill="black"/>
<path d="M88.7714 50.9359C89.5994 51.7591 90.0646 52.8756 90.0646 54.0397C90.0646 55.2039 89.5994 56.3204 88.7714 57.1436L83.3153 62.5676L77.0709 56.3599L82.527 50.9359C83.355 50.1127 84.4781 49.6502 85.6492 49.6502C86.8202 49.6502 87.9433 50.1127 88.7714 50.9359Z" fill="#FFCC29"/>
<path d="M83.3123 64.5649L75.0615 56.364L81.5237 49.9398C82.064 49.3947 82.7075 48.9614 83.417 48.6647C84.1266 48.3679 84.8882 48.2138 85.6579 48.211C86.4277 48.2082 87.1904 48.3569 87.902 48.6485C88.6137 48.9401 89.2603 49.3688 89.8046 49.9099C90.3488 50.4511 90.78 51.094 91.0732 51.8015C91.3664 52.5091 91.5158 53.2673 91.5129 54.0325C91.51 54.7977 91.3547 55.5548 91.0561 56.2601C90.7576 56.9655 90.3215 57.6051 89.7731 58.1421L83.3123 64.5649ZM79.0742 56.364L83.3123 60.5772L87.7675 56.1539C88.0459 55.8773 88.2667 55.5488 88.4174 55.1873C88.5681 54.8258 88.6457 54.4384 88.6458 54.0471C88.6458 53.6558 88.5684 53.2683 88.4178 52.9067C88.2672 52.5452 88.0465 52.2167 87.7682 51.94C87.4899 51.6632 87.1596 51.4437 86.7959 51.2939C86.4323 51.1441 86.0425 51.0669 85.6489 51.0669C85.2553 51.0668 84.8655 51.1438 84.5019 51.2935C84.1382 51.4432 83.8077 51.6626 83.5294 51.9392L79.0742 56.364Z" fill="black"/>
</g>
<defs>
<clipPath id="clip0_2110_32264">
<rect width="140" height="139.176" fill="white" transform="translate(0 0.878906)"/>
</clipPath>
</defs>
</svg>
