<svg width="147" height="96" viewBox="0 0 147 96" fill="none" xmlns="http://www.w3.org/2000/svg">
<path d="M106 40.4804V91.9692C106 94.1963 107.802 96.0017 110.024 96.0017H142.833C145.056 96.0017 146.857 94.1963 146.857 91.9692V40.4804C146.857 35.7029 145.083 31.0965 141.88 27.5582L139.361 24.7762C135.693 20.7243 133.661 15.4492 133.661 9.97822V0.644531H119.196V9.97822C119.196 15.4492 117.164 20.7243 113.496 24.7762L110.977 27.5582C107.774 31.0965 106 35.7029 106 40.4804Z" fill="white"/>
<path fill-rule="evenodd" clip-rule="evenodd" d="M119.097 0.644531H133.761V10.0913C133.761 15.5068 135.763 20.7285 139.378 24.7394L141.877 27.5127C145.082 31.0684 146.857 35.6976 146.857 40.4985V91.8271C146.857 94.1327 145 96.0017 142.71 96.0017H110.147C107.857 96.0017 106 94.1327 106 91.8271V40.4985C106 35.6976 107.775 31.0684 110.98 27.5127L113.479 24.7394C117.094 20.7285 119.097 15.5068 119.097 10.0913V0.644531ZM119.404 0.953759V10.0913C119.404 15.5837 117.373 20.8794 113.707 24.9472L111.207 27.7205C108.054 31.2193 106.307 35.7744 106.307 40.4985V91.8271C106.307 93.9619 108.026 95.6924 110.147 95.6924H142.71C144.831 95.6924 146.55 93.9619 146.55 91.8271V40.4985C146.55 35.7744 144.803 31.2193 141.65 27.7205L139.15 24.9472C135.484 20.8794 133.453 15.5837 133.453 10.0913V0.953759H119.404Z" fill="#C5C5C5"/>
<path d="M118.071 0.928571C118.071 0.415735 118.503 0 119.036 0H133.821C134.354 0 134.786 0.415736 134.786 0.928571V4.64286C134.786 5.15569 134.354 5.57143 133.821 5.57143H126.429H119.036C118.503 5.57143 118.071 5.15569 118.071 4.64286V0.928571Z" fill="white"/>
<path fill-rule="evenodd" clip-rule="evenodd" d="M133.821 0.309524H119.036C118.681 0.309524 118.393 0.586681 118.393 0.928571V4.64286C118.393 4.98475 118.681 5.26191 119.036 5.26191H133.821C134.176 5.26191 134.464 4.98475 134.464 4.64286V0.928571C134.464 0.586681 134.176 0.309524 133.821 0.309524ZM119.036 0C118.503 0 118.071 0.415735 118.071 0.928571V4.64286C118.071 5.15569 118.503 5.57143 119.036 5.57143H133.821C134.354 5.57143 134.786 5.15569 134.786 4.64286V0.928571C134.786 0.415736 134.354 0 133.821 0H119.036Z" fill="#C5C5C5"/>
<path fill-rule="evenodd" clip-rule="evenodd" d="M133.857 6.49888L119 6.49888L119 5.57031L133.857 5.57031L133.857 6.49888Z" fill="#C5C5C5"/>
<path d="M80.8895 38.835V29.9297C78.7409 35.5541 42.3942 36.0228 24.4894 35.5541V38.835H80.8895Z" stroke="#C5C5C5" stroke-width="0.5"/>
<path d="M81.3817 30.3001C81.3817 30.6181 81.1726 30.9785 80.6518 31.3719C80.1367 31.7609 79.3612 32.1469 78.3384 32.5206C76.2958 33.267 73.3258 33.9436 69.6388 34.5134C62.2687 35.6524 52.0782 36.358 40.8159 36.358C29.5536 36.358 19.363 35.6524 11.9929 34.5134C8.30587 33.9436 5.33596 33.267 3.29331 32.5206C2.27053 32.1469 1.49505 31.7609 0.979902 31.3719C0.459115 30.9785 0.25 30.6181 0.25 30.3001C0.25 29.982 0.459115 29.6216 0.979902 29.2283C1.49505 28.8393 2.27053 28.4533 3.29331 28.0796C5.33596 27.3332 8.30587 26.6566 11.9929 26.0868C19.363 24.9478 29.5536 24.2422 40.8159 24.2422C52.0782 24.2422 62.2687 24.9478 69.6388 26.0868C73.3258 26.6566 76.2958 27.3332 78.3384 28.0796C79.3612 28.4533 80.1367 28.8393 80.6518 29.2283C81.1726 29.6216 81.3817 29.982 81.3817 30.3001Z" fill="white" stroke="#C5C5C5" stroke-width="0.5"/>
<path d="M60.6024 30.3005C60.6024 30.3354 60.5669 30.4459 60.2941 30.6096C60.0396 30.7623 59.6481 30.9183 59.1207 31.0714C58.0695 31.3766 56.5362 31.6545 54.6273 31.889C50.8128 32.3574 45.5359 32.6479 39.7024 32.6479C33.8689 32.6479 28.592 32.3574 24.7775 31.889C22.8686 31.6545 21.3353 31.3766 20.2842 31.0714C19.7567 30.9183 19.3652 30.7623 19.1107 30.6096C18.8379 30.4459 18.8024 30.3354 18.8024 30.3005C18.8024 30.2656 18.8379 30.1551 19.1107 29.9914C19.3652 29.8387 19.7567 29.6827 20.2842 29.5296C21.3353 29.2244 22.8686 28.9464 24.7775 28.712C28.592 28.2436 33.8689 27.9531 39.7024 27.9531C45.5359 27.9531 50.8128 28.2436 54.6273 28.712C56.5362 28.9464 58.0695 29.2244 59.1207 29.5296C59.6481 29.6827 60.0396 29.8387 60.2941 29.9914C60.5669 30.1551 60.6024 30.2656 60.6024 30.3005Z" fill="#D9D9D9" stroke="#C5C5C5" stroke-width="0.5"/>
<path d="M0.734207 80.3677L0.370972 30.6719C34.1326 42.5384 82.0035 38.3132 93.2274 38.3132H140C140.552 38.3132 141 38.7609 141 39.3132V90.3261C141 90.8783 140.552 91.3261 140 91.3261H108.043C90.2344 91.4759 50.6049 92.7617 34.8629 91.3261C17.7566 89.7659 6.85706 85.1652 1.64501 82.0065C1.07349 81.6601 0.739092 81.036 0.734207 80.3677Z" fill="white" stroke="#C5C5C5" stroke-width="0.5"/>
<rect width="45" height="36" transform="matrix(-1 -8.74228e-08 -8.74228e-08 1 119 47)" fill="#ED3237"/>
<path d="M85.1991 64.3194L85.1991 56.3359L90.2316 56.3359L90.2316 57.8543L86.999 57.8543L86.999 59.7032L89.7663 59.7032V61.2215L86.999 61.2215L86.999 64.3194L85.1991 64.3194Z" fill="black"/>
<path d="M91.8652 64.3194L91.8652 56.3359L93.6651 56.3359L93.6651 64.3194L91.8652 64.3194Z" fill="black"/>
<path d="M97.1766 64.3194L94.7644 56.3359L96.6746 56.3359L97.6297 60.0583C97.7521 60.4909 97.8582 60.9154 97.948 61.3317C98.046 61.748 98.1562 62.1766 98.2786 62.6174H98.3276C98.4419 62.1766 98.548 61.748 98.6459 61.3317C98.7439 60.9154 98.85 60.4909 98.9643 60.0583L99.9071 56.3359L101.744 56.3359L99.3439 64.3194L97.1766 64.3194Z" fill="black"/>
<path d="M102.842 64.3194L102.842 56.3359L107.837 56.3359L107.837 57.8543L104.642 57.8543L104.642 59.4583L107.36 59.4583V60.9644L104.642 60.9644L104.642 62.801L107.96 62.801L107.96 64.3194L102.842 64.3194Z" fill="black"/>
<path d="M81.7421 73.1409L81.7421 66.7415H82.192L82.192 72.7525L85.1658 72.7525V73.1409L81.7421 73.1409Z" fill="black"/>
<path d="M87.4706 69.3731L87.0597 70.5676L89.3487 70.5676L88.9379 69.3731C88.8075 68.9912 88.6836 68.6254 88.5662 68.2758C88.4488 67.9262 88.3347 67.554 88.2238 67.1591H88.1847C88.0738 67.554 87.9597 67.9262 87.8423 68.2758C87.7249 68.6254 87.601 68.9912 87.4706 69.3731ZM85.7098 73.1409L87.9792 66.7415H88.4292L90.6987 73.1409H90.2291L89.4759 70.9463L86.9228 70.9463L86.1598 73.1409H85.7098Z" fill="black"/>
<path d="M91.925 73.1409L91.925 66.7415L93.6663 66.7415C94.3184 66.7415 94.8369 66.8678 95.2216 67.1202C95.6064 67.3663 95.7988 67.7579 95.7988 68.2952C95.7988 68.6319 95.714 68.9264 95.5444 69.1789C95.3749 69.4249 95.1271 69.5965 94.801 69.6936V69.7324C95.2184 69.7972 95.5542 69.9623 95.8085 70.2277C96.0629 70.4866 96.19 70.8362 96.19 71.2764C96.19 71.8915 95.9716 72.3576 95.5346 72.6748C95.1042 72.9855 94.5238 73.1409 93.7934 73.1409L91.925 73.1409ZM92.375 69.5576L93.4902 69.5576C94.1488 69.5576 94.6216 69.4508 94.9086 69.2372C95.202 69.0171 95.3488 68.7193 95.3488 68.3438C95.3488 67.8906 95.1955 67.5734 94.889 67.3921C94.5825 67.2044 94.1325 67.1105 93.5391 67.1105L92.375 67.1105L92.375 69.5576ZM92.375 72.7719L93.676 72.7719C94.3151 72.7719 94.8205 72.6521 95.1923 72.4126C95.564 72.1731 95.7499 71.7976 95.7499 71.2862C95.7499 70.8265 95.5672 70.4866 95.202 70.2665C94.8434 70.0399 94.3347 69.9267 93.676 69.9267L92.375 69.9267L92.375 72.7719Z" fill="black"/>
<path d="M97.776 73.1409L97.776 66.7415L101.307 66.7415V67.13L98.226 67.13L98.226 69.5479L100.808 69.5479V69.9364L98.226 69.9364L98.226 72.7525L101.405 72.7525V73.1409L97.776 73.1409Z" fill="black"/>
<path d="M103.006 73.1409L103.006 66.7415H103.456L103.456 72.7525L106.43 72.7525V73.1409L103.006 73.1409Z" fill="black"/>
<path d="M109.269 73.2574C108.799 73.2574 108.382 73.1668 108.017 72.9855C107.652 72.8043 107.342 72.5744 107.087 72.2961L107.381 71.9853C107.616 72.2443 107.896 72.4547 108.222 72.6165C108.548 72.7719 108.897 72.8496 109.269 72.8496C109.765 72.8496 110.156 72.7298 110.443 72.4903C110.73 72.2508 110.873 71.9433 110.873 71.5678C110.873 71.3023 110.821 71.0887 110.717 70.9269C110.612 70.765 110.472 70.6323 110.296 70.5287C110.126 70.4187 109.934 70.3183 109.719 70.2277L108.741 69.7907C108.558 69.7065 108.362 69.603 108.154 69.48C107.952 69.3505 107.779 69.1854 107.635 68.9847C107.498 68.7775 107.43 68.5154 107.43 68.1981C107.43 67.8874 107.511 67.6155 107.674 67.3824C107.837 67.1429 108.059 66.9584 108.34 66.8289C108.627 66.693 108.949 66.625 109.308 66.625C109.693 66.625 110.038 66.7027 110.345 66.8581C110.651 67.007 110.903 67.185 111.098 67.3921L110.844 67.6835C110.655 67.4893 110.433 67.3339 110.179 67.2174C109.924 67.0944 109.634 67.0329 109.308 67.0329C108.884 67.0329 108.539 67.1364 108.271 67.3436C108.01 67.5508 107.88 67.8291 107.88 68.1787C107.88 68.4247 107.939 68.6254 108.056 68.7808C108.18 68.9362 108.327 69.0624 108.496 69.1595C108.672 69.2566 108.838 69.3408 108.995 69.412L109.973 69.8393C110.215 69.9428 110.436 70.0658 110.638 70.2083C110.847 70.3442 111.013 70.519 111.137 70.7326C111.268 70.9398 111.333 71.2085 111.333 71.5386C111.333 71.8623 111.248 72.1569 111.079 72.4223C110.909 72.6813 110.668 72.8852 110.355 73.0341C110.048 73.183 109.686 73.2574 109.269 73.2574Z" fill="black"/>
</svg>
