<svg width="142" height="70" viewBox="0 0 142 70" fill="none" xmlns="http://www.w3.org/2000/svg">
<path d="M80.8895 15.835V6.92969C78.7409 12.5541 42.3942 13.0228 24.4894 12.5541V15.835H80.8895Z" stroke="#C5C5C5" stroke-width="0.5"/>
<path d="M81.3817 7.30009C81.3817 7.61814 81.1726 7.97854 80.6518 8.37186C80.1367 8.76092 79.3612 9.14689 78.3384 9.5206C76.2958 10.267 73.3258 10.9436 69.6388 11.5134C62.2687 12.6524 52.0782 13.358 40.8159 13.358C29.5536 13.358 19.363 12.6524 11.9929 11.5134C8.30587 10.9436 5.33596 10.267 3.29331 9.5206C2.27053 9.14689 1.49505 8.76092 0.979902 8.37186C0.459115 7.97854 0.25 7.61814 0.25 7.30009C0.25 6.98205 0.459115 6.62165 0.979902 6.22833C1.49505 5.83927 2.27053 5.4533 3.29331 5.07959C5.33596 4.33323 8.30587 3.65661 11.9929 3.0868C19.363 1.94778 29.5536 1.24219 40.8159 1.24219C52.0782 1.24219 62.2687 1.94778 69.6388 3.0868C73.3258 3.65661 76.2958 4.33323 78.3384 5.07959C79.3612 5.4533 80.1367 5.83927 80.6518 6.22833C81.1726 6.62165 81.3817 6.98205 81.3817 7.30009Z" fill="white" stroke="#C5C5C5" stroke-width="0.5"/>
<path d="M60.6025 7.3005C60.6025 7.33543 60.567 7.44585 60.2942 7.6096C60.0397 7.76231 59.6482 7.91827 59.1207 8.07143C58.0695 8.37664 56.5363 8.65455 54.6273 8.88898C50.8129 9.35743 45.536 9.64787 39.7025 9.64787C33.8689 9.64787 28.5921 9.35743 24.7776 8.88898C22.8686 8.65455 21.3354 8.37664 20.2842 8.07143C19.7567 7.91827 19.3652 7.76231 19.1108 7.6096C18.8379 7.44585 18.8024 7.33543 18.8024 7.3005C18.8024 7.26556 18.8379 7.15514 19.1108 6.9914C19.3652 6.83869 19.7567 6.68272 20.2842 6.52957C21.3354 6.22436 22.8686 5.94645 24.7776 5.71201C28.5921 5.24357 33.8689 4.95312 39.7025 4.95312C45.536 4.95312 50.8129 5.24357 54.6273 5.71201C56.5363 5.94645 58.0695 6.22436 59.1207 6.52957C59.6482 6.68272 60.0397 6.83869 60.2942 6.9914C60.567 7.15514 60.6025 7.26556 60.6025 7.3005Z" fill="#D9D9D9" stroke="#C5C5C5" stroke-width="0.5"/>
<path d="M0.734207 57.3677L0.370972 7.67188C34.1326 19.5384 82.0035 15.3132 93.2274 15.3132H140C140.552 15.3132 141 15.7609 141 16.3132V67.3261C141 67.8783 140.552 68.3261 140 68.3261H108.043C90.2344 68.4759 50.6049 69.7617 34.8629 68.3261C17.7566 66.7659 6.85706 62.1652 1.64501 59.0065C1.07349 58.6601 0.739092 58.036 0.734207 57.3677Z" fill="white" stroke="#C5C5C5" stroke-width="0.5"/>
<rect x="128.385" y="61.8438" width="59.3685" height="40.0737" transform="rotate(-180 128.385 61.8438)" fill="#ED3237"/>
<path d="M98.2704 52.8477L90.287 52.8477L90.287 47.8152L91.8053 47.8152L91.8053 51.0477L93.6542 51.0477L93.6542 48.2805L95.1725 48.2805L95.1725 51.0477L98.2704 51.0477L98.2704 52.8477Z" fill="black"/>
<path d="M98.2704 46.1816L90.287 46.1816L90.287 44.3816L98.2704 44.3816L98.2704 46.1816Z" fill="black"/>
<path d="M98.2704 40.8701L90.287 43.2823L90.287 41.3722L94.0093 40.4171C94.442 40.2947 94.8664 40.1885 95.2827 40.0987C95.6991 40.0008 96.1276 39.8906 96.5684 39.7681L96.5684 39.7192C96.1276 39.6049 95.6991 39.4988 95.2827 39.4008C94.8664 39.3029 94.442 39.1967 94.0093 39.0825L90.287 38.1396L90.287 36.3029L98.2704 38.7029L98.2704 40.8701Z" fill="black"/>
<path d="M98.2704 35.2051L90.287 35.2051L90.287 30.2093L91.8053 30.2093L91.8053 33.4051L93.4093 33.4051L93.4093 30.6868L94.9154 30.6868L94.9154 33.4051L96.7521 33.4051L96.7521 30.0869L98.2704 30.0869L98.2704 35.2051Z" fill="black"/>
<path d="M107.091 56.3047L100.692 56.3047L100.692 55.8547L106.703 55.8547L106.703 52.8809L107.091 52.8809L107.091 56.3047Z" fill="black"/>
<path d="M103.323 50.5762L104.518 50.987L104.518 48.698L103.323 49.1089C102.941 49.2393 102.576 49.3632 102.226 49.4806C101.876 49.598 101.504 49.7121 101.109 49.823L101.109 49.8621C101.504 49.9729 101.876 50.0871 102.226 50.2045C102.576 50.3218 102.941 50.4458 103.323 50.5762ZM107.091 52.337L100.692 50.0675L100.692 49.6175L107.091 47.3481L107.091 47.8176L104.896 48.5708L104.896 51.124L107.091 51.887L107.091 52.337Z" fill="black"/>
<path d="M107.091 46.1217L100.692 46.1217L100.692 44.3805C100.692 43.7284 100.818 43.2099 101.07 42.8251C101.316 42.4404 101.708 42.248 102.245 42.248C102.582 42.248 102.877 42.3328 103.129 42.5023C103.375 42.6719 103.547 42.9197 103.644 43.2458L103.683 43.2458C103.747 42.8284 103.912 42.4925 104.178 42.2382C104.437 41.9839 104.786 41.8567 105.227 41.8567C105.842 41.8567 106.308 42.0752 106.625 42.5121C106.936 42.9425 107.091 43.5229 107.091 44.2533L107.091 46.1217ZM103.508 45.6717L103.508 44.5566C103.508 43.8979 103.401 43.4251 103.187 43.1382C102.967 42.8447 102.669 42.698 102.294 42.698C101.841 42.698 101.524 42.8512 101.342 43.1577C101.155 43.4642 101.061 43.9142 101.061 44.5077L101.061 45.6717L103.508 45.6717ZM106.722 45.6717L106.722 44.3707C106.722 43.7316 106.602 43.2262 106.363 42.8545C106.123 42.4828 105.748 42.2969 105.236 42.2969C104.777 42.2969 104.437 42.4795 104.217 42.8447C103.99 43.2034 103.877 43.7121 103.877 44.3707L103.877 45.6717L106.722 45.6717Z" fill="black"/>
<path d="M107.091 40.2708L100.692 40.2708L100.692 36.7394L101.08 36.7394L101.08 39.8208L103.498 39.8208L103.498 37.2383L103.886 37.2383L103.886 39.8208L106.703 39.8208L106.703 36.6416L107.091 36.6416L107.091 40.2708Z" fill="black"/>
<path d="M107.091 35.0408L100.692 35.0408L100.692 34.5908L106.703 34.5908L106.703 31.617L107.091 31.617L107.091 35.0408Z" fill="black"/>
<path d="M107.208 28.7778C107.208 29.2474 107.117 29.6648 106.936 30.03C106.754 30.3952 106.525 30.7049 106.246 30.9593L105.935 30.6658C106.194 30.431 106.405 30.1506 106.567 29.8245C106.722 29.4985 106.8 29.1496 106.8 28.7778C106.8 28.2822 106.68 27.8909 106.44 27.604C106.201 27.317 105.893 27.1736 105.518 27.1736C105.252 27.1736 105.039 27.2257 104.877 27.3301C104.715 27.4344 104.582 27.5746 104.479 27.7507C104.369 27.9203 104.268 28.1127 104.178 28.3279L103.741 29.3061C103.657 29.4887 103.553 29.6843 103.43 29.893C103.301 30.0952 103.136 30.268 102.935 30.4115C102.728 30.5484 102.465 30.6169 102.148 30.6169C101.838 30.6169 101.566 30.5354 101.333 30.3723C101.093 30.2093 100.909 29.9876 100.779 29.7071C100.643 29.4202 100.575 29.0974 100.575 28.7387C100.575 28.354 100.653 28.0083 100.808 27.7018C100.957 27.3953 101.135 27.1442 101.342 26.9486L101.634 27.2029C101.439 27.392 101.284 27.6138 101.167 27.8681C101.044 28.1224 100.983 28.4126 100.983 28.7387C100.983 29.1626 101.087 29.5082 101.294 29.7756C101.501 30.0365 101.779 30.1669 102.129 30.1669C102.375 30.1669 102.576 30.1082 102.731 29.9908C102.886 29.8669 103.013 29.7202 103.11 29.5506C103.207 29.3746 103.291 29.2083 103.362 29.0517L103.789 28.0735C103.893 27.8322 104.016 27.6105 104.158 27.4083C104.294 27.1997 104.469 27.0334 104.683 26.9095C104.89 26.779 105.159 26.7138 105.489 26.7138C105.812 26.7138 106.107 26.7986 106.372 26.9681C106.631 27.1377 106.835 27.379 106.984 27.692C107.133 27.9985 107.208 28.3605 107.208 28.7778Z" fill="black"/>
</svg>
