<svg width="142" height="70" viewBox="0 0 142 70" fill="none" xmlns="http://www.w3.org/2000/svg">
<path d="M80.8895 15.835V6.92969C78.7409 12.5541 42.3942 13.0228 24.4894 12.5541V15.835H80.8895Z" stroke="#C5C5C5" stroke-width="0.5"/>
<path d="M81.3817 7.30009C81.3817 7.61814 81.1726 7.97854 80.6518 8.37186C80.1367 8.76092 79.3612 9.14689 78.3384 9.5206C76.2958 10.267 73.3258 10.9436 69.6388 11.5134C62.2687 12.6524 52.0782 13.358 40.8159 13.358C29.5536 13.358 19.363 12.6524 11.9929 11.5134C8.30587 10.9436 5.33596 10.267 3.29331 9.5206C2.27053 9.14689 1.49505 8.76092 0.979902 8.37186C0.459115 7.97854 0.25 7.61814 0.25 7.30009C0.25 6.98205 0.459115 6.62165 0.979902 6.22833C1.49505 5.83927 2.27053 5.4533 3.29331 5.07959C5.33596 4.33323 8.30587 3.65661 11.9929 3.0868C19.363 1.94778 29.5536 1.24219 40.8159 1.24219C52.0782 1.24219 62.2687 1.94778 69.6388 3.0868C73.3258 3.65661 76.2958 4.33323 78.3384 5.07959C79.3612 5.4533 80.1367 5.83927 80.6518 6.22833C81.1726 6.62165 81.3817 6.98205 81.3817 7.30009Z" fill="white" stroke="#C5C5C5" stroke-width="0.5"/>
<path d="M60.6025 7.3005C60.6025 7.33543 60.567 7.44585 60.2941 7.6096C60.0397 7.76231 59.6482 7.91827 59.1207 8.07143C58.0695 8.37664 56.5363 8.65455 54.6273 8.88898C50.8128 9.35743 45.536 9.64787 39.7024 9.64787C33.8689 9.64787 28.592 9.35743 24.7776 8.88898C22.8686 8.65455 21.3354 8.37664 20.2842 8.07143C19.7567 7.91827 19.3652 7.76231 19.1107 7.6096C18.8379 7.44585 18.8024 7.33543 18.8024 7.3005C18.8024 7.26556 18.8379 7.15514 19.1107 6.9914C19.3652 6.83869 19.7567 6.68272 20.2842 6.52957C21.3354 6.22436 22.8686 5.94645 24.7776 5.71201C28.592 5.24357 33.8689 4.95312 39.7024 4.95312C45.536 4.95312 50.8128 5.24357 54.6273 5.71201C56.5363 5.94645 58.0695 6.22436 59.1207 6.52957C59.6482 6.68272 60.0397 6.83869 60.2941 6.9914C60.567 7.15514 60.6025 7.26556 60.6025 7.3005Z" fill="#D9D9D9" stroke="#C5C5C5" stroke-width="0.5"/>
<path d="M0.734238 57.3677L0.371002 7.67188C34.1327 19.5384 82.0035 15.3132 93.2275 15.3132H140C140.552 15.3132 141 15.7609 141 16.3132V67.3261C141 67.8783 140.552 68.3261 140 68.3261H108.043C90.2344 68.4759 50.605 69.7617 34.8629 68.3261C17.7567 66.7659 6.85709 62.1652 1.64504 59.0065C1.07352 58.6601 0.739122 58.036 0.734238 57.3677Z" fill="white" stroke="#C5C5C5" stroke-width="0.5"/>
<rect x="69.0161" y="21.7695" width="59.3685" height="40.0737" fill="#ED3237"/>
<path d="M109.992 42.5791L109.992 50.5625L104.959 50.5625L104.959 49.0442L108.192 49.0442L108.192 47.1953L105.424 47.1953L105.424 45.6769L108.192 45.6769L108.192 42.5791L109.992 42.5791Z" fill="black"/>
<path d="M103.326 42.5791L103.326 50.5625L101.526 50.5625L101.526 42.5791L103.326 42.5791Z" fill="black"/>
<path d="M98.0141 42.5791L100.426 50.5625L98.5162 50.5625L97.5611 46.8402C97.4386 46.4075 97.3325 45.9831 97.2427 45.5667C97.1448 45.1504 97.0346 44.7219 96.9121 44.2811L96.8631 44.2811C96.7489 44.7219 96.6427 45.1504 96.5448 45.5667C96.4468 45.9831 96.3407 46.4075 96.2264 46.8402L95.2836 50.5625L93.4469 50.5625L95.8469 42.5791L98.0141 42.5791Z" fill="black"/>
<path d="M92.349 42.5791L92.349 50.5625L87.3533 50.5625L87.3533 49.0442L90.5491 49.0442L90.5491 47.4401L87.8308 47.4401L87.8308 45.9341L90.5491 45.9341L90.5491 44.0974L87.2308 44.0974L87.2308 42.5791L92.349 42.5791Z" fill="black"/>
<path d="M113.449 33.7575L113.449 40.1569L112.999 40.1569L112.999 34.146L110.025 34.146L110.025 33.7575L113.449 33.7575Z" fill="black"/>
<path d="M107.72 37.5253L108.131 36.3309L105.842 36.3309L106.253 37.5253C106.383 37.9073 106.507 38.273 106.625 38.6226C106.742 38.9722 106.856 39.3444 106.967 39.7393L107.006 39.7393C107.117 39.3444 107.231 38.9722 107.349 38.6226C107.466 38.273 107.59 37.9073 107.72 37.5253ZM109.481 33.7575L107.212 40.1569L106.762 40.1569L104.492 33.7575L104.962 33.7575L105.715 35.9522L108.268 35.9522L109.031 33.7575L109.481 33.7575Z" fill="black"/>
<path d="M103.266 33.7575L103.266 40.1569L101.525 40.1569C100.872 40.1569 100.354 40.0307 99.9692 39.7782C99.5844 39.5322 99.392 39.1405 99.392 38.6032C99.392 38.2665 99.4768 37.972 99.6464 37.7195C99.8159 37.4735 100.064 37.3019 100.39 37.2048L100.39 37.166C99.9724 37.1013 99.6366 36.9362 99.3823 36.6708C99.1279 36.4118 99.0008 36.0622 99.0008 35.622C99.0008 35.007 99.2192 34.5409 99.6562 34.2236C100.087 33.9129 100.667 33.7575 101.397 33.7575L103.266 33.7575ZM102.816 37.3408L101.701 37.3408C101.042 37.3408 100.569 37.4476 100.282 37.6612C99.9887 37.8814 99.842 38.1792 99.842 38.5546C99.842 39.0078 99.9953 39.325 100.302 39.5063C100.608 39.694 101.058 39.7879 101.652 39.7879L102.816 39.7879L102.816 37.3408ZM102.816 34.1265L101.515 34.1265C100.876 34.1265 100.37 34.2463 99.9985 34.4858C99.6268 34.7254 99.4409 35.1008 99.4409 35.6123C99.4409 36.0719 99.6235 36.4118 99.9887 36.6319C100.347 36.8585 100.856 36.9718 101.515 36.9718L102.816 36.9718L102.816 34.1265Z" fill="black"/>
<path d="M97.4148 33.7575L97.4148 40.1569L93.8835 40.1569L93.8835 39.7685L96.9648 39.7685L96.9648 37.3505L94.3824 37.3505L94.3824 36.9621L96.9648 36.9621L96.9648 34.146L93.7857 34.146L93.7857 33.7575L97.4148 33.7575Z" fill="black"/>
<path d="M92.1848 33.7575L92.1848 40.1569L91.7348 40.1569L91.7348 34.146L88.7611 34.146L88.7611 33.7575L92.1848 33.7575Z" fill="black"/>
<path d="M85.9219 33.641C86.3914 33.641 86.8088 33.7316 87.174 33.9129C87.5392 34.0942 87.849 34.324 88.1033 34.6024L87.8098 34.9131C87.5751 34.6542 87.2946 34.4438 86.9686 34.2819C86.6425 34.1265 86.2936 34.0488 85.9219 34.0488C85.4263 34.0488 85.035 34.1686 84.748 34.4081C84.4611 34.6477 84.3176 34.9552 84.3176 35.3307C84.3176 35.5961 84.3698 35.8097 84.4741 35.9716C84.5785 36.1334 84.7187 36.2661 84.8948 36.3697C85.0643 36.4798 85.2567 36.5801 85.4719 36.6707L86.4501 37.1077C86.6327 37.1919 86.8284 37.2955 87.0371 37.4185C87.2392 37.548 87.412 37.713 87.5555 37.9137C87.6924 38.1209 87.7609 38.3831 87.7609 38.7003C87.7609 39.011 87.6794 39.2829 87.5164 39.516C87.3533 39.7555 87.1316 39.94 86.8512 40.0695C86.5642 40.2055 86.2414 40.2734 85.8828 40.2734C85.498 40.2734 85.1524 40.1957 84.8459 40.0404C84.5393 39.8915 84.2883 39.7134 84.0926 39.5063L84.347 39.215C84.5361 39.4092 84.7578 39.5646 85.0121 39.6811C85.2665 39.8041 85.5567 39.8656 85.8828 39.8656C86.3067 39.8656 86.6523 39.762 86.9197 39.5548C87.1805 39.3477 87.3109 39.0693 87.3109 38.7197C87.3109 38.4737 87.2523 38.273 87.1349 38.1177C87.011 37.9623 86.8642 37.836 86.6947 37.7389C86.5186 37.6418 86.3523 37.5577 86.1958 37.4865L85.2176 37.0592C84.9763 36.9556 84.7546 36.8326 84.5524 36.6902C84.3437 36.5542 84.1774 36.3794 84.0535 36.1658C83.9231 35.9586 83.8579 35.69 83.8579 35.3598C83.8579 35.0361 83.9426 34.7415 84.1122 34.4761C84.2817 34.2172 84.523 34.0132 84.8361 33.8643C85.1426 33.7154 85.5045 33.641 85.9219 33.641Z" fill="black"/>
</svg>
