<svg width="140" height="141" viewBox="0 0 140 141" fill="none" xmlns="http://www.w3.org/2000/svg">
<g clip-path="url(#clip0_2110_32304)">
<path d="M65.981 80.1837V47.4141H49.6709V96.3979H86.484V80.1837H65.981Z" fill="#FFCC29"/>
<path d="M87.9023 97.8078H48.2524V46.0039H67.4008V78.7735H87.9023V97.8078ZM51.0892 94.9877H85.0655V81.5922H64.5626V48.824H51.0878L51.0892 94.9877Z" fill="black"/>
<path d="M83.6527 48.824H80.8159V46.0039H83.6527V48.824ZM77.9791 48.824H75.1423V46.0039H77.9791V48.824ZM72.3056 48.824H69.4688V46.0039H72.3056V48.824ZM49.6112 48.824H46.7744V46.0039H49.6112V48.824ZM43.9376 48.824H41.1008V46.0039H43.9376V48.824ZM38.264 48.824H35.4272V46.0039H38.264V48.824Z" fill="black"/>
<path d="M51.0892 47.1201H48.2524V44.3H51.0892V47.1201ZM51.0892 41.4799H48.2524V38.6597H51.0892V41.4799ZM51.0892 35.8396H48.2524V33.0195H51.0892V35.8396Z" fill="black"/>
<path d="M87.9022 79.7689H85.0654V76.9488H87.9022V79.7689ZM87.9022 74.1287H85.0654V71.3086H87.9022V74.1287Z" fill="black"/>
<path d="M87.9022 105.148H85.0654V107.969H87.9022V105.148Z" fill="black"/>
<path d="M87.9022 99.5117H85.0654V102.332H87.9022V99.5117Z" fill="black"/>
<path d="M51.0892 105.148H48.2524V107.969H51.0892V105.148Z" fill="black"/>
<path d="M51.0892 99.5117H48.2524V102.332H51.0892V99.5117Z" fill="black"/>
<path d="M67.3993 47.1201H64.5625V44.3H67.3993V47.1201ZM67.3993 41.4799H64.5625V38.6597H67.3993V41.4799ZM67.3993 35.8396H64.5625V33.0195H67.3993V35.8396Z" fill="black"/>
<path d="M49.6112 97.8084H46.7744V94.9883H49.6112V97.8084ZM43.9376 97.8084H41.1008V94.9883H43.9376V97.8084ZM38.264 97.8084H35.4272V94.9883H38.264V97.8084Z" fill="black"/>
<path d="M103.242 113.141H31.1792C29.8626 113.141 28.5999 112.621 27.6689 111.695C26.7379 110.77 26.2148 109.515 26.2148 108.206V36.568C26.2148 35.2591 26.7379 34.0038 27.6689 33.0783C28.5999 32.1528 29.8626 31.6328 31.1792 31.6328H103.242C104.559 31.6328 105.822 32.1528 106.753 33.0783C107.684 34.0038 108.207 35.2591 108.207 36.568V108.206C108.207 109.515 107.684 110.77 106.753 111.695C105.822 112.621 104.559 113.141 103.242 113.141ZM31.1792 34.4529C30.615 34.4529 30.0738 34.6758 29.6748 35.0724C29.2758 35.4691 29.0516 36.007 29.0516 36.568V108.206C29.0516 108.767 29.2758 109.305 29.6748 109.701C30.0738 110.098 30.615 110.321 31.1792 110.321H103.242C103.807 110.321 104.348 110.098 104.747 109.701C105.146 109.305 105.37 108.767 105.37 108.206V36.568C105.37 36.007 105.146 35.4691 104.747 35.0724C104.348 34.6758 103.807 34.4529 103.242 34.4529H31.1792Z" fill="black"/>
<path d="M103.413 29.9607L102.413 30.9547C101.374 31.9872 101.374 33.6612 102.413 34.6937L119.027 51.21C120.066 52.2425 121.75 52.2425 122.788 51.21L123.788 50.2159C124.827 49.1834 124.827 47.5094 123.788 46.4769L107.174 29.9607C106.135 28.9282 104.452 28.9282 103.413 29.9607Z" fill="#FFCC29"/>
<path d="M120.907 53.3976C120.372 53.3989 119.841 53.2946 119.346 53.0908C118.852 52.887 118.402 52.5877 118.025 52.2103L101.415 35.7C101.037 35.3235 100.736 34.8766 100.531 34.3848C100.326 33.8929 100.221 33.3657 100.221 32.8333C100.221 32.3009 100.326 31.7738 100.531 31.2819C100.736 30.7901 101.037 30.3431 101.415 29.9667L102.408 28.9726C102.787 28.5961 103.237 28.2975 103.731 28.0938C104.226 27.89 104.756 27.7852 105.292 27.7852C105.827 27.7852 106.358 27.89 106.853 28.0938C107.347 28.2975 107.797 28.5961 108.176 28.9726L124.791 45.4843C125.554 46.2449 125.983 47.2756 125.983 48.3503C125.983 49.4249 125.554 50.4556 124.791 51.2162L123.798 52.2032C123.42 52.583 122.969 52.8841 122.473 53.0892C121.977 53.2942 121.444 53.3991 120.907 53.3976ZM105.293 30.5998C105.13 30.5993 104.969 30.631 104.818 30.6929C104.667 30.7549 104.53 30.8459 104.415 30.9608L103.422 31.9549C103.19 32.1862 103.059 32.4999 103.059 32.827C103.059 33.1541 103.19 33.4678 103.422 33.6991L120.03 50.2235C120.263 50.4547 120.579 50.5846 120.908 50.5846C121.237 50.5846 121.552 50.4547 121.785 50.2235L122.778 49.2294C123.01 48.9979 123.141 48.6843 123.141 48.3573C123.141 48.0304 123.01 47.7167 122.778 47.4852L106.17 30.9608C106.055 30.846 105.918 30.7551 105.768 30.6931C105.618 30.6311 105.456 30.5994 105.293 30.5998Z" fill="black"/>
<path d="M113.877 57.1326L115.506 47.7064L105.934 38.1914L96.4509 39.8158C95.6181 39.9581 94.8425 40.3311 94.2134 40.8921C93.5844 41.4531 93.1274 42.1793 92.895 42.987L85.7747 67.7532L110.687 60.6733C111.501 60.4419 112.232 59.9867 112.796 59.3603C113.36 58.7339 113.735 57.9616 113.877 57.1326Z" fill="#FFCC29"/>
<path d="M106.418 36.6875L96.2128 38.4289C95.1179 38.6196 94.0988 39.1118 93.2714 39.8496C92.4439 40.5875 91.8413 41.5413 91.5321 42.6027L83.7068 69.8167L111.082 62.0388C112.149 61.7313 113.109 61.1322 113.851 60.3096C114.593 59.487 115.088 58.474 115.28 57.3857L117.032 47.2333L106.418 36.6875ZM112.479 56.9006C112.379 57.4662 112.121 57.9926 111.735 58.42C111.35 58.8475 110.851 59.1589 110.296 59.3188L91.281 64.7222L101.735 54.3315C102.72 54.744 103.818 54.8032 104.843 54.4992C105.867 54.1952 106.753 53.5467 107.35 52.6648C107.946 51.7829 108.215 50.7224 108.112 49.6647C108.009 48.607 107.539 47.6179 106.783 46.8667C106.026 46.1155 105.031 45.6489 103.967 45.5467C102.903 45.4445 101.837 45.713 100.95 46.3064C100.063 46.8998 99.4113 47.7811 99.106 48.7995C98.8008 49.8179 98.861 50.9102 99.2765 51.8893L88.8244 62.28L94.2611 43.3754C94.4212 42.8238 94.7341 42.328 95.1639 41.9446C95.5937 41.5611 96.1233 41.3055 96.6922 41.2067L105.451 39.7107L113.984 48.1935L112.479 56.9006Z" fill="black"/>
</g>
<defs>
<clipPath id="clip0_2110_32304">
<rect width="140" height="139.176" fill="white" transform="translate(0 0.871094)"/>
</clipPath>
</defs>
</svg>
