<svg width="191" height="165" viewBox="0 0 191 165" fill="none" xmlns="http://www.w3.org/2000/svg">
<path d="M32.5564 121.006L132.956 121.007L183.713 124.612C187.76 124.9 190.897 128.267 190.897 132.325C190.897 138.293 187.092 143.596 181.439 145.508L158.694 153.201C157.225 153.698 155.803 154.324 154.444 155.071L148.492 158.344C138.441 163.871 126.796 165.774 115.509 163.734L61.6857 154.007C57.1642 153.19 52.5307 153.213 48.0174 154.075C36.3493 156.302 24.2996 155.404 13.0909 151.47L7.3333 149.45C6.89647 149.296 6.48863 149.07 6.12694 148.782C-2.78367 141.663 -0.650663 127.568 9.96734 123.405L15.2021 121.352C15.7858 121.124 16.4073 121.006 17.0343 121.006L32.5564 121.006Z" fill="#F3F3F3"/>
<path d="M19 141V12.599L49.5687 1H166V127.275L146.797 141H19Z" fill="white"/>
<path d="M19 12.599V141H146.797M19 12.599H146.797M19 12.599L49.5687 1H166M146.797 141L166 127.275V1M146.797 141V12.599M166 1L146.797 12.599" stroke="#C5C5C5" stroke-linecap="round"/>
<rect x="35.4224" y="41" width="96.4732" height="63.5311" fill="#0098DA"/>
<path d="M75.4233 63.2401L83.6279 71.8458C84.0741 72.3138 84.8404 72.2417 85.1915 71.6987L98.9534 50.4102" stroke="white" stroke-width="2" stroke-linecap="round"/>
<path d="M58.3992 95.1205C57.6249 95.1205 56.8741 94.9759 56.1468 94.6867C55.4312 94.3975 54.7977 93.9868 54.2463 93.4546L55.4429 92.0838C55.8535 92.4656 56.3228 92.7779 56.8507 93.0208C57.3786 93.2522 57.9065 93.3679 58.4344 93.3679C59.0913 93.3679 59.5899 93.2349 59.9301 92.9688C60.2703 92.7027 60.4404 92.3499 60.4404 91.9103C60.4404 91.436 60.2703 91.0947 59.9301 90.8865C59.6016 90.6782 59.1793 90.4642 58.6631 90.2444L57.0794 89.5677C56.704 89.4057 56.3345 89.1975 55.9708 88.943C55.6189 88.6885 55.3256 88.3646 55.091 87.9712C54.8681 87.5779 54.7566 87.1036 54.7566 86.5483C54.7566 85.9468 54.9209 85.4089 55.2494 84.9345C55.5896 84.4487 56.0471 84.0669 56.6219 83.7893C57.2085 83.5001 57.8771 83.3555 58.6279 83.3555C59.2966 83.3555 59.9418 83.4885 60.5636 83.7546C61.1853 84.0091 61.7191 84.3561 62.1649 84.7957L61.1267 86.0798C60.763 85.779 60.3759 85.5419 59.9653 85.3684C59.5664 85.1948 59.1207 85.1081 58.6279 85.1081C58.0883 85.1081 57.6484 85.2295 57.3082 85.4725C56.9797 85.7038 56.8155 86.0278 56.8155 86.4442C56.8155 86.7334 56.8976 86.9764 57.0618 87.173C57.2378 87.3581 57.4666 87.5201 57.7481 87.6589C58.0296 87.7862 58.3288 87.9134 58.6455 88.0407L60.2117 88.6827C60.8921 88.9719 61.4493 89.3537 61.8833 89.828C62.3174 90.2907 62.5344 90.9327 62.5344 91.7541C62.5344 92.3672 62.3702 92.9283 62.0417 93.4373C61.7132 93.9463 61.2381 94.357 60.6164 94.6693C60.0064 94.9701 59.2673 95.1205 58.3992 95.1205Z" fill="white"/>
<path d="M67.0202 95.1205C66.0935 95.1205 65.4189 94.8255 64.9966 94.2355C64.5743 93.6455 64.3631 92.8126 64.3631 91.7367V86.3922H66.3868V91.4765C66.3868 92.1821 66.4923 92.6796 66.7035 92.9688C66.9147 93.258 67.2549 93.4026 67.7241 93.4026C68.0995 93.4026 68.428 93.31 68.7095 93.125C69.0028 92.9399 69.3137 92.6391 69.6422 92.2226V86.3922H71.6658V94.9123H70.0117L69.8533 93.6629H69.8005C69.4251 94.1025 69.0145 94.4553 68.5688 94.7214C68.123 94.9875 67.6068 95.1205 67.0202 95.1205Z" fill="white"/>
<path d="M77.8364 95.1205C77.0504 95.1205 76.3406 94.947 75.7071 94.5999C75.0854 94.2413 74.5868 93.7323 74.2114 93.0729C73.8477 92.4019 73.6659 91.5979 73.6659 90.6609C73.6659 89.7123 73.8653 88.9083 74.2642 88.2489C74.6631 87.5779 75.191 87.0689 75.8479 86.7219C76.5166 86.3632 77.2322 86.1839 77.9947 86.1839C78.5461 86.1839 79.0271 86.2765 79.4377 86.4616C79.8483 86.6467 80.2119 86.8723 80.5287 87.1383L79.5432 88.4398C79.3204 88.2431 79.0916 88.0927 78.857 87.9886C78.6223 87.8729 78.3701 87.8151 78.1003 87.8151C77.4082 87.8151 76.8392 88.0754 76.3934 88.5959C75.9594 89.1165 75.7423 89.8048 75.7423 90.6609C75.7423 91.5054 75.9535 92.1879 76.3758 92.7085C76.8099 93.2291 77.3671 93.4894 78.0475 93.4894C78.3877 93.4894 78.7045 93.4199 78.9977 93.2811C79.3028 93.1307 79.5784 92.9572 79.8248 92.7605L80.6518 94.0793C80.253 94.4264 79.8072 94.6867 79.3145 94.8602C78.8218 95.0337 78.3291 95.1205 77.8364 95.1205Z" fill="white"/>
<path d="M85.535 95.1205C84.749 95.1205 84.0392 94.947 83.4057 94.5999C82.784 94.2413 82.2854 93.7323 81.91 93.0729C81.5463 92.4019 81.3645 91.5979 81.3645 90.6609C81.3645 89.7123 81.5639 88.9083 81.9628 88.2489C82.3617 87.5779 82.8896 87.0689 83.5465 86.7219C84.2152 86.3632 84.9308 86.1839 85.6933 86.1839C86.2447 86.1839 86.7257 86.2765 87.1363 86.4616C87.5469 86.6467 87.9105 86.8723 88.2273 87.1383L87.2418 88.4398C87.0189 88.2431 86.7902 88.0927 86.5556 87.9886C86.3209 87.8729 86.0687 87.8151 85.7989 87.8151C85.1068 87.8151 84.5378 88.0754 84.092 88.5959C83.658 89.1165 83.4409 89.8048 83.4409 90.6609C83.4409 91.5054 83.6521 92.1879 84.0744 92.7085C84.5085 93.2291 85.0657 93.4894 85.7461 93.4894C86.0863 93.4894 86.4031 93.4199 86.6963 93.2811C87.0014 93.1307 87.277 92.9572 87.5234 92.7605L88.3504 94.0793C87.9516 94.4264 87.5058 94.6867 87.0131 94.8602C86.5204 95.0337 86.0277 95.1205 85.535 95.1205Z" fill="white"/>
<path d="M93.3215 95.1205C92.5238 95.1205 91.8023 94.947 91.1571 94.5999C90.5119 94.2413 90.0016 93.7323 89.6262 93.0729C89.2508 92.4019 89.0631 91.5979 89.0631 90.6609C89.0631 89.7354 89.2508 88.9372 89.6262 88.2662C90.0133 87.5953 90.5119 87.0805 91.1219 86.7219C91.732 86.3632 92.3713 86.1839 93.04 86.1839C93.826 86.1839 94.4829 86.3575 95.0108 86.7045C95.5387 87.04 95.9376 87.5143 96.2074 88.1274C96.4772 88.729 96.6121 89.4289 96.6121 90.2271C96.6121 90.6435 96.5828 90.9675 96.5241 91.1988H91.0339C91.1278 91.9508 91.4035 92.535 91.861 92.9514C92.3185 93.3679 92.8933 93.5761 93.5855 93.5761C93.9609 93.5761 94.3069 93.5241 94.6237 93.4199C94.9522 93.3043 95.2748 93.1481 95.5915 92.9514L96.2778 94.2008C95.8672 94.4669 95.4097 94.6867 94.9052 94.8602C94.4008 95.0337 93.8729 95.1205 93.3215 95.1205ZM91.0164 89.8453H94.8525C94.8525 89.1859 94.7058 88.6711 94.4125 88.3009C94.1193 87.9192 93.6793 87.7283 93.0928 87.7283C92.5883 87.7283 92.1367 87.9134 91.7378 88.2836C91.3507 88.6422 91.1102 89.1628 91.0164 89.8453Z" fill="white"/>
<path d="M100.956 95.1205C100.369 95.1205 99.7825 95.0106 99.196 94.7908C98.6094 94.5594 98.105 94.276 97.6827 93.9405L98.6329 92.6564C99.02 92.9456 99.4071 93.177 99.7943 93.3505C100.181 93.5241 100.592 93.6108 101.026 93.6108C101.495 93.6108 101.841 93.5125 102.064 93.3158C102.287 93.1192 102.399 92.8762 102.399 92.587C102.399 92.3441 102.305 92.1474 102.117 91.997C101.941 91.8351 101.712 91.6963 101.431 91.5806C101.149 91.4533 100.856 91.3319 100.551 91.2162C100.176 91.0774 99.8001 90.9096 99.4247 90.7129C99.0611 90.5047 98.7619 90.2444 98.5273 89.9321C98.2927 89.6082 98.1754 89.2091 98.1754 88.7348C98.1754 87.9828 98.4569 87.3697 99.02 86.8954C99.5831 86.4211 100.346 86.1839 101.308 86.1839C101.918 86.1839 102.463 86.288 102.944 86.4963C103.425 86.7045 103.842 86.9417 104.193 87.2077L103.261 88.4224C102.956 88.2026 102.645 88.0291 102.328 87.9018C102.023 87.763 101.701 87.6936 101.36 87.6936C100.926 87.6936 100.604 87.7862 100.393 87.9712C100.181 88.1448 100.076 88.3646 100.076 88.6306C100.076 88.9661 100.252 89.2206 100.604 89.3942C100.956 89.5677 101.366 89.7354 101.835 89.8974C102.234 90.0362 102.621 90.2097 102.997 90.418C103.372 90.6146 103.683 90.8749 103.93 91.1988C104.188 91.5227 104.317 91.9508 104.317 92.4829C104.317 93.2117 104.029 93.8364 103.454 94.357C102.88 94.866 102.047 95.1205 100.956 95.1205Z" fill="white"/>
<path d="M108.534 95.1205C107.947 95.1205 107.361 95.0106 106.774 94.7908C106.188 94.5594 105.683 94.276 105.261 93.9405L106.211 92.6564C106.598 92.9456 106.985 93.177 107.373 93.3505C107.76 93.5241 108.17 93.6108 108.604 93.6108C109.074 93.6108 109.42 93.5125 109.643 93.3158C109.865 93.1192 109.977 92.8762 109.977 92.587C109.977 92.3441 109.883 92.1474 109.695 91.997C109.519 91.8351 109.291 91.6963 109.009 91.5806C108.728 91.4533 108.434 91.3319 108.129 91.2162C107.754 91.0774 107.378 90.9096 107.003 90.7129C106.639 90.5047 106.34 90.2444 106.106 89.9321C105.871 89.6082 105.754 89.2091 105.754 88.7348C105.754 87.9828 106.035 87.3697 106.598 86.8954C107.161 86.4211 107.924 86.1839 108.886 86.1839C109.496 86.1839 110.041 86.288 110.522 86.4963C111.003 86.7045 111.42 86.9417 111.772 87.2077L110.839 88.4224C110.534 88.2026 110.223 88.0291 109.907 87.9018C109.602 87.763 109.279 87.6936 108.939 87.6936C108.505 87.6936 108.182 87.7862 107.971 87.9712C107.76 88.1448 107.654 88.3646 107.654 88.6306C107.654 88.9661 107.83 89.2206 108.182 89.3942C108.534 89.5677 108.945 89.7354 109.414 89.8974C109.813 90.0362 110.2 90.2097 110.575 90.418C110.951 90.6146 111.261 90.8749 111.508 91.1988C111.766 91.5227 111.895 91.9508 111.895 92.4829C111.895 93.2117 111.608 93.8364 111.033 94.357C110.458 94.866 109.625 95.1205 108.534 95.1205Z" fill="white"/>
</svg>
