<svg width="133" height="103" viewBox="0 0 133 103" fill="none" xmlns="http://www.w3.org/2000/svg">
<path d="M84.8326 22.6779V12.3331M84.8326 12.3331H99.3498C99.9021 12.3331 100.35 12.7808 100.35 13.3331V22.6779M84.8326 12.3331H79.5107C78.9585 12.3331 78.5107 11.8854 78.5107 11.3331V2.98828C78.5107 2.436 78.9585 1.98828 79.5107 1.98828H105.097C105.649 1.98828 106.097 2.436 106.097 2.98828V11.3331C106.097 11.8854 105.649 12.3331 105.097 12.3331H84.8326Z" stroke="black" stroke-width="2" stroke-linecap="round"/>
<circle cx="92.2299" cy="62.2182" r="39.2299" stroke="black" stroke-width="2"/>
<circle cx="92.2298" cy="62.2191" r="31.1839" stroke="black" stroke-width="2"/>
<path d="M70.4648 39.918L74.4878 44.5157" stroke="black" stroke-width="2" stroke-linecap="round"/>
<path d="M114.805 40.0312L110.782 44.629" stroke="black" stroke-width="2" stroke-linecap="round"/>
<path d="M61.1572 62.5117L67.244 61.988" stroke="black" stroke-width="2" stroke-linecap="round"/>
<path d="M123.391 62.8398L117.304 62.3162" stroke="black" stroke-width="2" stroke-linecap="round"/>
<path d="M69.7371 83.4844L73.8879 79.0017" stroke="black" stroke-width="2" stroke-linecap="round"/>
<path d="M113.988 83.5781L109.545 79.3842" stroke="black" stroke-width="2" stroke-linecap="round"/>
<path d="M91.9402 93.1523L91.8074 87.0445" stroke="black" stroke-width="2" stroke-linecap="round"/>
<path d="M96.7856 61.7486L93.237 38.8931C93.2008 38.6596 92.8652 38.6575 92.826 38.8906L89.0063 61.6001C88.9072 62.1897 88.9446 62.7992 89.1129 63.3729C90.2509 67.251 95.8237 67.1714 96.7317 63.2332C96.8439 62.7462 96.8622 62.2424 96.7856 61.7486Z" stroke="black" stroke-width="2" stroke-linecap="round"/>
<path d="M1 35.6836H46.1087" stroke="black" stroke-width="2" stroke-linecap="round"/>
<path d="M27.0869 72.6406H45.5652" stroke="black" stroke-width="2" stroke-linecap="round"/>
<path d="M10.7827 54.1641L37.9566 54.1641" stroke="black" stroke-width="2" stroke-linecap="round"/>
</svg>
