<svg width="147" height="96" viewBox="0 0 147 96" fill="none" xmlns="http://www.w3.org/2000/svg">
<path d="M0 40.4804V91.9692C0 94.1963 1.80152 96.0017 4.02381 96.0017H36.8333C39.0556 96.0017 40.8571 94.1963 40.8571 91.9692V40.4804C40.8571 35.7029 39.0828 31.0965 35.8797 27.5582L33.3613 24.7762C29.6933 20.7243 27.6614 15.4492 27.6614 9.97822V0.644531H13.1958V9.97822C13.1958 15.4492 11.1639 20.7243 7.49582 24.7762L4.97742 27.5582C1.77432 31.0965 0 35.7029 0 40.4804Z" fill="white"/>
<path fill-rule="evenodd" clip-rule="evenodd" d="M13.0966 0.644531H27.7606V10.0913C27.7606 15.5068 29.763 20.7285 33.3778 24.7394L35.8773 27.5127C39.082 31.0684 40.8571 35.6976 40.8571 40.4985V91.8271C40.8571 94.1327 39.0004 96.0017 36.71 96.0017H4.14715C1.85675 96.0017 0 94.1327 0 91.8271V40.4985C0 35.6976 1.77518 31.0684 4.97983 27.5127L7.4793 24.7394C11.0941 20.7285 13.0966 15.5068 13.0966 10.0913V0.644531ZM13.4037 0.953759V10.0913C13.4037 15.5837 11.3729 20.8794 7.70682 24.9472L5.20735 27.7205C2.05397 31.2193 0.307197 35.7744 0.307197 40.4985V91.8271C0.307197 93.9619 2.02641 95.6924 4.14715 95.6924H36.71C38.8307 95.6924 40.5499 93.9619 40.5499 91.8271V40.4985C40.5499 35.7744 38.8032 31.2193 35.6498 27.7205L33.1503 24.9472C29.4842 20.8794 27.4534 15.5837 27.4534 10.0913V0.953759H13.4037Z" fill="#C5C5C5"/>
<path d="M12.0714 0.928571C12.0714 0.415735 12.5031 0 13.0357 0H27.8214C28.354 0 28.7857 0.415736 28.7857 0.928571V4.64286C28.7857 5.15569 28.354 5.57143 27.8214 5.57143H20.4286H13.0357C12.5031 5.57143 12.0714 5.15569 12.0714 4.64286V0.928571Z" fill="white"/>
<path fill-rule="evenodd" clip-rule="evenodd" d="M27.8214 0.309524H13.0357C12.6807 0.309524 12.3928 0.586681 12.3928 0.928571V4.64286C12.3928 4.98475 12.6807 5.26191 13.0357 5.26191H27.8214C28.1765 5.26191 28.4643 4.98475 28.4643 4.64286V0.928571C28.4643 0.586681 28.1765 0.309524 27.8214 0.309524ZM13.0357 0C12.5031 0 12.0714 0.415735 12.0714 0.928571V4.64286C12.0714 5.15569 12.5031 5.57143 13.0357 5.57143H27.8214C28.354 5.57143 28.7857 5.15569 28.7857 4.64286V0.928571C28.7857 0.415736 28.354 0 27.8214 0H13.0357Z" fill="#C5C5C5"/>
<path fill-rule="evenodd" clip-rule="evenodd" d="M27.8571 6.49888L13 6.49888L13 5.57031L27.8571 5.57031L27.8571 6.49888Z" fill="#C5C5C5"/>
<path d="M66.1108 38.835V29.9297C68.2593 35.5541 104.606 36.0228 122.511 35.5541V38.835H66.1108Z" stroke="#C5C5C5" stroke-width="0.5"/>
<path d="M65.6185 30.3001C65.6185 30.6181 65.8276 30.9785 66.3484 31.3719C66.8636 31.7609 67.6391 32.1469 68.6618 32.5206C70.7045 33.267 73.6744 33.9436 77.3614 34.5134C84.7315 35.6524 94.9221 36.358 106.184 36.358C117.447 36.358 127.637 35.6524 135.007 34.5134C138.694 33.9436 141.664 33.267 143.707 32.5206C144.73 32.1469 145.505 31.7609 146.02 31.3719C146.541 30.9785 146.75 30.6181 146.75 30.3001C146.75 29.982 146.541 29.6216 146.02 29.2283C145.505 28.8393 144.73 28.4533 143.707 28.0796C141.664 27.3332 138.694 26.6566 135.007 26.0868C127.637 24.9478 117.447 24.2422 106.184 24.2422C94.9221 24.2422 84.7315 24.9478 77.3614 26.0868C73.6744 26.6566 70.7045 27.3332 68.6618 28.0796C67.6391 28.4533 66.8636 28.8393 66.3484 29.2283C65.8276 29.6216 65.6185 29.982 65.6185 30.3001Z" fill="white" stroke="#C5C5C5" stroke-width="0.5"/>
<path d="M86.3978 30.3005C86.3978 30.3354 86.4333 30.4459 86.7061 30.6096C86.9606 30.7623 87.3521 30.9183 87.8796 31.0714C88.9308 31.3766 90.464 31.6545 92.373 31.889C96.1875 32.3574 101.464 32.6479 107.298 32.6479C113.131 32.6479 118.408 32.3574 122.223 31.889C124.132 31.6545 125.665 31.3766 126.716 31.0714C127.244 30.9183 127.635 30.7623 127.89 30.6096C128.162 30.4459 128.198 30.3354 128.198 30.3005C128.198 30.2656 128.162 30.1551 127.89 29.9914C127.635 29.8387 127.244 29.6827 126.716 29.5296C125.665 29.2244 124.132 28.9464 122.223 28.712C118.408 28.2436 113.131 27.9531 107.298 27.9531C101.464 27.9531 96.1875 28.2436 92.373 28.712C90.464 28.9464 88.9308 29.2244 87.8796 29.5296C87.3521 29.6827 86.9606 29.8387 86.7061 29.9914C86.4333 30.1551 86.3978 30.2656 86.3978 30.3005Z" fill="#D9D9D9" stroke="#C5C5C5" stroke-width="0.5"/>
<path d="M146.266 80.3677L146.629 30.6719C112.868 42.5384 64.9968 38.3132 53.7728 38.3132H7.00011C6.44781 38.3132 6.00011 38.7609 6.00011 39.3132V90.3261C6.00011 90.8783 6.44781 91.3261 7.00011 91.3261H38.9572C56.7659 91.4759 96.3953 92.7617 112.137 91.3261C129.244 89.7659 140.143 85.1652 145.355 82.0065C145.927 81.6601 146.261 81.036 146.266 80.3677Z" fill="white" stroke="#C5C5C5" stroke-width="0.5"/>
<rect width="45" height="36" transform="matrix(-4.37114e-08 1 1 4.37114e-08 18.0001 42)" fill="#ED3237"/>
<path d="M35.3186 75.8008L27.3352 75.8008L27.3352 70.7683L28.8535 70.7683L28.8535 74.0008L30.7024 74.0008L30.7024 71.2336L32.2208 71.2336L32.2208 74.0008L35.3186 74.0008L35.3186 75.8008Z" fill="black"/>
<path d="M35.3186 69.1347L27.3352 69.1347L27.3352 67.3348L35.3186 67.3348L35.3186 69.1347Z" fill="black"/>
<path d="M35.3186 63.8233L27.3352 66.2354L27.3352 64.3253L31.0575 63.3702C31.4902 63.2478 31.9146 63.1417 32.331 63.0519C32.7473 62.9539 33.1758 62.8437 33.6166 62.7213L33.6166 62.6723C33.1758 62.558 32.7473 62.4519 32.331 62.3539C31.9146 62.256 31.4902 62.1499 31.0575 62.0356L27.3352 61.0927L27.3352 59.2561L35.3186 61.656L35.3186 63.8233Z" fill="black"/>
<path d="M35.3186 58.1582L27.3352 58.1582L27.3352 53.1624L28.8535 53.1624L28.8535 56.3582L30.4576 56.3582L30.4576 53.64L31.9636 53.64L31.9636 56.3582L33.8003 56.3582L33.8003 53.04L35.3186 53.04L35.3186 58.1582Z" fill="black"/>
<path d="M44.1393 79.2578L37.7399 79.2578L37.7399 78.8078L43.7508 78.8078L43.7508 75.8341L44.1393 75.8341L44.1393 79.2578Z" fill="black"/>
<path d="M40.3715 73.5293L41.5659 73.9402L41.5659 71.6511L40.3715 72.062C39.9895 72.1924 39.6238 72.3163 39.2742 72.4337C38.9246 72.5511 38.5523 72.6652 38.1574 72.7761L38.1574 72.8152C38.5523 72.9261 38.9246 73.0402 39.2742 73.1576C39.6238 73.275 39.9895 73.3989 40.3715 73.5293ZM44.1393 75.2901L37.7399 73.0206L37.7399 72.5707L44.1393 70.3012L44.1393 70.7707L41.9446 71.524L41.9446 74.0771L44.1393 74.8401L44.1393 75.2901Z" fill="black"/>
<path d="M44.1393 69.0748L37.7399 69.0748L37.7399 67.3336C37.7399 66.6815 37.8661 66.163 38.1186 65.7783C38.3646 65.3935 38.7563 65.2011 39.2936 65.2011C39.6302 65.2011 39.9248 65.2859 40.1773 65.4555C40.4233 65.625 40.5948 65.8728 40.6919 66.1989L40.7308 66.1989C40.7955 65.7815 40.9606 65.4457 41.226 65.1913C41.485 64.937 41.8346 64.8098 42.2748 64.8098C42.8898 64.8098 43.3559 65.0283 43.6731 65.4652C43.9839 65.8956 44.1393 66.4761 44.1393 67.2065L44.1393 69.0748ZM40.556 68.6249L40.556 67.5097C40.556 66.851 40.4492 66.3782 40.2355 66.0913C40.0154 65.7978 39.7176 65.6511 39.3422 65.6511C38.889 65.6511 38.5718 65.8043 38.3905 66.1109C38.2028 66.4174 38.1089 66.8673 38.1089 67.4608L38.1089 68.6249L40.556 68.6249ZM43.7703 68.6249L43.7703 67.3238C43.7703 66.6847 43.6505 66.1793 43.411 65.8076C43.1714 65.4359 42.7959 65.25 42.2845 65.25C41.8249 65.25 41.485 65.4326 41.2649 65.7978C41.0383 66.1565 40.925 66.6652 40.925 67.3238L40.925 68.6249L43.7703 68.6249Z" fill="black"/>
<path d="M44.1393 63.2239L37.7399 63.2239L37.7399 59.6926L38.1283 59.6926L38.1283 62.7739L40.5463 62.7739L40.5463 60.1914L40.9347 60.1914L40.9347 62.7739L43.7508 62.7739L43.7508 59.5947L44.1393 59.5947L44.1393 63.2239Z" fill="black"/>
<path d="M44.1393 57.9939L37.7399 57.9939L37.7399 57.5439L43.7508 57.5439L43.7508 54.5702L44.1393 54.5702L44.1393 57.9939Z" fill="black"/>
<path d="M44.2558 51.731C44.2558 52.2005 44.1652 52.6179 43.9839 52.9831C43.8026 53.3483 43.5728 53.658 43.2944 53.9124L42.9837 53.6189C43.2426 53.3841 43.453 53.1037 43.6149 52.7777C43.7703 52.4516 43.8479 52.1027 43.8479 51.731C43.8479 51.2353 43.7282 50.8441 43.4886 50.5571C43.2491 50.2702 42.9416 50.1267 42.5661 50.1267C42.3007 50.1267 42.0871 50.1789 41.9252 50.2832C41.7634 50.3876 41.6307 50.5278 41.5271 50.7038C41.417 50.8734 41.3167 51.0658 41.226 51.281L40.7891 52.2592C40.7049 52.4418 40.6013 52.6374 40.4783 52.8461C40.3488 53.0483 40.1837 53.2211 39.9831 53.3646C39.7759 53.5015 39.5137 53.57 39.1965 53.57C38.8857 53.57 38.6138 53.4885 38.3808 53.3255C38.1413 53.1624 37.9568 52.9407 37.8273 52.6603C37.6913 52.3733 37.6234 52.0505 37.6234 51.6918C37.6234 51.3071 37.701 50.9614 37.8564 50.6549C38.0053 50.3484 38.1833 50.0974 38.3905 49.9017L38.6818 50.156C38.4876 50.3452 38.3322 50.5669 38.2157 50.8212C38.0927 51.0756 38.0312 51.3658 38.0312 51.6918C38.0312 52.1157 38.1348 52.4614 38.3419 52.7287C38.5491 52.9896 38.8275 53.12 39.1771 53.12C39.4231 53.12 39.6238 53.0613 39.7791 52.944C39.9345 52.82 40.0607 52.6733 40.1579 52.5038C40.255 52.3277 40.3391 52.1614 40.4103 52.0049L40.8376 51.0267C40.9412 50.7854 41.0642 50.5636 41.2066 50.3615C41.3426 50.1528 41.5174 49.9865 41.731 49.8626C41.9382 49.7322 42.2068 49.6669 42.537 49.6669C42.8607 49.6669 43.1552 49.7517 43.4207 49.9213C43.6796 50.0908 43.8835 50.3321 44.0324 50.6452C44.1813 50.9517 44.2558 51.3136 44.2558 51.731Z" fill="black"/>
</svg>
